<?xml version="1.0" standalone="no"?>
<svg xmlns="http://www.w3.org/2000/svg" width="32" height="32"><rect width="32" height="32" opacity="0"></rect><g><path d="M14.62 12.58Q15.07 13.02 15.68 13.02Q16.29 13.02 16.74 12.58L21.06 8.26Q21.5 7.81 21.33 7.28Q21.15 6.75 20.62 6.58Q20.1 6.4 19.65 6.85L16.7 9.79L16.7 2.14Q16.7 1.5 16.21 1.25Q15.71 0.99 15.22 1.25Q14.72 1.5 14.72 2.14L14.72 9.82L11.71 6.85Q11.26 6.4 10.74 6.58Q10.21 6.75 10.03 7.28Q9.86 7.81 10.3 8.26L14.62 12.58Z" fill="rgba(0,0,0,0.9019607843137255)"></path><path d="M29.22 13.57Q29.22 13.18 28.96 12.53Q28.7 11.87 28.16 11.23Q27.62 10.59 26.85 10.27Q26.85 10.27 26.83 10.26Q26.82 10.24 26.82 10.24Q25.95 9.89 24.74 9.47Q23.52 9.06 22.82 8.83L22.62 8.77L20.9 10.5Q22.53 11.01 24.16 11.55Q25.86 12.16 25.98 12.22L16 15.55L5.76 12.22Q6.43 11.94 9.7 10.85L10.46 10.59L8.86 9.02Q8.77 9.02 7.68 9.41Q5.86 10.05 4.99 10.4Q4.1 10.88 3.62 11.36Q3.14 11.84 2.91 12.32Q2.82 12.61 2.78 12.94Q2.75 13.28 2.75 13.57L2.75 24.03Q2.75 25.22 3.42 26.16Q4.1 27.1 5.22 27.49L14.72 30.78Q15.39 31.01 16 31.01Q16.38 31.01 16.72 30.93Q17.06 30.85 17.25 30.78L26.75 27.49Q27.87 27.1 28.54 26.16Q29.22 25.22 29.22 24.03L29.22 13.57ZM5.86 25.57Q5.38 25.41 5.07 24.98Q4.77 24.54 4.77 24L4.77 14.02L14.98 17.34L14.98 28.74L5.86 25.57ZM27.2 24Q27.2 24.54 26.91 24.98Q26.62 25.41 26.11 25.57L16.99 28.74L16.99 17.34L27.2 14.02L27.2 24Z" fill="rgba(0,0,0,0.9019607843137255)"></path></g></svg>