<?xml version="1.0" encoding="UTF-8"?>
<svg width="24px" height="24px" viewBox="0 0 24 24" version="1.1" xmlns="http://www.w3.org/2000/svg" xmlns:xlink="http://www.w3.org/1999/xlink">
    <title>更多连接</title>
    <defs>
        <path d="M10.0700087,9.4935238 L10.1819649,9.49998243 C10.6594101,9.55543693 11.0300087,9.9612014 11.0300087,10.4535238 C11.0300087,10.9837172 10.600202,11.4135238 10.0700087,11.4135238 L10.0700087,11.4135238 L6.23000867,11.4135238 L6.06078679,11.4184128 C4.54897183,11.5060094 3.35000867,12.7597502 3.35000867,14.2935238 C3.35000867,15.8841039 4.63942859,17.1735238 6.23000867,17.1735238 L6.23000867,17.1735238 L10.0700087,17.1735238 L10.1819649,17.1799824 C10.6594101,17.2354369 11.0300087,17.6412014 11.0300087,18.1335238 C11.0300087,18.6637172 10.600202,19.0935238 10.0700087,19.0935238 L10.0700087,19.0935238 L6.23000867,19.0935238 L6.02179463,19.0890891 C3.46742311,18.9800692 1.43000867,16.8747283 1.43000867,14.2935238 C1.43000867,11.642557 3.57904187,9.4935238 6.23000867,9.4935238 L6.23000867,9.4935238 L10.0700087,9.4935238 Z M17.0229437,13.3335238 C17.5531371,13.3335238 17.9829437,13.7633304 17.9829437,14.2935238 C17.9829437,14.7829331 17.6167179,15.1868057 17.1433641,15.246044 L17.0229437,15.2535238 L8.87707361,15.2535238 C8.34688025,15.2535238 7.91707361,14.8237172 7.91707361,14.2935238 C7.91707361,13.8041145 8.28329938,13.4002419 8.75665325,13.3410036 L8.87707361,13.3335238 L17.0229437,13.3335238 Z" id="path-1"></path>
        <path d="M16.7517576,2.44824243 C19.4027244,2.44824243 21.5517576,4.59727563 21.5517576,7.24824243 C21.5517576,9.82944695 19.5143431,11.9347878 16.9599716,12.0438077 L16.7517576,12.0482424 L12.9117576,12.0482424 C12.3815642,12.0482424 11.9517576,11.6184358 11.9517576,11.0882424 C11.9517576,10.59592 12.3223562,10.1901556 12.7998013,10.1347011 L12.9117576,10.1282424 L16.7517576,10.1282424 C18.3423376,10.1282424 19.6317576,8.83882251 19.6317576,7.24824243 C19.6317576,5.71446878 18.4327944,4.46072799 16.9209794,4.37313142 L16.7517576,4.36824243 L12.9117576,4.36824243 C12.3815642,4.36824243 11.9517576,3.93843579 11.9517576,3.40824243 C11.9517576,2.91592002 12.3223562,2.51015556 12.7998013,2.45470105 L12.9117576,2.44824243 L16.7517576,2.44824243 Z" id="path-3"></path>
    </defs>
    <g id="更多连接" stroke="none" stroke-width="1" fill="none" fill-rule="evenodd">
        <g id="WLAN_icon备份-13">
            <rect id="矩形" x="0.48" y="0.48" width="23.04" height="23.04"></rect>
            <mask id="mask-2" fill="white">
                <use xlink:href="#path-1"></use>
            </mask>
            <use id="形状结合" fill="#FF9800" fill-rule="nonzero" transform="translate(9.706476, 14.293524) rotate(-45.000000) translate(-9.706476, -14.293524) " xlink:href="#path-1"></use>
            <mask id="mask-4" fill="white">
                <use xlink:href="#path-3"></use>
            </mask>
            <use id="形状结合" fill="#FF9800" fill-rule="nonzero" transform="translate(16.751758, 7.248242) rotate(-45.000000) translate(-16.751758, -7.248242) " xlink:href="#path-3"></use>
        </g>
    </g>
</svg>