<?xml version="1.0" encoding="UTF-8"?>
<svg width="35px"
     height="36px"
     viewBox="0 0 24 24"
     version="1.1"
     xmlns="http://www.w3.org/2000/svg"
     xmlns:xlink="http://www.w3.org/1999/xlink">
    <title>Artboard</title>
    <g
        id="Artboard"
        stroke="none"
        stroke-width="1"
        fill="none"
        fill-rule="evenodd">
        <path
            d="M6.7,0 C1.8,0 0,1.8 0,6.7 L0,17.2 C0,22.2 1.8,24 6.7,24 L17.2,24 C22.1,24 23.9,22.2 23.9,17.3 L23.9,6.7 C24.1,1.8 22.3,0 17.4,0 L6.7,0 Z"
            id="Path"
            fill="#01C1F2"></path>
        <path
            d="M15,11.8 L14.4,11.8 C14.3,11.5 14.2,11.2 14.1,11 L14.6,10.5 C14.8,10.3 14.8,10 14.6,9.8 C14.4,9.6 14.1,9.6 13.9,9.8 L13.4,10.3 C13.2,10.1 12.9,10 12.6,10 L12.6,9.3 C12.6,9 12.4,8.8 12.1,8.8 C11.8,8.8 11.5,9 11.5,9.3 L11.5,9.9 C11.2,10 10.9,10.1 10.7,10.2 L10.2,9.7 C10,9.5 9.7,9.5 9.5,9.7 C9.3,9.9 9.3,10.2 9.5,10.4 L10,10.9 C9.8,11.1 9.7,11.4 9.7,11.7 L9,11.7 C8.7,11.7 8.5,11.9 8.5,12.2 C8.5,12.5 8.7,12.7 9,12.7 L9.6,12.7 C9.7,13 9.8,13.3 9.9,13.5 L9.5,14 C9.3,14.2 9.3,14.5 9.5,14.7 C9.6,14.8 9.7,14.8 9.9,14.8 C10.1,14.8 10.2,14.8 10.3,14.7 L10.8,14.2 C11,14.4 11.3,14.5 11.6,14.5 L11.6,15.1 C11.6,15.4 11.8,15.6 12.1,15.6 C12.4,15.6 12.6,15.4 12.6,15.1 L12.6,14.5 C12.9,14.4 13.2,14.3 13.4,14.2 L13.9,14.7 C14,14.8 14.1,14.8 14.3,14.8 C14.5,14.8 14.6,14.8 14.7,14.7 C14.9,14.5 14.9,14.2 14.7,14 L14,13.6 C14.2,13.4 14.3,13.1 14.3,12.8 L15,12.8 C15.3,12.8 15.5,12.6 15.5,12.3 C15.5,12 15.3,11.8 15,11.8 Z M12,13.7 L12,10.9 C12.8,10.9 13.4,11.5 13.4,12.3 C13.4,13 12.8,13.7 12,13.7 Z"
            id="Shape"
            fill="#FFFFFF"
            fill-rule="nonzero"></path>
        <path
            d="M15.9,4.5 C16.1,4.5 16.4,4.7 16.4,5 L16.4,17.9 C16.4,18.1 16.2,18.3 15.9,18.3 L8,18.3 C7.8,18.3 7.6,18.1 7.6,17.9 L7.6,5 C7.6,4.8 7.8,4.5 8.1,4.5 L15.9,4.5 M16,3 L7.9,3 C6.9,3 6.1,3.8 6.1,4.8 L6.1,19.2 C6.1,20.2 6.9,21 7.9,21 L16,21 C17,21 17.8,20.2 17.8,19.2 L17.8,4.8 C17.9,3.8 17,3 16,3"
            id="Shape"
            fill="#FFFFFF"></path>
    </g>
</svg>