<?xml version="1.0" encoding="UTF-8"?>
<svg width="35px" height="36px" viewBox="0 0 24 24" version="1.1" xmlns="http://www.w3.org/2000/svg" xmlns:xlink="http://www.w3.org/1999/xlink">
    <title>Artboard</title>
    <g id="Artboard" stroke="none" stroke-width="1" fill="none" fill-rule="evenodd">
        <path d="M6.7,0 C1.8,0 0,1.8 0,6.7 L0,17.2 C0,22.2 1.8,24 6.7,24 L17.2,24 C22.2,24 24,22.2 24,17.3 L24,6.7 C24,1.8 22.2,0 17.3,0 L6.7,0 Z" id="Path" fill="#5595DA" fill-rule="nonzero"></path>
        <path d="M20.4,9.9 C20.2,9.9 20,9.8 19.9,9.7 C15.6,5.4 8.6,5.4 4.2,9.7 C3.9,10 3.4,10 3.1,9.7 C2.8,9.4 2.8,9 3.1,8.7 C8,3.8 16,3.8 20.9,8.7 C21.2,9 21.2,9.5 20.9,9.8 C20.7,9.9 20.5,9.9 20.4,9.9 Z" id="Path" fill="#FFFFFF" fill-rule="nonzero"></path>
        <path d="M18,12.4 C17.8,12.4 17.6,12.3 17.5,12.2 C14.5,9.2 9.7,9.2 6.7,12.2 C6.4,12.5 5.9,12.5 5.6,12.2 C5.3,11.9 5.3,11.4 5.6,11.1 C9.2,7.6 14.9,7.6 18.5,11.1 C18.8,11.4 18.8,11.9 18.5,12.2 C18.4,12.3 18.2,12.4 18,12.4 Z" id="Path" fill="#FFFFFF" fill-rule="nonzero"></path>
        <path d="M15.4,14.8 C15.2,14.8 15,14.7 14.9,14.6 C14.1,13.8 13.1,13.4 12,13.4 C10.9,13.4 9.9,13.8 9.1,14.6 C8.8,14.9 8.3,14.9 8,14.6 C7.7,14.3 7.7,13.8 8,13.5 C9.1,12.4 10.5,11.8 12,11.8 C13.5,11.8 14.9,12.4 16,13.5 C16.3,13.8 16.3,14.3 16,14.6 C15.8,14.8 15.6,14.8 15.4,14.8 Z" id="Path" fill="#FFFFFF" fill-rule="nonzero"></path>
        <circle id="Oval" fill="#FFFFFF" cx="12" cy="17.2" r="1.8"></circle>
    </g>
</svg>