<?xml version="1.0" encoding="UTF-8"?>
<svg width="40px" height="40px" viewBox="0 0 24 24" version="1.1" xmlns="http://www.w3.org/2000/svg" xmlns:xlink="http://www.w3.org/1999/xlink">
    <title>开放备份 8</title>
    <g id="开放备份-8" stroke="none" stroke-width="1" fill="none" fill-rule="evenodd">
        <g id="ic_wlan" transform="translate(0.000000, 3.125000)" fill="#182431" fill-rule="nonzero">
            <rect id="Rectangle" x="9.75" y="13.25" width="4.5" height="4.5" rx="2.25"></rect>
            <path d="M17.4936157,11.2548982 C17.7682048,11.565017 17.7394022,12.0390164 17.4292834,12.3136056 C17.1191645,12.5881947 16.6451651,12.5593921 16.370576,12.2492732 C15.2691332,11.0053122 13.6939783,10.2804878 12,10.2804878 C10.3053534,10.2804878 8.7296353,11.0058888 7.62815915,12.2507023 C7.35367083,12.5609103 6.87968075,12.5898669 6.56947272,12.3153786 C6.25926467,12.0408902 6.23030812,11.5669002 6.50479645,11.2566921 C7.88805948,9.69342227 9.8711383,8.7804878 12,8.7804878 C14.1280211,8.7804878 16.1103937,9.69269777 17.4936157,11.2548982 Z" id="Path" opacity="0.251164"></path>
            <path d="M20.5904015,8.13487588 C20.8723974,8.43827527 20.8550464,8.91283192 20.551647,9.1948278 C20.2482476,9.47682367 19.773691,9.45947268 19.4916951,9.15607328 C17.568453,7.0868568 14.8810063,5.8902439 12,5.8902439 C9.11872612,5.8902439 6.43105232,7.08708065 4.50778412,9.15663362 C4.2258108,9.46005397 3.75125545,9.47744025 3.4478351,9.19546692 C3.14441472,8.9134936 3.12702847,8.43893825 3.4090018,8.13551787 C5.61318808,5.76368003 8.6974419,4.3902439 12,4.3902439 C15.3022512,4.3902439 18.3862449,5.76342338 20.5904015,8.13487588 Z" id="Path" opacity="0.25349"></path>
            <path d="M23.6905124,5.02289555 C23.9756724,5.323323 23.9632956,5.79803542 23.6628682,6.08319542 C23.3624408,6.3683554 22.8877283,6.35597867 22.6025683,6.05555122 C19.8596461,3.16577287 16.0637481,1.5 12,1.5 C7.93672758,1.5 4.1412346,3.16538032 1.39836839,6.05456442 C1.11318062,6.3549655 0.638467057,6.36729832 0.338065975,6.08211055 C0.0376648915,5.7969228 0.0253320662,5.32220922 0.310519837,5.02180815 C3.33374037,1.83731424 7.52108017,1.42108547e-14 12,1.42108547e-14 C16.4794425,1.42108547e-14 20.6672305,1.83774704 23.6905124,5.02289555 Z" id="Path" opacity="0.249302455"></path>
        </g>
    </g>
</svg>