<?xml version="1.0" encoding="UTF-8"?>
<svg width="40px" height="40px" viewBox="0 0 24 24" version="1.1" xmlns="http://www.w3.org/2000/svg" xmlns:xlink="http://www.w3.org/1999/xlink">
    <title>加密备份 9</title>
    <g id="加密备份-2" stroke="none" stroke-width="1" fill="none" fill-rule="evenodd">
        <g id="ic_wlan_lock" transform="translate(0.000000, 2.875000)" fill="#000000" fill-rule="nonzero">
            <rect id="Rectangle" x="9.75" y="13.25" width="4.5" height="4.5" rx="2.25"></rect>
            <path d="M23.6905124,5.02289555 C23.9756724,5.323323 23.9632956,5.79803543 23.6628682,6.08319543 C23.3624408,6.3683554 22.8877283,6.35597868 22.6025683,6.05555123 C19.8596461,3.16577288 16.0637481,1.5 12,1.5 C7.93672758,1.5 4.1412346,3.16538033 1.39836839,6.05456443 C1.11318062,6.3549655 0.638467057,6.36729833 0.338065975,6.08211055 C0.0376648915,5.7969228 0.0253320662,5.32220923 0.310519837,5.02180815 C3.33374037,1.83731425 7.52108017,0 12,0 C16.4794425,0 20.6672305,1.83774705 23.6905124,5.02289555 Z" id="Path" opacity="0.25"></path>
            <path d="M12,4.3902439 C15.3022512,4.3902439 18.3862449,5.76342337 20.5904015,8.13487587 C20.7304191,8.28552072 20.796637,8.4783619 20.7906832,8.66887645 C20.463503,8.55925287 20.1139844,8.5 19.75,8.5 L19.6729363,8.50088722 L19.5952486,8.50358592 C19.368589,8.5141152 19.1481283,8.5476614 18.9358771,8.60196565 C17.0672566,6.8747738 14.6132553,5.8902439 12,5.8902439 C9.11872613,5.8902439 6.43105233,7.08708065 4.50778413,9.15663362 C4.2258108,9.46005397 3.75125545,9.47744025 3.4478351,9.19546692 C3.14441473,8.9134936 3.12702848,8.43893825 3.4090018,8.13551787 C5.61318808,5.76368002 8.6974419,4.3902439 12,4.3902439 Z" id="Path" opacity="0.25"></path>
            <path d="M12,8.7804878 C13.7514485,8.7804878 15.4042352,9.39841555 16.7055214,10.4880771 C16.4933373,10.9470376 16.375,11.4601924 16.375,12 L16.375,12 L16.3749549,12.2541762 C16.3734897,12.2525498 16.37203,12.2509155 16.370576,12.2492732 C15.2691332,11.0053122 13.6939783,10.2804878 12,10.2804878 C10.3053534,10.2804878 8.7296353,11.0058888 7.62815915,12.2507023 C7.35367083,12.5609103 6.87968075,12.5898669 6.56947272,12.3153786 C6.25926467,12.0408902 6.23030812,11.5669002 6.50479645,11.2566921 C7.88805948,9.69342227 9.8711383,8.7804878 12,8.7804878 Z" id="Path" opacity="0.25"></path>
            <g id="合并形状" transform="translate(16.500000, 9.500000)">
                <path d="M3.5,0 C4.83822843,0 5.92307693,1.0848485 5.92307693,2.42307693 L5.92326633,3.3105487 C6.54559547,3.49324735 7,4.06855775 7,4.75 L7,7.25 C7,8.07842713 6.32842713,8.75 5.5,8.75 L1.5,8.75 C0.671572875,8.75 0,8.07842713 0,7.25 L0,4.75 C0,4.06855775 0.454404525,3.49324735 1.07673367,3.3105487 L1.07692307,2.42307693 C1.07692307,1.0848485 2.16177157,0 3.5,0 Z M3.4423077,5 C2.92188553,5 2.5,5.42188553 2.5,5.9423077 C2.5,6.46272985 2.92188553,6.88461537 3.4423077,6.88461537 C3.96272985,6.88461537 4.38461537,6.46272985 4.38461537,5.9423077 C4.38461537,5.42188553 3.96272985,5 3.4423077,5 Z M3.5,1.07692307 C2.77467293,1.07692307 2.18332957,1.65057553 2.15491505,2.36893533 L2.15384615,2.42307693 L2.15375,3.25 L4.846,3.25 L4.84615385,2.42307693 C4.84615385,1.69774985 4.2725014,1.1064065 3.5541416,1.07799197 L3.5,1.07692307 Z" id="path-1"></path>
            </g>
        </g>
    </g>
</svg>