<?xml version="1.0" encoding="UTF-8"?>
<svg width="24px" height="24px" viewBox="0 0 24 24" version="1.1" xmlns="http://www.w3.org/2000/svg" xmlns:xlink="http://www.w3.org/1999/xlink">
    <title>编组 10</title>
    <defs>
        <path d="M15,2.03529851 C15.1989124,2.03529851 15.3896778,2.11431614 15.5303301,2.25496842 L19.4950316,6.21966991 C19.7879248,6.51256313 19.7879248,6.98743687 19.4950316,7.28033009 C19.3543793,7.42098237 19.1636139,7.5 18.9647015,7.5 L16.7492985,7.5 L16.75,20.75 C16.75,21.3972087 16.2581253,21.9295339 15.6278052,21.9935464 L15.5,22 C14.8096441,22 14.25,21.4403559 14.25,20.75 L14.25,20.75 L14.25,2.78529851 C14.25,2.37108495 14.5857864,2.03529851 15,2.03529851 Z M9.75,21.2147015 C9.75,21.6289151 9.41421356,21.9647015 9,21.9647015 C8.80108763,21.9647015 8.6103222,21.8856839 8.46966991,21.7450316 L4.50496842,17.7803301 C4.2120752,17.4874369 4.2120752,17.0125631 4.50496842,16.7196699 C4.64562071,16.5790176 4.83638614,16.5 5.03529851,16.5 L7.24929851,16.5 L7.25,3.25 C7.25,2.60279131 7.74187466,2.0704661 8.37219476,2.00645361 L8.5,2 C9.19035594,2 9.75,2.55964406 9.75,3.25 L9.75,3.25 L9.75,21.2147015 Z" id="path-1"></path>
    </defs>
    <g id="主页面" stroke="none" stroke-width="1" fill="none" fill-rule="evenodd">
        <g id="Setting_首页上" transform="translate(-48.000000, -423.000000)">
            <g id="编组-39" transform="translate(48.000000, 408.000000)">
                <g id="编组-10" transform="translate(0.000000, 15.000000)">
                    <mask id="mask-2" fill="white">
                        <use xlink:href="#path-1"></use>
                    </mask>
                    <use id="Combined-Shape" fill="#47CC47" xlink:href="#path-1"></use>
                </g>
            </g>
        </g>
    </g>
</svg>