<svg viewBox="0 0 24 24" xmlns="http://www.w3.org/2000/svg" xmlns:xlink="http://www.w3.org/1999/xlink" width="24.000000" height="24.000000" fill="none">
	<rect id="放大手势ic" width="24.000000" height="24.000000" x="0.000000" y="0.000000" />
	<rect id="矩形 10" width="24.000000" height="24.000000" x="0.000000" y="0.000000" opacity="0" fill="rgb(0,0,0)" />
	<g id="组合 840">
		<g id="组合 838">
			<path id="矢量 14" d="M16.2812 12.3933C16.1912 12.2733 16.1462 12.1413 16.1462 11.9973L16.1642 7.98335C16.1642 7.44934 15.9992 7.04735 15.6692 6.77735C15.3392 6.51335 14.9432 6.39635 14.4812 6.42634C14.0612 6.45635 13.6982 6.60934 13.3922 6.88534C13.0802 7.16735 12.9242 7.53334 12.9242 7.98335L12.9062 14.7423C12.9062 15.2163 12.8012 15.5283 12.5912 15.6783C12.3812 15.8283 12.0392 15.8463 11.5652 15.7323C11.5052 15.7203 11.3462 15.6633 11.0882 15.5613C10.6262 15.3873 10.2272 15.2553 9.89119 15.1653C9.54919 15.0693 9.24319 15.0363 8.97319 15.0663C8.65519 15.0963 8.40019 15.1923 8.20819 15.3543C8.01019 15.5223 7.89619 15.7293 7.86619 15.9753C7.84219 16.2153 7.90819 16.4733 8.06419 16.7493C8.31019 17.0793 9.20419 18.1233 10.7462 19.8813L12.0422 21.3033C12.1982 21.4953 12.3902 21.6453 12.6182 21.7533C12.8522 21.8613 13.0922 21.9153 13.3382 21.9153L19.2962 21.9333C19.7162 21.9333 20.0882 21.8013 20.4122 21.5373C20.7362 21.2673 20.9342 20.9313 21.0062 20.5293L22.0862 14.8683C22.1402 14.5983 22.0922 14.3463 21.9422 14.1123C21.7922 13.8843 21.5732 13.7343 21.2852 13.6623L16.6412 12.6273C16.4972 12.5973 16.3772 12.5193 16.2812 12.3933Z" fill-rule="nonzero" stroke="rgb(10,89,247)" stroke-width="1.5" />
		</g>
		<g id="组合 839" opacity="0.5">
			<path id="矢量 30" d="M8.56665 1.90002L11.9 1.90002L11.9 5.23334M11.9 1.90002L8.56665 5.23334" stroke="rgb(10,89,247)" stroke-linecap="round" stroke-linejoin="round" stroke-width="1.5" />
			<path id="矢量 31" d="M5.23334 11.9L1.89999 11.9L1.89999 8.56671M1.89999 11.9L5.23334 8.56671" stroke="rgb(10,89,247)" stroke-linecap="round" stroke-linejoin="round" stroke-width="1.5" />
		</g>
	</g>
</svg>
