<svg viewBox="0 0 24 24" xmlns="http://www.w3.org/2000/svg" xmlns:xlink="http://www.w3.org/1999/xlink" width="24" height="24" fill="none">
	<rect id="字体大小ic" width="24" height="24" x="0" y="0" />
	<rect id="矩形 15" width="24" height="24" x="0" y="0" opacity="0" fill="rgb(0,0,0)" />
	<path id="多边形 1" d="M2.70001 19.2L4.32501 15.45L4.73126 14.5125L4.83282 14.2781L4.93439 14.0438L5.13751 13.575L5.95001 11.7L8.97062 4.72937C9.05764 4.52857 9.34239 4.52857 9.4294 4.72937L12.45 11.7L13.2625 13.575L13.4656 14.0438L13.5672 14.2781L13.6688 14.5125L14.075 15.45L15.7 19.2M4.83282 14.2781L13.5672 14.2781" opacity="0" stroke="rgb(234,50,50)" stroke-linecap="round" stroke-width="1.5" />
	<path id="多边形 2(边框)" d="M3.63685 15.1518L2.01185 18.9018C1.84485 19.2871 2.01643 19.7211 2.40181 19.8881C2.78718 20.0551 3.22118 19.8835 3.38818 19.4982L5.32521 15.0281L13.0748 15.0281L13.3868 15.7482L15.0118 19.4982C15.1788 19.8836 15.6128 20.0551 15.9982 19.8881C16.3836 19.7211 16.5552 19.2871 16.3882 18.9018L13.1382 11.4018L10.1176 4.43113C10.0738 4.33015 10.0172 4.2406 9.94775 4.16247C9.88544 4.09239 9.8128 4.0315 9.72981 3.9798C9.65195 3.9313 9.57062 3.89447 9.48582 3.86933C9.39457 3.84227 9.2993 3.82874 9.20001 3.82874C9.10073 3.82874 9.00546 3.84227 8.9142 3.86933C8.82941 3.89447 8.74808 3.9313 8.67022 3.9798C8.58723 4.0315 8.51459 4.09239 8.45228 4.16247C8.38282 4.2406 8.32621 4.33015 8.28246 4.43113L5.26185 11.4018L4.44935 13.2768L4.14466 13.9799L4.0431 14.2143L3.63685 15.1518ZM12.4248 13.5281L11.7618 11.9982L9.20001 6.08626L6.63818 11.9982L5.97521 13.5281L12.4248 13.5281Z" fill="rgb(10,89,247)" fill-rule="evenodd" />
	<path id="多边形 3(边框)" d="M3.63682 15.1518L2.01182 18.9018C1.84482 19.2871 2.0164 19.7211 2.40178 19.8881C2.78715 20.0551 3.22115 19.8835 3.38815 19.4982L5.32518 15.0281L13.0748 15.0281L13.3868 15.7482L15.0118 19.4982C15.1788 19.8836 15.6128 20.0551 15.9982 19.8881C16.3836 19.7211 16.5551 19.2871 16.3881 18.9018L13.1381 11.4018L10.1175 4.43113C10.0738 4.33015 10.0172 4.2406 9.94772 4.16247C9.88541 4.09239 9.81277 4.0315 9.72978 3.9798C9.65191 3.9313 9.57059 3.89447 9.48579 3.86933C9.39454 3.84227 9.29926 3.82874 9.19998 3.82874C9.1007 3.82874 9.00543 3.84227 8.91417 3.86933C8.82938 3.89447 8.74805 3.9313 8.67019 3.9798C8.5872 4.0315 8.51455 4.09239 8.45225 4.16247C8.38279 4.2406 8.32618 4.33015 8.28243 4.43113L5.26182 11.4018L4.44932 13.2768L4.14463 13.9799L4.04307 14.2143L3.63682 15.1518ZM12.4248 13.5281L11.7618 11.9982L9.19998 6.08626L6.63815 11.9982L5.97518 13.5281L12.4248 13.5281Z" opacity="0" fill="rgb(234,50,50)" fill-rule="evenodd" />
	<path id="减去顶层" d="M16.6382 16.2093L19.1667 16.2093L19.3568 16.6482L20.5918 19.4982C20.7588 19.8835 21.1928 20.0551 21.5782 19.8881C21.9636 19.7211 22.1352 19.2871 21.9682 18.9018L20.7332 16.0518L20.4244 15.3393L20.3472 15.1611L20.27 14.983L20.1157 14.6268L19.4982 13.2018L17.2117 7.92524C17.1705 7.83015 17.1172 7.74571 17.0519 7.67192C16.9924 7.60458 16.9228 7.54611 16.8431 7.4965C16.7687 7.45014 16.691 7.415 16.6099 7.3911C16.5237 7.36568 16.4337 7.35297 16.34 7.35297C16.2463 7.35297 16.1563 7.36568 16.0701 7.3911L16.0701 7.39111C15.989 7.41501 15.9113 7.45014 15.8368 7.4965C15.7572 7.54611 15.6876 7.60458 15.628 7.67192C15.5628 7.74571 15.5095 7.83015 15.4683 7.92524L14.2584 10.7174L14.331 10.8849L15.0758 12.6036L16.34 9.68624L18.1218 13.7982L18.5167 14.7093L15.9882 14.7093L16.6382 16.2093Z" opacity="0.5" fill="rgb(10,89,247)" fill-rule="evenodd" />
</svg>
