<svg width="24.000000" height="24.000000" viewBox="0 0 24 24" fill="none" xmlns="http://www.w3.org/2000/svg" xmlns:xlink="http://www.w3.org/1999/xlink">
	<desc>
			Created with Pixso.
	</desc>
	<defs/>
	<g opacity="0.000000">
		<rect id="矩形" width="24.000000" height="24.000000" fill="#000000" fill-opacity="1.000000"/>
	</g>
	<path id="路径" d="M12 1.01C10.01 1.01 8.17 1.5 6.48 2.48C4.8 3.46 3.46 4.8 2.47 6.49C1.5 8.17 1 10.01 1 12C1 13.98 1.5 15.82 2.47 17.51C3.46 19.19 4.8 20.53 6.48 21.52C8.17 22.5 10.01 22.99 12 22.99C13.98 22.99 15.82 22.5 17.5 21.52C19.19 20.53 20.53 19.19 21.51 17.51C22.5 15.82 22.98 13.98 22.98 12C22.98 10.01 22.5 8.17 21.51 6.49C20.53 4.8 19.19 3.46 17.5 2.48C15.82 1.5 13.98 1.01 12 1.01Z" fill="#9D76FF" fill-opacity="1.000000" fill-rule="evenodd"/>
	<path id="路径" d="M14.87 6.77C15.66 7.47 16.22 8.04 16.55 8.47C16.89 8.92 17.08 9.44 17.13 10.06C17.16 10.52 17.11 11.02 16.98 11.58C16.84 12.13 16.66 12.59 16.43 12.95C16.21 13.31 15.98 13.45 15.76 13.39C15.66 13.35 15.61 13.32 15.6 13.3C15.6 13.26 15.62 13.2 15.66 13.1C15.76 12.94 15.85 12.74 15.93 12.52C16.01 12.28 16.08 11.96 16.12 11.54C16.16 11.08 16.14 10.71 16.08 10.45C16.03 10.18 15.87 9.89 15.59 9.55C15.34 9.21 15.1 8.95 14.86 8.77C14.63 8.59 14.28 8.36 13.81 8.09L13.81 16.92C13.81 17.41 13.66 17.89 13.36 18.35C13.06 18.8 12.65 19.17 12.15 19.45C11.65 19.75 11.1 19.9 10.5 19.9C10.07 19.9 9.67 19.81 9.3 19.62C8.94 19.45 8.64 19.2 8.41 18.89C8.16 18.53 8.02 18.14 7.98 17.7C7.95 17.27 8.03 16.85 8.22 16.44C8.45 15.97 8.75 15.6 9.11 15.34C9.48 15.06 9.96 14.79 10.55 14.52C11.07 14.26 11.42 14.06 11.61 13.92C11.9 13.68 12.09 13.42 12.18 13.16C12.28 12.9 12.33 12.62 12.33 12.34L12.33 4.44L13.36 4.44C13.4 4.74 13.52 5.09 13.73 5.47C13.95 5.85 14.27 6.24 14.71 6.62L14.87 6.77Z" fill="#FFFFFF" fill-opacity="0.450980" fill-rule="evenodd"/>
</svg>
