<svg width="24.000000" height="24.000000" viewBox="0 0 24 24" fill="none" xmlns="http://www.w3.org/2000/svg" xmlns:xlink="http://www.w3.org/1999/xlink">
	<desc>
			Created with Pixso.
	</desc>
	<defs/>
	<g opacity="0.000000">
		<rect id="矩形" width="24.000000" height="24.000000" fill="#000000" fill-opacity="1.000000"/>
	</g>
	<path id="路径" d="M6.22 1.01C5.64 1.01 5.1 1.15 4.61 1.45C4.11 1.75 3.71 2.14 3.42 2.64C3.12 3.13 2.98 3.67 2.98 4.25L2.98 19.75C2.98 20.34 3.12 20.88 3.42 21.38C3.71 21.88 4.11 22.27 4.61 22.56C5.1 22.84 5.64 22.99 6.22 22.99L17.76 22.99C18.35 22.99 18.89 22.84 19.39 22.56C19.89 22.27 20.28 21.88 20.58 21.38C20.87 20.88 21.02 20.34 21.02 19.75L21.02 7.25L14.76 1.01L6.22 1.01Z" fill="#27A3FF" fill-opacity="1.000000" fill-rule="evenodd"/>
	<path id="路径" d="M7.51 12C7.31 12 7.14 11.92 7 11.78C6.84 11.64 6.77 11.46 6.77 11.26C6.77 11.04 6.84 10.86 7 10.72C7.14 10.56 7.31 10.49 7.51 10.49L11.52 10.49C11.72 10.49 11.9 10.56 12.06 10.72C12.21 10.86 12.29 11.04 12.29 11.26C12.29 11.46 12.21 11.64 12.06 11.78C11.9 11.92 11.72 12 11.52 12L7.51 12Z" fill="#FFFFFF" fill-opacity="0.450980" fill-rule="evenodd"/>
	<path id="路径" d="M7.51 16.25C7.31 16.25 7.14 16.17 7 16.03C6.84 15.89 6.77 15.71 6.77 15.5C6.77 15.29 6.84 15.12 7 14.98C7.14 14.83 7.31 14.76 7.51 14.76L16.49 14.76C16.69 14.76 16.87 14.83 17.02 14.98C17.16 15.12 17.23 15.29 17.23 15.5C17.23 15.71 17.16 15.89 17.02 16.03C16.87 16.17 16.69 16.25 16.49 16.25L7.51 16.25Z" fill="#FFFFFF" fill-opacity="0.450980" fill-rule="evenodd"/>
	<path id="路径" d="M15.48 7.25C15.27 7.25 15.09 7.17 14.95 7.02C14.81 6.86 14.74 6.68 14.74 6.48L14.74 3.1L18.89 7.25L15.48 7.25Z" fill="#FFFFFF" fill-opacity="0.450980" fill-rule="evenodd"/>
</svg>
