<svg width="16.000000" height="16.000000" viewBox="0 0 16 16" fill="none" xmlns="http://www.w3.org/2000/svg" xmlns:xlink="http://www.w3.org/1999/xlink">
	<desc>
			Created with Pixso.
	</desc>
	<defs>
		<clipPath id="clip380_12269">
			<rect id="chevron_backward" width="16.000000" height="16.000000" fill="white" fill-opacity="0"/>
		</clipPath>
	</defs>
	<g clip-path="url(#clip380_12269)">
		<g opacity="0.000000">
			<rect id="rect" width="16.000002" height="16.000002" fill="#000000" fill-opacity="1.000000"/>
		</g>
		<path id="路径" d="M11.71 14.17C11.55 14.16 11.39 14.11 11.26 14.02L3.31 8.81C3.04 8.63 2.87 8.33 2.87 8C2.87 7.67 3.04 7.36 3.32 7.18L11.25 1.97C11.77 1.62 12.47 1.9 12.47 2.78L12.47 13.2C12.47 13.84 12.09 14.17 11.71 14.17Z" fill="#FFFFFF" fill-opacity="0.298039" fill-rule="evenodd"/>
		<path id="路径" d="M11.26 14.02C11.39 14.11 11.55 14.16 11.71 14.17C12.09 14.17 12.47 13.84 12.47 13.2L12.47 2.78C12.47 1.9 11.77 1.62 11.25 1.97L3.32 7.18C3.04 7.36 2.87 7.67 2.87 8C2.87 8.33 3.04 8.63 3.31 8.81L11.26 14.02ZM2.49 10.07L10.42 15.27C10.57 15.37 10.72 15.45 10.88 15.51C11.13 15.61 11.41 15.67 11.71 15.67C11.85 15.67 11.99 15.66 12.13 15.63C12.3 15.6 12.46 15.54 12.61 15.47C12.73 15.42 12.84 15.36 12.95 15.28C13.1 15.18 13.23 15.06 13.35 14.92C13.41 14.86 13.47 14.79 13.52 14.71C13.65 14.53 13.75 14.34 13.82 14.12C13.92 13.83 13.98 13.53 13.98 13.2L13.98 2.78C13.97 2.37 13.9 2 13.74 1.66C13.73 1.62 13.71 1.59 13.69 1.55C13.57 1.31 13.42 1.1 13.23 0.93C13.11 0.81 12.96 0.7 12.8 0.61C12.62 0.51 12.44 0.43 12.25 0.38C12.03 0.33 11.8 0.31 11.57 0.32C11.4 0.33 11.24 0.36 11.09 0.4C10.86 0.47 10.64 0.57 10.43 0.71L2.51 5.91C2.33 6.02 2.18 6.15 2.04 6.3C1.9 6.45 1.77 6.62 1.67 6.81C1.57 6.99 1.5 7.17 1.45 7.36C1.4 7.57 1.37 7.78 1.37 8C1.37 8.21 1.39 8.41 1.44 8.61C1.49 8.81 1.57 9 1.67 9.18C1.77 9.38 1.91 9.56 2.06 9.72C2.19 9.85 2.33 9.97 2.49 10.07Z" fill="#000000" fill-opacity="0.250000" fill-rule="evenodd"/>
	</g>
</svg>
