<svg width="16.000000" height="16.000000" viewBox="0 0 16 16" fill="none" xmlns="http://www.w3.org/2000/svg" xmlns:xlink="http://www.w3.org/1999/xlink">
	<desc>
			Created with Pixso.
	</desc>
	<defs>
		<clipPath id="clip380_12265">
			<rect id="circle" width="16.000000" height="16.000000" fill="white" fill-opacity="0"/>
		</clipPath>
	</defs>
	<g clip-path="url(#clip380_12265)">
		<g opacity="0.000000">
			<rect id="rect" width="16.000000" height="16.000000" fill="#000000" fill-opacity="0"/>
			<rect id="rect" x="0.500000" y="0.500000" width="15.000000" height="15.000000" stroke="#000000" stroke-opacity="1.000000" stroke-width="1.000000"/>
		</g>
		<path id="矢量 2" d="M11.02 2.78C10.59 2.53 10.14 2.33 9.68 2.2C9.14 2.04 8.58 1.96 8.01 1.96C7.35 1.96 6.73 2.06 6.14 2.25C5.74 2.38 5.35 2.56 4.98 2.78C4.48 3.07 4.04 3.42 3.65 3.82C3.32 4.16 3.03 4.55 2.77 4.98C2.53 5.4 2.34 5.84 2.21 6.29C2.05 6.83 1.97 7.4 1.97 7.99C1.97 8.59 2.05 9.16 2.21 9.7C2.34 10.16 2.53 10.59 2.77 11.01C3.03 11.44 3.32 11.82 3.65 12.17C4.04 12.57 4.48 12.92 4.98 13.21C5.35 13.43 5.74 13.6 6.14 13.74C6.73 13.93 7.35 14.02 8.01 14.02C8.59 14.02 9.14 13.95 9.68 13.79C10.14 13.66 10.59 13.46 11.02 13.21C11.5 12.93 11.92 12.6 12.29 12.22C12.65 11.86 12.95 11.46 13.22 11.01C13.46 10.59 13.65 10.15 13.78 9.7C13.94 9.16 14.03 8.59 14.03 7.99C14.03 7.4 13.94 6.83 13.78 6.29C13.65 5.83 13.46 5.4 13.22 4.98C12.95 4.53 12.64 4.13 12.29 3.77C11.92 3.39 11.5 3.06 11.02 2.78Z" fill="#FFFFFF" fill-opacity="0.298039" fill-rule="evenodd"/>
		<path id="矢量 2" d="M10.14 0.77C10.13 0.76 10.11 0.76 10.1 0.75L10.1 0.75C10.02 0.73 9.94 0.71 9.87 0.69C9.27 0.54 8.65 0.46 8.01 0.46C7.27 0.46 6.57 0.56 5.89 0.76C5.82 0.78 5.75 0.8 5.68 0.82C5.64 0.84 5.6 0.85 5.56 0.86C5.1 1.02 4.65 1.23 4.21 1.49C3.7 1.79 3.23 2.14 2.81 2.53C2.73 2.61 2.65 2.69 2.57 2.77C2.53 2.82 2.48 2.87 2.44 2.91C2.08 3.31 1.76 3.74 1.48 4.22C1.17 4.74 0.94 5.28 0.77 5.84C0.77 5.85 0.77 5.86 0.76 5.86C0.74 5.94 0.72 6.01 0.7 6.08C0.54 6.7 0.46 7.34 0.46 7.99C0.46 8.66 0.54 9.31 0.71 9.93C0.73 10 0.75 10.06 0.77 10.13C0.78 10.18 0.8 10.23 0.81 10.29C0.98 10.8 1.2 11.29 1.48 11.77C1.78 12.29 2.14 12.77 2.56 13.2C2.56 13.21 2.57 13.21 2.57 13.22C2.61 13.26 2.66 13.3 2.7 13.34C3.15 13.79 3.65 14.17 4.21 14.5C4.58 14.72 4.97 14.91 5.36 15.06C5.47 15.1 5.57 15.13 5.67 15.17C5.73 15.19 5.8 15.21 5.86 15.22C6.55 15.43 7.26 15.53 8.01 15.53C8.67 15.53 9.32 15.45 9.94 15.28C10 15.26 10.05 15.25 10.1 15.23C10.16 15.22 10.23 15.2 10.29 15.18C10.81 15.01 11.31 14.79 11.79 14.5C12.37 14.16 12.89 13.75 13.35 13.29C13.36 13.28 13.36 13.28 13.37 13.27C13.42 13.22 13.48 13.16 13.53 13.1C13.9 12.7 14.23 12.25 14.51 11.77C14.82 11.25 15.05 10.71 15.22 10.14C15.22 10.14 15.22 10.13 15.23 10.13C15.24 10.07 15.26 10 15.28 9.94C15.45 9.32 15.53 8.67 15.53 7.99C15.53 7.33 15.45 6.69 15.28 6.07C15.27 6 15.25 5.93 15.22 5.86C15.21 5.8 15.19 5.75 15.17 5.69C15.01 5.18 14.79 4.69 14.52 4.22C14.2 3.68 13.82 3.19 13.39 2.75C13.38 2.73 13.37 2.72 13.36 2.71C13.32 2.67 13.28 2.63 13.23 2.59C12.8 2.17 12.32 1.8 11.79 1.49C11.26 1.18 10.71 0.94 10.14 0.77ZM11.02 2.78C10.59 2.53 10.14 2.33 9.68 2.2C9.14 2.04 8.58 1.96 8.01 1.96C7.35 1.96 6.73 2.06 6.14 2.25C5.74 2.38 5.35 2.56 4.98 2.78C4.48 3.07 4.04 3.42 3.65 3.82C3.32 4.16 3.03 4.55 2.77 4.98C2.53 5.4 2.34 5.84 2.21 6.29C2.05 6.83 1.97 7.4 1.97 7.99C1.97 8.59 2.05 9.16 2.21 9.7C2.34 10.16 2.53 10.59 2.77 11.01C3.03 11.44 3.32 11.82 3.65 12.17C4.04 12.57 4.48 12.92 4.98 13.21C5.35 13.43 5.74 13.6 6.14 13.74C6.73 13.93 7.35 14.02 8.01 14.02C8.59 14.02 9.14 13.95 9.68 13.79C10.14 13.66 10.59 13.46 11.02 13.21C11.5 12.93 11.92 12.6 12.29 12.22C12.65 11.86 12.95 11.46 13.22 11.01C13.46 10.59 13.65 10.15 13.78 9.7C13.94 9.16 14.03 8.59 14.03 7.99C14.03 7.41 13.95 6.84 13.79 6.3C13.79 6.29 13.78 6.29 13.78 6.29C13.65 5.83 13.46 5.4 13.22 4.98C12.95 4.53 12.64 4.13 12.29 3.77C11.92 3.39 11.5 3.06 11.02 2.78Z" fill="#000000" fill-opacity="0.250000" fill-rule="evenodd"/>
	</g>
</svg>
