<?xml version="1.0" standalone="no"?>
<svg xmlns="http://www.w3.org/2000/svg" width="24" height="24"><rect width="24" height="24" opacity="0"></rect><g><path d="M6.48 17.98Q7.63 18.12 8.76 18.62Q9.89 19.13 10.99 19.99L10.99 5.45Q9.89 4.73 8.9 4.37Q7.92 4.01 6.48 4.01Q4.66 4.01 2.69 5.18Q2.35 5.38 2.17 5.7Q1.99 6.02 1.99 6.41L1.99 17.76Q1.99 18.02 2.18 18.29Q2.38 18.55 2.69 18.65Q3 18.74 3.34 18.58Q4.15 18.17 4.91 18.02Q5.66 17.88 6.48 17.98ZM13.01 19.99Q14.11 19.13 15.24 18.62Q16.37 18.12 17.52 17.98Q18.34 17.88 19.09 18.02Q19.85 18.17 20.66 18.58Q21 18.74 21.31 18.65Q21.62 18.55 21.82 18.29Q22.01 18.02 22.01 17.76L22.01 6.41Q22.01 6.02 21.83 5.7Q21.65 5.38 21.31 5.18Q19.34 4.01 17.52 4.01Q16.08 4.01 15.1 4.37Q14.11 4.73 13.01 5.45L13.01 19.99Z" fill="rgba(0,0,0,0.9019607843137255)"></path></g></svg>