<?xml version="1.0" standalone="no"?><!DOCTYPE svg PUBLIC "-//W3C//DTD SVG 1.1//EN" "http://www.w3.org/Graphics/SVG/1.1/DTD/svg11.dtd"><svg t="1710986847033" class="icon" viewBox="0 0 1024 1024" version="1.1" xmlns="http://www.w3.org/2000/svg" p-id="4597" xmlns:xlink="http://www.w3.org/1999/xlink" width="200" height="200"><path d="M79.205516 455.117464a455.106029 452.591568 90 1 0 905.183136 0 455.106029 452.591568 90 1 0-905.183136 0Z" fill="#EEEEEE" p-id="4598"></path><path d="M791.719262 692.116443l24.002896-24.13162a16.907189 16.907189 0 0 1 24.002896-0.004022L903.732776 732.342512l-48.005791 48.271284-64.007723-64.361712a17.134742 17.134742 0 0 1 0-24.135641z" fill="#D8D8D8" p-id="4599"></path><path d="M722.156558 273.075052l0.318574-0.489239a5.711581 5.711581 0 0 0-1.154831 3.453117V341.340956c0 3.140232 2.531527 5.688825 5.654692 5.688826h85.09345c0.739547 0 1.45065-0.142221 2.099177-0.403907l0.494927 0.403907v261.685966c0 15.706847-12.663325 28.444127-28.284839 28.444127h-492.197171c-15.615826 0-28.28484-12.73728-28.28484-28.444127V301.519179c0-15.706847 12.669014-28.444127 28.290529-28.444127h427.970332z" fill="#FDFDFD" p-id="4600"></path><path d="M322.471066 364.096258m8.533238 0l265.804676 0q8.533238 0 8.533238 8.533238l0 0q0 8.533238-8.533238 8.533238l-265.804676 0q-8.533238 0-8.533238-8.533238l0 0q0-8.533238 8.533238-8.533238Z" fill="#D8D8D8" p-id="4601"></path><path d="M322.471066 438.050988m8.533238 0l186.599161 0q8.533238 0 8.533238 8.533238l0 0q0 8.533238-8.533238 8.533238l-186.599161 0q-8.533238 0-8.533238-8.533238l0 0q0-8.533238 8.533238-8.533238Z" fill="#D8D8D8" p-id="4602"></path><path d="M322.471066 512.005717m8.533238 0l186.599161 0q8.533238 0 8.533238 8.533238l0 0q0 8.533238-8.533238 8.533238l-186.599161 0q-8.533238 0-8.533238-8.533238l0 0q0-8.533238 8.533238-8.533238Z" fill="#D8D8D8" p-id="4603"></path><path d="M226.295784 25.611149a19.910889 19.802801 90 1 0 39.605602 0 19.910889 19.802801 90 1 0-39.605602 0Z" fill="#EEEEEE" p-id="4604"></path><path d="M995.703726 347.029782a11.377651 11.315074 90 1 0 22.630147 0 11.377651 11.315074 90 1 0-22.630147 0Z" fill="#EEEEEE" p-id="4605"></path><path d="M715.65992 278.763877v68.265905c0 3.140232 2.531527 5.688825 5.660381 5.688825h90.5149a5.700203 5.700203 0 1 0 3.396229-10.239886l-90.520589-68.265904a5.631937 5.631937 0 0 0-7.918845 1.137765c-0.739547 0.984167-1.132076 2.184509-1.132076 3.413295z" fill="#D8D8D8" p-id="4606"></path><path d="M585.539417 566.049558a113.776507 113.150736 90 1 0 226.301473 0 113.776507 113.150736 90 1 0-226.301473 0Z" fill="#EEEEEE" p-id="4607"></path><path d="M759.714183 659.937932l24.006843-24.137686 31.999643 32.181685-24.006843 24.137686zM42.432948 267.386227c4.113021 0 7.549071 14.739747 8.322752 34.303617 19.444405 0.77368 34.104508 4.221108 34.104508 8.362573s-14.660103 7.588893-34.110197 8.368262C49.98202 337.984549 46.545969 352.718607 42.438637 352.718607c-4.11871 0-7.55476-14.739747-8.322751-34.303617C14.660103 317.646999 0 314.199571 0 310.052417s14.660103-7.588893 34.110197-8.368262C34.872499 282.120284 38.314239 267.386227 42.432948 267.386227zM995.703726 153.609719c2.742014 0 5.028922 9.824601 5.546604 22.869078 12.970522 0.511994 22.738235 2.815969 22.738235 5.575049s-9.773402 5.063055-22.738235 5.575049c-0.511994 13.044477-2.804591 22.869078-5.546604 22.869078-2.747703 0-5.03461-9.824601-5.552294-22.869078-12.964833-0.511994-22.738235-2.815969-22.738235-5.575049s9.773402-5.063055 22.738235-5.575049c0.511994-13.044477 2.804591-22.869078 5.552294-22.869078z" fill="#D8D8D8" p-id="4608"></path><path d="M851.440803 0.011435c4.181287 0 7.657159 17.248519 8.356885 39.946931 22.573259 0.705414 39.730756 4.204042 39.730756 8.408084 0 4.209731-17.157497 7.70267-39.730756 8.402395-0.699726 22.698413-4.175598 39.952621-8.362573 39.952621-4.181287 0-7.657159-17.248519-8.356885-39.946932-22.573259-0.705414-39.730756-4.204042-39.730756-8.408084 0-4.209731 17.157497-7.70267 39.730756-8.402395 0.699726-22.698413 4.175598-39.952621 8.362573-39.95262z" fill="#EEEEEE" p-id="4609"></path></svg>