<svg width="290" height="53" viewBox="0 0 290 54" version="1.1" xmlns="http://www.w3.org/2000/svg" xmlns:xlink="http://www.w3.org/1999/xlink">
    <g id="about_device" stroke="none" stroke-width="1" fill="none" fill-rule="evenodd">
        <g id="1280_about_device" transform="translate(-635.000000, -333.000000)" fill-rule="nonzero">
            <g id="group-7" transform="translate(635.000000, 333.000000)">
                <path d="M215.366585,11.8326591 L215.163004,12.3562816 L199.094134,53.0080999 L193.852151,53.0080999 L192.687564,52.9970655 L192.840804,52.6676998 C193.000831,52.3237476 193.108818,52.087345 193.164048,51.9601572 L193.164048,51.9601572 L198.329852,40.0356733 L187.6975,12.8643005 C187.67991,12.8194095 187.653911,12.755178 187.619555,12.6717328 L187.619555,12.6717328 L187.271788,11.841977 L193.562539,11.8407226 L194.065485,11.8465728 L194.116206,12.0085979 C194.166152,12.1681462 194.201862,12.2772961 194.222331,12.3333531 L194.222331,12.3333531 L201.490427,32.2205178 L208.773601,12.2951707 L208.953815,11.8381474 L209.113768,11.8391509 L214.30542,11.8405725 L215.366585,11.8326591 Z M239.387788,2.23820962e-13 C250.653498,2.23820962e-13 259.78616,9.13266213 259.78616,20.3983718 C259.78616,31.6640814 250.653498,40.7967436 239.387788,40.7967436 C228.122078,40.7967436 218.989417,31.6640814 218.989417,20.3983718 C218.989417,9.13266213 228.122078,2.23820962e-13 239.387788,2.23820962e-13 Z M142.98846,11.1006532 C145.707845,11.1006532 148.119195,11.7191627 150.218021,12.9569174 C152.31805,14.1954985 153.960896,15.945985 155.143978,18.2045449 C156.325087,20.4595974 156.915155,23.0344963 156.915155,25.9257209 C156.915155,28.8176413 156.324915,31.3845837 155.143607,33.6214368 C153.96041,35.8618977 152.317606,37.6033101 150.218034,38.8416223 C148.119521,40.079478 145.708259,40.6978935 142.98846,40.6978935 C140.269412,40.6978935 137.849713,40.0795713 135.733757,38.8420662 C133.616301,37.6036838 131.964258,35.8620513 130.780981,33.6214379 C129.599672,31.3845837 129.009432,28.8176413 129.009432,25.9257209 C129.009432,22.9991293 129.599449,20.4155292 130.78098,18.17711 C131.964258,15.9364955 133.616301,14.1948629 135.733777,12.9564686 C137.850043,11.7190688 140.269827,11.1006532 142.98846,11.1006532 Z M48.5437169,11.1006532 C52.0150607,11.1006532 54.7843226,11.9907013 56.8385047,13.7749828 C58.8534709,15.5246729 59.8840557,17.9728044 59.9309002,21.1017283 L59.9325734,21.3263805 L59.9325734,39.957925 L54.8432987,39.957925 L54.4659973,36.7062839 L54.3783804,36.831925 C53.7046433,37.7648888 52.8453682,38.531959 51.8024224,39.1319112 L51.5913851,39.249673 L51.3996868,39.3506072 C49.9184138,40.1088231 48.1737434,40.4865945 46.1648447,40.4865945 C43.1861222,40.4865945 40.7536473,39.7028114 38.8775128,38.1321611 C36.9912458,36.5543349 36.0446263,34.4880782 36.0446263,31.9521033 C36.0446263,30.1406243 36.5437614,28.5335486 37.54207,27.1374221 C38.536665,25.7449891 39.9182932,24.6614581 41.6828024,23.8872934 C43.3629155,23.1494022 45.287861,22.7650324 47.4539791,22.7330038 L47.7508533,22.7308201 L53.9126621,22.7308201 L53.9130373,22.0666303 C53.9130373,20.353505 53.475684,19.0379344 52.6057971,18.1072612 L52.507363,18.0054363 L52.401525,17.9031821 C51.3908274,16.9599898 50.0021109,16.4857296 48.2266277,16.4857296 C46.8182229,16.4857296 45.5436821,16.7853082 44.3966477,17.3845215 C43.3921737,17.908583 42.5397073,18.6361901 41.8376241,19.5689304 L41.7969271,19.6267679 C41.7723209,19.6631946 41.7413855,19.7108062 41.7043791,19.7692555 L41.5754045,19.9767694 L41.4422246,20.1940864 L40.913418,19.8045994 L40.7894498,19.7115194 L37.6329439,17.3124174 C37.5818897,17.2736295 37.5054439,17.2124064 37.4028749,17.1282015 L37.1186073,16.8926289 L37.2984773,16.5667851 C37.3659906,16.4480457 37.4209575,16.3580687 37.4643876,16.29552 C38.5534921,14.7290707 40.0107211,13.48942 41.8305843,12.5792015 C43.8012963,11.5932731 46.0409326,11.1006532 48.5437169,11.1006532 Z M276.00582,0.392023881 C279.072047,0.392023881 281.768571,1.06165319 284.095392,2.4009118 C286.278721,3.659421 287.904964,5.36922659 288.971306,7.53032858 C289.01295,7.61595311 289.072421,7.75184842 289.149717,7.93801447 C288.966401,8.06617368 288.840343,8.15123729 288.771543,8.19320532 L288.771543,8.19320532 L284.939463,10.5177756 C284.855688,10.5686053 284.703975,10.6622508 284.484322,10.798712 C284.356164,10.568903 284.268724,10.4112019 284.222003,10.3256089 C283.490475,8.9621536 282.449455,7.8536076 281.107101,7.00025227 C279.609438,6.04870339 277.908918,5.57292896 276.00582,5.57292896 C273.891423,5.57292896 272.137726,6.11032054 270.745854,7.18510372 C269.352574,8.26016825 268.657623,9.60814893 268.657623,11.2293271 C268.657623,12.5334161 269.141275,13.6346468 270.111394,14.533582 C271.080668,15.4319544 272.60506,16.1809264 274.684287,16.7802164 L274.684287,16.7802164 L280.076491,18.366225 C286.526315,20.1987022 289.750665,23.7758732 289.750665,29.0977381 C289.750665,31.3530946 289.196392,33.335535 288.085032,35.0447779 C286.976486,36.7543021 285.414956,38.0671132 283.406068,38.9832111 C281.398024,39.8995903 279.089491,40.3576393 276.481594,40.3576393 C273.026814,40.3576393 269.95299,39.6441183 267.256747,38.216795 C264.719753,36.8735974 262.891777,35.0546253 261.775353,32.7595975 C261.730217,32.6669734 261.668162,32.5246986 261.589185,32.3327733 C261.792314,32.2087907 261.927898,32.128137 261.995937,32.0908123 L261.995937,32.0908123 L265.716037,30.0506937 C265.882183,29.9595949 266.151664,29.8171033 266.524481,29.623219 C266.745537,30.0379191 266.891151,30.3141489 266.961323,30.4519086 C267.451728,31.4149931 268.19451,32.2328975 269.078814,32.8535707 C271.286059,34.4024402 273.683219,35.1770156 276.270295,35.1770156 C278.455313,35.1770156 280.242773,34.6570681 281.636333,33.6174545 C283.02905,32.577841 283.724001,31.2298603 283.724001,29.5732312 C283.724001,28.2705489 283.248508,27.1679114 282.297522,26.2692576 C281.345129,25.3706039 279.882636,24.6216319 277.908918,24.0226232 L277.908918,24.0226232 L272.093834,22.3308244 C265.785251,20.4631776 262.630959,16.9211762 262.630959,11.7051015 C262.630959,9.48491463 263.203802,7.51119631 264.349206,5.78422795 C265.493484,4.05754095 267.079492,2.7270044 269.10695,1.79289965 C271.133563,0.860201682 273.433093,0.392023881 276.00582,0.392023881 Z M174.666709,11.1006532 C176.715701,11.1006532 178.52752,11.5603547 180.098137,12.4808224 C181.669789,13.4020661 182.898803,14.7124612 183.782101,16.4073692 C184.663477,18.0983245 185.103735,20.0395629 185.103735,22.2250342 L185.103735,22.2250342 L185.103735,39.957925 L179.031304,39.957925 L179.031304,23.3881635 C179.031304,21.363746 178.49499,19.7631654 177.42645,18.5757177 C176.361957,17.3933665 174.936848,16.8031001 173.133595,16.8031001 C171.187573,16.8031001 169.610608,17.4474503 168.387366,18.7387853 C167.161804,20.0322834 166.548251,21.736356 166.548251,23.8639379 L166.548251,23.8639379 L166.548251,39.957925 L160.422925,39.957925 L160.422925,11.8406218 L165.508717,11.8406218 L165.890814,15.5576271 L165.97309,15.428514 C166.7344,14.2592662 167.739669,13.3048577 168.986915,12.5669348 L168.986915,12.5669348 L169.18586,12.45222 C170.790771,11.5508787 172.618703,11.1006532 174.666709,11.1006532 Z M116.122819,11.1006532 L116.369151,11.1031 C118.248622,11.1406175 119.919231,11.60959 121.373964,12.5101921 C122.891372,13.4495948 124.065955,14.7690527 124.897384,16.4656295 C125.688483,18.0832488 126.100568,19.9101027 126.134906,21.9461017 L126.137247,22.2250342 L126.137247,39.957925 L120.064535,39.957925 L120.064535,22.8594939 C120.064535,21.0102728 119.58049,19.5412566 118.616107,18.4415355 C117.657551,17.3492653 116.355564,16.8031001 114.695215,16.8031001 C112.88966,16.8031001 111.437127,17.3943359 110.319634,18.5796947 C109.239619,19.7250221 108.679591,21.2195469 108.640967,23.0747543 L108.638821,23.2823733 L108.638821,39.957925 L102.56639,39.957925 L102.56639,22.8594939 C102.56639,21.0109111 102.074108,19.5426058 101.092927,18.4431313 C100.1155,17.3495747 98.8045917,16.8031001 97.1444555,16.8031001 C95.3748723,16.8031001 93.9390159,17.3942994 92.8214886,18.5796947 C91.741474,19.7250221 91.1814459,21.2195469 91.1428212,23.0747543 L91.1406754,23.2823733 L91.1406754,39.957925 L85.0153491,39.957925 L85.0153491,11.8406218 L90.169274,11.8406218 L90.4913976,15.4788472 L90.5643159,15.362837 C91.287743,14.2339399 92.2393542,13.3038308 93.417159,12.5742797 L93.615554,12.4545451 C95.1501193,11.5520801 96.8565749,11.1006532 98.7301827,11.1006532 C100.641419,11.1006532 102.349952,11.5706712 103.850516,12.5109054 C105.218624,13.3688046 106.32423,14.5276018 107.163842,15.9833031 L107.184769,16.0204592 C107.975667,14.605392 109.080086,13.4720543 110.498051,12.620365 L110.693354,12.5059715 C112.264606,11.6081522 113.993292,11.140505 115.87633,11.1030932 L116.122819,11.1006532 Z M79.1274881,11.4177424 C79.7857163,11.4177424 80.3624857,11.459773 80.8580147,11.5443402 C80.9567751,11.5612513 81.1044978,11.59688 81.304936,11.6516998 L81.304936,11.6516998 L81.478279,11.6991092 L81.4775437,11.8788172 L81.4763489,16.5447208 C81.4763489,16.5921855 81.475728,16.6596854 81.4744858,16.7473554 L81.4744858,16.7473554 L81.4611687,17.455476 L81.0959347,17.3767117 C80.984176,17.3529729 80.8896767,17.333777 80.812931,17.319185 L80.812931,17.319185 L80.6364476,17.2892824 C80.0452038,17.2121154 79.3471593,17.1730844 78.5459235,17.1730844 C76.3114366,17.1730844 74.5538303,17.7789558 73.2608676,18.9868982 C71.9711358,20.191551 71.3264004,21.8117873 71.3264004,23.8639379 L71.3264004,23.8639379 L71.3264004,39.957925 L65.2010742,39.957925 L65.2010742,11.8406218 L70.7885709,11.8406218 L71.1016901,15.4291408 L71.1532877,15.3466935 C71.8430509,14.2744775 72.7445782,13.4068117 73.8560063,12.7457151 L73.8560063,12.7457151 L74.0431878,12.6374454 C75.4893395,11.8237323 77.1854656,11.4177424 79.1274881,11.4177424 Z M6.38980168,0.792019539 L6.38961411,16.8096651 L25.4276255,16.8096651 L25.4279069,0.792019539 L31.8177085,0.792019539 L31.8177085,39.957925 L25.4279069,39.957925 L25.4276255,22.6707973 L6.38961411,22.6707973 L6.38980168,39.957925 L1.42108547e-13,39.957925 L1.42108547e-13,0.792019539 L6.38980168,0.792019539 Z M53.6317742,27.3233142 L47.9092572,27.3233142 C46.1602897,27.3233142 44.7563328,27.7317034 43.6900784,28.543959 C42.6370669,29.3465967 42.1173388,30.3531212 42.1173388,31.5824004 C42.1173388,32.8142383 42.5939144,33.784389 43.5577177,34.5144628 C44.5357664,35.2566165 45.8077186,35.629625 47.3805877,35.629625 C49.3998581,35.629625 50.9862428,35.0274843 52.1553091,33.8243278 C53.2866483,32.6600066 53.8719282,31.1554116 53.9109468,29.2980874 L53.9130373,29.0977381 L53.9130373,27.6042959 C53.9130373,27.4491469 53.7871095,27.3233142 53.6317742,27.3233142 Z M142.98846,16.6444149 C140.660607,16.6444149 138.797121,17.486927 137.379764,19.1775034 C135.954895,20.876712 135.240548,23.1230187 135.240548,25.9257209 C135.240548,28.6936795 135.954461,30.921043 137.379778,32.6210604 C138.797023,34.3115023 140.660446,35.1538505 142.98846,35.1538505 C145.281346,35.1538505 147.126956,34.3119122 148.545078,32.6210747 C149.970179,30.9209883 150.684038,28.6935761 150.684038,25.9257209 C150.684038,23.123123 149.969745,20.8767663 148.545119,19.1775204 C147.126857,17.4865164 145.281187,16.6444149 142.98846,16.6444149 Z M239.387788,6.09606513 C231.488842,6.09606513 225.085482,12.4994259 225.085482,20.3983718 C225.085482,28.2973176 231.488842,34.7006784 239.387788,34.7006784 C247.286734,34.7006784 253.690095,28.2973176 253.690095,20.3983718 C253.690095,12.4994259 247.286734,6.09606513 239.387788,6.09606513 Z" id="形状结合备份" fill="#e3e3e3"></path>
                <rect id="矩形备份" fill="#317AF7" x="225.788874" y="47.3617368" width="27.197829" height="5.62713704"></rect>
            </g>
        </g>
    </g>
</svg>