<?xml version="1.0" encoding="UTF-8"?>
<svg width="22px" height="22px" viewBox="0 0 22 22" version="1.1" xmlns="http://www.w3.org/2000/svg" xmlns:xlink="http://www.w3.org/1999/xlink">
    <title>编组</title>
    <g id="-蓝牙设置项（SR000I1MI7）" stroke="none" stroke-width="1" fill="none" fill-rule="evenodd">
        <g id="编组" fill="#000000" fill-rule="nonzero">
            <path d="M11,0 C17.0751322,0 22,4.92486775 22,11 C22,17.0751322 17.0751322,22 11,22 C4.92486775,22 0,17.0751322 0,11 C0,4.92486775 4.92486775,0 11,0 Z M11,1.5 C5.75329488,1.5 1.5,5.75329488 1.5,11 C1.5,16.2467051 5.75329488,20.5 11,20.5 C16.2467051,20.5 20.5,16.2467051 20.5,11 C20.5,5.75329488 16.2467051,1.5 11,1.5 Z M11,15 C11.55225,15 12,15.44775 12,16 C12,16.55225 11.55225,17 11,17 C10.44775,17 10,16.55225 10,16 C10,15.44775 10.44775,15 11,15 Z M11.6929199,5.06634025 C13.0644076,5.32950759 14.1648814,6.41591203 14.4322233,7.77544644 C14.7561549,9.4219179 13.8855687,11.0041625 12.390581,11.6453727 C12.0054203,11.8105368 11.7501432,12.2176189 11.7501432,12.6716862 L11.7501432,13.25 C11.7501432,13.6642136 11.4143567,14 11.0001432,14 C10.5859296,14 10.2501432,13.6642136 10.2501432,13.25 L10.2501432,12.6716862 C10.2501432,11.6306191 10.8501216,10.673853 11.7993629,10.2668006 C12.6538963,9.9002855 13.1456712,9.0065105 12.9604236,8.06493852 C12.8115486,7.30785305 12.1835078,6.68784166 11.4104462,6.53950302 C10.1380704,6.29570522 9,7.23197222 9,8.46493686 C9,8.87915043 8.66421356,9.2149369 8.25,9.2149369 C7.83578644,9.2149369 7.5,8.87915043 7.5,8.46493686 C7.5,6.28866322 9.4971863,4.64561935 11.6929199,5.06634025 Z" id="path-1"></path>
        </g>
    </g>
</svg>