<?xml version="1.0" encoding="UTF-8"?>
<svg width="288px" height="288px" viewBox="0 0 288 288" version="1.1" xmlns="http://www.w3.org/2000/svg" xmlns:xlink="http://www.w3.org/1999/xlink">
    <title>手机</title>
    <defs>
        <rect id="path-1" x="0" y="0" width="288" height="288"></rect>
        <rect id="path-3" x="0" y="0" width="264" height="216"></rect>
        <circle id="path-5" cx="41.76" cy="41.76" r="41.76"></circle>
        <circle id="path-7" cx="41.76" cy="41.76" r="41.76"></circle>
        <linearGradient x1="0%" y1="50%" x2="100%" y2="50%" id="linearGradient-9">
            <stop stop-color="#EDDED1" stop-opacity="0" offset="0%"></stop>
            <stop stop-color="#F28930" offset="100%"></stop>
        </linearGradient>
    </defs>
    <g id="手机" stroke="none" stroke-width="1" fill="none" fill-rule="evenodd">
        <g id="编组-5备份-3">
            <mask id="mask-2" fill="white">
                <use xlink:href="#path-1"></use>
            </mask>
            <g id="编组-4" mask="url(#mask-2)">
                <g transform="translate(12.000000, 36.000000)">
                    <mask id="mask-4" fill="white">
                        <use xlink:href="#path-3"></use>
                    </mask>
                    <g id="编组-5备份-2" stroke="none" stroke-width="1" fill="none" fill-rule="evenodd" mask="url(#mask-4)">
                        <g transform="translate(-84.000000, -108.000000)">
                            <path d="M0,0 L432,0 L432,432 L0,432 L0,0 Z" id="矩形" stroke="#C9C9C9" stroke-width="0.9" opacity="0" stroke-dasharray="3.600000286102295,1.2"></path>
                            <g id="编组-3" stroke="none" stroke-width="1" fill-rule="evenodd" transform="translate(164.820000, 107.880000)">
                                <g id="编组-2">
                                    <g id="编组-8备份-2">
                                        <path d="M83.8400266,0.12 C90.2589615,0.12 92.5866224,0.7883444 94.9332891,2.04335547 C97.2799557,3.29836653 99.1216335,5.14004427 100.376645,7.48671093 C101.631656,9.8333776 102.3,12.1610385 102.3,18.5799734 L102.299693,24.3025797 C101.561609,24.839882 100.841004,25.3997454 100.138891,25.9811563 L100.14,21.3616423 C100.14,15.4776186 99.527351,13.3439295 98.3769242,11.1928184 C97.2264973,9.04170725 95.5382928,7.35350266 93.3871816,6.20307584 C91.2360705,5.05264903 89.1023814,4.44 83.2183577,4.44 L83.2183577,4.44 L19.1416423,4.44 C13.2576186,4.44 11.1239295,5.05264903 8.97281836,6.20307584 C6.82170725,7.35350266 5.13350266,9.04170725 3.98307584,11.1928184 C2.83264903,13.3439295 2.22,15.4776186 2.22,21.3616423 L2.22,21.3616423 L2.22,192.958358 C2.22,198.842381 2.83264903,200.976071 3.98307584,203.127182 C5.13350266,205.278293 6.82170725,206.966497 8.97281836,208.116924 C11.1239295,209.267351 13.2576186,209.88 19.1416423,209.88 L19.1416423,209.88 L83.2183577,209.88 C89.1023814,209.88 91.2360705,209.267351 93.3871816,208.116924 C95.5382928,206.966497 97.2264973,205.278293 98.3769242,203.127182 C99.527351,200.976071 100.14,198.842381 100.14,192.958358 L100.14,192.958358 L100.138891,93.2988437 C100.841004,93.8802546 101.561609,94.440118 102.299693,94.9774203 L102.3,197.660027 C102.3,204.078961 101.631656,206.406622 100.376645,208.753289 C99.1216335,211.099956 97.2799557,212.941633 94.9332891,214.196645 C92.5866224,215.451656 90.2589615,216.12 83.8400266,216.12 L18.5199734,216.12 C12.1010385,216.12 9.7733776,215.451656 7.42671093,214.196645 C5.08004427,212.941633 3.23836653,211.099956 1.98335547,208.753289 C0.7283444,206.406622 0.06,204.078961 0.06,197.660027 L0.06,18.5799734 C0.06,12.1610385 0.7283444,9.8333776 1.98335547,7.48671093 C3.23836653,5.14004427 5.08004427,3.29836653 7.42671093,2.04335547 C9.7733776,0.7883444 12.1010385,0.12 18.5199734,0.12 L83.8400266,0.12 Z" id="形状结合" fill="#505259"></path>
                                        <path d="M83.2183577,4.44 C89.1023814,4.44 91.2360705,5.05264903 93.3871816,6.20307584 C95.5382928,7.35350266 97.2264973,9.04170725 98.3769242,11.1928184 C99.527351,13.3439295 100.14,15.4776186 100.14,21.3616423 L100.138891,25.9811563 C90.4636713,33.9930862 84.3,46.0967418 84.3,59.64 C84.3,73.1832582 90.4636713,85.2869138 100.138891,93.2988437 L100.14,192.958358 C100.14,198.842381 99.527351,200.976071 98.3769242,203.127182 C97.2264973,205.278293 95.5382928,206.966497 93.3871816,208.116924 C91.2360705,209.267351 89.1023814,209.88 83.2183577,209.88 L19.1416423,209.88 C13.2576186,209.88 11.1239295,209.267351 8.97281836,208.116924 C6.82170725,206.966497 5.13350266,205.278293 3.98307584,203.127182 C2.83264903,200.976071 2.22,198.842381 2.22,192.958358 L2.22,21.3616423 C2.22,15.4776186 2.83264903,13.3439295 3.98307584,11.1928184 C5.13350266,9.04170725 6.82170725,7.35350266 8.97281836,6.20307584 C11.1239295,5.05264903 13.2576186,4.44 19.1416423,4.44 L83.2183577,4.44 Z" id="形状结合" fill="#FFFFFF" opacity="0.1"></path>
                                    </g>
                                    <g id="编组" transform="translate(84.819692, 18.000000)">
                                        <g id="Group-4" transform="translate(42.860308, 42.000000) scale(-1, 1) translate(-42.860308, -42.000000) translate(0.860308, 0.000000)">
                                            <mask id="mask-6" fill="white">
                                                <use xlink:href="#path-5"></use>
                                            </mask>
                                            <use id="Oval" fill-opacity="0.1" fill="#505259" xlink:href="#path-5"></use>
                                            <mask id="mask-8" fill="white">
                                                <use xlink:href="#path-7"></use>
                                            </mask>
                                            <circle stroke-opacity="0.4" stroke="#FFFFFF" stroke-width="1.92" cx="41.76" cy="41.76" r="42.72"></circle>
                                            <g id="phone" mask="url(#mask-8)">
                                                <g transform="translate(41.040000, -17.568000)" id="phone-copy">
                                                    <g transform="translate(0.098580, 0.025710)"></g>
                                                </g>
                                            </g>
                                            <g id="编组-8备份-2" mask="url(#mask-8)">
                                                <g transform="translate(48.720000, -17.040000)">
                                                    <path d="M139.700027,-1.61029118e-16 C146.118961,9.35625547e-17 148.446622,0.6683444 150.793289,1.92335547 C153.139956,3.17836653 154.981633,5.02004427 156.236645,7.36671093 C157.491656,9.7133776 158.16,12.0410385 158.16,18.4599734 L158.16,306.500027 C158.16,312.918961 157.491656,315.246622 156.236645,317.593289 C154.981633,319.939956 153.139956,321.781633 150.793289,323.036645 C148.446622,324.291656 146.118961,324.96 139.700027,324.96 L22.8130649,324.96 C16.3941299,324.96 14.066469,324.291656 11.7198024,323.036645 C9.3731357,321.781633 7.53145797,319.939956 6.2764469,317.593289 C5.02143584,315.246622 4.35309144,312.918961 4.35309144,306.500027 L4.35309144,18.4599734 C4.35309144,12.0410385 5.02143584,9.7133776 6.2764469,7.36671093 C7.53145797,5.02004427 9.3731357,3.17836653 11.7198024,1.92335547 C14.066469,0.6683444 16.3941299,3.06781794e-15 22.8130649,-5.27997572e-15 L139.700027,-1.61029118e-16 Z M137.988916,6.4992 L24.5241755,6.4992 C18.6401518,6.4992 16.5064626,7.11184903 14.3553515,8.26227584 C12.2042404,9.41270266 10.5160358,11.1009072 9.36560901,13.2520184 C8.2151822,15.4031295 7.60253317,17.5368186 7.60253317,23.4208423 L7.60253317,23.4208423 L7.60253317,298.650624 C7.60253317,304.534648 8.2151822,306.668337 9.36560901,308.819448 C10.5160358,310.970559 12.2042404,312.658764 14.3553515,313.809191 C16.5064626,314.959618 18.6401518,315.572267 24.5241755,315.572267 L24.5241755,315.572267 L137.988916,315.572267 C143.87294,315.572267 146.006629,314.959618 148.15774,313.809191 C150.308851,312.658764 151.997056,310.970559 153.147482,308.819448 C154.297909,306.668337 154.910558,304.534648 154.910558,298.650624 L154.910558,298.650624 L154.910558,23.4208423 C154.910558,17.5368186 154.297909,15.4031295 153.147482,13.2520184 C151.997056,11.1009072 150.308851,9.41270266 148.15774,8.26227584 C146.006629,7.11184903 143.87294,6.4992 137.988916,6.4992 L137.988916,6.4992 Z" id="形状结合" fill="#505259"></path>
                                                    <path d="M24.5030647,6.4576863 L138.010027,6.4576863 C143.89405,6.4576863 146.02774,7.07033534 148.178851,8.22076215 C150.329962,9.37118896 152.018166,11.0593935 153.168593,13.2105047 C154.31902,15.3616158 154.931669,17.4953049 154.931669,23.3793286 L154.931669,298.58246 C154.931669,304.466484 154.31902,306.600173 153.168593,308.751284 C152.018166,310.902395 150.329962,312.5906 148.178851,313.741026 C146.02774,314.891453 143.89405,315.504102 138.010027,315.504102 L24.5030647,315.504102 C18.619041,315.504102 16.4853518,314.891453 14.3342407,313.741026 C12.1831296,312.5906 10.494925,310.902395 9.3444982,308.751284 C8.19407138,306.600173 7.58142235,304.466484 7.58142235,298.58246 L7.58142235,23.3793286 C7.58142235,17.4953049 8.19407138,15.3616158 9.3444982,13.2105047 C10.494925,11.0593935 12.1831296,9.37118896 14.3342407,8.22076215 C16.4853518,7.07033534 18.619041,6.4576863 24.5030647,6.4576863 Z" id="矩形" fill="#FFFFFF" opacity="0.1"></path>
                                                    <path d="M5.3036865,25.92 L5.3036865,25.92 L5.3036865,25.92 L5.3036865,91.68 C2.38987272,91.68 0.0277599449,89.3178872 0.0277599449,86.4040734 L0.0277599449,31.1959266 C0.0277599449,28.2821128 2.38987272,25.92 5.3036865,25.92 Z" id="Rectangle-5-Copy" fill="#505259"></path>
                                                </g>
                                            </g>
                                        </g>
                                        <path d="M69.9300686,15.5171531 L80.588298,24.1503188 C80.9588177,24.4504398 80.9625524,24.9340069 80.588298,25.2371531 L69.9300686,33.8703188 C69.5595489,34.1704398 69.2591833,34.0254146 69.2591833,33.5533399 L69.2600665,27.983649 C66.1086959,27.2665178 61.4971223,26.615186 57.0628876,26.0889433 L56.2767471,25.9967145 C49.7468269,25.2393292 43.8191833,24.7642296 43.8191833,24.7642296 C43.8191833,24.7642296 46.8031931,24.0489462 50.9028872,23.2210334 L51.5771869,23.0858852 C53.05808,22.7913375 54.6642348,22.4869074 56.3146154,22.1987341 L57.0791747,22.0669806 C61.3994387,21.3325343 65.9342804,20.7350981 69.2605193,20.7337383 L69.2591833,15.834132 C69.2591833,15.3589484 69.5558142,15.2140069 69.9300686,15.5171531 Z" id="Combined-Shape-Copy" fill="url(#linearGradient-9)" transform="translate(62.343387, 24.692688) scale(-1, 1) translate(-62.343387, -24.692688) "></path>
                                        <path d="M69.9300686,49.8371531 L80.588298,58.4703188 C80.9588177,58.7704398 80.9625524,59.2540069 80.588298,59.5571531 L69.9300686,68.1903188 C69.5595489,68.4904398 69.2591833,68.3454146 69.2591833,67.8733399 L69.2600665,62.303649 C66.1086959,61.5865178 61.4971223,60.935186 57.0628876,60.4089433 L56.2767471,60.3167145 C49.7468269,59.5593292 43.8191833,59.0842296 43.8191833,59.0842296 C43.8191833,59.0842296 46.8031931,58.3689462 50.9028872,57.5410334 L51.5771869,57.4058852 C53.05808,57.1113375 54.6642348,56.8069074 56.3146154,56.5187341 L57.0791747,56.3869806 C61.3994387,55.6525343 65.9342804,55.0550981 69.2605193,55.0537383 L69.2591833,50.154132 C69.2591833,49.6789484 69.5558142,49.5340069 69.9300686,49.8371531 Z" id="Combined-Shape-Copy备份" fill="url(#linearGradient-9)" transform="translate(62.343387, 59.012688) scale(-1, 1) translate(-62.343387, -59.012688) "></path>
                                    </g>
                                </g>
                            </g>
                        </g>
                    </g>
                </g>
            </g>
        </g>
    </g>
</svg>