<svg viewBox="0 0 32 32" xmlns="http://www.w3.org/2000/svg" xmlns:xlink="http://www.w3.org/1999/xlink" width="32" height="32" fill="none" clip-path="url(#clipPath_0)" customFrame="url(#clipPath_0)">
	<defs>
		<clipPath id="clipPath_0">
			<rect width="32" height="32" x="0" y="0" rx="8" fill="rgb(255,255,255)" />
		</clipPath>
	</defs>
	<rect id="ic_声音识别" width="32" height="32" x="0" y="0" rx="8" fill="rgb(249,160,30)" />
	<g id="组合 543">
		<path id="矢量 3" d="M13.7116 8.28211C12.9317 8.6829 12.3115 9.21097 11.8512 9.86631C11.3908 10.5217 11.0956 11.1878 10.9656 11.8648C10.8465 12.4768 10.8004 13.0293 10.8275 13.5221C10.8546 14.015 10.925 14.4537 11.0388 14.8382C11.1579 15.2228 11.3285 15.6804 11.5506 16.2112C11.5885 16.3033 11.6264 16.4008 11.6643 16.5037C12.2763 17.8848 12.2953 19.1792 11.7212 20.387C11.5154 20.8149 11.4612 21.324 11.5587 21.9143C11.6562 22.5101 11.9324 23.03 12.3874 23.4741C12.8423 23.9237 13.4733 24.1809 14.2803 24.2459C15.136 24.3109 15.8672 24.0834 16.4738 23.5635C17.0749 23.0436 17.5136 22.2636 17.7899 21.2238C17.9198 20.7417 18.0823 20.3328 18.2773 19.997C18.4723 19.6612 18.7323 19.2713 19.0572 18.8272C19.2143 18.6051 19.3795 18.3641 19.5528 18.1041C19.7261 17.8442 19.8859 17.5788 20.0321 17.308C20.59 16.2952 20.9718 15.1822 21.1776 13.969C21.3888 12.7612 21.2263 11.6509 20.6902 10.6381C20.1486 9.58738 19.4445 8.83455 18.5779 8.3796C17.7113 7.92465 16.8393 7.71343 15.9619 7.74593C15.0845 7.77842 14.3344 7.95715 13.7116 8.28211ZM16.7175 9.60634C17.7032 9.74716 18.4425 10.0965 18.9354 10.6543C19.4336 11.2176 19.7261 12.0381 19.8128 13.1159C19.8398 13.2838 19.7992 13.4328 19.6909 13.5628C19.5772 13.6927 19.4363 13.7632 19.2684 13.774C19.1005 13.7902 18.9516 13.7469 18.8216 13.644C18.6916 13.5357 18.6131 13.3922 18.586 13.2134C18.5373 12.6772 18.4398 12.2467 18.2936 11.9217C18.1527 11.5967 17.9415 11.3503 17.6599 11.1824C17.3837 11.0145 17.01 10.8981 16.5388 10.8331C16.1001 10.7681 15.6722 10.8385 15.2552 11.0443C14.8381 11.2555 14.5267 11.5561 14.3209 11.9461C14.0717 12.4119 13.977 12.8966 14.0365 13.4003C14.0961 13.8986 14.2992 14.3156 14.6458 14.6514C15.0141 14.9764 15.2524 15.3446 15.3608 15.7563C15.4691 16.1679 15.4474 16.6066 15.2958 17.0724L15.1008 17.6573C15.0466 17.8252 14.9356 17.9498 14.7677 18.031C14.5998 18.1068 14.4427 18.1122 14.2965 18.0473C14.1286 17.9931 14.0095 17.8929 13.9391 17.7467C13.8686 17.595 13.8578 17.4352 13.9066 17.2673L14.1015 16.6824C14.1665 16.4333 14.1801 16.2248 14.1422 16.0569C14.1042 15.889 13.9932 15.7211 13.8091 15.5532C13.2512 15.0332 12.9181 14.386 12.8098 13.6115C12.6961 12.837 12.8342 12.0869 13.2241 11.3611C13.5653 10.7383 14.0555 10.2644 14.6946 9.93943C15.3391 9.61446 16.0134 9.50343 16.7175 9.60634Z" fill="rgb(255,255,255)" fill-opacity="0.898039222" fill-rule="nonzero" />
		<g id="组合 541">
			<path id="矢量 4" d="M8.34649 15.8213C8.34649 15.4963 8.41419 15.193 8.54959 14.9114C8.6904 14.6243 8.88268 14.3698 9.1264 14.1477C9.25638 14.0448 9.3295 13.9094 9.34575 13.7415C9.35658 13.5682 9.31054 13.4165 9.20764 13.2866C9.10473 13.1566 8.96662 13.0862 8.79331 13.0753C8.62541 13.0645 8.47647 13.1105 8.34649 13.2134C7.95653 13.5384 7.65594 13.9311 7.44471 14.3914C7.22807 14.8518 7.11975 15.3284 7.11975 15.8213C7.11975 16.3304 7.22807 16.8124 7.44471 17.2674C7.65594 17.7223 7.95653 18.1123 8.34649 18.4372C8.47647 18.5564 8.62541 18.6078 8.79331 18.5916C8.96662 18.5808 9.10473 18.5022 9.20764 18.356C9.31054 18.226 9.35658 18.0771 9.34575 17.9092C9.3295 17.7413 9.25638 17.6059 9.1264 17.503C8.88268 17.2917 8.6904 17.0399 8.54959 16.7474C8.41419 16.455 8.34649 16.1462 8.34649 15.8213Z" opacity="0.799999952" fill="rgb(255,255,255)" fill-opacity="0.898039222" fill-rule="nonzero" />
			<path id="矢量 5" d="M5.23492 15.8213C5.23492 15.0955 5.38657 14.4023 5.68987 13.7415C5.99317 13.0753 6.42645 12.5094 6.98972 12.0436C7.11971 11.9407 7.19011 11.8026 7.20095 11.6292C7.21178 11.4613 7.16574 11.3124 7.06284 11.1824C6.95993 11.0524 6.82453 10.982 6.65663 10.9712C6.48874 10.9549 6.3398 11.001 6.20981 11.1093C5.50572 11.7051 4.96141 12.4119 4.57687 13.2297C4.19233 14.0475 4.00006 14.9114 4.00006 15.8213C4.00006 16.7474 4.19233 17.6194 4.57687 18.4372C4.96141 19.255 5.50572 19.9564 6.20981 20.5414C6.32355 20.6443 6.47249 20.6903 6.65663 20.6795C6.83536 20.6686 6.97077 20.6036 7.06284 20.4845C7.16574 20.3437 7.21178 20.1866 7.20095 20.0133C7.19011 19.8454 7.11971 19.71 6.98972 19.6071C6.42645 19.1413 5.99317 18.5753 5.68987 17.9092C5.38657 17.2484 5.23492 16.5524 5.23492 15.8213Z" opacity="0.399999976" fill="rgb(255,255,255)" fill-opacity="0.898039222" fill-rule="nonzero" />
		</g>
		<g id="组合 542">
			<path id="矢量 6" d="M1.22674 2.74749C1.22674 2.42252 1.29444 2.11922 1.42984 1.83759C1.57065 1.55054 1.76292 1.29598 2.00665 1.07393C2.13663 0.971021 2.20975 0.835619 2.226 0.667722C2.23683 0.494408 2.19079 0.342758 2.08789 0.212773C1.98498 0.0827883 1.84687 0.0123796 1.67356 0.00154722C1.50566 -0.00928461 1.35672 0.0367518 1.22674 0.139657C0.83678 0.46462 0.536189 0.857284 0.324963 1.31765C0.108321 1.77801 0 2.25462 0 2.74749C0 3.25659 0.108321 3.73862 0.324963 4.19357C0.536189 4.64852 0.83678 5.03847 1.22674 5.36344C1.35672 5.48259 1.50566 5.53404 1.67356 5.5178C1.84687 5.50696 1.98498 5.42843 2.08789 5.2822C2.19079 5.15221 2.23683 5.00327 2.226 4.83537C2.20975 4.66748 2.13663 4.53207 2.00665 4.42917C1.76292 4.21794 1.57065 3.9661 1.42984 3.67363C1.29444 3.38116 1.22674 3.07245 1.22674 2.74749Z" opacity="0.799999952" fill="rgb(255,255,255)" fill-opacity="0.898039222" fill-rule="nonzero" transform="matrix(-1,0,0,1,24.8746,13.0737)" />
			<path id="矢量 7" d="M1.23486 4.85325C1.23486 4.1275 1.38651 3.43425 1.68981 2.77349C1.99311 2.10731 2.42639 1.54134 2.98966 1.07556C3.11965 0.972652 3.19005 0.834543 3.20089 0.661229C3.21172 0.493331 3.16568 0.34439 3.06278 0.214405C2.95987 0.0844197 2.82447 0.014011 2.65657 0.00317889C2.48868 -0.0130691 2.33973 0.0329673 2.20975 0.141288C1.50566 0.737054 0.961349 1.44385 0.576809 2.26167C0.19227 3.0795 0 3.94336 0 4.85325C0 5.7794 0.19227 6.65138 0.576809 7.4692C0.961349 8.28703 1.50566 8.98841 2.20975 9.57334C2.32349 9.67625 2.47243 9.72228 2.65657 9.71145C2.8353 9.70062 2.9707 9.63563 3.06278 9.51647C3.16568 9.37566 3.21172 9.21859 3.20089 9.04528C3.19005 8.87738 3.11965 8.74198 2.98966 8.63907C2.42639 8.17329 1.99311 7.60731 1.68981 6.94114C1.38651 6.28038 1.23486 5.58442 1.23486 4.85325Z" opacity="0.399999976" fill="rgb(255,255,255)" fill-opacity="0.898039222" fill-rule="nonzero" transform="matrix(-1,0,0,1,28.0001,10.968)" />
		</g>
	</g>
	<rect id="矩形 33" width="20" height="20" x="6" y="6" opacity="0" fill="rgb(196,196,196)" />
</svg>
