<?xml version="1.0" encoding="UTF-8"?>
<svg width="288px" height="288px" viewBox="0 0 288 288" version="1.1" xmlns="http://www.w3.org/2000/svg" xmlns:xlink="http://www.w3.org/1999/xlink">
    <title>放大手势</title>
    <defs>
        <linearGradient x1="100%" y1="50%" x2="0%" y2="50%" id="linearGradient-1">
            <stop stop-color="#FFFFFF" stop-opacity="0" offset="0%"></stop>
            <stop stop-color="#596080" stop-opacity="0.4" offset="100%"></stop>
        </linearGradient>
    </defs>
    <g id="放大手势" stroke="none" stroke-width="1" fill="none" fill-rule="evenodd">
        <g id="编组-2" transform="translate(93.000000, 36.000000)">
            <g id="阴影">
                <g id="底">
                    <path d="M83.6482565,0.238938053 C90.0387891,0.238938053 92.3561506,0.904325177 94.6924338,2.1537831 C97.028717,3.40324102 98.8622457,5.23676974 100.111704,7.57305292 C101.361162,9.90933611 102.026549,12.2266976 102.026549,18.6172302 L102.026549,196.904894 C102.026549,203.295426 101.361162,205.612788 100.111704,207.949071 C98.8622457,210.285354 97.028717,212.118883 94.6924338,213.368341 C92.3561506,214.617799 90.0387891,215.283186 83.6482565,215.283186 L18.6172302,215.283186 C12.2266976,215.283186 9.90933611,214.617799 7.57305292,213.368341 C5.23676974,212.118883 3.40324102,210.285354 2.1537831,207.949071 C0.904325177,205.612788 0.238938053,203.295426 0.238938053,196.904894 L0.238938053,18.6172302 C0.238938053,12.2266976 0.904325177,9.90933611 2.1537831,7.57305292 C3.40324102,5.23676974 5.23676974,3.40324102 7.57305292,2.1537831 C9.90933611,0.904325177 12.2266976,0.238938053 18.6172302,0.238938053 L83.6482565,0.238938053 Z M83.0293384,4.30088496 L19.2361483,4.30088496 C13.3781601,4.30088496 11.2539121,4.91082315 9.11231916,6.05615958 C6.97072624,7.20149601 5.28999158,8.88223066 4.14465516,11.0238236 C2.99931873,13.1654165 2.38938053,15.2896646 2.38938053,21.1476528 L2.38938053,21.1476528 L2.38938053,194.613409 C2.38938053,200.471397 2.99931873,202.595645 4.14465516,204.737238 C5.28999158,206.878831 6.97072624,208.559566 9.11231916,209.704902 C11.2539121,210.850239 13.3781601,211.460177 19.2361483,211.460177 L19.2361483,211.460177 L83.0293384,211.460177 C88.8873266,211.460177 91.0115746,210.850239 93.1531676,209.704902 C95.2947605,208.559566 96.9754951,206.878831 98.1208316,204.737238 C99.266168,202.595645 99.8761062,200.471397 99.8761062,194.613409 L99.8761062,194.613409 L99.8761062,21.1476528 C99.8761062,15.2896646 99.266168,13.1654165 98.1208316,11.0238236 C96.9754951,8.88223066 95.2947605,7.20149601 93.1531676,6.05615958 C91.0115746,4.91082315 88.8873266,4.30088496 83.0293384,4.30088496 L83.0293384,4.30088496 Z" id="形状结合" fill="#505259"></path>
                    <path d="M19.2361483,4.30088496 L83.0293384,4.30088496 C88.8873266,4.30088496 91.0115746,4.91082315 93.1531676,6.05615958 C95.2947605,7.20149601 96.9754951,8.88223066 98.1208316,11.0238236 C99.266168,13.1654165 99.8761062,15.2896646 99.8761062,21.1476528 L99.8761062,194.613409 C99.8761062,200.471397 99.266168,202.595645 98.1208316,204.737238 C96.9754951,206.878831 95.2947605,208.559566 93.1531676,209.704902 C91.0115746,210.850239 88.8873266,211.460177 83.0293384,211.460177 L19.2361483,211.460177 C13.3781601,211.460177 11.2539121,210.850239 9.11231916,209.704902 C6.97072624,208.559566 5.28999158,206.878831 4.14465516,204.737238 C2.99931873,202.595645 2.38938053,200.471397 2.38938053,194.613409 L2.38938053,21.1476528 C2.38938053,15.2896646 2.99931873,13.1654165 4.14465516,11.0238236 C5.28999158,8.88223066 6.97072624,7.20149601 9.11231916,6.05615958 C11.2539121,4.91082315 13.3781601,4.30088496 19.2361483,4.30088496 Z" id="矩形" fill="#FFFFFF" opacity="0.1"></path>
                </g>
                <rect id="Rectangle-3" stroke="#2E88E6" stroke-width="2.38938053" opacity="0.598260789" x="3.5840708" y="25.3274336" width="95.0973451" height="165.106195"></rect>
                <path d="M54.922789,86.9734513 L69.5309735,129.13837 L62.3616131,129.13837 L59.3614148,120.330414 L43.3213657,120.330414 L40.137793,129.13837 L32.9734513,129.13837 L47.9864107,86.9734513 L54.922789,86.9734513 Z M51.2704777,97.4051299 L45.6682155,113.760625 L56.8304239,113.760625 L51.2704777,97.4051299 Z" id="Combined-Shape" fill="#2E88E6" opacity="0.8"></path>
            </g>
            <g id="双指手势" transform="translate(16.196937, 72.600620)">
                <g id="Group-2备份-11" transform="translate(45.396657, 24.486872) scale(-1, 1) rotate(45.000000) translate(-45.396657, -24.486872) translate(20.396657, 14.986872)">
                    <path d="M49.7067611,0 L49.7067611,18.1669381 L9.20962832,18.1669381 L9.209,18.165 L9.08346903,18.1669381 C4.15481921,18.1669381 0.142987356,14.2415737 0.00373830084,9.34660995 L0,9.08346903 C0,4.06680761 4.06680761,0 9.08346903,0 C9.12563428,0 9.16773243,0.0002872986 9.20976163,0.000860045039 L9.20962832,0 L49.7067611,0 Z" id="形状结合" fill="url(#linearGradient-1)"></path>
                    <circle id="Oval" fill-opacity="0.9" fill="#FFFFFF" cx="9.17442107" cy="9.04826178" r="6.02043877"></circle>
                </g>
                <g id="Group-2备份-10" transform="translate(25.017108, 43.711345) scale(1, -1) rotate(45.000000) translate(-25.017108, -43.711345) translate(0.017108, 34.211345)">
                    <path d="M49.7067611,1.8189894e-12 L49.7067611,18.1669381 L9.20962832,18.1669381 L9.209,18.165 L9.08346903,18.1669381 C4.15481921,18.1669381 0.142987356,14.2415737 0.00373830084,9.34660995 L-1.8189894e-12,9.08346903 C-1.8189894e-12,4.06680761 4.06680761,1.8189894e-12 9.08346903,1.8189894e-12 C9.12563428,1.8189894e-12 9.16773243,0.000287298602 9.20976163,0.000860045041 L9.20962832,1.8189894e-12 L49.7067611,1.8189894e-12 Z" id="形状结合" fill="url(#linearGradient-1)"></path>
                    <circle id="Oval" fill-opacity="0.9" fill="#FFFFFF" cx="9.17442107" cy="9.04826178" r="6.02043877"></circle>
                </g>
            </g>
        </g>
    </g>
</svg>