<?xml version="1.0" encoding="UTF-8"?>
<svg width="32px"
     height="32px"
     viewBox="0 0 32 32"
     version="1.1"
     xmlns="http://www.w3.org/2000/svg"
     xmlns:xlink="http://www.w3.org/1999/xlink">
    <title>编组 27备份 2</title>
    <defs>
        <path
            d="M11.1268317,8.96045459 L11.1172247,4.5143256 C11.1149279,3.45137875 10.252594,2.59090615 9.18964463,2.59090615 C8.12736691,2.59090615 7.26622068,3.45205238 7.26622068,4.51433009 L7.26622068,11.6660907 C7.26622068,11.90386 7.07347051,12.0966102 6.83570114,12.0966102 C6.77991621,12.0966102 6.72466298,12.0857686 6.67301436,12.0646883 L4.9111804,11.3455996 L4.9111804,11.3455996 C4.69746663,11.2676565 4.47648659,11.2300884 4.25742997,11.2300884 C3.72357297,11.2300884 3.20232508,11.4542018 2.8302494,11.868099 C2.33379231,12.4203938 2.53275983,13.2581202 3.00912783,13.8283354 L6.56211929,18.0791488 C7.05024154,18.6629663 7.55503347,19 8.31200765,19 L13.5289745,19 C14.7642401,19 15.8244742,18.1128306 16.0529342,16.8881956 L16.9701937,11.9691444 C17.1398824,11.0595204 16.5686255,10.1764532 15.6744471,9.96723754 C12.8459453,9.30547693 11.1875265,8.96973867 11.1268317,8.96045459 Z"
            id="path-1"></path>
    </defs>
    <g
        id="首页"
        stroke="none"
        stroke-width="1"
        fill="none"
        fill-rule="evenodd">
        <g
            id="设置-手机-主页-已登陆全"
            transform="translate(-28.000000, -1066.000000)">
            <g
                id="编组-46备份"
                transform="translate(16.000000, 938.000000)">
                <g
                    id="编组-36"
                    transform="translate(12.000000, 116.000000)">
                    <g
                        id="编组-27备份-2"
                        transform="translate(0.000000, 12.000000)">
                        <circle
                            id="椭圆形"
                            fill="#F9A01E"
                            cx="16"
                            cy="16"
                            r="16"></circle>
                        <rect
                            id="矩形"
                            x="6.4"
                            y="6.4"
                            width="19.2"
                            height="19.2"></rect>
                        <g
                            id="编组"
                            transform="translate(7.000000, 6.000000)">
                            <mask
                                id="mask-2"
                                fill="white">
                                <use xlink:href="#path-1"></use>
                            </mask>
                            <use
                                id="形状结合"
                                fill="#FFFFFF"
                                xlink:href="#path-1"></use>
                            <path
                                d="M2.28416797,15.0360215 C1.56096057,14.4632154 1.18183234,13.5436596 1.30835089,12.6035925 C1.43444201,11.664389 2.04117541,10.8836626 2.88726824,10.5302199 C3.21489145,10.3935496 3.37068879,10.0146295 3.23498054,9.68407309 C3.0992723,9.35373255 2.72399091,9.19655091 2.39615399,9.33343712 C1.13118217,9.86133425 0.223753496,11.0289693 0.0356853772,12.4297859 C-0.152382742,13.8295229 0.413103898,15.2011918 1.49128988,16.0548954 C1.77018635,16.2757701 2.17367795,16.2269747 2.39273457,15.9454296 C2.61179118,15.6638845 2.56327816,15.2566804 2.28416797,15.0360215"
                                id="Fill-3"
                                fill="#FFFFFF"
                                opacity="0.6"></path>
                            <path
                                d="M9.18964463,0 C11.6682926,0 13.6776338,2.02997934 13.6776338,4.53408576 C13.6776338,4.89181524 13.3905851,5.18181229 13.0364925,5.18181229 C12.6823999,5.18181229 12.3953512,4.89181524 12.3953512,4.53408576 C12.3953512,2.74543832 10.9601075,1.29545307 9.18964463,1.29545307 C7.41918177,1.29545307 5.98393805,2.74543832 5.98393805,4.53408576 C5.98393805,4.89181524 5.6968893,5.18181229 5.34279673,5.18181229 C4.98870416,5.18181229 4.70165542,4.89181524 4.70165542,4.53408576 C4.70165542,2.02997934 6.71099663,0 9.18964463,0 Z"
                                id="路径"
                                fill="#FFFFFF"
                                fill-rule="nonzero"
                                opacity="0.6"></path>
                        </g>
                    </g>
                </g>
            </g>
        </g>
    </g>
</svg>