<svg width="480.000031" height="480.000000" viewBox="0 0 480 480" fill="none" xmlns="http://www.w3.org/2000/svg" xmlns:xlink="http://www.w3.org/1999/xlink">
	<desc>
			Created with Pixso.
	</desc>
	<defs>
		<clipPath id="clip12_19">
			<rect id="图标" width="480.000000" height="480.000000" fill="white" fill-opacity="0"/>
		</clipPath>
	</defs>
	<rect id="图标" width="480.000000" height="480.000000" fill="#F9A01E" fill-opacity="1.000000"/>
	<g clip-path="url(#clip12_19)">
		<mask id="mask12_20" mask-type="alpha" maskUnits="userSpaceOnUse" x="151.823242" y="135.863647" width="215.176758" height="246.136353">
			<path id="Fill 5" d="M279.59 231.4L279.43 156.27C279.4 144.99 270.26 135.86 258.98 135.86L242.58 135.86C231.29 135.86 222.13 145.01 222.13 156.31L222.13 280.95C222.13 281.26 221.82 281.47 221.54 281.35L187.09 267.18C183.9 266.01 180.62 265.45 177.36 265.45C169.41 265.45 161.65 268.81 156.12 275.02C148.73 283.3 151.69 295.87 158.78 304.42L211.66 368.18C218.92 376.94 226.43 382 237.7 382L315.34 382C333.72 382 349.5 368.69 352.9 350.32L366.55 276.53C369.08 262.89 360.58 249.64 347.27 246.5C305.17 236.58 280.49 231.54 279.59 231.4Z" fill="#FFFFFF" fill-opacity="1.000000" fill-rule="evenodd"/>
		</mask>
		<path id="Fill 5" d="M279.59 231.4L279.43 156.27C279.4 144.99 270.26 135.86 258.98 135.86L242.58 135.86C231.29 135.86 222.13 145.01 222.13 156.31L222.13 280.95C222.13 281.26 221.82 281.47 221.54 281.35L187.09 267.18C183.9 266.01 180.62 265.45 177.36 265.45C169.41 265.45 161.65 268.81 156.12 275.02C148.73 283.3 151.69 295.87 158.78 304.42L211.66 368.18C218.92 376.94 226.43 382 237.7 382L315.34 382C333.72 382 349.5 368.69 352.9 350.32L366.55 276.53C369.08 262.89 360.58 249.64 347.27 246.5C305.17 236.58 280.49 231.54 279.59 231.4Z" fill="#FFFFFF" fill-opacity="1.000000" fill-rule="evenodd"/>
		<g opacity="0.600000">
			<path id="Fill 3" d="M147.99 322.54C137.23 313.94 131.58 300.15 133.47 286.05C135.34 271.96 144.37 260.25 156.96 254.95C161.84 252.9 164.16 247.21 162.14 242.26C160.12 237.3 154.53 234.94 149.66 237C130.83 244.92 117.33 262.43 114.53 283.44C111.73 304.44 120.14 325.01 136.19 337.82C140.34 341.13 146.34 340.4 149.6 336.18C152.87 331.95 152.14 325.85 147.99 322.54Z" fill="#FFFFFF" fill-opacity="1.000000" fill-rule="evenodd"/>
		</g>
		<g opacity="0.600000">
			<path id="路径" d="M250.76 97C287.65 97 317.55 127.45 317.55 165.01C317.55 170.37 313.28 174.72 308.01 174.72C302.74 174.72 298.47 170.37 298.47 165.01C298.47 138.18 277.11 116.43 250.76 116.43C224.41 116.43 203.05 138.18 203.05 165.01C203.05 170.37 198.78 174.72 193.51 174.72C188.24 174.72 183.97 170.37 183.97 165.01C183.97 127.45 213.87 97 250.76 97Z" fill="#FFFFFF" fill-opacity="1.000000" fill-rule="evenodd"/>
		</g>
	</g>
</svg>
