<?xml version="1.0" encoding="UTF-8"?>
<svg width="320px" height="320px" viewBox="0 0 320 320" version="1.1" xmlns="http://www.w3.org/2000/svg" xmlns:xlink="http://www.w3.org/1999/xlink">
    <title>平板横屏_放大手势</title>
    <defs>
        <linearGradient x1="100%" y1="50%" x2="0%" y2="50%" id="linearGradient-1">
            <stop stop-color="#FFFFFF" stop-opacity="0" offset="0%"></stop>
            <stop stop-color="#596080" stop-opacity="0.4" offset="100%"></stop>
        </linearGradient>
    </defs>
    <g id="平板横屏_放大手势" stroke="none" stroke-width="1" fill="none" fill-rule="evenodd">
        <g id="编组-9" transform="translate(20.000000, 70.000000)">
            <g id="平板" transform="translate(139.538695, 90.701493) rotate(270.000000) translate(-139.538695, -90.701493) translate(49.538695, -48.798507)">
                <path d="M165.260385,1.48401879e-15 C170.228052,-8.62257653e-16 172.029448,0.517237236 173.845553,1.48850064 C175.661657,2.45976404 177.086947,3.88505361 178.05821,5.70115827 C179.029474,7.51726293 179.546711,9.31865888 179.546711,14.2863255 L179.546711,264.32064 C179.546711,269.288306 179.029474,271.089702 178.05821,272.905807 C177.086947,274.721912 175.661657,276.147201 173.845553,277.118465 C172.029448,278.089728 170.228052,278.606965 165.260385,278.606965 L14.2863255,278.606965 C9.31865888,278.606965 7.51726293,278.089728 5.70115827,277.118465 C3.88505361,276.147201 2.45976404,274.721912 1.48850064,272.905807 C0.517237236,271.089702 7.50470685e-16,269.288306 -1.29162391e-15,264.32064 L3.84789766e-16,14.2863255 C-2.23573935e-16,9.31865888 0.517237236,7.51726293 1.48850064,5.70115827 C2.45976404,3.88505361 3.88505361,2.45976404 5.70115827,1.48850064 C7.51726293,0.517237236 9.31865888,8.62257653e-16 14.2863255,-1.48401879e-15 L165.260385,1.48401879e-15 Z M164.450355,5.5721393 L15.0963563,5.5721393 C11.7845786,5.5721393 10.5836479,5.91696413 9.37291148,6.56447306 C8.16217504,7.211982 7.211982,8.16217504 6.56447306,9.37291148 C5.91696413,10.5836479 5.5721393,11.7845786 5.5721393,15.0963563 L5.5721393,15.0963563 L5.5721393,263.510609 C5.5721393,266.822387 5.91696413,268.023317 6.56447306,269.234054 C7.211982,270.44479 8.16217504,271.394983 9.37291148,272.042492 C10.5836479,272.690001 11.7845786,273.034826 15.0963563,273.034826 L15.0963563,273.034826 L164.450355,273.034826 C167.762132,273.034826 168.963063,272.690001 170.173799,272.042492 C171.384536,271.394983 172.334729,270.44479 172.982238,269.234054 C173.629747,268.023317 173.974572,266.822387 173.974572,263.510609 L173.974572,263.510609 L173.974572,15.0963563 C173.974572,11.7845786 173.629747,10.5836479 172.982238,9.37291148 C172.334729,8.16217504 171.384536,7.211982 170.173799,6.56447306 C168.963063,5.91696413 167.762132,5.5721393 164.450355,5.5721393 L164.450355,5.5721393 Z" id="形状结合" fill="#505259"></path>
                <path d="M15.0963563,5.5721393 L164.450355,5.5721393 C167.762132,5.5721393 168.963063,5.91696413 170.173799,6.56447306 C171.384536,7.211982 172.334729,8.16217504 172.982238,9.37291148 C173.629747,10.5836479 173.974572,11.7845786 173.974572,15.0963563 L173.974572,263.510609 C173.974572,266.822387 173.629747,268.023317 172.982238,269.234054 C172.334729,270.44479 171.384536,271.394983 170.173799,272.042492 C168.963063,272.690001 167.762132,273.034826 164.450355,273.034826 L15.0963563,273.034826 C11.7845786,273.034826 10.5836479,272.690001 9.37291148,272.042492 C8.16217504,271.394983 7.211982,270.44479 6.56447306,269.234054 C5.91696413,268.023317 5.5721393,266.822387 5.5721393,263.510609 L5.5721393,15.0963563 C5.5721393,11.7845786 5.91696413,10.5836479 6.56447306,9.37291148 C7.211982,8.16217504 8.16217504,7.211982 9.37291148,6.56447306 C10.5836479,5.91696413 11.7845786,5.5721393 15.0963563,5.5721393 Z" id="screen" fill="#FFFFFF" opacity="0.1"></path>
            </g>
            <rect id="Rectangle-3" stroke="#2E88E6" stroke-width="2.23573491" opacity="0.801548549" x="20.9686137" y="7.8447884" width="236.747129" height="166.166697"></rect>
            <path d="M144.56393,60.9004975 L165.345495,120.955777 L155.146382,120.955777 L150.878308,108.410651 L128.059777,108.410651 L123.530835,120.955777 L113.338861,120.955777 L134.696257,60.9004975 L144.56393,60.9004975 Z M139.37269,75.7595357 L131.293532,98.9767828 L147.390824,98.9767828 L139.37269,75.7595357 Z" id="Combined-Shape" fill="#2E88E6" opacity="0.802083333"></path>
            <g id="双指手势" transform="translate(83.210741, 35.516307)">
                <g id="Group-2备份-11" transform="translate(75.095769, 35.738025) scale(-1, 1) rotate(45.000000) translate(-75.095769, -35.738025) translate(38.095769, 22.238025)">
                    <path d="M73.6725376,0 L73.6725376,26.9260036 L13.6499879,26.9260036 L13.649,26.924 L13.4630018,26.9260036 C6.13086081,26.9260036 0.167704659,21.0646827 0.00347581214,13.7719835 L-1.58369724e-13,13.4630018 C-1.58369724e-13,6.02759122 6.02759122,0 13.4630018,0 C13.5253659,0 13.587631,0.000424036512 13.6497943,0.00126938364 L13.6499879,0 L73.6725376,0 Z" id="形状结合" fill="url(#linearGradient-1)"></path>
                    <circle id="Oval" fill-opacity="0.9" fill="#FFFFFF" cx="13.5978057" cy="13.4108196" r="8.92315235"></circle>
                </g>
                <g id="Group-2备份-10" transform="translate(36.458188, 74.476030) scale(1, -1) rotate(45.000000) translate(-36.458188, -74.476030) translate(-0.541812, 60.976030)">
                    <path d="M73.6725376,0 L73.6725376,26.9260036 L13.6499879,26.9260036 L13.649,26.924 L13.4630018,26.9260036 C6.13086081,26.9260036 0.167704659,21.0646827 0.00347581214,13.7719835 L0,13.4630018 C0,6.02759122 6.02759122,0 13.4630018,0 C13.5253659,0 13.587631,0.000424036512 13.6497943,0.00126938364 L13.6499879,0 L73.6725376,0 Z" id="形状结合" fill="url(#linearGradient-1)"></path>
                    <circle id="Oval" fill-opacity="0.9" fill="#FFFFFF" cx="13.5978057" cy="13.4108196" r="8.92315235"></circle>
                </g>
            </g>
        </g>
    </g>
</svg>