<?xml version="1.0" encoding="UTF-8"?>
<svg width="382px" height="382px" viewBox="0 0 382 382" version="1.1" xmlns="http://www.w3.org/2000/svg" xmlns:xlink="http://www.w3.org/1999/xlink">
    <title>平板竖屏_放大手势</title>
    <defs>
        <linearGradient x1="100%" y1="50%" x2="0%" y2="50%" id="linearGradient-1">
            <stop stop-color="#FFFFFF" stop-opacity="0" offset="0%"></stop>
            <stop stop-color="#596080" stop-opacity="0.4" offset="100%"></stop>
        </linearGradient>
    </defs>
    <g id="平板竖屏_放大手势" stroke="none" stroke-width="1" fill="none" fill-rule="evenodd">
        <g id="编组-2" transform="translate(190.500000, 191.000000) rotate(-270.000000) translate(-190.500000, -191.000000) translate(49.500000, 100.500000)">
            <g id="img_device_pad" transform="translate(0.091488, 0.643750)">
                <path d="M0.837384905,15.2795556 C0.837384905,10.2926395 1.35662642,8.48426318 2.33165343,6.66112117 C3.30668045,4.83797916 4.73749297,3.40716664 6.56063498,2.43213962 C8.38377699,1.45711261 10.1921533,0.937871093 15.1790694,0.937871093 L266.182259,0.937871093 C271.169175,0.937871093 272.977551,1.45711261 274.800693,2.43213962 C276.623835,3.40716664 278.054648,4.83797916 279.029675,6.66112117 C280.004702,8.48426318 280.523943,10.2926395 280.523943,15.2795556 L280.523943,165.595584 C280.523943,170.5825 280.004702,172.390876 279.029675,174.214018 C278.054648,176.03716 276.623835,177.467973 274.800693,178.443 C272.977551,179.418027 271.169175,179.937268 266.182259,179.937268 L15.1790694,179.937268 C10.1921533,179.937268 8.38377699,179.418027 6.56063498,178.443 C4.73749297,177.467973 3.30668045,176.03716 2.33165343,174.214018 C1.35662642,172.390876 0.837384905,170.5825 0.837384905,165.595584 L0.837384905,15.2795556 Z M6.43111607,16.0541478 L6.43111607,164.820992 C6.43111607,168.145602 6.77727708,169.351187 7.42729509,170.566615 C8.0773131,171.782043 9.03118811,172.735918 10.2466161,173.385936 C11.4620441,174.035954 12.6676283,174.382115 15.9922391,174.382115 L15.9922391,174.382115 L265.369089,174.382115 C268.6937,174.382115 269.899284,174.035954 271.114712,173.385936 C272.33014,172.735918 273.284015,171.782043 273.934033,170.566615 C274.584051,169.351187 274.930212,168.145602 274.930212,164.820992 L274.930212,164.820992 L274.930212,16.0541478 C274.930212,12.7295371 274.584051,11.5239529 273.934033,10.3085248 C273.284015,9.09309684 272.33014,8.13922183 271.114712,7.48920382 C269.899284,6.83918581 268.6937,6.4930248 265.369089,6.4930248 L265.369089,6.4930248 L15.9922391,6.4930248 C12.6676283,6.4930248 11.4620441,6.83918581 10.2466161,7.48920382 C9.03118811,8.13922183 8.0773131,9.09309684 7.42729509,10.3085248 C6.77727708,11.5239529 6.43111607,12.7295371 6.43111607,16.0541478 L6.43111607,16.0541478 Z" id="形状结合" fill="#505259"></path>
                <path d="M274.930212,12.086756 L274.930212,168.788383 C274.930212,171.877716 272.425813,174.382115 269.336481,174.382115 L13.4311161,174.382115 C9.56512282,174.382115 6.43111607,171.248108 6.43111607,167.382115 L6.43111607,13.4930248 C6.43111607,9.62703155 9.56512282,6.4930248 13.4311161,6.4930248 L269.336481,6.4930248 C272.425813,6.4930248 274.930212,8.99742355 274.930212,12.086756 Z" id="形状结合" fill="#FFFFFF" opacity="0.1"></path>
            </g>
        </g>
        <path d="M272.745357,71.3447884 L272.745357,311.109053 L107.092002,311.109053 L107.092002,71.3447884 L272.745357,71.3447884 Z" id="Rectangle-3" stroke="#2E88E6" stroke-width="2.23573491" opacity="0.801548549"></path>
        <path d="M196.56393,160.900498 L217.345495,220.955777 L207.146382,220.955777 L202.878308,208.410651 L180.059777,208.410651 L175.530835,220.955777 L165.338861,220.955777 L186.696257,160.900498 L196.56393,160.900498 Z M191.37269,175.759536 L183.293532,198.976783 L199.390824,198.976783 L191.37269,175.759536 Z" id="Combined-Shape" fill="#2E88E6" opacity="0.802083333"></path>
        <g id="双指手势" transform="translate(135.210741, 135.516307)">
            <g id="Group-2备份-11" transform="translate(75.095769, 35.738025) scale(-1, 1) rotate(45.000000) translate(-75.095769, -35.738025) translate(38.095769, 22.238025)">
                <path d="M73.6725376,0 L73.6725376,26.9260036 L13.6499879,26.9260036 L13.649,26.924 L13.4630018,26.9260036 C6.13086081,26.9260036 0.167704659,21.0646827 0.00347581214,13.7719835 L-1.58369724e-13,13.4630018 C-1.58369724e-13,6.02759122 6.02759122,0 13.4630018,0 C13.5253659,0 13.587631,0.000424036512 13.6497943,0.00126938364 L13.6499879,0 L73.6725376,0 Z" id="形状结合" fill="url(#linearGradient-1)"></path>
                <circle id="Oval" fill-opacity="0.9" fill="#FFFFFF" cx="13.5978057" cy="13.4108196" r="8.92315235"></circle>
            </g>
            <g id="Group-2备份-10" transform="translate(36.458188, 74.476030) scale(1, -1) rotate(45.000000) translate(-36.458188, -74.476030) translate(-0.541812, 60.976030)">
                <path d="M73.6725376,0 L73.6725376,26.9260036 L13.6499879,26.9260036 L13.649,26.924 L13.4630018,26.9260036 C6.13086081,26.9260036 0.167704659,21.0646827 0.00347581214,13.7719835 L0,13.4630018 C0,6.02759122 6.02759122,0 13.4630018,0 C13.5253659,0 13.587631,0.000424036512 13.6497943,0.00126938364 L13.6499879,0 L73.6725376,0 Z" id="形状结合" fill="url(#linearGradient-1)"></path>
                <circle id="Oval" fill-opacity="0.9" fill="#FFFFFF" cx="13.5978057" cy="13.4108196" r="8.92315235"></circle>
            </g>
        </g>
    </g>
</svg>