<?xml version="1.0" encoding="UTF-8"?>
<svg width="320px" height="320px" viewBox="0 0 320 320" version="1.1" xmlns="http://www.w3.org/2000/svg" xmlns:xlink="http://www.w3.org/1999/xlink">
    <title>平板横屏</title>
    <defs>
        <circle id="path-1" cx="40.1383149" cy="39.5026567" r="39.4366197"></circle>
        <linearGradient x1="0%" y1="50%" x2="100%" y2="50%" id="linearGradient-3">
            <stop stop-color="#EDDED1" stop-opacity="0" offset="0%"></stop>
            <stop stop-color="#F28930" offset="100%"></stop>
        </linearGradient>
    </defs>
    <g id="平板横屏" stroke="none" stroke-width="1" fill="none" fill-rule="evenodd">
        <g id="编组-2" transform="translate(20.000000, 27.000000)">
            <g id="img_device_pad" transform="translate(1.077844, 58.898204)">
                <path d="M262.85498,0.926147705 C267.77956,0.926147705 269.565332,1.4388987 271.365684,2.40173788 C273.166037,3.36457706 274.578964,4.77750442 275.541804,6.57785715 C276.504643,8.37820989 277.017394,10.1639815 277.017394,15.0885612 L277.017394,163.525639 C277.017394,168.450219 276.504643,170.23599 275.541804,172.036343 C274.578964,173.836696 273.166037,175.249623 271.365684,176.212462 C269.565332,177.175301 267.77956,177.688052 262.85498,177.688052 L14.9893311,177.688052 C10.0647514,177.688052 8.27897977,177.175301 6.47862704,176.212462 C4.67827431,175.249623 3.26534694,173.836696 2.30250777,172.036343 C1.33966859,170.23599 0.826917593,168.450219 0.826917593,163.525639 L0.826917593,15.0885612 C0.826917593,10.1639815 1.33966859,8.37820989 2.30250777,6.57785715 C3.26534694,4.77750442 4.67827431,3.36457706 6.47862704,2.40173788 C8.27897977,1.4388987 10.0647514,0.926147705 14.9893311,0.926147705 L19.4897218,0.92671018 C20.4850338,2.84906383 21.6280274,4.68260067 22.9036854,6.41230366 L15.7923361,6.41186199 C12.509283,6.41186199 11.3187686,6.75369599 10.1185334,7.39558877 C8.91829826,8.03748156 7.97634668,8.97943313 7.3344539,10.1796683 C6.69256111,11.3799034 6.35072712,12.5704178 6.35072712,15.853471 L6.35072712,162.760729 C6.35072712,166.043782 6.69256111,167.234297 7.3344539,168.434532 C7.97634668,169.634767 8.91829826,170.576719 10.1185334,171.218611 C11.275903,171.837579 12.4242338,172.177539 15.4484918,172.201032 L15.7923361,172.202338 L262.051975,172.202338 C265.335028,172.202338 266.525543,171.860504 267.725778,171.218611 C268.926013,170.576719 269.867965,169.634767 270.509857,168.434532 C271.128826,167.277162 271.468785,166.128831 271.492278,163.104573 L271.493584,162.760729 L271.493584,15.853471 C271.493584,12.5704178 271.15175,11.3799034 270.509857,10.1796683 C269.867965,8.97943313 268.926013,8.03748156 267.725778,7.39558877 C266.568408,6.77662073 265.420078,6.43666143 262.39582,6.41316813 L262.051975,6.41186199 L88.9406259,6.41230366 C90.216284,4.68260067 91.3592776,2.84906383 92.3545896,0.92671018 L262.85498,0.926147705 Z" id="形状结合" fill="#505259"></path>
                <path d="M263.20787,9.21186199 C266.258586,9.21186199 268.731679,11.6849558 268.731679,14.7356715 L268.731679,163.878529 C268.731679,166.929244 266.258586,169.402338 263.20787,169.402338 L14.6364414,169.402338 C11.5857256,169.402338 9.11263188,166.929244 9.11263188,163.878529 L9.11263188,14.7356715 C9.11263188,11.6849558 11.5857256,9.21186199 14.6364414,9.21186199 L25.1639879,9.21223963 C32.6768684,17.7294164 43.6721187,23.1017964 55.9221557,23.1017964 C68.1721926,23.1017964 79.167443,17.7294164 86.6803235,9.21223963 L263.20787,9.21186199 Z" id="形状结合" fill="#FFFFFF" opacity="0.1"></path>
            </g>
            <g id="编组" transform="translate(57.000000, 40.500000) rotate(-90.000000) translate(-57.000000, -40.500000) translate(17.000000, 1.000000)">
                <circle id="Oval备份-2" stroke-opacity="0.4" stroke="#FFFFFF" stroke-width="1.92" fill-opacity="0.1" fill="#FFFFFF" cx="40.1383149" cy="39.5026567" r="40.3966197"></circle>
                <mask id="mask-2" fill="white">
                    <use xlink:href="#path-1"></use>
                </mask>
                <use id="Oval备份-3" fill-opacity="0.1" fill="#505259" xlink:href="#path-1"></use>
                <path d="M62.1214853,18.1526983 L72.3758504,26.458734 C72.7323303,26.7474827 72.7359235,27.2127264 72.3758504,27.5043856 L62.1214853,35.8104214 C61.7650054,36.0991701 61.4760213,35.9596402 61.4760213,35.5054535 L61.477009,30.1468421 C59.2449067,29.6388926 56.2513597,29.1652541 53.1250155,28.7486878 L52.3432829,28.6460404 C44.8975443,27.6823691 37,27.0493823 37,27.0493823 C37,27.0493823 42.5827513,25.7111663 48.8739484,24.6070087 L49.6319806,24.4757339 C50.519591,24.3241255 51.4172654,24.1783373 52.3116288,24.0426836 L53.0771032,23.9289916 L53.0771032,23.9289916 L53.8390841,23.8208671 C56.6338931,23.4340313 59.3197593,23.172508 61.4771744,23.1716154 L61.4760213,18.4576662 C61.4760213,18.0004883 61.7614122,17.861039 62.1214853,18.1526983 Z" id="Combined-Shape-Copy" fill="url(#linearGradient-3)" mask="url(#mask-2)" transform="translate(54.822280, 26.980551) scale(-1, 1) translate(-54.822280, -26.980551) "></path>
                <path d="M62.1214853,45.1526983 L72.3758504,53.458734 C72.7323303,53.7474827 72.7359235,54.2127264 72.3758504,54.5043856 L62.1214853,62.8104214 C61.7650054,63.0991701 61.4760213,62.9596402 61.4760213,62.5054535 L61.477009,57.1468421 C59.2449067,56.6388926 56.2513597,56.1652541 53.1250155,55.7486878 L52.3432829,55.6460404 C44.8975443,54.6823691 37,54.0493823 37,54.0493823 C37,54.0493823 42.5827513,52.7111663 48.8739484,51.6070087 L49.6319806,51.4757339 C50.519591,51.3241255 51.4172654,51.1783373 52.3116288,51.0426836 L53.0771032,50.9289916 L53.0771032,50.9289916 L53.8390841,50.8208671 C56.6338931,50.4340313 59.3197593,50.172508 61.4771744,50.1716154 L61.4760213,45.4576662 C61.4760213,45.0004883 61.7614122,44.861039 62.1214853,45.1526983 Z" id="Combined-Shape-Copy备份" fill="url(#linearGradient-3)" mask="url(#mask-2)" transform="translate(54.822280, 53.980551) scale(-1, 1) translate(-54.822280, -53.980551) "></path>
                <path d="M-81.4952685,-22.962191 L5.63251398,-22.6434272 C13.6518635,-22.6140878 16.5571706,-21.7711749 19.4853213,-20.1961359 C22.4134719,-18.6210968 24.7098252,-16.3163267 26.2741409,-13.3824333 C27.8384566,-10.4485399 28.6707347,-7.54016836 28.6707347,0.479234786 L28.6707347,229.769148 C28.6707347,239.725831 20.5992485,247.797317 10.6425657,247.797317 L10.5766086,247.797196 L10.5766086,247.797196 L-76.5511739,247.478433 C-84.0893624,247.450853 -87.1087831,246.704401 -89.8760512,245.306724 L-90.2282784,245.124764 C-90.2868643,245.09385 -90.3454181,245.062642 -90.4039811,245.031141 C-93.3321318,243.456102 -95.6284851,241.151332 -97.1928008,238.217439 C-98.7258302,235.342223 -99.5558106,232.491519 -99.5883966,224.830843 L-99.5893946,-4.93414269 C-99.5893946,-14.8908255 -91.5179084,-22.9623117 -81.5612255,-22.9623117 L-81.4952685,-22.962191 L-81.4952685,-22.962191 Z M1.22738314,-17.6199391 L-75.7000145,-17.6199391 C-83.0665543,-17.6199391 -85.7378397,-16.8529294 -88.4309365,-15.4126454 C-91.1240334,-13.9723615 -93.2375915,-11.8588033 -94.6778755,-9.16570644 C-96.1181595,-6.47260958 -96.8851692,-3.80132424 -96.8851692,3.56521558 L-96.8851692,3.56521558 L-96.8851692,218.396784 C-96.8851692,225.763324 -96.1181595,228.434609 -94.6778755,231.127706 C-93.2375915,233.820803 -91.1240334,235.934361 -88.4309365,237.374645 C-85.7378397,238.814929 -83.0665543,239.581939 -75.7000145,239.581939 L-75.7000145,239.581939 L1.22738314,239.581939 C8.59392296,239.581939 11.2652083,238.814929 13.9583052,237.374645 C16.651402,235.934361 18.7649602,233.820803 20.2052441,231.127706 C21.6455281,228.434609 22.4125378,225.763324 22.4125378,218.396784 L22.4125378,218.396784 L22.4125378,3.56521558 C22.4125378,-3.80132424 21.6455281,-6.47260958 20.2052441,-9.16570644 C18.7649602,-11.8588033 16.651402,-13.9723615 13.9583052,-15.4126454 C11.2652083,-16.8529294 8.59392296,-17.6199391 1.22738314,-17.6199391 L1.22738314,-17.6199391 Z" id="形状结合备份" fill="#505259" mask="url(#mask-2)"></path>
                <path d="M11.1707347,38.1372314 L49.1707347,38.1372314 C50.8275889,38.1372314 52.1707347,39.4803771 52.1707347,41.1372314 L52.1707347,41.1372314 L52.1707347,41.1372314 L8.17073468,41.1372314 C8.17073468,39.4803771 9.51388043,38.1372314 11.1707347,38.1372314 Z" id="Rectangle备份" fill="#505259" mask="url(#mask-2)" transform="translate(30.170735, 39.637231) rotate(90.000000) translate(-30.170735, -39.637231) "></path>
            </g>
            <path d="M-3.34038668,81.1667269 L6.77697854,81.1667269 C7.15795582,81.1667269 7.46679892,81.47557 7.46679892,81.8565473 L7.46679892,83.1007949 L7.46679892,83.1007949 L-4.03020707,83.1007949 L-4.03020707,81.8565473 C-4.03020707,81.47557 -3.72136396,81.1667269 -3.34038668,81.1667269 Z" id="Rectangle备份-3" fill="#505259" transform="translate(1.718296, 82.133761) scale(-1, 1) rotate(90.000000) translate(-1.718296, -82.133761) "></path>
        </g>
    </g>
</svg>