<?xml version="1.0" encoding="UTF-8"?>
<svg width="382px" height="382px" viewBox="0 0 382 382" version="1.1" xmlns="http://www.w3.org/2000/svg" xmlns:xlink="http://www.w3.org/1999/xlink">
    <title>平板竖屏</title>
    <defs>
        <circle id="path-1" cx="40.6463949" cy="40.0026903" r="39.9358174"></circle>
        <linearGradient x1="0%" y1="50%" x2="100%" y2="50%" id="linearGradient-3">
            <stop stop-color="#EDDED1" stop-opacity="0" offset="0%"></stop>
            <stop stop-color="#F28930" offset="100%"></stop>
        </linearGradient>
    </defs>
    <g id="平板竖屏" stroke="none" stroke-width="1" fill="none" fill-rule="evenodd">
        <g id="编组-2" transform="translate(218.500000, 191.000000) rotate(-270.000000) translate(-218.500000, -191.000000) translate(77.000000, 71.000000)">
            <g id="img_device_pad" transform="translate(1.091488, 59.643750)">
                <path d="M266.182259,0.937871093 C271.169175,0.937871093 272.977551,1.45711261 274.800693,2.43213962 C276.623835,3.40716664 278.054648,4.83797916 279.029675,6.66112117 C280.004702,8.48426318 280.523943,10.2926395 280.523943,15.2795556 L280.523943,165.595584 C280.523943,170.5825 280.004702,172.390876 279.029675,174.214018 C278.054648,176.03716 276.623835,177.467973 274.800693,178.443 C272.977551,179.418027 271.169175,179.937268 266.182259,179.937268 L15.1790694,179.937268 C10.1921533,179.937268 8.38377699,179.418027 6.56063498,178.443 C4.73749297,177.467973 3.30668045,176.03716 2.33165343,174.214018 C1.35662642,172.390876 0.837384905,170.5825 0.837384905,165.595584 L0.837384905,15.2795556 C0.837384905,10.2926395 1.35662642,8.48426318 2.33165343,6.66112117 C3.30668045,4.83797916 4.73749297,3.40716664 6.56063498,2.43213962 C8.38377699,1.45711261 10.1921533,0.937871093 15.1790694,0.937871093 L19.7365357,0.938650366 C20.7445503,2.88551075 21.9021429,4.74241292 23.1941022,6.49414554 L15.9922391,6.4930248 C12.6676283,6.4930248 11.4620441,6.83918581 10.2466161,7.48920382 C9.03118811,8.13922183 8.0773131,9.09309684 7.42729509,10.3085248 C6.77727708,11.5239529 6.43111607,12.7295371 6.43111607,16.0541478 L6.43111607,164.820992 C6.43111607,168.145602 6.77727708,169.351187 7.42729509,170.566615 C8.0773131,171.782043 9.03118811,172.735918 10.2466161,173.385936 C11.418636,174.012739 12.5815026,174.357001 15.6440423,174.380792 L15.9922391,174.382115 L265.369089,174.382115 C268.6937,174.382115 269.899284,174.035954 271.114712,173.385936 C272.33014,172.735918 273.284015,171.782043 273.934033,170.566615 C274.560836,169.394595 274.905099,168.231728 274.928889,165.169188 L274.930212,164.820992 L274.930212,16.0541478 C274.930212,12.7295371 274.584051,11.5239529 273.934033,10.3085248 C273.284015,9.09309684 272.33014,8.13922183 271.114712,7.48920382 C269.942692,6.86240074 268.779825,6.51813816 265.717286,6.49434747 L265.369089,6.4930248 L90.0659599,6.49414554 C91.3579192,4.74241292 92.5155118,2.88551075 93.5235264,0.938650366 L266.182259,0.937871093 Z" id="形状结合" fill="#505259"></path>
                <path d="M266.539615,9.32846784 C269.628948,9.32846784 272.133346,11.8328666 272.133346,14.922199 L272.133346,165.95294 C272.133346,169.042273 269.628948,171.546672 266.539615,171.546672 L14.8217128,171.546672 C11.7323804,171.546672 9.22798165,169.042273 9.22798165,165.95294 L9.22798165,14.922199 C9.22798165,11.8328666 11.7323804,9.32846784 14.8217128,9.32846784 L25.4830423,9.32944307 C33.0910098,17.9540887 44.2252146,23.3942242 56.6300311,23.3942242 C69.0348476,23.3942242 80.1690523,17.9540887 87.7770198,9.32944307 L266.539615,9.32846784 Z" id="形状结合" fill="#FFFFFF" opacity="0.1"></path>
            </g>
            <g id="编组" transform="translate(57.721519, 41.018987) rotate(-90.000000) translate(-57.721519, -41.018987) translate(17.221519, 1.018987)">
                <circle id="Oval备份-2" stroke-opacity="0.4" stroke="#FFFFFF" stroke-width="1.9443038" fill-opacity="0.1" fill="#FFFFFF" cx="40.6463949" cy="40.0026903" r="40.9079693"></circle>
                <mask id="mask-2" fill="white">
                    <use xlink:href="#path-1"></use>
                </mask>
                <use id="Oval备份-3" fill-opacity="0.1" fill="#505259" xlink:href="#path-1"></use>
                <path d="M62.9078332,18.3824792 L73.2920004,26.7936547 C73.6529927,27.0860585 73.6566314,27.5571913 73.2920004,27.8525424 L62.9078332,36.2637179 C62.5468409,36.5561216 62.2541988,36.4148255 62.2541988,35.9548896 L62.2538442,30.5281394 C59.6559044,29.9370344 56.0398059,29.3918217 52.3717082,28.9274826 L51.1902797,28.7808405 L51.1902797,28.7808405 L50.404202,28.6863113 L50.404202,28.6863113 L49.6218333,28.5944574 C43.2534109,27.8554508 37.4683544,27.3917796 37.4683544,27.3917796 L37.4749582,27.3901998 L37.5270999,27.3777836 C38.1999682,27.2179768 44.5492033,25.7232262 51.1959677,24.62855 L51.9639164,24.5041154 C55.6760727,23.9126983 59.4163776,23.4662315 62.2541238,23.4649275 L62.2541988,18.6913075 C62.2541988,18.2283426 62.5432022,18.0871281 62.9078332,18.3824792 Z" id="Combined-Shape-Copy" fill="url(#linearGradient-3)" mask="url(#mask-2)" transform="translate(55.516233, 27.322077) scale(-1, 1) translate(-55.516233, -27.322077) "></path>
                <path d="M62.9078332,45.7242514 L73.2920004,54.1354269 C73.6529927,54.4278306 73.6566314,54.8989635 73.2920004,55.1943146 L62.9078332,63.60549 C62.5468409,63.8978938 62.2541988,63.7565977 62.2541988,63.2966618 L62.2538442,57.8699116 C59.6559044,57.2788066 56.0398059,56.7335938 52.3717082,56.2692548 L51.1902797,56.1226127 L51.1902797,56.1226127 L50.404202,56.0280834 L50.404202,56.0280834 L49.6218333,55.9362295 C43.2534109,55.197223 37.4683544,54.7335517 37.4683544,54.7335517 L37.4749582,54.7319719 L37.5270999,54.7195557 C38.1999682,54.5597489 44.5492033,53.0649984 51.1959677,51.9703222 L51.9639164,51.8458876 C55.6760727,51.2544704 59.4163776,50.8080037 62.2541238,50.8066997 L62.2541988,46.0330797 C62.2541988,45.5701147 62.5432022,45.4289003 62.9078332,45.7242514 Z" id="Combined-Shape-Copy备份" fill="url(#linearGradient-3)" mask="url(#mask-2)" transform="translate(55.516233, 54.663849) scale(-1, 1) translate(-55.516233, -54.663849) "></path>
                <path d="M-82.5268542,-23.2528517 L5.70381163,-22.9300529 C13.8246719,-22.9003421 16.7667551,-22.0467594 19.7319709,-20.4517832 C22.6971867,-18.8568069 25.0226078,-16.5228625 26.606725,-13.5518312 C28.1908422,-10.5807999 29.0336554,-7.63561353 29.0336554,0.485301049 L29.0336554,232.677618 C29.0336554,242.760335 20.8599985,250.933992 10.7772817,250.933992 L10.7104898,250.93387 L10.7104898,250.93387 L-77.5201761,250.611071 C-85.6410363,250.58136 -88.5831195,249.727777 -91.5483353,248.132801 C-94.5135512,246.537825 -96.8389723,244.203881 -98.4230894,241.232849 C-98.4852117,241.116338 -98.5461939,240.999867 -98.60603,240.883122 L-98.7820936,240.53175 C-100.105459,237.826793 -100.819273,234.810967 -100.849048,227.667487 L-100.85002,-4.99660019 C-100.85002,-15.079317 -92.6763629,-23.2529739 -82.5936461,-23.2529739 L-82.5268542,-23.2528517 L-82.5268542,-23.2528517 Z M1.24291963,-17.8429763 L-76.6582425,-17.8429763 C-84.1180297,-17.8429763 -86.8231288,-17.0662576 -89.5503155,-15.6077422 C-92.2775022,-14.1492268 -94.4178142,-12.0089147 -95.8763296,-9.28172804 C-97.334845,-6.55454135 -98.1115638,-3.84944227 -98.1115638,3.61034489 L-98.1115638,3.61034489 L-98.1115638,221.1613 C-98.1115638,228.621088 -97.334845,231.326187 -95.8763296,234.053373 C-94.4178142,236.78056 -92.2775022,238.920872 -89.5503155,240.379387 C-86.8231288,241.837903 -84.1180297,242.614622 -76.6582425,242.614622 L-76.6582425,242.614622 L1.24291963,242.614622 C8.70270679,242.614622 11.4078059,241.837903 14.1349926,240.379387 C16.8621792,238.920872 19.0024913,236.78056 20.4610067,234.053373 C21.9195221,231.326187 22.6962409,228.621088 22.6962409,221.1613 L22.6962409,221.1613 L22.6962409,3.61034489 C22.6962409,-3.84944227 21.9195221,-6.55454135 20.4610067,-9.28172804 C19.0024913,-12.0089147 16.8621792,-14.1492268 14.1349926,-15.6077422 C11.4078059,-17.0662576 8.70270679,-17.8429763 1.24291963,-17.8429763 L1.24291963,-17.8429763 Z" id="形状结合备份" fill="#505259" mask="url(#mask-2)"></path>
                <path d="M11.3121364,38.6199811 L49.793149,38.6199811 C51.4709761,38.6199811 52.8311237,39.9801287 52.8311237,41.6579558 L52.8311237,41.6579558 L52.8311237,41.6579558 L8.2741617,41.6579558 C8.2741617,39.9801287 9.63430929,38.6199811 11.3121364,38.6199811 Z" id="Rectangle备份" fill="#505259" mask="url(#mask-2)" transform="translate(30.552643, 40.138968) rotate(90.000000) translate(-30.552643, -40.138968) "></path>
            </g>
            <path d="M-3.38267005,82.1941538 L6.86276307,82.1941538 C7.24856285,82.1941538 7.56131536,82.5069063 7.56131536,82.8927061 L7.56131536,84.1527037 L7.56131536,84.1527037 L-4.08122235,84.1527037 L-4.08122235,82.8927061 C-4.08122235,82.5069063 -3.76846983,82.1941538 -3.38267005,82.1941538 Z" id="Rectangle备份-3" fill="#505259" transform="translate(1.740047, 83.173429) scale(-1, 1) rotate(90.000000) translate(-1.740047, -83.173429) "></path>
        </g>
    </g>
</svg>