<?xml version="1.0" encoding="UTF-8"?>
<svg width="48px" height="48px" viewBox="0 0 48 48" version="1.1" xmlns="http://www.w3.org/2000/svg"
     xmlns:xlink="http://www.w3.org/1999/xlink">
    <title>断开连接</title>
    <g id="断开连接" stroke="none" stroke-width="1" fill="none" fill-rule="evenodd">
        <g id="编组" transform="translate(10.000000, 10.000000)" fill="#000000">
            <circle id="椭圆形备份" opacity="0.049849" cx="14" cy="14" r="14"></circle>
            <path d="M8.30881625,7.62085284 L8.33221456,7.64278468 L8.48456711,7.79513723 L20.204862,19.5154321 C20.2058693,19.5164395 20.2068816,19.5174388 20.2078987,19.5184301 L20.3572146,19.6677847 C20.5475951,19.8581653 20.5475951,20.1668332 20.3572146,20.3572138 C20.1744492,20.5399792 19.8826702,20.5472898 19.6911837,20.3791456 L19.6677854,20.3572138 L17.56655,18.2563616 L17.5517676,18.2718296 L14.9989421,20.7136627 C14.6098156,21.0858706 13.9926321,21.0721554 13.6204242,20.683029 C13.4577141,20.512923 13.3624079,20.2901162 13.3511302,20.0560401 L13.35,20.0090869 L13.35,15.3393242 L10.4447146,18.2447138 C10.2619492,18.4274792 9.97017021,18.4347898 9.77868375,18.2666456 L9.75528544,18.2447138 C9.57252007,18.0619484 9.56520946,17.7701695 9.7333536,17.578683 L9.75528544,17.5552847 L13.31035,14.0001616 L7.64278544,8.33221379 C7.45240485,8.1418332 7.45240485,7.83316527 7.64278544,7.64278468 C7.82555081,7.46001931 8.11732979,7.45270869 8.30881625,7.62085284 Z M14.325,15.0148116 L14.325,20.0090869 L16.8769,17.5667116 L14.325,15.0148116 Z M14.325,7.01591161 C14.5603946,7.01591161 14.7872819,7.10104844 14.9642305,7.25469743 L14.9989421,7.2863358 L17.5517676,9.72816885 C17.9309164,10.090833 17.9536591,10.6860709 17.6102717,11.0763121 L17.5729027,11.1164752 L15.14855,13.5399616 L14.45955,12.8503116 L16.8778255,10.4327447 L14.325,7.99091161 L14.325,12.7164116 L13.35,11.7414116 L13.35,7.99091161 C13.35,7.46467211 13.7669059,7.0358062 14.2884475,7.01658411 L14.325,7.01591161 Z"
                  id="path-1" fill-rule="nonzero"></path>
        </g>
    </g>
</svg>