<?xml version="1.0" encoding="UTF-8"?>
<svg width="22px" height="22px" viewBox="0 0 22 22" version="1.1" xmlns="http://www.w3.org/2000/svg" xmlns:xlink="http://www.w3.org/1999/xlink">
    <title>编组</title>
    <g id="页面-1" stroke="none" stroke-width="1" fill="none" fill-rule="evenodd" opacity="0.4">
        <g id="编组" fill="#000000" fill-rule="nonzero">
            <path d="M11,0 C17.0751322,0 22,4.92486775 22,11 C22,17.0751322 17.0751322,22 11,22 C4.92486775,22 0,17.0751322 0,11 C0,4.92486775 4.92486775,0 11,0 Z M11,1.5 C5.75329488,1.5 1.5,5.75329488 1.5,11 C1.5,16.2467051 5.75329488,20.5 11,20.5 C16.2467051,20.5 20.5,16.2467051 20.5,11 C20.5,5.75329488 16.2467051,1.5 11,1.5 Z M11,8.75 C11.4142136,8.75 11.75,9.0857864 11.75,9.5 L11.75,16.25 C11.75,16.6642136 11.4142136,17 11,17 C10.5857864,17 10.25,16.6642136 10.25,16.25 L10.25,9.5 C10.25,9.0857864 10.5857864,8.75 11,8.75 Z M11,5 C11.6903559,5 12.25,5.55964406 12.25,6.25 C12.25,6.94035594 11.6903559,7.5 11,7.5 C10.3096441,7.5 9.75,6.94035594 9.75,6.25 C9.75,5.55964406 10.3096441,5 11,5 Z" id="path-1"></path>
        </g>
    </g>
</svg>