<svg width="32.000000" height="32.000000" viewBox="0 0 32 32" fill="none" xmlns="http://www.w3.org/2000/svg" xmlns:xlink="http://www.w3.org/1999/xlink">
	<desc>
			Created with Pixso.
	</desc>
	<defs>
		<clipPath id="clip184_142129">
			<rect id="plus" width="24.000000" height="24.000000" transform="translate(4.000000 4.000000)" fill="white" fill-opacity="0"/>
		</clipPath>
	</defs>
	<rect id=".Only icon" rx="16.000000" width="32.000000" height="32.000000" fill="#000000" fill-opacity="0.047059"/>
	<g clip-path="url(#clip184_142129)">
		<g opacity="0.000000">
			<rect id="rect" x="4.000000" y="4.000000" width="24.000000" height="24.000000" fill="#000000" fill-opacity="0.898039"/>
		</g>
		<path id="󰀵" d="M16.74 6.88L16.74 15.13L25 15.13Q25.16 15.13 25.29 15.19Q25.42 15.25 25.52 15.35Q25.61 15.44 25.67 15.55Q25.74 15.7 25.74 15.88Q25.74 16.04 25.68 16.18Q25.63 16.3 25.52 16.41Q25.42 16.5 25.31 16.55Q25.16 16.62 25 16.62L16.74 16.62L16.74 24.88Q16.74 25.05 16.68 25.19Q16.62 25.3 16.52 25.4Q16.42 25.5 16.29 25.56Q16.16 25.62 16 25.62Q15.83 25.62 15.7 25.56Q15.57 25.5 15.47 25.4Q15.37 25.3 15.31 25.19Q15.25 25.05 15.25 24.88L15.25 16.62L7 16.62Q6.83 16.62 6.68 16.55Q6.57 16.5 6.47 16.41Q6.36 16.3 6.31 16.18Q6.25 16.04 6.25 15.88Q6.25 15.7 6.32 15.55Q6.38 15.44 6.47 15.35Q6.57 15.25 6.7 15.19Q6.83 15.13 7 15.13L15.25 15.13L15.25 6.88Q15.25 6.7 15.32 6.55Q15.38 6.44 15.47 6.35Q15.57 6.25 15.7 6.19Q15.83 6.13 16 6.13Q16.16 6.13 16.29 6.19Q16.42 6.25 16.52 6.35Q16.61 6.44 16.67 6.55Q16.74 6.7 16.74 6.88Z" fill="#000000" fill-opacity="0.898039" fill-rule="evenodd"/>
	</g>
</svg>
