<?xml version="1.0" encoding="UTF-8"?>
<svg width="120px" height="120px" viewBox="0 0 120 120" version="1.1" xmlns="http://www.w3.org/2000/svg" xmlns:xlink="http://www.w3.org/1999/xlink">
    <title>蓝牙空</title>
    <g id="【SR000HUB79】-【蓝牙】--有遗留" stroke="none" stroke-width="1" fill="none" fill-rule="evenodd">
        <g id="控制中心_竖屏_二级弹框蓝牙" transform="translate(-120.000000, -328.000000)">
            <g id="蓝牙空" transform="translate(120.000000, 328.000000)">
                <rect id="矩形" x="0" y="0" width="120" height="120"></rect>
                <path d="M47.5,30 L83.5,47 L62.6919062,62.4651144 C62.7383443,55.933208 63.7335755,48.1262743 65.6791027,39.0471474 C65.7369626,38.7771347 65.5649787,38.5113415 65.2949661,38.4534816 L65.2949661,38.4534816 L65.2053975,38.4425269 C64.9684553,38.4350506 64.7527313,38.597607 64.7013003,38.8376183 C62.6944397,48.2029676 61.6902015,56.2368733 61.6902015,62.9423828 C61.6902015,63.03186 61.6920416,63.1197909 61.6957093,63.2061832 L46.5050554,74.495 L45.4549078,77.618698 L44.8188184,79.551519 L44.281966,81.2247704 L43.9239347,82.3764815 L43.5657089,83.5825077 C43.0228972,85.4755172 43.008999,87.7201682 43.5240145,90.3164607 L43.6260339,90.805713 L43.6309696,90.8332821 C43.7234072,91.3906737 43.377778,91.9195045 42.8457332,92.0680614 L42.6974095,92.09875 C42.0389674,92.1900798 41.4311572,91.7303445 41.3398193,91.0719035 C41.029812,88.8369071 41.2531045,86.4001335 42.0096968,83.7615827 C42.0910383,83.477911 42.1960632,83.1556901 42.3203553,82.8017679 L42.520692,82.2479648 L42.7466175,81.6517459 L42.99482,81.0182473 L43.2619872,80.3526051 L43.5448073,79.6599553 L44.9223979,76.3465229 C42.931371,79.6571312 41.0429835,81.9189248 39.2570312,83.1324029 C36.7166335,84.8584943 35.2781314,86.5841129 34.3728713,88.0226618 L34.1387759,88.4076606 C34.101821,88.4705691 34.0658611,88.5328306 34.0308427,88.5944182 L33.8316035,88.9556423 L33.6523975,89.2994017 L33.3438312,89.9293586 L33.1899184,90.2627733 L32.9315243,90.8588856 L32.7409117,91.3202874 L32.5356193,91.8328839 L32.315647,92.3966752 L32.0809948,93.0116613 L31.5676509,94.3952179 C31.5224255,94.5190468 31.4765886,94.6450088 31.4301399,94.7731038 C31.194805,95.4221776 30.5259915,95.7965229 29.860002,95.6735199 L29.7125657,95.6380914 C29.0623451,95.4516437 28.6692418,94.8041278 28.7865139,94.1524337 L28.8228589,94.0018325 L28.8291902,93.9815879 C29.5616099,91.7086239 30.4188649,89.7630874 31.4009553,88.1449785 C33.1457114,85.2702885 36.3080005,82.8020695 39.672502,80.6986514 C41.1480757,79.7761526 42.7821168,78.1466561 44.5746251,75.8101618 C43.0027929,77.1825889 41.1460814,78.0384939 39.5805602,78.660289 L38.92913,78.9132627 C38.1023845,79.2284685 37.196795,79.467058 36.2357779,79.6794399 L35.5049882,79.8345999 L33.2098598,80.2883711 L32.4178814,80.4514778 C29.4946363,81.07195 26.3735774,81.9707459 23.5416925,84.1962076 C20.5006436,86.5860428 18.0224987,88.7780718 16.1072578,90.7722947 C15.6776676,91.2195558 15.0051409,91.3311779 14.4541113,91.0466493 L14.0592435,90.8427562 C13.5378969,90.5735547 13.3334929,89.9326888 13.6026945,89.4113422 C13.6589804,89.3023366 13.733721,89.2039034 13.8236041,89.1204089 L14.700063,88.3129206 L15.5521725,87.5414685 L16.3799326,86.8060526 C16.5158635,86.6864863 16.6507798,86.5684215 16.7846816,86.4518582 L17.5759177,85.7704966 L18.3428043,85.1251711 L19.0853416,84.5158818 C20.0591585,83.7275201 20.9680436,83.035255 21.8119971,82.4390863 L22.4327875,82.0099779 C23.3457111,81.3933423 24.1764556,80.8983289 24.9250209,80.5249376 C27.8465155,79.0676689 30.8214036,78.4727513 34.0350983,78.0064895 L35.7597957,77.7676327 L37.5352281,77.5286227 L38.750055,77.3572506 C41.7210795,76.923785 44.3169022,75.4098509 46.5375232,72.8154483 L47.5,30 Z" id="形状结合" fill-opacity="0.4" fill="#A1A7B3"></path>
                <polygon id="03" fill-opacity="0.2" fill="#A1A7B3" points="65.5 38.5 83.5 47 46.5 74.5"></polygon>
                <polygon id="02" fill-opacity="0.4" fill="#A1A7B3" points="77.5 15.5 83.5 47 65.5 38.5"></polygon>
                <polygon id="01" fill-opacity="0.2" fill="#A1A7B3" points="77.5 15.5 65.5 38.5 47.5 30"></polygon>
                <path d="M65.2053975,38.4425269 L65.2949661,38.4534816 C65.5649787,38.5113415 65.7369626,38.7771347 65.6791027,39.0471474 C63.6859633,48.3484647 62.6902015,56.3145589 62.6902015,62.9423828 C62.6902015,65.1190562 64.0091917,66.0456143 66.7824811,66.0406273 C67.0895127,66.0400752 67.4057845,66.0291299 67.7348657,66.0074093 L68.2385405,65.9666992 L68.764106,65.9095394 C68.9432404,65.8877127 69.1264693,65.8630966 69.314239,65.8356434 L69.8916161,65.7447246 L70.4989142,65.6364963 L71.1388101,65.510672 L71.8139804,65.3669649 L72.5271019,65.2050886 L73.2808514,65.0247563 L74.0779057,64.8256814 L74.9209415,64.6075774 L76.2775659,64.2441147 L79.9130226,63.2427214 L81.0500774,62.937874 L82.4459986,62.5756048 L83.4070039,62.3371545 L84.2979314,62.1272967 L84.8545428,62.0033167 L85.3823961,61.8921051 L86.1223437,61.7492816 L86.5824801,61.6700973 C86.6570251,61.6579703 86.730511,61.646379 86.8029579,61.6353236 L87.2253292,61.5754285 C87.2936994,61.5665195 87.3610702,61.5581475 87.4274616,61.5503131 L87.8142168,61.5097619 C87.8767703,61.5040798 87.9383842,61.4989364 87.9990783,61.494332 L88.3523661,61.4731792 L88.6845362,61.4649889 C89.9185991,61.4584691 90.7082415,61.7382021 91.2955448,62.3103409 L91.4443236,62.4662315 C91.4924927,62.5204088 91.539291,62.5768011 91.5848776,62.6354125 C92.369636,63.6443875 92.2604522,64.6616181 91.3764062,65.5605503 C90.8404415,66.10554 90.0328384,66.6169558 88.865271,67.1826261 L88.2510814,67.470389 C88.1435807,67.5192386 88.0334779,67.5685666 87.9207221,67.6184238 L87.3009947,67.8868553 L86.5940494,68.1824927 L84.0723779,69.2091541 L83.3780301,69.499123 L82.7195868,69.78309 L82.0967648,70.0616234 C81.8950628,70.1536254 81.6992504,70.2448165 81.5092805,70.3352915 L80.9568507,70.6046624 L80.439192,70.8703045 L79.956021,71.132786 C77.4705724,72.5252694 76.4445094,73.8071473 76.6843874,75.3663542 C76.9556148,77.1293329 78.0693639,77.7492761 80.2586285,77.5226723 L80.7104616,77.4685706 L81.0121867,77.4236914 L81.3185768,77.3706383 L81.6332852,77.3084468 L82.1289369,77.1959161 L82.4804254,77.1066604 L82.8530197,77.0048915 L83.2503733,76.8896452 L83.9008192,76.6893964 L84.6275245,76.4533995 L85.7364027,76.0775041 L87.0320023,75.6245571 L89.2086006,74.8518857 L90.060436,74.5558232 L90.8579937,74.2864877 L91.606074,74.042963 L92.3094773,73.824333 C92.4232547,73.7899183 92.5353707,73.7565027 92.6459251,73.7240671 L93.2913135,73.5410611 C93.7101469,73.4266936 94.1071963,73.3273955 94.488862,73.2419453 L95.0506229,73.124003 C95.4185051,73.0520952 95.7742038,72.9934243 96.1241196,72.9467689 C99.9730378,72.4335798 104.082048,73.073945 106.871385,74.630784 C110.013717,76.3846441 111.169961,79.1008984 109.637415,82.1659896 C109.009894,83.4210321 107.598415,84.9715576 105.494359,86.7885131 L104.903423,87.2906303 C104.802095,87.3754101 104.699353,87.460735 104.595205,87.5466022 L103.953527,88.0682909 L103.278537,88.6028636 L102.570645,89.1501893 C102.449944,89.2424658 102.32789,89.3352681 102.20449,89.4285936 L101.44802,89.9948033 L100.659678,90.5734386 L99.8398772,91.1643684 C98.5002346,92.1217758 97.0557496,93.1144707 95.5194448,94.1368511 C92.6925988,96.018061 89.6822921,97.9171452 86.553287,99.8193806 L84.9071694,100.813819 L81.4474494,102.871129 C81.2106593,103.013203 80.9035291,102.936421 80.761455,102.699631 C80.635167,102.489151 80.6818026,102.223093 80.8600305,102.066785 L80.9329536,102.013636 L82.7655658,100.927563 L84.3923231,99.9565365 L86.0338137,98.964894 C89.152006,97.069232 92.1512031,95.1771564 94.9654286,93.3043452 C96.4929117,92.2878355 97.9283415,91.3013636 99.25843,90.3507843 L100.056534,89.7754791 L100.824261,89.2119945 L101.56111,88.6606168 L102.266581,88.1216325 C102.381517,88.0328505 102.495124,87.9445968 102.607393,87.8568773 L103.264858,87.3370199 C103.37173,87.2514614 103.477243,87.1664492 103.581386,87.0819892 L104.189719,86.5819028 C104.28834,86.4996754 104.385571,86.418012 104.4814,86.3369188 L105.039476,85.8572478 C105.310023,85.6208805 105.567771,85.3897513 105.812439,85.1640212 L106.284251,84.7198076 L106.720682,84.290278 C106.860206,84.1495806 106.99375,84.0113783 107.121231,83.8757187 L107.485398,83.4764162 C108.061746,82.823785 108.484418,82.2359165 108.742988,81.718776 C110.013818,79.1771154 109.094143,77.0166096 106.384018,75.5039817 C103.79432,74.0585684 99.9017514,73.4519344 96.2562834,73.9379968 C95.9230895,73.9824226 95.5827469,74.0387635 95.2291953,74.1082102 L94.6882035,74.2223584 C94.5040656,74.2637835 94.3158679,74.3086339 94.1228527,74.3570584 L93.5285977,74.5132031 L92.900893,74.6916856 C92.7932355,74.7233437 92.683995,74.7559699 92.5730766,74.7895826 L91.886675,75.0032462 C91.7686666,75.0408795 91.6487909,75.0795366 91.5269534,75.1192361 L90.7716279,75.3700903 L89.9646715,75.6468544 L86.3343353,76.9288819 L85.4346935,77.2378281 L84.6331924,77.5047734 L83.9168733,77.7330935 L83.4802512,77.8655154 L82.8771051,78.0369617 L82.503933,78.1345935 L82.1494215,78.2200595 C82.091678,78.2333456 82.034552,78.2461665 81.9779636,78.258543 L81.6442438,78.3276359 L81.1594549,78.4134657 L80.6820961,78.4809245 L80.3615853,78.5173581 C77.6946437,78.7934048 76.0598667,77.8834432 75.6960157,75.5184114 C75.4000475,73.5946185 76.3684801,72.1403775 78.7298223,70.6823361 L79.1889285,70.4087932 C79.6644206,70.1349747 80.1891646,69.8599825 80.7640075,69.5806963 L81.3555814,69.2998633 C81.4569708,69.2527807 81.5597597,69.20555 81.6639519,69.1581567 L82.3059778,68.8717296 L82.9818735,68.5807065 C83.0973558,68.5317811 83.2142571,68.4826353 83.3325815,68.4332547 L86.2106321,67.2589135 L86.9077623,66.9674096 L87.5163215,66.7038418 L87.8250712,66.5655242 L88.3976619,66.2976824 C89.4837999,65.7729856 90.2190173,65.3112581 90.6634206,64.8593716 C91.2098199,64.3037717 91.2590309,63.8452887 90.7955254,63.2493531 C90.5487618,62.9320857 90.2003299,62.7141674 89.700482,62.5972823 L89.4768461,62.5533793 C89.2436498,62.5156719 88.981337,62.4965658 88.6859919,62.4961936 L88.3794909,62.5020709 L88.0500981,62.5204669 C87.9932433,62.5245778 87.9353985,62.5292115 87.8765454,62.5343687 L87.5111832,62.571598 C87.4482248,62.5788515 87.3842218,62.5866296 87.3191563,62.594933 L86.9158668,62.651062 L86.4862046,62.7198275 L86.0292995,62.8012591 L85.2909578,62.9472197 L84.4864246,63.1218445 L83.9118457,63.2542348 L82.9904667,63.4768544 L82.3352712,63.6413333 L81.2888881,63.9122238 L80.1635866,64.2122095 L76.5497566,65.2064122 L75.6443848,65.4506172 L74.3746722,65.7822139 L73.5833196,65.9805209 L72.8330458,66.1609285 C72.7112796,66.1895194 72.5911172,66.2173755 72.4725047,66.2445022 L71.7789968,66.3985533 L71.1200978,66.5353619 L70.4932199,66.6551906 C70.3912649,66.6737617 70.2905363,66.6916362 70.1909801,66.7088197 L69.6072815,66.8036713 C69.5121996,66.8181123 69.4181822,66.8318732 69.3251757,66.8449595 L68.7788334,66.9154251 C68.6004747,66.9362442 68.4257275,66.9544085 68.2541606,66.9699618 L67.7485693,67.0088323 C67.4172938,67.0295823 67.097014,67.0400633 66.7842793,67.0406257 C63.5180488,67.0464991 61.6902015,65.7624815 61.6902015,62.9423828 C61.6902015,56.2368733 62.6944397,48.2029676 64.7013003,38.8376183 C64.7527313,38.597607 64.9684553,38.4350506 65.2053975,38.4425269 Z" id="lines" fill-opacity="0.6" fill="#A1A7B3"></path>
                <path d="M103.143272,33.4525655 C102.182805,34.8752207 101.476655,35.7301686 101.024822,36.0174093 C99.7414535,36.8332771 98.5840149,37.0164794 97.7993711,37.0164794 C96.0008477,37.0164794 99.7076037,36.594646 101.024822,35.1657997 C101.902968,34.2132355 102.942256,32.7720146 104.142687,30.8421368 L103.143272,30.8421368 L102.039101,32.1900007 C101.694086,31.7652319 101.247915,31.5528475 100.700589,31.5528475 C99.8795994,31.5528475 97.7590264,31.9030228 96.9468243,34.1587868 C96.4053562,35.6626295 95.2924565,36.9864347 93.608125,38.1302024 C96.0417015,39.3375128 98.405856,39.3375128 100.700589,38.1302024 C102.995321,36.9228921 103.809549,35.3636798 103.143272,33.4525655 Z" id="路径-14" fill="#A1A7B3" opacity="0.400000006"></path>
                <path d="M108.505429,46.7338104 C107.971836,47.5467562 107.57953,48.0352978 107.328512,48.1994354 C106.61553,48.6656455 105.972508,48.7703326 105.536595,48.7703326 C104.537415,48.7703326 106.596724,48.5292849 107.328512,47.7128013 C107.816371,47.1684789 108.393753,46.3449241 109.06066,45.2421368 L108.505429,45.2421368 L107.892001,46.0123448 C107.700325,45.7696197 107.452453,45.6482572 107.148383,45.6482572 C106.692277,45.6482572 105.514181,45.8483574 105.062958,47.1373654 C104.762142,47.9967041 104.143865,48.7531642 103.208125,49.4067457 C104.560112,50.0966374 105.873531,50.0966374 107.148383,49.4067457 C108.423234,48.7168541 108.875583,47.8258757 108.505429,46.7338104 Z" id="路径-14备份" fill="#A1A7B3" opacity="0.400000006" transform="translate(106.134392, 47.583151) rotate(-62.000000) translate(-106.134392, -47.583151) "></path>
                <path d="M29.5648895,58.3067288 C28.9245781,59.322911 28.4538115,59.9335881 28.1525897,60.13876 C27.2970107,60.7215227 26.525385,60.8523815 26.0022891,60.8523815 C24.8032735,60.8523815 27.2744441,60.5510719 28.1525897,59.5304674 C28.7380201,58.8500645 29.4308791,57.8206209 30.2311665,56.4421368 L29.5648895,56.4421368 L28.828776,57.4048967 C28.5987654,57.1014905 28.3013181,56.9497873 27.936434,56.9497873 C27.3891079,56.9497873 25.9753926,57.1999125 25.4339245,58.8111725 C25.0729458,59.8853459 24.3310127,60.830921 23.208125,61.647898 C24.8305094,62.5102625 26.4066124,62.5102625 27.936434,61.647898 C29.4662557,60.7855334 30.0090742,59.6718104 29.5648895,58.3067288 Z" id="路径-14备份-2" fill="#A1A7B3" opacity="0.600000024" transform="translate(26.719646, 59.368404) rotate(80.000000) translate(-26.719646, -59.368404) "></path>
                <path d="M78.7432663,103.570945 L77.0270481,104.59788 C76.7900878,104.73967 76.7129372,105.046708 76.8547273,105.283669 C76.9965174,105.520629 77.3035552,105.597779 77.5405155,105.455989 L79.2567337,104.429055 C79.493694,104.287264 79.5708447,103.980227 79.4290545,103.743266 C79.2872644,103.506306 78.9802266,103.429155 78.7432663,103.570945 Z M75.3108299,105.624815 L73.5946118,106.65175 C73.3576515,106.79354 73.2805008,107.100578 73.4222909,107.337538 C73.564081,107.574499 73.8711189,107.651649 74.1080792,107.509859 L75.8242974,106.482924 C76.0612576,106.341134 76.1384083,106.034096 75.9966182,105.797136 C75.8548281,105.560176 75.5477902,105.483025 75.3108299,105.624815 Z M71.8783936,107.678685 L70.1621754,108.70562 C69.9252151,108.84741 69.8480644,109.154448 69.9898546,109.391408 C70.1316447,109.628368 70.4386825,109.705519 70.6756428,109.563729 L72.391861,108.536794 C72.6288213,108.395004 72.7059719,108.087966 72.5641818,107.851006 C72.4223917,107.614045 72.1153539,107.536895 71.8783936,107.678685 Z" id="路径-17" fill-opacity="0.6" fill="#A1A7B3"></path>
                <ellipse id="椭圆形" fill="#A1A7B3" opacity="0.15" cx="46.0400391" cy="104.208165" rx="11.5400391" ry="1.73429304"></ellipse>
            </g>
        </g>
    </g>
</svg>