<?xml version="1.0" encoding="UTF-8"?>
<svg width="20px" height="20px" viewBox="0 0 20 20" version="1.1" xmlns="http://www.w3.org/2000/svg" xmlns:xlink="http://www.w3.org/1999/xlink">
    <title>通话</title>
    <defs>
        <path d="M3.71891247,0.874749633 C3.25576483,0.963020124 2.8297462,1.18767032 2.4964975,1.51982878 L2.04732123,1.96687096 C1.03989972,2.96611102 0.619874561,4.4131331 0.937370355,5.79461778 C2.16581118,11.0823727 9.07474937,18.050203 14.217406,19.0862216 C15.5651778,19.3578461 16.9643946,18.9315343 17.9423871,17.9582755 L18.4747123,17.428353 C19.396912,16.5054294 19.396912,15.0151023 18.4759741,14.0930754 L18.4098721,14.0355834 L16.4804138,12.5797115 C16.4321201,12.5411174 16.3759808,12.4947407 16.295102,12.4271601 C15.4398281,11.7180037 14.1865775,11.77271 13.3982879,12.5519777 L12.5546426,13.3716762 C12.3857954,13.5399589 12.1310815,13.5699887 11.9340737,13.4495292 C10.2298239,12.4045524 7.47800985,9.67595528 6.4701141,8.0545353 C6.34779237,7.8587465 6.3767536,7.60713076 6.53969846,7.44465718 L7.45618965,6.58037678 C8.27137659,5.76481116 8.30924781,4.47914071 7.5561134,3.63068714 L7.45093918,3.50889751 C7.41369347,3.46434355 7.37282204,3.41417096 7.32401074,3.3533961 L6.01373073,1.72823048 C5.49727986,1.08633101 4.68764426,0.75325263 3.87985607,0.849776852 L3.71891247,0.874749633 Z M5.04021719,2.51230381 L6.35016001,4.13704996 C6.45997759,4.27378538 6.53816059,4.36772957 6.62318752,4.46263731 C6.93543447,4.81441316 6.91968223,5.34917784 6.58515402,5.68402031 L5.66951075,6.54745361 C5.08168808,7.13323822 4.97884443,8.02674584 5.40925581,8.7156538 C6.51932577,10.5014463 9.4110744,13.3687974 11.2813372,14.5155659 C11.9710206,14.9372705 12.859851,14.8324808 13.4314835,14.26251 L14.2732217,13.4447048 C14.6083665,13.1134284 15.1365946,13.0903704 15.4954251,13.3878948 L15.5767744,13.4556268 C15.6758437,13.5377101 15.741193,13.5899271 15.819205,13.6487393 L17.6108333,14.9983333 L17.5915685,14.9764365 C18.0250182,15.4103987 18.0250182,16.1099408 17.5916555,16.5436452 L17.0605779,17.0723227 C16.3773861,17.7522076 15.4011308,18.0496519 14.4643135,17.8608496 C9.81130331,16.9234731 3.27454043,10.3309905 2.15527821,5.5131959 C1.93504226,4.55489951 2.2269291,3.54932474 2.92834597,2.85360332 L3.3786028,2.40548675 C3.50365107,2.28084777 3.65670453,2.1883993 3.82477334,2.13508819 L3.95343736,2.10255166 C4.35531761,2.0256174 4.77629005,2.18426764 5.04021719,2.51230381 Z" id="path-1"></path>
    </defs>
    <g id="通话" stroke="none" stroke-width="1" fill="none" fill-rule="evenodd">
        <mask id="mask-2" fill="white">
            <use xlink:href="#path-1"></use>
        </mask>
        <use id="Stroke-1" fill="#182431" fill-rule="nonzero" opacity="0.601864769" xlink:href="#path-1"></use>
    </g>
</svg>