<?xml version="1.0" encoding="UTF-8"?>
<svg width="24px" height="12px" viewBox="0 0 24 12" version="1.1" xmlns="http://www.w3.org/2000/svg" xmlns:xlink="http://www.w3.org/1999/xlink">
    <title>画板</title>
    <g id="画板" stroke="none" stroke-width="1" fill="none" fill-rule="evenodd">
        <g id="编组" transform="translate(6.000000, 3.000000)" fill="#000000" fill-rule="nonzero">
            <path d="M12.6239478,1.2482689 L7.6439396,6.23007755 C6.97476,6.8992572 5.8984674,6.91319844 5.2123247,6.27190128 L0.21931844,1.28033009 C0.09044543,1.15145707 0.01827654,0.987352631 0.00281177,0.819020411 L0,0.726969901 C0.00562355,0.542775711 0.0787297,0.360258661 0.21931844,0.219669911 C0.50175119,-0.0627628287 0.95339796,-0.0728497187 1.24791742,0.189409261 L5.8761727,4.81586399 C6.1586054,5.09829674 6.6102522,5.10838362 6.9047717,4.84612464 L11.5330269,0.219669911 C11.8259202,-0.0732232987 12.3007939,-0.0732232987 12.5936871,0.219669911 C12.7349035,0.360886291 12.8080334,0.544406171 12.8130768,0.729436891 L12.8129192,0.775702431 C12.8071403,0.945285071 12.7441498,1.11328081 12.6239478,1.2482689 Z" id="path-1"></path>
        </g>
    </g>
</svg>