<?xml version="1.0" encoding="UTF-8"?>
<svg width="32px" height="32px" viewBox="0 0 32 32" version="1.1" xmlns="http://www.w3.org/2000/svg"
     xmlns:xlink="http://www.w3.org/1999/xlink">
    <title>取消</title>
    <g id="取消" stroke="none" stroke-width="1" fill="none" fill-rule="evenodd">
        <g id="ic_edit_cancel" transform="translate(8.000000, 8.000000)" fill="#000000" fill-rule="nonzero">
            <path d="M15.7781746,0.22182541 C16.0710678,0.51471863 16.0710678,0.98959236 15.7781746,1.28248558 L1.28248558,15.7781746 C0.98959236,16.0710678 0.51471863,16.0710678 0.22182541,15.7781746 C-0.07106781,15.4852814 -0.07106781,15.0104076 0.22182541,14.7175144 L6.9395166,7.9994697 L0.22182541,1.28248558 C-0.07106781,0.98959236 -0.07106781,0.51471863 0.22182541,0.22182541 C0.51471863,-0.07106781 0.98959236,-0.07106781 1.28248558,0.22182541 L8,6.9389863 L14.7175144,0.22182541 C15.0104076,-0.07106781 15.4852814,-0.07106781 15.7781746,0.22182541 Z M15.7781746,14.7175144 C16.0710678,15.0104076 16.0710678,15.4852814 15.7781746,15.7781746 C15.4852814,16.0710678 15.0104076,16.0710678 14.7175144,15.7781746 L8.7072836,9.7675902 L9.767767,8.7071068 L15.7781746,14.7175144 Z"
                  id="path-1"></path>
        </g>
    </g>
</svg>