<?xml version="1.0" encoding="UTF-8"?>
<svg width="56px" height="56px" viewBox="0 0 56 56" version="1.1" xmlns="http://www.w3.org/2000/svg" xmlns:xlink="http://www.w3.org/1999/xlink">
    <title>IC_finger_R2备份</title>
    <defs>
        <linearGradient x1="50%" y1="100%" x2="50%" y2="0%" id="linearGradient-1">
            <stop stop-color="#0D9FFB" offset="0%"></stop>
            <stop stop-color="#925CFF" offset="100%"></stop>
        </linearGradient>
    </defs>
    <g id="页面-1" stroke="none" stroke-width="1" fill="none" fill-rule="evenodd">
        <g id="IC_finger_R2备份" fill="url(#linearGradient-1)">
            <path d="M28,0 C43.463973,0 56,12.536027 56,28 C56,43.138522 43.9755436,55.4992658 28.9167524,55.9852096 L28.4595058,55.996291 L28,56 C12.536027,56 0,43.463973 0,28 C0,12.861478 12.0244564,0.500734218 27.0832476,0.0147903499 L27.5404942,0.00370892557 L28,0 Z M28,1.75 C13.5028505,1.75 1.75,13.5028505 1.75,28 C1.75,42.4971495 13.5028505,54.25 28,54.25 C42.4971495,54.25 54.25,42.4971495 54.25,28 C54.25,13.5028505 42.4971495,1.75 28,1.75 Z M20.0126411,34.3204044 C20.8505682,37.2176987 23.0384552,39.6511412 26.1270246,41.0108641 C26.6798816,41.2542558 26.9307526,41.8997428 26.6873609,42.4525996 C26.4439692,43.0054565 25.7984822,43.2563276 25.2456254,43.0129359 C21.5735392,41.3963235 18.9323238,38.4586737 17.9112589,34.9281456 C17.7434358,34.3478649 18.0777987,33.741407 18.6580794,33.5735839 C19.23836,33.4057608 19.844818,33.7401237 20.0126411,34.3204044 Z M42.8770936,18.6246598 C44.4987506,21.4881947 45.2334117,24.1145976 45.0636784,28.0710223 C44.4917428,33.7220548 41.7230185,37.5887931 37.5987539,39.315258 C34.1000923,40.7798381 29.9583749,40.4630109 27.3013579,38.6473651 C23.035333,35.732794 21.6141418,31.58714 22.2024633,26.581101 C22.2729688,25.9811683 22.8164663,25.5519828 23.416399,25.6224883 C24.0163317,25.6929938 24.4455172,26.2364913 24.3750117,26.836424 C23.8739766,31.0997402 25.0185317,34.4384391 28.5354499,36.8412165 C30.5624054,38.226316 33.9212826,38.4832587 36.7540649,37.2974233 C40.1255583,35.8860772 42.3947977,32.7169083 42.8827207,27.9145237 C43.0292292,24.4614087 42.4051876,22.2304684 40.9736314,19.7026152 C40.6759623,19.1769886 40.8607582,18.5095756 41.3863848,18.2119064 C41.9120114,17.9142372 42.5794245,18.0990332 42.8770936,18.6246598 Z M29.3818421,16.9270348 C33.647867,19.841606 35.0690582,23.98726 34.4807367,28.993299 C34.4102312,29.5932317 33.8667337,30.0224172 33.266801,29.9519117 C32.6668683,29.8814062 32.2376828,29.3379087 32.3081883,28.737976 C32.8092234,24.4746598 31.6646683,21.1359609 28.1477501,18.7331836 C26.1207946,17.348084 22.7619174,17.0911413 19.9291351,18.2769767 C16.5576417,19.6883228 14.2884023,22.8574917 13.8004794,27.6598763 C13.6539708,31.1129914 14.2780125,33.3439316 15.7095686,35.8717848 C16.0072378,36.3974114 15.8224418,37.0648245 15.2968152,37.3624936 C14.7711886,37.6601628 14.1037756,37.4753668 13.8061064,36.9497402 C12.1844494,34.0862053 11.4497884,31.4598024 11.6195216,27.5033777 C12.1914572,21.8523452 14.9601815,17.9856069 19.0844462,16.259142 C22.5831077,14.7945618 26.7248251,15.1113892 29.3818421,16.9270348 Z M25.0817562,20.6773162 C28.3317261,21.5266753 29.9130832,24.0026938 29.4767751,28.0681139 C29.1667818,30.4971027 30.3012423,32.1333377 32.103468,32.7500597 L32.2799354,32.8065523 L32.321737,32.818179 C34.6935115,33.4638251 36.8251525,32.0463819 37.3740643,29.6424755 C37.7115747,28.1656122 37.769656,25.755036 37.5864478,24.77743 L37.558638,24.6477757 C37.414008,24.0612841 37.7722076,23.468593 38.3586993,23.323963 C38.9451909,23.179333 39.537882,23.5375326 39.682512,24.1240243 C39.9855275,25.3527881 39.9323847,28.2666311 39.5066297,30.1296317 C38.7067047,33.6328264 35.4950813,35.8266685 31.9545259,34.9817295 L31.6743941,34.9084656 C28.7698745,34.0415823 26.8443175,31.415608 27.3043137,27.8129957 C27.6259502,24.8145356 26.6973015,23.3604986 24.5522658,22.7996271 C22.3118747,22.2670922 19.9642523,23.6882042 19.2928488,25.9945145 C18.883334,27.4011085 18.8713787,29.900296 19.124387,30.9262743 C19.269017,31.5127659 18.9108173,32.105457 18.3243257,32.250087 C17.7378341,32.394717 17.145143,32.0365174 17.000513,31.4500257 C16.6580079,30.0611269 16.6718304,27.1715983 17.1925447,25.3830581 C18.1852182,21.9731669 21.6671688,19.8653995 25.0817562,20.6773162 Z M31.4377496,12.5618141 C35.1098358,14.1784265 37.7510512,17.1160763 38.7721161,20.6466044 C38.9399391,21.226885 38.6055763,21.833343 38.0252956,22.0011661 C37.4450149,22.1689892 36.838557,21.8346263 36.6707339,21.2543456 C35.8328068,18.3570513 33.6449198,15.9236088 30.5563504,14.5638859 C30.0034934,14.3204942 29.7526224,13.6750072 29.9960141,13.1221504 C30.2394058,12.5692935 30.8848928,12.3184224 31.4377496,12.5618141 Z" id="形状结合"></path>
        </g>
    </g>
</svg>