<?xml version="1.0" encoding="UTF-8"?>
<svg width="480px" height="320px" viewBox="0 0 480 320" version="1.1" xmlns="http://www.w3.org/2000/svg" xmlns:xlink="http://www.w3.org/1999/xlink">
    <title>键盘</title>
    <g id="键盘" stroke="none" stroke-width="1" fill="none" fill-rule="evenodd">
        <rect id="矩形" x="0" y="0" width="480" height="320"></rect>
        <g id="编组-3" transform="translate(75.000000, 100.000000)">
            <rect id="矩形" fill="#A1A4B3" opacity="0.4" x="0" y="0" width="330" height="120" rx="5.29411765"></rect>
            <g id="矩形" transform="translate(2.938557, 2.941176)">
                <g id="蒙版" fill="#505259">
                    <path d="M2.35294118,12.9411765 L15.8661149,12.9411765 C17.1656085,12.9411765 18.2190561,13.9946241 18.2190561,15.2941176 L18.2190561,28.8235294 C18.2190561,30.1230229 17.1656085,31.1764706 15.8661149,31.1764706 L2.35294118,31.1764706 C1.05344765,31.1764706 1.31332417e-15,30.1230229 0,28.8235294 L0,15.2941176 C-1.59142059e-16,13.9946241 1.05344765,12.9411765 2.35294118,12.9411765 Z M23.006802,12.9411765 L36.5199758,12.9411765 C37.8194693,12.9411765 38.8729169,13.9946241 38.8729169,15.2941176 L38.8729169,28.8235294 C38.8729169,30.1230229 37.8194693,31.1764706 36.5199758,31.1764706 L23.006802,31.1764706 C21.7073085,31.1764706 20.6538608,30.1230229 20.6538608,28.8235294 L20.6538608,15.2941176 C20.6538608,13.9946241 21.7073085,12.9411765 23.006802,12.9411765 Z M43.6606628,12.9411765 L57.1738366,12.9411765 C58.4733301,12.9411765 59.5267778,13.9946241 59.5267778,15.2941176 L59.5267778,28.8235294 C59.5267778,30.1230229 58.4733301,31.1764706 57.1738366,31.1764706 L43.6606628,31.1764706 C42.3611693,31.1764706 41.3077217,30.1230229 41.3077217,28.8235294 L41.3077217,15.2941176 C41.3077217,13.9946241 42.3611693,12.9411765 43.6606628,12.9411765 Z M64.3145237,12.9411765 L77.8276974,12.9411765 C79.1271909,12.9411765 80.1806386,13.9946241 80.1806386,15.2941176 L80.1806386,28.8235294 C80.1806386,30.1230229 79.1271909,31.1764706 77.8276974,31.1764706 L64.3145237,31.1764706 C63.0150301,31.1764706 61.9615825,30.1230229 61.9615825,28.8235294 L61.9615825,15.2941176 C61.9615825,13.9946241 63.0150301,12.9411765 64.3145237,12.9411765 Z M84.9683845,12.9411765 L98.4815583,12.9411765 C99.7810518,12.9411765 100.834499,13.9946241 100.834499,15.2941176 L100.834499,28.8235294 C100.834499,30.1230229 99.7810518,31.1764706 98.4815583,31.1764706 L84.9683845,31.1764706 C83.668891,31.1764706 82.6154433,30.1230229 82.6154433,28.8235294 L82.6154433,15.2941176 C82.6154433,13.9946241 83.668891,12.9411765 84.9683845,12.9411765 Z M105.622245,12.9411765 L119.135419,12.9411765 C120.434913,12.9411765 121.48836,13.9946241 121.48836,15.2941176 L121.48836,28.8235294 C121.48836,30.1230229 120.434913,31.1764706 119.135419,31.1764706 L105.622245,31.1764706 C104.322752,31.1764706 103.269304,30.1230229 103.269304,28.8235294 L103.269304,15.2941176 C103.269304,13.9946241 104.322752,12.9411765 105.622245,12.9411765 Z M126.276106,12.9411765 L139.78928,12.9411765 C141.088773,12.9411765 142.142221,13.9946241 142.142221,15.2941176 L142.142221,28.8235294 C142.142221,30.1230229 141.088773,31.1764706 139.78928,31.1764706 L126.276106,31.1764706 C124.976613,31.1764706 123.923165,30.1230229 123.923165,28.8235294 L123.923165,15.2941176 C123.923165,13.9946241 124.976613,12.9411765 126.276106,12.9411765 Z M146.929967,12.9411765 L160.443141,12.9411765 C161.742634,12.9411765 162.796082,13.9946241 162.796082,15.2941176 L162.796082,28.8235294 C162.796082,30.1230229 161.742634,31.1764706 160.443141,31.1764706 L146.929967,31.1764706 C145.630473,31.1764706 144.577026,30.1230229 144.577026,28.8235294 L144.577026,15.2941176 C144.577026,13.9946241 145.630473,12.9411765 146.929967,12.9411765 Z M167.583828,12.9411765 L181.097002,12.9411765 C182.396495,12.9411765 183.449943,13.9946241 183.449943,15.2941176 L183.449943,28.8235294 C183.449943,30.1230229 182.396495,31.1764706 181.097002,31.1764706 L167.583828,31.1764706 C166.284334,31.1764706 165.230887,30.1230229 165.230887,28.8235294 L165.230887,15.2941176 C165.230887,13.9946241 166.284334,12.9411765 167.583828,12.9411765 Z M188.237689,12.9411765 L201.750862,12.9411765 C203.050356,12.9411765 204.103804,13.9946241 204.103804,15.2941176 L204.103804,28.8235294 C204.103804,30.1230229 203.050356,31.1764706 201.750862,31.1764706 L188.237689,31.1764706 C186.938195,31.1764706 185.884747,30.1230229 185.884747,28.8235294 L185.884747,15.2941176 C185.884747,13.9946241 186.938195,12.9411765 188.237689,12.9411765 Z M208.891549,12.9411765 L222.404723,12.9411765 C223.704217,12.9411765 224.757664,13.9946241 224.757664,15.2941176 L224.757664,28.8235294 C224.757664,30.1230229 223.704217,31.1764706 222.404723,31.1764706 L208.891549,31.1764706 C207.592056,31.1764706 206.538608,30.1230229 206.538608,28.8235294 L206.538608,15.2941176 C206.538608,13.9946241 207.592056,12.9411765 208.891549,12.9411765 Z M229.54541,12.9411765 L243.058584,12.9411765 C244.358078,12.9411765 245.411525,13.9946241 245.411525,15.2941176 L245.411525,28.8235294 C245.411525,30.1230229 244.358078,31.1764706 243.058584,31.1764706 L229.54541,31.1764706 C228.245917,31.1764706 227.192469,30.1230229 227.192469,28.8235294 L227.192469,15.2941176 C227.192469,13.9946241 228.245917,12.9411765 229.54541,12.9411765 Z M250.199271,12.9411765 L263.712445,12.9411765 C265.011938,12.9411765 266.065386,13.9946241 266.065386,15.2941176 L266.065386,28.8235294 C266.065386,30.1230229 265.011938,31.1764706 263.712445,31.1764706 L250.199271,31.1764706 C248.899778,31.1764706 247.84633,30.1230229 247.84633,28.8235294 L247.84633,15.2941176 C247.84633,13.9946241 248.899778,12.9411765 250.199271,12.9411765 Z M270.853132,12.9411765 L301.116083,12.9411765 C302.415577,12.9411765 303.469024,13.9946241 303.469024,15.2941176 L303.469024,28.8235294 C303.469024,30.1230229 302.415577,31.1764706 301.116083,31.1764706 L270.853132,31.1764706 C269.553638,31.1764706 268.500191,30.1230229 268.500191,28.8235294 L268.500191,15.2941176 C268.500191,13.9946241 269.553638,12.9411765 270.853132,12.9411765 Z M308.25677,12.9411765 L321.769944,12.9411765 C323.069437,12.9411765 324.122885,13.9946241 324.122885,15.2941176 L324.122885,28.8235294 C324.122885,30.1230229 323.069437,31.1764706 321.769944,31.1764706 L308.25677,31.1764706 C306.957277,31.1764706 305.903829,30.1230229 305.903829,28.8235294 L305.903829,15.2941176 C305.903829,13.9946241 306.957277,12.9411765 308.25677,12.9411765 Z M2.35294118,54.4117647 L32.6158923,54.4117647 C33.9153858,54.4117647 34.9688335,55.4652124 34.9688335,56.7647059 L34.9688335,70.2941176 C34.9688335,71.5936112 33.9153858,72.6470588 32.6158923,72.6470588 L2.35294118,72.6470588 C1.05344765,72.6470588 1.04732048e-15,71.5936112 0,70.2941176 L0,56.7647059 C-1.59142059e-16,55.4652124 1.05344765,54.4117647 2.35294118,54.4117647 Z M39.6726206,54.4117647 L53.1857944,54.4117647 C54.4852879,54.4117647 55.5387355,55.4652124 55.5387355,56.7647059 L55.5387355,70.2941176 C55.5387355,71.5936112 54.4852879,72.6470588 53.1857944,72.6470588 L39.6726206,72.6470588 C38.3731271,72.6470588 37.3196794,71.5936112 37.3196794,70.2941176 L37.3196794,56.7647059 C37.3196794,55.4652124 38.3731271,54.4117647 39.6726206,54.4117647 Z M60.3012938,54.4117647 L73.8144676,54.4117647 C75.1139611,54.4117647 76.1674087,55.4652124 76.1674087,56.7647059 L76.1674087,70.2941176 C76.1674087,71.5936112 75.1139611,72.6470588 73.8144676,72.6470588 L60.3012938,72.6470588 C59.0018003,72.6470588 57.9483526,71.5936112 57.9483526,70.2941176 L57.9483526,56.7647059 C57.9483526,55.4652124 59.0018003,54.4117647 60.3012938,54.4117647 Z M80.929967,54.4117647 L94.4431407,54.4117647 C95.7426343,54.4117647 96.7960819,55.4652124 96.7960819,56.7647059 L96.7960819,70.2941176 C96.7960819,71.5936112 95.7426343,72.6470588 94.4431407,72.6470588 L80.929967,72.6470588 C79.6304735,72.6470588 78.5770258,71.5936112 78.5770258,70.2941176 L78.5770258,56.7647059 C78.5770258,55.4652124 79.6304735,54.4117647 80.929967,54.4117647 Z M101.55864,54.4117647 L115.071814,54.4117647 C116.371307,54.4117647 117.424755,55.4652124 117.424755,56.7647059 L117.424755,70.2941176 C117.424755,71.5936112 116.371307,72.6470588 115.071814,72.6470588 L101.55864,72.6470588 C100.259147,72.6470588 99.205699,71.5936112 99.205699,70.2941176 L99.205699,56.7647059 C99.205699,55.4652124 100.259147,54.4117647 101.55864,54.4117647 Z M122.187313,54.4117647 L135.700487,54.4117647 C136.999981,54.4117647 138.053428,55.4652124 138.053428,56.7647059 L138.053428,70.2941176 C138.053428,71.5936112 136.999981,72.6470588 135.700487,72.6470588 L122.187313,72.6470588 C120.88782,72.6470588 119.834372,71.5936112 119.834372,70.2941176 L119.834372,56.7647059 C119.834372,55.4652124 120.88782,54.4117647 122.187313,54.4117647 Z M142.815987,54.4117647 L156.32916,54.4117647 C157.628654,54.4117647 158.682102,55.4652124 158.682102,56.7647059 L158.682102,70.2941176 C158.682102,71.5936112 157.628654,72.6470588 156.32916,72.6470588 L142.815987,72.6470588 C141.516493,72.6470588 140.463045,71.5936112 140.463045,70.2941176 L140.463045,56.7647059 C140.463045,55.4652124 141.516493,54.4117647 142.815987,54.4117647 Z M163.44466,54.4117647 L176.957834,54.4117647 C178.257327,54.4117647 179.310775,55.4652124 179.310775,56.7647059 L179.310775,70.2941176 C179.310775,71.5936112 178.257327,72.6470588 176.957834,72.6470588 L163.44466,72.6470588 C162.145166,72.6470588 161.091719,71.5936112 161.091719,70.2941176 L161.091719,56.7647059 C161.091719,55.4652124 162.145166,54.4117647 163.44466,54.4117647 Z M184.073333,54.4117647 L197.586507,54.4117647 C198.886,54.4117647 199.939448,55.4652124 199.939448,56.7647059 L199.939448,70.2941176 C199.939448,71.5936112 198.886,72.6470588 197.586507,72.6470588 L184.073333,72.6470588 C182.773839,72.6470588 181.720392,71.5936112 181.720392,70.2941176 L181.720392,56.7647059 C181.720392,55.4652124 182.773839,54.4117647 184.073333,54.4117647 Z M204.702006,54.4117647 L218.21518,54.4117647 C219.514673,54.4117647 220.568121,55.4652124 220.568121,56.7647059 L220.568121,70.2941176 C220.568121,71.5936112 219.514673,72.6470588 218.21518,72.6470588 L204.702006,72.6470588 C203.402513,72.6470588 202.349065,71.5936112 202.349065,70.2941176 L202.349065,56.7647059 C202.349065,55.4652124 203.402513,54.4117647 204.702006,54.4117647 Z M225.330679,54.4117647 L238.843853,54.4117647 C240.143347,54.4117647 241.196794,55.4652124 241.196794,56.7647059 L241.196794,70.2941176 C241.196794,71.5936112 240.143347,72.6470588 238.843853,72.6470588 L225.330679,72.6470588 C224.031186,72.6470588 222.977738,71.5936112 222.977738,70.2941176 L222.977738,56.7647059 C222.977738,55.4652124 224.031186,54.4117647 225.330679,54.4117647 Z M245.959353,54.4117647 L259.472526,54.4117647 C260.77202,54.4117647 261.825467,55.4652124 261.825467,56.7647059 L261.825467,70.2941176 C261.825467,71.5936112 260.77202,72.6470588 259.472526,72.6470588 L245.959353,72.6470588 C244.659859,72.6470588 243.606411,71.5936112 243.606411,70.2941176 L243.606411,56.7647059 C243.606411,55.4652124 244.659859,54.4117647 245.959353,54.4117647 Z M266.739152,54.4117647 L301.116083,54.4117647 C302.415577,54.4117647 303.469024,55.4652124 303.469024,56.7647059 L303.469024,70.2941176 C303.469024,71.5936112 302.415577,72.6470588 301.116083,72.6470588 L266.739152,72.6470588 C265.439658,72.6470588 264.38621,71.5936112 264.38621,70.2941176 L264.38621,56.7647059 C264.38621,55.4652124 265.439658,54.4117647 266.739152,54.4117647 Z M308.25677,54.4117647 L321.769944,54.4117647 C323.069437,54.4117647 324.122885,55.4652124 324.122885,56.7647059 L324.122885,70.2941176 C324.122885,71.5936112 323.069437,72.6470588 321.769944,72.6470588 L308.25677,72.6470588 C306.957277,72.6470588 305.903829,71.5936112 305.903829,70.2941176 L305.903829,56.7647059 C305.903829,55.4652124 306.957277,54.4117647 308.25677,54.4117647 Z M2.35294118,75 L42.6069876,75 C43.9064811,75 44.9599288,76.0534476 44.9599288,77.3529412 L44.9599288,90.8823529 C44.9599288,92.1818465 43.9064811,93.2352941 42.6069876,93.2352941 L2.35294118,93.2352941 C1.05344765,93.2352941 1.49140969e-15,92.1818465 0,90.8823529 L0,77.3529412 C-1.59142059e-16,76.0534476 1.05344765,75 2.35294118,75 Z M49.6637159,75 L63.1768896,75 C64.4763832,75 65.5298308,76.0534476 65.5298308,77.3529412 L65.5298308,90.8823529 C65.5298308,92.1818465 64.4763832,93.2352941 63.1768896,93.2352941 L49.6637159,93.2352941 C48.3642224,93.2352941 47.3107747,92.1818465 47.3107747,90.8823529 L47.3107747,77.3529412 C47.3107747,76.0534476 48.3642224,75 49.6637159,75 Z M70.2989192,75 L83.812093,75 C85.1115865,75 86.1650341,76.0534476 86.1650341,77.3529412 L86.1650341,90.8823529 C86.1650341,92.1818465 85.1115865,93.2352941 83.812093,93.2352941 L70.2989192,93.2352941 C68.9994257,93.2352941 67.945978,92.1818465 67.945978,90.8823529 L67.945978,77.3529412 C67.945978,76.0534476 68.9994257,75 70.2989192,75 Z M90.9341225,75 L104.447296,75 C105.74679,75 106.800237,76.0534476 106.800237,77.3529412 L106.800237,90.8823529 C106.800237,92.1818465 105.74679,93.2352941 104.447296,93.2352941 L90.9341225,93.2352941 C89.634629,93.2352941 88.5811814,92.1818465 88.5811814,90.8823529 L88.5811814,77.3529412 C88.5811814,76.0534476 89.634629,75 90.9341225,75 Z M111.569326,75 L125.0825,75 C126.381993,75 127.435441,76.0534476 127.435441,77.3529412 L127.435441,90.8823529 C127.435441,92.1818465 126.381993,93.2352941 125.0825,93.2352941 L111.569326,93.2352941 C110.269832,93.2352941 109.216385,92.1818465 109.216385,90.8823529 L109.216385,77.3529412 C109.216385,76.0534476 110.269832,75 111.569326,75 Z M132.204529,75 L145.717703,75 C147.017196,75 148.070644,76.0534476 148.070644,77.3529412 L148.070644,90.8823529 C148.070644,92.1818465 147.017196,93.2352941 145.717703,93.2352941 L132.204529,93.2352941 C130.905036,93.2352941 129.851588,92.1818465 129.851588,90.8823529 L129.851588,77.3529412 C129.851588,76.0534476 130.905036,75 132.204529,75 Z M152.839733,75 L166.352906,75 C167.6524,75 168.705847,76.0534476 168.705847,77.3529412 L168.705847,90.8823529 C168.705847,92.1818465 167.6524,93.2352941 166.352906,93.2352941 L152.839733,93.2352941 C151.540239,93.2352941 150.486791,92.1818465 150.486791,90.8823529 L150.486791,77.3529412 C150.486791,76.0534476 151.540239,75 152.839733,75 Z M173.474936,75 L186.98811,75 C188.287603,75 189.341051,76.0534476 189.341051,77.3529412 L189.341051,90.8823529 C189.341051,92.1818465 188.287603,93.2352941 186.98811,93.2352941 L173.474936,93.2352941 C172.175442,93.2352941 171.121995,92.1818465 171.121995,90.8823529 L171.121995,77.3529412 C171.121995,76.0534476 172.175442,75 173.474936,75 Z M194.110139,75 L207.623313,75 C208.922806,75 209.976254,76.0534476 209.976254,77.3529412 L209.976254,90.8823529 C209.976254,92.1818465 208.922806,93.2352941 207.623313,93.2352941 L194.110139,93.2352941 C192.810646,93.2352941 191.757198,92.1818465 191.757198,90.8823529 L191.757198,77.3529412 C191.757198,76.0534476 192.810646,75 194.110139,75 Z M214.745342,75 L228.258516,75 C229.55801,75 230.611457,76.0534476 230.611457,77.3529412 L230.611457,90.8823529 C230.611457,92.1818465 229.55801,93.2352941 228.258516,93.2352941 L214.745342,93.2352941 C213.445849,93.2352941 212.392401,92.1818465 212.392401,90.8823529 L212.392401,77.3529412 C212.392401,76.0534476 213.445849,75 214.745342,75 Z M235.380546,75 L248.89372,75 C250.193213,75 251.246661,76.0534476 251.246661,77.3529412 L251.246661,90.8823529 C251.246661,92.1818465 250.193213,93.2352941 248.89372,93.2352941 L235.380546,93.2352941 C234.081052,93.2352941 233.027605,92.1818465 233.027605,90.8823529 L233.027605,77.3529412 C233.027605,76.0534476 234.081052,75 235.380546,75 Z M255.950448,75 L280.042428,75 C281.341922,75 282.39537,76.0534476 282.39537,77.3529412 L282.39537,90.8823529 C282.39537,92.1818465 281.341922,93.2352941 280.042428,93.2352941 L255.950448,93.2352941 C254.650954,93.2352941 253.597507,92.1818465 253.597507,90.8823529 L253.597507,77.3529412 C253.597507,76.0534476 254.650954,75 255.950448,75 Z M308.25677,75 L321.769944,75 C323.069437,75 324.122885,76.0534476 324.122885,77.3529412 L324.122885,90.8823529 C324.122885,92.1818465 323.069437,93.2352941 321.769944,93.2352941 L308.25677,93.2352941 C306.957277,93.2352941 305.903829,92.1818465 305.903829,90.8823529 L305.903829,77.3529412 C305.903829,76.0534476 306.957277,75 308.25677,75 Z M287.393012,75 L300.906186,75 C302.20568,75 303.259127,76.0534476 303.259127,77.3529412 L303.259127,90.8823529 C303.259127,92.1818465 302.20568,93.2352941 300.906186,93.2352941 L287.393012,93.2352941 C286.093519,93.2352941 285.040071,92.1818465 285.040071,90.8823529 L285.040071,77.3529412 C285.040071,76.0534476 286.093519,75 287.393012,75 Z M2.35294118,95.5882353 L21.7432298,95.5882353 C23.0427233,95.5882353 24.096171,96.6416829 24.096171,97.9411765 L24.096171,111.470588 C24.096171,112.770082 23.0427233,113.823529 21.7432298,113.823529 L2.35294118,113.823529 C1.05344765,113.823529 -2.84947151e-16,112.770082 0,111.470588 L0,97.9411765 C-1.59142059e-16,96.6416829 1.05344765,95.5882353 2.35294118,95.5882353 Z M49.6637159,95.5882353 L63.1768896,95.5882353 C64.4763832,95.5882353 65.5298308,96.6416829 65.5298308,97.9411765 L65.5298308,111.470588 C65.5298308,112.770082 64.4763832,113.823529 63.1768896,113.823529 L49.6637159,113.823529 C48.3642224,113.823529 47.3107747,112.770082 47.3107747,111.470588 L47.3107747,97.9411765 C47.3107747,96.6416829 48.3642224,95.5882353 49.6637159,95.5882353 Z M29.0938138,95.5882353 L42.6069876,95.5882353 C43.9064811,95.5882353 44.9599288,96.6416829 44.9599288,97.9411765 L44.9599288,111.470588 C44.9599288,112.770082 43.9064811,113.823529 42.6069876,113.823529 L29.0938138,113.823529 C27.7943203,113.823529 26.7408727,112.770082 26.7408727,111.470588 L26.7408727,97.9411765 C26.7408727,96.6416829 27.7943203,95.5882353 29.0938138,95.5882353 Z M70.2989192,95.5882353 L83.812093,95.5882353 C85.1115865,95.5882353 86.1650341,96.6416829 86.1650341,97.9411765 L86.1650341,111.470588 C86.1650341,112.770082 85.1115865,113.823529 83.812093,113.823529 L70.2989192,113.823529 C68.9994257,113.823529 67.945978,112.770082 67.945978,111.470588 L67.945978,97.9411765 C67.945978,96.6416829 68.9994257,95.5882353 70.2989192,95.5882353 Z M90.9341225,95.5882353 L186.726904,95.5882353 C188.026398,95.5882353 189.079846,96.6416829 189.079846,97.9411765 L189.079846,111.470588 C189.079846,112.770082 188.026398,113.823529 186.726904,113.823529 L90.9341225,113.823529 C89.634629,113.823529 88.5811814,112.770082 88.5811814,111.470588 L88.5811814,97.9411765 C88.5811814,96.6416829 89.634629,95.5882353 90.9341225,95.5882353 Z M194.110139,95.5882353 L207.623313,95.5882353 C208.922806,95.5882353 209.976254,96.6416829 209.976254,97.9411765 L209.976254,111.470588 C209.976254,112.770082 208.922806,113.823529 207.623313,113.823529 L194.110139,113.823529 C192.810646,113.823529 191.757198,112.770082 191.757198,111.470588 L191.757198,97.9411765 C191.757198,96.6416829 192.810646,95.5882353 194.110139,95.5882353 Z M214.745342,95.5882353 L228.258516,95.5882353 C229.55801,95.5882353 230.611457,96.6416829 230.611457,97.9411765 L230.611457,111.470588 C230.611457,112.770082 229.55801,113.823529 228.258516,113.823529 L214.745342,113.823529 C213.445849,113.823529 212.392401,112.770082 212.392401,111.470588 L212.392401,97.9411765 C212.392401,96.6416829 213.445849,95.5882353 214.745342,95.5882353 Z M235.380546,95.5882353 L259.472526,95.5882353 C260.77202,95.5882353 261.825467,96.6416829 261.825467,97.9411765 L261.825467,111.470588 C261.825467,112.770082 260.77202,113.823529 259.472526,113.823529 L235.380546,113.823529 C234.081052,113.823529 233.027605,112.770082 233.027605,111.470588 L233.027605,97.9411765 C233.027605,96.6416829 234.081052,95.5882353 235.380546,95.5882353 Z M308.25677,95.5882353 L321.769944,95.5882353 C323.069437,95.5882353 324.122885,96.6416829 324.122885,97.9411765 L324.122885,111.470588 C324.122885,112.770082 323.069437,113.823529 321.769944,113.823529 L308.25677,113.823529 C306.957277,113.823529 305.903829,112.770082 305.903829,111.470588 L305.903829,97.9411765 C305.903829,96.6416829 306.957277,95.5882353 308.25677,95.5882353 Z M287.393012,95.5882353 L300.906186,95.5882353 C302.20568,95.5882353 303.259127,96.6416829 303.259127,97.9411765 L303.259127,111.470588 C303.259127,112.770082 302.20568,113.823529 300.906186,113.823529 L287.393012,113.823529 C286.093519,113.823529 285.040071,112.770082 285.040071,111.470588 L285.040071,97.9411765 C285.040071,96.6416829 286.093519,95.5882353 287.393012,95.5882353 Z M266.529255,95.5882353 L280.042428,95.5882353 C281.341922,95.5882353 282.39537,96.6416829 282.39537,97.9411765 L282.39537,111.470588 C282.39537,112.770082 281.341922,113.823529 280.042428,113.823529 L266.529255,113.823529 C265.229761,113.823529 264.176313,112.770082 264.176313,111.470588 L264.176313,97.9411765 C264.176313,96.6416829 265.229761,95.5882353 266.529255,95.5882353 Z M2.35294118,33.8235294 L26.4449217,33.8235294 C27.7444152,33.8235294 28.7978629,34.8769771 28.7978629,36.1764706 L28.7978629,49.7058824 C28.7978629,51.0053759 27.7444152,52.0588235 26.4449217,52.0588235 L2.35294118,52.0588235 C1.05344765,52.0588235 -2.84947151e-16,51.0053759 0,49.7058824 L0,36.1764706 C2.84947151e-16,34.8769771 1.05344765,33.8235294 2.35294118,33.8235294 Z M33.50165,33.8235294 L47.0148237,33.8235294 C48.3143173,33.8235294 49.3677649,34.8769771 49.3677649,36.1764706 L49.3677649,49.7058824 C49.3677649,51.0053759 48.3143173,52.0588235 47.0148237,52.0588235 L33.50165,52.0588235 C32.2021565,52.0588235 31.1487088,51.0053759 31.1487088,49.7058824 L31.1487088,36.1764706 C31.1487088,34.8769771 32.2021565,33.8235294 33.50165,33.8235294 Z M54.1516945,33.8235294 L67.6648683,33.8235294 C68.9643618,33.8235294 70.0178094,34.8769771 70.0178094,36.1764706 L70.0178094,49.7058824 C70.0178094,51.0053759 68.9643618,52.0588235 67.6648683,52.0588235 L54.1516945,52.0588235 C52.852201,52.0588235 51.7987533,51.0053759 51.7987533,49.7058824 L51.7987533,36.1764706 C51.7987533,34.8769771 52.852201,33.8235294 54.1516945,33.8235294 Z M74.801739,33.8235294 L88.3149128,33.8235294 C89.6144063,33.8235294 90.667854,34.8769771 90.667854,36.1764706 L90.667854,49.7058824 C90.667854,51.0053759 89.6144063,52.0588235 88.3149128,52.0588235 L74.801739,52.0588235 C73.5022455,52.0588235 72.4487979,51.0053759 72.4487979,49.7058824 L72.4487979,36.1764706 C72.4487979,34.8769771 73.5022455,33.8235294 74.801739,33.8235294 Z M95.4517836,33.8235294 L108.964957,33.8235294 C110.264451,33.8235294 111.317898,34.8769771 111.317898,36.1764706 L111.317898,49.7058824 C111.317898,51.0053759 110.264451,52.0588235 108.964957,52.0588235 L95.4517836,52.0588235 C94.15229,52.0588235 93.0988424,51.0053759 93.0988424,49.7058824 L93.0988424,36.1764706 C93.0988424,34.8769771 94.15229,33.8235294 95.4517836,33.8235294 Z M116.101828,33.8235294 L129.615002,33.8235294 C130.914495,33.8235294 131.967943,34.8769771 131.967943,36.1764706 L131.967943,49.7058824 C131.967943,51.0053759 130.914495,52.0588235 129.615002,52.0588235 L116.101828,52.0588235 C114.802335,52.0588235 113.748887,51.0053759 113.748887,49.7058824 L113.748887,36.1764706 C113.748887,34.8769771 114.802335,33.8235294 116.101828,33.8235294 Z M136.751873,33.8235294 L150.265046,33.8235294 C151.56454,33.8235294 152.617988,34.8769771 152.617988,36.1764706 L152.617988,49.7058824 C152.617988,51.0053759 151.56454,52.0588235 150.265046,52.0588235 L136.751873,52.0588235 C135.452379,52.0588235 134.398931,51.0053759 134.398931,49.7058824 L134.398931,36.1764706 C134.398931,34.8769771 135.452379,33.8235294 136.751873,33.8235294 Z M157.401917,33.8235294 L170.915091,33.8235294 C172.214584,33.8235294 173.268032,34.8769771 173.268032,36.1764706 L173.268032,49.7058824 C173.268032,51.0053759 172.214584,52.0588235 170.915091,52.0588235 L157.401917,52.0588235 C156.102424,52.0588235 155.048976,51.0053759 155.048976,49.7058824 L155.048976,36.1764706 C155.048976,34.8769771 156.102424,33.8235294 157.401917,33.8235294 Z M178.051962,33.8235294 L191.565135,33.8235294 C192.864629,33.8235294 193.918077,34.8769771 193.918077,36.1764706 L193.918077,49.7058824 C193.918077,51.0053759 192.864629,52.0588235 191.565135,52.0588235 L178.051962,52.0588235 C176.752468,52.0588235 175.69902,51.0053759 175.69902,49.7058824 L175.69902,36.1764706 C175.69902,34.8769771 176.752468,33.8235294 178.051962,33.8235294 Z M198.702006,33.8235294 L212.21518,33.8235294 C213.514673,33.8235294 214.568121,34.8769771 214.568121,36.1764706 L214.568121,49.7058824 C214.568121,51.0053759 213.514673,52.0588235 212.21518,52.0588235 L198.702006,52.0588235 C197.402513,52.0588235 196.349065,51.0053759 196.349065,49.7058824 L196.349065,36.1764706 C196.349065,34.8769771 197.402513,33.8235294 198.702006,33.8235294 Z M219.352051,33.8235294 L232.865224,33.8235294 C234.164718,33.8235294 235.218166,34.8769771 235.218166,36.1764706 L235.218166,49.7058824 C235.218166,51.0053759 234.164718,52.0588235 232.865224,52.0588235 L219.352051,52.0588235 C218.052557,52.0588235 216.99911,51.0053759 216.99911,49.7058824 L216.99911,36.1764706 C216.99911,34.8769771 218.052557,33.8235294 219.352051,33.8235294 Z M240.002095,33.8235294 L253.515269,33.8235294 C254.814763,33.8235294 255.86821,34.8769771 255.86821,36.1764706 L255.86821,49.7058824 C255.86821,51.0053759 254.814763,52.0588235 253.515269,52.0588235 L240.002095,52.0588235 C238.702602,52.0588235 237.649154,51.0053759 237.649154,49.7058824 L237.649154,36.1764706 C237.649154,34.8769771 238.702602,33.8235294 240.002095,33.8235294 Z M260.65214,33.8235294 L274.165313,33.8235294 C275.464807,33.8235294 276.518255,34.8769771 276.518255,36.1764706 L276.518255,49.7058824 C276.518255,51.0053759 275.464807,52.0588235 274.165313,52.0588235 L260.65214,52.0588235 C259.352646,52.0588235 258.299199,51.0053759 258.299199,49.7058824 L258.299199,36.1764706 C258.299199,34.8769771 259.352646,33.8235294 260.65214,33.8235294 Z M281.138083,33.8235294 L301.116083,33.8235294 C302.415577,33.8235294 303.469024,34.8769771 303.469024,36.1764706 L303.469024,49.7058824 C303.469024,51.0053759 302.415577,52.0588235 301.116083,52.0588235 L281.138083,52.0588235 C279.838589,52.0588235 278.785142,51.0053759 278.785142,49.7058824 L278.785142,36.1764706 C278.785142,34.8769771 279.838589,33.8235294 281.138083,33.8235294 Z M308.25677,33.8235294 L321.769944,33.8235294 C323.069437,33.8235294 324.122885,34.8769771 324.122885,36.1764706 L324.122885,49.7058824 C324.122885,51.0053759 323.069437,52.0588235 321.769944,52.0588235 L308.25677,52.0588235 C306.957277,52.0588235 305.903829,51.0053759 305.903829,49.7058824 L305.903829,36.1764706 C305.903829,34.8769771 306.957277,33.8235294 308.25677,33.8235294 Z M2.35294118,0 L21.1555183,0 C22.4550118,2.06965113e-15 23.5084595,1.05344765 23.5084595,2.35294118 L23.5084595,8.23529412 C23.5084595,9.53478765 22.4550118,10.5882353 21.1555183,10.5882353 L2.35294118,10.5882353 C1.05344765,10.5882353 1.04732048e-15,9.53478765 0,8.23529412 L0,2.35294118 C-1.59142059e-16,1.05344765 1.05344765,1.12689151e-15 2.35294118,0 Z M28.0023496,0 L42.6909464,0 C43.9904399,-2.38713089e-16 45.0438875,1.05344765 45.0438875,2.35294118 L45.0438875,8.23529412 C45.0438875,9.53478765 43.9904399,10.5882353 42.6909464,10.5882353 L28.0023496,10.5882353 C26.7028561,10.5882353 25.6494085,9.53478765 25.6494085,8.23529412 L25.6494085,2.35294118 C25.6494085,1.05344765 26.7028561,6.82802298e-16 28.0023496,0 Z M71.0732058,0 L85.7618025,0 C87.061296,-2.38713089e-16 88.1147437,1.05344765 88.1147437,2.35294118 L88.1147437,8.23529412 C88.1147437,9.53478765 87.061296,10.5882353 85.7618025,10.5882353 L71.0732058,10.5882353 C69.7737122,10.5882353 68.7202646,9.53478765 68.7202646,8.23529412 L68.7202646,2.35294118 C68.7202646,1.05344765 69.7737122,6.82802298e-16 71.0732058,0 Z M114.144062,0 L128.832659,0 C130.132152,-2.54707731e-15 131.1856,1.05344765 131.1856,2.35294118 L131.1856,8.23529412 C131.1856,9.53478765 130.132152,10.5882353 128.832659,10.5882353 L114.144062,10.5882353 C112.844568,10.5882353 111.791121,9.53478765 111.791121,8.23529412 L111.791121,2.35294118 C111.791121,1.05344765 112.844568,1.12689151e-15 114.144062,0 Z M157.214918,0 L171.903515,0 C173.203008,-2.38713089e-16 174.256456,1.05344765 174.256456,2.35294118 L174.256456,8.23529412 C174.256456,9.53478765 173.203008,10.5882353 171.903515,10.5882353 L157.214918,10.5882353 C155.915424,10.5882353 154.861977,9.53478765 154.861977,8.23529412 L154.861977,2.35294118 C154.861977,1.05344765 155.915424,6.82802298e-16 157.214918,0 Z M200.285774,0 L214.974371,0 C216.273864,1.62556192e-15 217.327312,1.05344765 217.327312,2.35294118 L217.327312,8.23529412 C217.327312,9.53478765 216.273864,10.5882353 214.974371,10.5882353 L200.285774,10.5882353 C198.986281,10.5882353 197.932833,9.53478765 197.932833,8.23529412 L197.932833,2.35294118 C197.932833,1.05344765 198.986281,6.82802298e-16 200.285774,0 Z M243.35663,0 L258.045227,0 C259.344721,1.62556192e-15 260.398168,1.05344765 260.398168,2.35294118 L260.398168,8.23529412 C260.398168,9.53478765 259.344721,10.5882353 258.045227,10.5882353 L243.35663,10.5882353 C242.057137,10.5882353 241.003689,9.53478765 241.003689,8.23529412 L241.003689,2.35294118 C241.003689,1.05344765 242.057137,6.82802298e-16 243.35663,0 Z M286.427486,0 L301.116083,0 C302.415577,-2.1029881e-15 303.469024,1.05344765 303.469024,2.35294118 L303.469024,8.23529412 C303.469024,9.53478765 302.415577,10.5882353 301.116083,10.5882353 L286.427486,10.5882353 C285.127993,10.5882353 284.074545,9.53478765 284.074545,8.23529412 L284.074545,2.35294118 C284.074545,1.05344765 285.127993,1.12689151e-15 286.427486,0 Z M49.5377777,0 L64.2263744,0 C65.525868,-2.38713089e-16 66.5793156,1.05344765 66.5793156,2.35294118 L66.5793156,8.23529412 C66.5793156,9.53478765 65.525868,10.5882353 64.2263744,10.5882353 L49.5377777,10.5882353 C48.2382842,10.5882353 47.1848365,9.53478765 47.1848365,8.23529412 L47.1848365,2.35294118 C47.1848365,1.05344765 48.2382842,1.12689151e-15 49.5377777,0 Z M92.6086338,0 L107.297231,0 C108.596724,-2.38713089e-16 109.650172,1.05344765 109.650172,2.35294118 L109.650172,8.23529412 C109.650172,9.53478765 108.596724,10.5882353 107.297231,10.5882353 L92.6086338,10.5882353 C91.3091403,10.5882353 90.2556927,9.53478765 90.2556927,8.23529412 L90.2556927,2.35294118 C90.2556927,1.05344765 91.3091403,6.82802298e-16 92.6086338,0 Z M135.67949,0 L150.368087,0 C151.66758,1.62556192e-15 152.721028,1.05344765 152.721028,2.35294118 L152.721028,8.23529412 C152.721028,9.53478765 151.66758,10.5882353 150.368087,10.5882353 L135.67949,10.5882353 C134.379996,10.5882353 133.326549,9.53478765 133.326549,8.23529412 L133.326549,2.35294118 C133.326549,1.05344765 134.379996,6.82802298e-16 135.67949,0 Z M178.750346,0 L193.438943,0 C194.738436,-2.38713089e-16 195.791884,1.05344765 195.791884,2.35294118 L195.791884,8.23529412 C195.791884,9.53478765 194.738436,10.5882353 193.438943,10.5882353 L178.750346,10.5882353 C177.450853,10.5882353 176.397405,9.53478765 176.397405,8.23529412 L176.397405,2.35294118 C176.397405,1.05344765 177.450853,6.82802298e-16 178.750346,0 Z M221.821202,0 L236.509799,0 C237.809292,1.62556192e-15 238.86274,1.05344765 238.86274,2.35294118 L238.86274,8.23529412 C238.86274,9.53478765 237.809292,10.5882353 236.509799,10.5882353 L221.821202,10.5882353 C220.521709,10.5882353 219.468261,9.53478765 219.468261,8.23529412 L219.468261,2.35294118 C219.468261,1.05344765 220.521709,6.82802298e-16 221.821202,0 Z M264.892058,0 L279.580655,0 C280.880149,-2.38713089e-16 281.933596,1.05344765 281.933596,2.35294118 L281.933596,8.23529412 C281.933596,9.53478765 280.880149,10.5882353 279.580655,10.5882353 L264.892058,10.5882353 C263.592565,10.5882353 262.539117,9.53478765 262.539117,8.23529412 L262.539117,2.35294118 C262.539117,1.05344765 263.592565,1.12689151e-15 264.892058,0 Z M307.962914,0 L321.769944,0 C323.069437,-2.38713089e-16 324.122885,1.05344765 324.122885,2.35294118 L324.122885,8.23529412 C324.122885,9.53478765 323.069437,10.5882353 321.769944,10.5882353 L307.962914,10.5882353 C306.663421,10.5882353 305.609973,9.53478765 305.609973,8.23529412 L305.609973,2.35294118 C305.609973,1.05344765 306.663421,6.82802298e-16 307.962914,0 Z" id="形状结合"></path>
                </g>
                <rect fill="#A1A4B3" opacity="0.600000024" x="-2.93855744" y="-2.94117647" width="330" height="120" rx="5.29411765"></rect>
            </g>
        </g>
    </g>
</svg>