<?xml version="1.0" encoding="UTF-8"?>
<svg width="20px" height="20px" viewBox="0 0 20 20" version="1.1" xmlns="http://www.w3.org/2000/svg" xmlns:xlink="http://www.w3.org/1999/xlink">
    <title>媒体</title>
    <defs>
        <path d="M16.3580943,3.30851361 C18.1393117,5.09340343 19.1583661,7.50627729 19.1583661,10.0788838 C19.1583661,12.6449437 18.1445178,15.0521993 16.3713208,16.8359743 C16.12797,17.0807768 15.7322437,17.0819536 15.4874412,16.8386029 C15.2426388,16.5952521 15.2414619,16.1995258 15.4848127,15.9547233 C17.0274982,14.4028349 17.9083661,12.3113245 17.9083661,10.0788838 C17.9083661,7.84075217 17.0229712,5.74435151 15.4733011,4.19148639 C15.2294749,3.94715748 15.2298824,3.55142958 15.4742113,3.30760338 C15.7185402,3.06377718 16.1142681,3.06418471 16.3580943,3.30851361 Z M6.39288379,4.8099034 C7.02715233,4.31351932 7.94372738,4.42529676 8.44011146,5.05956531 C8.6409039,5.31613343 8.75,5.63254947 8.75,5.95834819 L8.75,5.95834819 L8.75,14.2042784 C8.75,15.0096936 8.09708193,15.6626117 7.29166667,15.6626117 C6.96586795,15.6626117 6.6494519,15.5535156 6.39282362,15.3526761 L6.39282362,15.3526761 L3.65,13.2054799 L1.875,13.2063133 C0.88261334,13.2063133 0.0702959033,12.4353453 0.00432567712,11.4596873 L0.00432567712,11.4596873 L0,11.3313133 L0,8.83131327 C0,7.79577937 0.839466094,6.95631327 1.87484251,6.95631329 L1.87484251,6.95631329 L3.64916667,6.95547994 Z M13.7418152,5.41495315 C14.9681794,6.64384573 15.669994,8.30557273 15.669994,10.0768151 C15.669994,11.8435494 14.9717642,13.5014086 13.7509209,14.7295348 C13.5075701,14.9743373 13.1118438,14.9755141 12.8670413,14.7321634 C12.6222389,14.4888126 12.621062,14.0930862 12.8644128,13.8482838 C13.8547445,12.8520442 14.419994,11.5099302 14.419994,10.0768151 C14.419994,8.64004761 13.8518388,7.29479381 12.857022,6.29792593 C12.6131958,6.05359702 12.6136033,5.65786912 12.8579322,5.41404292 C13.1022611,5.17021672 13.497989,5.17062424 13.7418152,5.41495315 Z M7.45573021,5.82995064 C7.3848182,5.73934084 7.2538789,5.72337264 7.16322412,5.79431985 L7.16322412,5.79431985 L4.08136255,8.20575732 L1.875,8.20631327 C1.52982203,8.20631327 1.25,8.4861353 1.25,8.83131327 L1.25,8.83131327 L1.25,11.3313133 C1.25,11.6764912 1.52982203,11.9563133 1.87484251,11.9563133 L1.87484251,11.9563133 L4.08129849,11.9557573 L7.16326911,14.3683419 C7.1999217,14.3970265 7.24512399,14.4126117 7.29166667,14.4126117 C7.40672599,14.4126117 7.5,14.3193377 7.5,14.2042784 L7.5,14.2042784 L7.5,5.95834819 C7.5,5.91180552 7.48441484,5.86660322 7.45573021,5.82995064 Z M11.3673836,7.67415425 C11.9927682,8.31557921 12.3496575,9.17490922 12.3496575,10.0889239 C12.3496575,11.0143095 11.9837995,11.8834064 11.3445625,12.5268821 C11.1012927,12.771765 10.7055667,12.7730726 10.4606838,12.5298028 C10.2158009,12.286533 10.2144933,11.8908071 10.4577631,11.6459242 C10.8666645,11.2343114 11.0996575,10.6808358 11.0996575,10.0889239 C11.0996575,9.5042663 10.8723912,8.95704693 10.4723801,8.54677599 C10.2314123,8.29962759 10.2364226,7.90393119 10.483571,7.66296336 C10.7307194,7.42199552 11.1264158,7.42700585 11.3673836,7.67415425 Z" id="path-1"></path>
    </defs>
    <g id="媒体" stroke="none" stroke-width="1" fill="none" fill-rule="evenodd">
        <mask id="mask-2" fill="white">
            <use xlink:href="#path-1"></use>
        </mask>
        <use id="合并形状" fill="#182431" fill-rule="nonzero" opacity="0.609607515" xlink:href="#path-1"></use>
    </g>
</svg>