<?xml version="1.0" encoding="UTF-8"?>
<svg width="288px" height="288px" viewBox="0 0 288 288" version="1.1" xmlns="http://www.w3.org/2000/svg" xmlns:xlink="http://www.w3.org/1999/xlink">
    <title>编组备份</title>
    <g id="更多连接" stroke="none" stroke-width="1" fill="none" fill-rule="evenodd">
        <g id="nfc19" transform="translate(50.000000, 17.000000)">
            <g id="编组-5">
                <path d="M93.5241313,0 C145.176083,0 187.048263,41.8613759 187.048263,93.5 C187.048263,126.975373 169.45173,156.341916 143.001547,172.859003 L143.001258,135.412751 C152.639872,124.090099 158.456967,109.412103 158.456967,93.375 C158.456967,57.5455269 129.421074,28.5 93.6034837,28.5 C57.7858937,28.5 28.75,57.5455269 28.75,93.375 C28.75,109.297222 34.4840533,123.879741 43.9991622,135.168909 L43.9995692,172.829543 C17.5756243,156.307011 3.9221959e-12,126.955479 3.9221959e-12,93.5 C3.9221959e-12,41.8613759 41.8721798,0 93.5241313,0 Z" id="形状结合" fill-opacity="0.5" fill="#2E88E6" opacity="0.2"></path>
                <path d="M93.6034837,28.25 C129.421074,28.25 158.456967,57.3514913 158.456967,93.25 C158.456967,108.754626 153.040639,122.991343 144.000926,134.163157 L144,71.5756026 C144,66.1596262 143.436084,64.1956624 142.377169,62.2156624 C141.318253,60.2356624 139.764338,58.6817468 137.784338,57.6228312 C135.804338,56.5639156 133.840374,56 128.424397,56 L128.424397,56 L60.5756026,56 C55.1596262,56 53.1956624,56.5639156 51.2156624,57.6228312 C49.2356624,58.6817468 47.6817468,60.2356624 46.6228312,62.2156624 C45.5639156,64.1956624 45,66.1596262 45,71.5756026 L45,71.5756026 L45.0009505,136.287283 C34.8879658,124.823581 28.75,109.755209 28.75,93.25 C28.75,57.3514913 57.7858937,28.25 93.6034837,28.25 Z" id="形状结合" fill-opacity="0.2" fill="#2E88E6"></path>
                <path d="" id="形状结合" fill-opacity="0.8" fill="#0A59F7"></path>
            </g>
            <g id="机模" transform="translate(42.500000, 52.000000)">
                <path d="M83.7800266,1.65263916e-15 C90.1989615,-9.60230945e-16 92.5266224,0.6683444 94.8732891,1.92335547 C97.2199557,3.17836653 99.0616335,5.02004427 100.316645,7.36671093 C101.571656,9.7133776 102.24,12.0410385 102.24,18.4599734 L102.24,197.540027 C102.24,203.958961 101.571656,206.286622 100.316645,208.633289 C99.0616335,210.979956 97.2199557,212.821633 94.8732891,214.076645 C92.5266224,215.331656 90.1989615,216 83.7800266,216 L18.4599734,216 C12.0410385,216 9.7133776,215.331656 7.36671093,214.076645 C5.02004427,212.821633 3.17836653,210.979956 1.92335547,208.633289 C0.6683444,206.286622 -1.57238702e-15,203.958961 -1.66282606e-14,197.540027 L-5.70138987e-15,18.4599734 C-7.92121357e-15,12.0410385 0.6683444,9.7133776 1.92335547,7.36671093 C3.17836653,5.02004427 5.02004427,3.17836653 7.36671093,1.92335547 C9.7133776,0.6683444 12.0410385,-2.20114955e-15 18.4599734,3.78836567e-15 L83.7800266,1.65263916e-15 Z M83.1583577,4.32 L19.0816423,4.32 C13.1976186,4.32 11.0639295,4.93264903 8.91281836,6.08307584 C6.76170725,7.23350266 5.07350266,8.92170725 3.92307584,11.0728184 C2.77264903,13.2239295 2.16,15.3576186 2.16,21.2416423 L2.16,21.2416423 L2.16,192.838358 C2.16,198.722381 2.77264903,200.856071 3.92307584,203.007182 C5.07350266,205.158293 6.76170725,206.846497 8.91281836,207.996924 C11.0639295,209.147351 13.1976186,209.76 19.0816423,209.76 L19.0816423,209.76 L83.1583577,209.76 C89.0423814,209.76 91.1760705,209.147351 93.3271816,207.996924 C95.4782928,206.846497 97.1664973,205.158293 98.3169242,203.007182 C99.467351,200.856071 100.08,198.722381 100.08,192.838358 L100.08,192.838358 L100.08,21.2416423 C100.08,15.3576186 99.467351,13.2239295 98.3169242,11.0728184 C97.1664973,8.92170725 95.4782928,7.23350266 93.3271816,6.08307584 C91.1760705,4.93264903 89.0423814,4.32 83.1583577,4.32 L83.1583577,4.32 Z" id="形状结合" fill="#505259"></path>
                <path d="M19.0816423,4.32 L83.1583577,4.32 C89.0423814,4.32 91.1760705,4.93264903 93.3271816,6.08307584 C95.4782928,7.23350266 97.1664973,8.92170725 98.3169242,11.0728184 C99.467351,13.2239295 100.08,15.3576186 100.08,21.2416423 L100.08,192.838358 C100.08,198.722381 99.467351,200.856071 98.3169242,203.007182 C97.1664973,205.158293 95.4782928,206.846497 93.3271816,207.996924 C91.1760705,209.147351 89.0423814,209.76 83.1583577,209.76 L19.0816423,209.76 C13.1976186,209.76 11.0639295,209.147351 8.91281836,207.996924 C6.76170725,206.846497 5.07350266,205.158293 3.92307584,203.007182 C2.77264903,200.856071 2.16,198.722381 2.16,192.838358 L2.16,21.2416423 C2.16,15.3576186 2.77264903,13.2239295 3.92307584,11.0728184 C5.07350266,8.92170725 6.76170725,7.23350266 8.91281836,6.08307584 C11.0639295,4.93264903 13.1976186,4.32 19.0816423,4.32 Z" id="矩形" fill="#FFFFFF" opacity="0.1"></path>
            </g>
        </g>
    </g>
</svg>