<?xml version="1.0" encoding="UTF-8"?>
<svg width="48px" height="48px" viewBox="0 0 48 48" version="1.1" xmlns="http://www.w3.org/2000/svg" xmlns:xlink="http://www.w3.org/1999/xlink">
    <title>Wi-Fi备份 6</title>
    <defs>
        <path d="M21.5,0 C33.3741222,0 43,9.62587788 43,21.5 C43,27.7695226 40.2993534,33.6055416 35.6795166,37.6617626 C35.0569884,38.208343 34.1092386,38.1467752 33.5626582,37.5242468 C33.0160778,36.9017186 33.0776458,35.9539688 33.700174,35.4073886 C37.6779392,31.914907 40,26.8970008 40,21.5 C40,11.2827321 31.717268,3 21.5,3 C11.2827321,3 3,11.2827321 3,21.5 C3,26.8976012 5.3225815,31.9160124 9.30111386,35.408519 C9.9236924,35.9550422 9.98534756,36.9027862 9.4388245,37.5253648 C8.89230144,38.1479434 7.94455732,38.2095984 7.32197878,37.6630754 C2.70125142,33.6068256 0,27.7702208 0,21.5 C0,9.62587788 9.62587788,0 21.5,0 Z M21.5,8 C28.9558442,8 35,14.0441559 35,21.5 C35,25.4036662 33.3319702,29.0415606 30.4730762,31.5864916 C29.8542988,32.1373148 28.9061504,32.0822272 28.3553272,31.4634498 C27.804504,30.8446726 27.8595916,29.8965242 28.4783688,29.345701 C30.704329,27.3641952 32,24.5383978 32,21.5 C32,15.7010102 27.29899,11 21.5,11 C15.7010101,11 11,15.7010102 11,21.5 C11,24.3442862 12.1353067,27.0025 14.1073328,28.9565654 L14.5251807,29.348859 C15.1442055,29.8994042 15.1997192,30.8475278 14.6491742,31.4665526 C14.1486787,32.0293024 13.3196058,32.1263406 12.7079192,31.7257004 L12.5314807,31.590546 L12.482233,31.5465312 C9.65001806,29.0028344 8,25.382637 8,21.5 C8,14.0441559 14.0441559,8 21.5,8 Z M21.5,17.5 C23.709139,17.5 25.5,19.290861 25.5,21.5 C25.5,23.709139 23.709139,25.5 21.5,25.5 C19.290861,25.5 17.5,23.709139 17.5,21.5 C17.5,19.290861 19.290861,17.5 21.5,17.5 Z" id="path-1"></path>
    </defs>
    <g id="Wi-Fi备份-6" stroke="none" stroke-width="1" fill="none" fill-rule="evenodd">
        <g id="编组" transform="translate(2.500000, 4.000000)">
            <mask id="mask-2" fill="white">
                <use xlink:href="#path-1"></use>
            </mask>
            <g id="uxs-a"></g>
            <g mask="url(#mask-2)" fill="#000000" fill-opacity="0.9" fill-rule="nonzero" id="矩形">
                <g transform="translate(-2.688764, -4.500000)">
                    <rect x="0" y="0" width="48" height="48"></rect>
                </g>
            </g>
        </g>
    </g>
</svg>