<?xml version="1.0" encoding="UTF-8"?>
<svg width="24px" height="24px" viewBox="0 0 24 24" version="1.1" xmlns="http://www.w3.org/2000/svg" xmlns:xlink="http://www.w3.org/1999/xlink">
    <title>画板备份 6</title>
    <g id="画板备份-6" stroke="none" stroke-width="1" fill="none" fill-rule="evenodd">
        <path d="M6.25,16 C7.21649831,16 8,16.7835017 8,17.75 C8,18.7164983 7.21649831,19.5 6.25,19.5 C5.28350169,19.5 4.5,18.7164983 4.5,17.75 C4.5,16.7835017 5.28350169,16 6.25,16 Z M17.75,16 C18.7164983,16 19.5,16.7835017 19.5,17.75 C19.5,18.7164983 18.7164983,19.5 17.75,19.5 C16.7835017,19.5 16,18.7164983 16,17.75 C16,16.7835017 16.7835017,16 17.75,16 Z M6.25,5 C7.21649831,5 8,5.78350169 8,6.75 C8,7.71649831 7.21649831,8.5 6.25,8.5 C5.28350169,8.5 4.5,7.71649831 4.5,6.75 C4.5,5.78350169 5.28350169,5 6.25,5 Z M17.75,5 C18.7164983,5 19.5,5.78350169 19.5,6.75 C19.5,7.71649831 18.7164983,8.5 17.75,8.5 C16.7835017,8.5 16,7.71649831 16,6.75 C16,5.78350169 16.7835017,5 17.75,5 Z" id="path-1" fill="#000000" fill-rule="nonzero"></path>
    </g>
</svg>