<?xml version="1.0" encoding="UTF-8"?>
<svg width="48px" height="48px" viewBox="0 0 48 48" version="1.1" xmlns="http://www.w3.org/2000/svg" xmlns:xlink="http://www.w3.org/1999/xlink">
    <title>删除</title>
    <defs>
        <path d="M17.629,19.5 L18.726129,30.4738834 C18.8389375,31.6019681 19.7721115,32.4662096 20.8984872,32.4990325 L20.9649627,32.5 L27.0342282,32.5 C28.1681898,32.5 29.1211231,31.6570911 29.2655686,30.5392856 L29.2731282,30.4732196 L30.1924161,21.2527383 L30.369,19.5 L31.877,19.5 L31.6849078,21.4026294 L30.7657282,30.6220326 C30.5772847,32.512127 29.0070268,33.9581787 27.1166184,33.9991088 L27.0342282,34 L20.9649627,34 C19.0659172,34 17.471427,32.5815579 17.242656,30.7050136 L17.2335732,30.6231389 L16.121,19.5 L17.629,19.5 Z M22.25,23.75 C22.6642136,23.75 23,24.0857864 23,24.5 L23,30.5 C23,30.9142136 22.6642136,31.25 22.25,31.25 C21.8357864,31.25 21.5,30.9142136 21.5,30.5 L21.5,24.5 C21.5,24.0857864 21.8357864,23.75 22.25,23.75 Z M25.75,23.75 C26.1642136,23.75 26.5,24.0857864 26.5,24.5 L26.5,30.5 C26.5,30.9142136 26.1642136,31.25 25.75,31.25 C25.3357864,31.25 25,30.9142136 25,30.5 L25,24.5 C25,24.0857864 25.3357864,23.75 25.75,23.75 Z M24,13.75 C25.7692836,13.75 27.2083571,15.163798 27.2491124,16.9232859 L27.25,17 L33,17 C33.4142136,17 33.75,17.3357864 33.75,17.75 C33.75,18.1494202 33.43777,18.4759152 33.0440682,18.4987268 L33,18.5 L26.5,18.5 C26.1005798,18.5 25.7740848,18.18777 25.7512732,17.7940682 L25.75,17.75 L25.75,17 C25.75,16.0335017 24.9664983,15.25 24,15.25 C23.0536371,15.25 22.2827253,16.0011958 22.2510148,16.9398376 L22.25,17 L22.25,17.75 C22.25,18.1494202 21.93777,18.4759152 21.5440682,18.4987268 L21.5,18.5 L14.75,18.5 C14.3357864,18.5 14,18.1642136 14,17.75 C14,17.3505798 14.31223,17.0240848 14.7059318,17.0012732 L14.75,17 L20.75,17 C20.75,15.2050746 22.2050746,13.75 24,13.75 Z" id="path-1"></path>
    </defs>
    <g id="删除" stroke="none" stroke-width="1" fill="none" fill-rule="evenodd">
        <mask id="mask-2" fill="white">
            <use xlink:href="#path-1"></use>
        </mask>
        <use id="形状结合" fill="#000000" fill-rule="nonzero" opacity="0.900000036" xlink:href="#path-1"></use>
    </g>
</svg>