<?xml version="1.0" encoding="UTF-8"?>
<svg width="32px" height="32px" viewBox="0 0 32 32" version="1.1" xmlns="http://www.w3.org/2000/svg" xmlns:xlink="http://www.w3.org/1999/xlink">
    <title>ic_public_themes</title>
    <defs>
        <linearGradient x1="100%" y1="58.4248326%" x2="0%" y2="37.5%" id="linearGradient-1">
            <stop stop-color="#FFFFFF" stop-opacity="0.4" offset="0%"></stop>
            <stop stop-color="#FFFFFF" stop-opacity="0.6" offset="100%"></stop>
        </linearGradient>
    </defs>
    <g id="ic_public_themes" stroke="none" stroke-width="1" fill="none" fill-rule="evenodd">
        <g id="#illustration_编组-19" transform="translate(-0.000000, 0.000000)">
            <g id="WLAN_icon备份-14" fill="#FC6957">
                <circle id="椭圆形" transform="translate(16.000000, 16.000000) rotate(-360.000000) translate(-16.000000, -16.000000) " cx="16" cy="16" r="16"></circle>
            </g>
            <g id="编组-4" transform="translate(7.500000, 6.000000)" fill-rule="nonzero">
                <path d="M16.33732,7.86875102 C16.7033081,7.86875102 17,8.16302523 17,8.52603087 L17,11.4441074 C17,12.1013745 16.510563,12.6576321 15.8539914,12.7465753 L11.0682952,13.3948164 L11.1,13.3948942 C10.4300125,13.4840353 9.87679344,13.9177983 9.6420892,14.5038211 L9.61983333,14.5619392 C9.59483333,14.6317039 9.57266667,14.7027428 9.557,14.7761709 L9.54766667,14.8346267 C9.53883333,14.8838443 9.53166667,14.9333804 9.52733333,14.9837129 C9.52333333,15.0267185 9.5215,15.0709984 9.52033333,15.1162339 L9.51966667,15.1294541 L9.52066667,15.1495234 L9.51966667,15.2361519 C9.51958333,15.2652006 9.52016667,15.2947072 9.52266667,15.3255279 C9.54384314,15.593056 9.59029194,15.8970206 9.65077556,16.2215157 L9.68866002,16.4185491 L9.72937343,16.6197462 L9.7723764,16.8243437 L9.83999383,17.1359453 L10.0028556,17.8716127 L10.0482685,18.0805783 L10.0921951,18.2875997 C10.0993624,18.3218988 10.1064453,18.3560851 10.1134326,18.3901427 L10.1541185,18.5928162 L10.1919696,18.7916367 C10.2886469,19.3160088 10.3493333,19.7911383 10.328,20.1518733 C10.3291667,20.1773581 10.332,20.2025244 10.332,20.2283278 C10.332,21.2067852 9.513,22 8.50283333,22 C7.49283333,22 6.67383333,21.2067852 6.67383333,20.2283278 C6.67383333,20.1853222 6.6765,20.1431129 6.6795,20.1009037 C6.67018333,19.848182 6.69785106,19.5438967 6.74799723,19.2085841 L6.77487636,19.0384372 C6.77964603,19.0096801 6.78455501,18.9807314 6.78959491,18.9516028 L6.82133812,18.7747687 L6.85582039,18.5941895 C6.8617733,18.5638126 6.86782355,18.5333033 6.87396275,18.5026737 L6.91179806,18.3175465 L6.95136507,18.1301002 L7.03408237,17.7505326 L7.19782773,17.0104463 L7.24450102,16.7937845 L7.28916746,16.5801403 C7.29641025,16.5448331 7.30354362,16.5096881 7.31055469,16.4747237 L7.35105026,16.267249 C7.41575289,15.9255547 7.46564583,15.6055622 7.48783333,15.3255279 L7.49037654,15.2686767 L7.4895,15.1590802 L7.49116667,15.1294541 L7.49016667,15.1098627 C7.489,15.0687684 7.48733333,15.028152 7.48366667,14.9888098 C7.48044444,14.9497331 7.47581481,14.9110104 7.46992593,14.8726888 L7.4545,14.7796751 C7.43816667,14.7029021 7.415,14.6285183 7.3885,14.5557273 C7.16583333,13.9420212 6.59783333,13.4844096 5.906,13.394257 L5.96521905,13.394174 L1.14713777,12.7457318 C0.490059928,12.6572908 0,12.1008084 0,11.4431115 L0,8.52603087 C0,8.16302523 0.296691925,7.86875102 0.662679963,7.86875102 L16.33732,7.86875102 Z" id="路径" fill="#FFFFFF"></path>
                <path d="M2.03833118,-4.1433614e-17 L14.9616688,-4.1433614e-17 C15.4965801,-4.1433614e-17 15.6905518,0.0556953689 15.8861074,0.160279629 C16.081663,0.264863888 16.2351361,0.418337039 16.3397204,0.613892602 C16.4443046,0.809448166 16.5,1.00341992 16.5,1.53833118 L16.5,8 L16.5,8 L0.5,8 L0.5,1.53833118 C0.5,1.00341992 0.555695369,0.809448166 0.660279629,0.613892602 C0.764863888,0.418337039 0.918337039,0.264863888 1.1138926,0.160279629 C1.30944817,0.0556953689 1.50341992,-4.1433614e-17 2.03833118,-4.1433614e-17 Z" id="矩形" fill="url(#linearGradient-1)"></path>
            </g>
        </g>
    </g>
</svg>