<?xml version="1.0" encoding="UTF-8"?>
<svg width="24px" height="24px" viewBox="0 0 24 24" version="1.1" xmlns="http://www.w3.org/2000/svg" xmlns:xlink="http://www.w3.org/1999/xlink">
    <title>Public/@1xic_print</title>
    <g id="控件" stroke="none" stroke-width="1" fill="none" fill-rule="evenodd">
        <g id="1" fill="#000000">
            <path d="M7.77793103,0.5 L16.222069,0.5 C17.9771918,0.5 19.4,1.92280819 19.4,3.67793103 L19.4,5.65517241 L19.4,5.65517241 L4.6,5.65517241 L4.6,3.67793103 C4.6,1.92280819 6.02280819,0.5 7.77793103,0.5 Z" id="矩形" fill-opacity="0.54"></path>
            <path d="M20.822069,5.65517241 C22.5771918,5.65517241 24,7.0779806 24,8.83310345 L24,17.347931 C24,19.1030539 22.5771918,20.5258621 20.822069,20.5258621 L19.8,20.5251724 L19.8,16.7641379 C19.8,15.0695366 18.4736247,13.6847267 16.8024033,13.5912376 L16.622069,13.5862069 L7.37793103,13.5862069 C5.62280819,13.5862069 4.2,15.0090151 4.2,16.7641379 L4.2,20.5251724 L3.17793103,20.5258621 C1.42280819,20.5258621 -6.73237862e-16,19.1030539 0,17.347931 L0,8.83310345 C-2.14940558e-16,7.0779806 1.42280819,5.65517241 3.17793103,5.65517241 L20.822069,5.65517241 Z M20.1,8.03448276 C19.2715729,8.03448276 18.6,8.6913891 18.6,9.50172414 C18.6,10.3120592 19.2715729,10.9689655 20.1,10.9689655 C20.9284271,10.9689655 21.6,10.3120592 21.6,9.50172414 C21.6,8.6913891 20.9284271,8.03448276 20.1,8.03448276 Z" id="形状结合" fill-opacity="0.9"></path>
            <rect id="形状结合" fill-opacity="0.54" x="5.4" y="14.7758621" width="13.2" height="8.72413793" rx="1.9862069"></rect>
        </g>
    </g>
</svg>