<?xml version="1.0" standalone="no"?>
<svg xmlns="http://www.w3.org/2000/svg" width="24" height="24"><rect width="24" height="24" opacity="0"></rect><g><path d="M21.1 20.09Q21.6 19.58 21.76 18.9Q21.91 18.22 21.71 17.53Q21.5 16.85 21 16.34Q20.59 16.03 20.18 15.72Q19.49 15.17 18.77 14.64Q18.05 14.04 17.14 14.09Q16.22 14.14 15.58 14.76L14.66 15.65Q14.54 15.77 14.39 15.79Q14.23 15.82 14.11 15.72Q12.77 14.9 10.94 13.1Q9.12 11.3 8.3 10.01Q8.23 9.86 8.24 9.72Q8.26 9.58 8.35 9.48L9.36 8.52Q10.03 7.85 10.07 6.92Q10.1 6 9.48 5.3L7.82 3.24Q7.25 2.57 6.5 2.33Q5.76 2.09 4.96 2.39Q4.15 2.69 3.43 3.55Q2.62 4.39 2.32 5.46Q2.02 6.53 2.28 7.66Q2.9 10.44 5.27 13.56Q7.63 16.68 10.73 19.02Q13.82 21.36 16.49 21.89Q17.88 22.08 18.9 21.71Q19.92 21.34 21.1 20.09ZM16.73 20.38Q14.35 19.9 11.51 17.75Q8.66 15.6 6.48 12.71Q4.3 9.82 3.72 7.32Q3.55 6.58 3.76 5.84Q3.96 5.11 4.51 4.56L4.7 4.34Q5.3 3.74 5.76 3.74Q6.22 3.74 6.65 4.15L8.35 6.29Q8.57 6.55 8.57 6.88Q8.57 7.2 8.33 7.44L7.32 8.4Q6.84 8.88 6.76 9.55Q6.67 10.22 7.03 10.8Q7.92 12.24 9.88 14.17Q11.83 16.1 13.32 17.02Q13.92 17.35 14.58 17.28Q15.24 17.21 15.72 16.73L16.63 15.84Q16.87 15.6 17.21 15.59Q17.54 15.58 17.81 15.79Q17.95 15.94 18.79 16.54Q19.13 16.8 19.46 17.05Q19.8 17.3 20.06 17.52Q20.35 17.86 20.35 18.29Q20.35 18.72 20.04 19.03Q19.13 19.99 18.38 20.28Q17.64 20.57 16.73 20.38Z" fill="rgba(255,255,255,0.86)"></path></g></svg>