<?xml version="1.0" encoding="UTF-8"?>
<svg width="28px" height="28px" viewBox="0 0 28 28" version="1.1" xmlns="http://www.w3.org/2000/svg" xmlns:xlink="http://www.w3.org/1999/xlink">
    <title>wireless_reverse_component</title>
    <g id="wireless_reverse_component" stroke="none" stroke-width="1" fill="none" fill-rule="evenodd">
        <g id="编组" transform="translate(0.000000, 3.500000)" fill="#000000">
            <path d="M24.2448624,0.339079812 C26.6332925,2.86613727 28,6.28294817 28,9.92527145 C28,13.558325 26.6402738,16.9671821 24.2625968,19.4926628 C23.8367452,19.9449866 23.144244,19.9471611 22.7158521,19.4975196 C22.2874601,19.0478782 22.2854007,18.3166909 22.7112522,17.8643671 C24.6855457,15.7673455 25.812563,12.9418937 25.812563,9.92527145 C25.812563,6.90096056 24.6797527,4.06890009 22.6965188,1.97055686 C22.2698352,1.51910803 22.2705484,0.787917899 22.6981117,0.337397972 C23.1256749,-0.11312197 23.8181788,-0.112368982 24.2448624,0.339079812 Z M3.75513762,0.339079812 C4.18182118,-0.112368982 4.87432507,-0.11312197 5.30188834,0.337397972 C5.7294516,0.787917899 5.73016475,1.51910803 5.30348119,1.97055686 C3.32024727,4.06890009 2.18743703,6.90096056 2.18743703,9.92527145 C2.18743703,12.9418937 3.31445424,15.7673455 5.28874775,17.8643671 C5.7145993,18.3166909 5.71253987,19.0478782 5.28414792,19.4975196 C4.85575596,19.9471611 4.16325474,19.9449866 3.73740319,19.4926628 C1.35972612,16.9671821 0,13.558325 0,9.92527145 C0,6.28294817 1.36670755,2.86613727 3.75513762,0.339079812 Z M15.0220229,1.1409605 L15.0694528,1.1436831 C15.2742031,1.16676007 15.4643227,1.33529994 15.4643227,1.60381169 L15.4643227,1.60381169 L15.4643227,8.34379335 L17.7116955,8.34379335 L17.7627581,8.34681246 C18.0627882,8.38266176 18.2446933,8.73088845 18.0975594,9.02190266 L18.0975594,9.02190266 L13.3565084,18.4419867 L13.3300794,18.4883865 C13.0961956,18.8536589 12.5331571,18.6872523 12.5331571,18.2248808 L12.5331571,18.2248808 L12.5331571,11.4844373 L10.2853468,11.4844373 L10.234291,11.4814255 C9.93434128,11.4456622 9.75317788,11.0982417 9.8994829,10.8067899 L9.8994829,10.8067899 L14.6409714,1.38670584 C14.7267189,1.21764044 14.8745897,1.1409605 15.0220229,1.1409605 L15.0220229,1.1409605 Z M20.811095,3.2581458 C22.4713011,5.01471228 23.4216434,7.39059743 23.4216434,9.92240468 C23.4216434,12.4477672 22.4761545,14.8181242 20.8234209,16.5735968 C20.3975694,17.0259207 19.7050682,17.0280951 19.2766762,16.5784536 C18.8482842,16.1288122 18.8462248,15.3976249 19.2720763,14.9453012 C20.5214264,13.6182877 21.2342064,11.8313359 21.2342064,9.92240468 C21.2342064,8.00860978 20.5177614,6.2174751 19.2627513,4.88962282 C18.8360678,4.43817404 18.8367809,3.70698386 19.2643442,3.25646392 C19.6919075,2.80594398 20.3844114,2.80669697 20.811095,3.2581458 Z M7.18890504,3.2581458 C7.6155886,2.80669697 8.30809249,2.80594398 8.73565576,3.25646392 C9.16321902,3.70698386 9.16393217,4.43817404 8.73724861,4.88962282 C7.48223864,6.2174751 6.7657936,8.00860978 6.7657936,9.92240468 C6.7657936,11.8313359 7.47857359,13.6182877 8.72792361,14.9453012 C9.15377516,15.3976249 9.15171573,16.1288122 8.72332378,16.5784536 C8.29493182,17.0280951 7.6024306,17.0259207 7.17657905,16.5735968 C5.52384543,14.8181242 4.57835657,12.4477672 4.57835657,9.92240468 C4.57835657,7.39059743 5.52869892,5.01471228 7.18890504,3.2581458 Z" id="形状"></path>
        </g>
    </g>
</svg>