<?xml version="1.0" encoding="UTF-8"?>
<svg width="48px" height="48px" viewBox="0 0 48 48" version="1.1" xmlns="http://www.w3.org/2000/svg" xmlns:xlink="http://www.w3.org/1999/xlink">
    <title>Devices/Battery</title>
    <defs>
        <path d="M16.5793366,2.90237294 L16.5793366,9.00585938 L16.5793366,9.00585938 L18.8687452,9.00585938 C19.2977521,9.00585938 19.6455309,9.35363819 19.6455309,9.78264509 C19.6455309,9.91732204 19.6105157,10.0496852 19.5439215,10.1667454 L14.4062986,19.197723 C14.1941659,19.5706126 13.7199116,19.7009318 13.347022,19.488799 C13.1042678,19.3506988 12.9543366,19.0929099 12.9543366,18.8136228 L12.9543366,12.5742188 L12.9543366,12.5742188 L10.6738676,12.5742188 C10.2448607,12.5742188 9.89708189,12.2264399 9.89708189,11.797433 C9.89708189,11.6612316 9.93289385,11.5274242 10.0009261,11.4094307 L15.1296094,2.51437063 C15.3438972,2.14271531 15.8188979,2.01514368 16.1905532,2.22943144 C16.4311116,2.36813178 16.5793366,2.62469303 16.5793366,2.90237294 Z" id="path-1"></path>
    </defs>
    <g id="Devices/Battery" stroke="none" stroke-width="1" fill="none" fill-rule="evenodd">
        <path d="M15.3833112,2.06947779e-14 L32.6166888,2.19377863e-14 C37.9658012,2.09551702e-14 39.9055187,0.556953667 41.8610742,1.60279622 C43.8166298,2.64863878 45.3513612,4.18337022 46.3972038,6.13892578 C47.4430463,8.09448133 48,10.0341988 48,15.3833112 L48,32.6166888 C48,37.9658012 47.4430463,39.9055187 46.3972038,41.8610742 C45.3513612,43.8166298 43.8166298,45.3513612 41.8610742,46.3972038 C39.9055187,47.4430463 37.9658012,48 32.6166888,48 L15.3833112,48 C10.0341988,48 8.09448133,47.4430463 6.13892578,46.3972038 C4.18337022,45.3513612 2.64863878,43.8166298 1.60279622,41.8610742 C0.556953667,39.9055187 2.15570233e-14,37.9658012 2.09019459e-14,32.6166888 L2.17306182e-14,15.3833112 C2.10755409e-14,10.0341988 0.556953667,8.09448133 1.60279622,6.13892578 C2.64863878,4.18337022 4.18337022,2.64863878 6.13892578,1.60279622 C8.09448133,0.556953667 10.0341988,2.16773939e-14 15.3833112,2.06947779e-14 Z" id="蒙版" fill="#67C74E"></path>
        <g id="编组-2" transform="translate(9.233163, 13.500000)">
            <path d="M3.82020207,19.9143742 C1.45987204,17.5034368 0,14.1728999 0,10.4941154 C0,6.81480062 1.46029294,3.48383387 3.82122284,1.07281404" id="Path" stroke="#FFFFFF" stroke-width="2.45544546" stroke-linecap="round"></path>
            <path d="M8.01406373,5.35479729 C6.72603837,6.66993267 5.92934273,8.48699949 5.92934273,10.4941154 C5.92934273,12.5006167 6.72555048,14.3171852 8.01288054,15.6322251" id="Path" stroke="#FFFFFF" stroke-width="2.45544546" stroke-linecap="round"></path>
            <path d="M21.4505037,15.6329644 C22.7382591,14.317866 23.5347653,12.5009927 23.5347653,10.4941154 C23.5347653,8.48737552 22.7383681,6.67061352 21.4507682,5.3555365" id="Path" stroke="#FFFFFF" stroke-width="2.45544546" stroke-linecap="round"></path>
            <path d="M25.6434466,1.07338741 C28.0040466,3.48436195 29.464108,6.81509228 29.464108,10.4941154 C29.464108,14.1731915 28.0040045,17.5039648 25.6433446,19.9149476" id="Path" stroke="#FFFFFF" stroke-width="2.45544546" stroke-linecap="round"></path>
            <mask id="mask-2" fill="white">
                <use xlink:href="#path-1"></use>
            </mask>
            <use id="Path-35" fill="#FFFFFF" xlink:href="#path-1"></use>
        </g>
    </g>
</svg>