<?xml version="1.0" standalone="no"?>
<svg xmlns="http://www.w3.org/2000/svg" width="24" height="24"><rect width="24" height="24" opacity="0"></rect><g><path d="M21.43 15.67Q21.26 15.48 21 15.4Q20.74 15.31 20.47 15.38Q19.37 15.7 18.25 15.71Q17.14 15.72 16.01 15.41Q13.8 14.78 12.25 13.07Q10.7 11.35 10.32 9.1Q10.06 7.56 10.37 6.06Q10.68 4.56 11.52 3.29Q11.66 3.07 11.66 2.8Q11.66 2.52 11.52 2.28Q11.35 2.06 11.1 1.97Q10.85 1.87 10.61 1.92Q7.97 2.42 5.96 4.14Q3.96 5.86 3.01 8.32Q2.06 10.78 2.47 13.46Q2.78 15.62 3.98 17.45Q5.18 19.27 7.01 20.47Q8.83 21.67 10.99 21.98Q13.08 22.32 15.11 21.79Q17.14 21.26 18.82 19.96Q20.5 18.65 21.55 16.68Q21.67 16.44 21.65 16.16Q21.62 15.89 21.43 15.67Z" fill="rgba(0,0,0,0.9019607843137255)"></path></g></svg>