<?xml version="1.0" standalone="no"?>
<svg xmlns="http://www.w3.org/2000/svg" width="24" height="24"><rect width="24" height="24" opacity="0"></rect><g><path d="M9.5 18.7Q10.01 18.7 10.49 18.5Q10.97 18.31 11.33 17.95L21.89 7.44Q22.25 7.08 22.25 6.55Q22.25 6.02 21.89 5.66Q21.53 5.28 21 5.28Q20.47 5.28 20.09 5.66L9.77 15.91Q9.65 16.03 9.5 16.03Q9.36 16.03 9.24 15.91L3.89 10.63Q3.53 10.25 3 10.26Q2.47 10.27 2.11 10.63Q1.73 10.99 1.73 11.52Q1.73 12.05 2.11 12.41L7.7 17.95Q8.06 18.31 8.53 18.5Q9 18.7 9.5 18.7Z" fill="rgba(15,150,0,1)"></path></g></svg>