<?xml version="1.0" standalone="no"?>
<svg xmlns="http://www.w3.org/2000/svg" width="24" height="24"><rect width="24" height="24" opacity="0"></rect><g><path d="M3.74 3Q3 3 2.38 3.37Q1.75 3.74 1.38 4.38Q1.01 5.02 1.01 5.76L1.01 18.24Q1.01 18.98 1.38 19.62Q1.75 20.26 2.38 20.63Q3 21 3.74 21L20.26 21Q21 21 21.62 20.63Q22.25 20.26 22.62 19.62Q22.99 18.98 22.99 18.24L22.99 5.76L22.99 5.71Q22.99 4.97 22.62 4.34Q22.25 3.72 21.62 3.36Q21 3 20.26 3L3.74 3ZM13.68 11.66Q13.22 12.12 12.6 12.28Q11.98 12.43 11.35 12.28Q10.73 12.12 10.3 11.66L3.36 4.49L20.62 4.49L13.68 11.66ZM3.74 19.49Q3.22 19.49 2.86 19.13Q2.5 18.77 2.5 18.24L2.5 5.83L9.22 12.72Q9.77 13.27 10.48 13.57Q11.18 13.87 12 13.87Q12.77 13.87 13.49 13.57Q14.21 13.27 14.76 12.72L21.5 5.81L21.5 18.24Q21.5 18.77 21.14 19.13Q20.78 19.49 20.26 19.49L3.74 19.49Z" fill="rgba(255,255,255,0.86)"></path></g></svg>