<?xml version="1.0" standalone="no"?>
<svg xmlns="http://www.w3.org/2000/svg" width="24" height="24"><rect width="24" height="24" opacity="0"></rect><g><path d="M11.14 12.67Q11.14 12.84 11.2 12.97Q11.26 13.1 11.38 13.22L15.26 17.11Q15.5 17.35 15.79 17.35Q16.08 17.35 16.32 17.11Q16.54 16.9 16.56 16.64Q16.58 16.39 16.42 16.15L16.32 16.03L12.67 12.36L12.67 7.18Q12.67 6.84 12.46 6.64Q12.24 6.43 11.9 6.43Q11.57 6.43 11.35 6.64Q11.14 6.84 11.14 7.18L11.14 12.67Z" fill="rgba(253,253,253,0.86)"></path><path d="M3.77 12.43Q3.77 10.2 4.87 8.3Q5.98 6.41 7.87 5.29Q9.77 4.18 12 4.18Q14.23 4.18 16.13 5.29Q18.02 6.41 19.13 8.3Q20.23 10.2 20.23 12.43Q20.23 14.66 19.12 16.55Q18 18.43 16.12 19.55Q14.23 20.66 12 20.66Q9.77 20.66 7.87 19.56Q5.98 18.46 4.87 16.56Q3.77 14.66 3.77 12.43ZM12 2.69Q9.36 2.69 7.12 4Q4.87 5.3 3.56 7.55Q2.26 9.79 2.26 12.43Q2.26 14.18 2.87 15.82Q3.48 17.45 4.58 18.74L3.1 20.23Q2.76 20.57 2.9 20.95Q3.05 21.34 3.44 21.47Q3.84 21.6 4.15 21.29L5.64 19.8Q6.96 20.93 8.59 21.55Q10.22 22.18 12 22.18Q13.78 22.18 15.41 21.55Q17.04 20.93 18.36 19.8L19.82 21.26Q20.09 21.6 20.51 21.47Q20.93 21.34 21.07 20.94Q21.22 20.54 20.88 20.21L19.42 18.74Q20.52 17.45 21.13 15.82Q21.74 14.18 21.74 12.43Q21.74 9.79 20.44 7.55Q19.13 5.3 16.88 4Q14.64 2.69 12 2.69ZM2.35 4.7Q2.14 4.97 2.17 5.27Q2.21 5.57 2.47 5.76Q2.74 5.98 3.04 5.94Q3.34 5.9 3.53 5.64L3.53 5.64Q4.37 4.56 5.4 3.79L5.45 3.74Q5.69 3.53 5.7 3.25Q5.71 2.98 5.52 2.71Q5.33 2.45 5.02 2.41Q4.7 2.38 4.44 2.59Q3.34 3.46 2.35 4.7ZM18.48 2.71Q18.29 2.95 18.3 3.22Q18.31 3.48 18.5 3.7L18.6 3.79Q19.63 4.56 20.47 5.64L20.54 5.71Q20.74 5.93 21.01 5.94Q21.29 5.95 21.53 5.76Q21.79 5.57 21.83 5.27Q21.86 4.97 21.65 4.7Q20.66 3.46 19.56 2.59Q19.3 2.38 18.98 2.41Q18.67 2.45 18.48 2.71Z" fill="rgba(253,253,253,0.86)"></path></g></svg>