<?xml version="1.0" encoding="UTF-8"?>
<svg width="24px" height="24px" viewBox="0 0 24 24" version="1.1" xmlns="http://www.w3.org/2000/svg" xmlns:xlink="http://www.w3.org/1999/xlink">
    <title>静音</title>
    <defs>
        <path d="M12.9582748,19.0014642 C12.7196327,20.4196004 11.4859868,21.5 10,21.5 C8.51401322,21.5 7.28036729,20.4196004 7.04172524,19.0014642 L12.9582748,19.0014642 Z M1.24433269,0.935928615 L1.28033009,0.969669914 L1.509,1.198 L1.51471863,1.20405845 L19.5459415,19.2352814 C19.5478012,19.237141 19.5496718,19.2389829 19.5515533,19.2408072 L19.7803301,19.4696699 C20.0732233,19.7625631 20.0732233,20.2374369 19.7803301,20.5303301 C19.4991526,20.8115076 19.0502619,20.8227547 18.7556673,20.5640714 L18.7196699,20.5303301 L16.189,18 L0.75,18 C0.335786438,18 5.07265313e-17,17.6642136 0,17.25 C-5.07265313e-17,16.8357864 0.335786438,16.5 0.75,16.5 L1.94,16.5 L3.1022623,7.3288123 C3.18692169,6.66073462 3.36458625,6.02481474 3.62125794,5.43338878 L0.219669914,2.03033009 C-0.0732233047,1.73743687 -0.0732233047,1.26256313 0.219669914,0.969669914 C0.500847404,0.688492424 0.949738137,0.677245324 1.24433269,0.935928615 Z M18.225,16.5 L19.25,16.5 C19.6642136,16.5 20,16.8357864 20,17.25 C20,17.5277294 19.8490413,17.7702005 19.6247007,17.8998364 L18.225,16.5 Z M4.60245717,7.42780869 L4.5903618,7.51738558 L3.452,16.5 L14.689,16.5 L4.78760933,6.59925958 C4.70553933,6.86671588 4.64322693,7.14342329 4.60245717,7.42780869 Z M10,5.68434189e-14 C11.0131341,5.68434189e-14 11.8698705,0.669617967 12.1517769,1.59042162 C14.6183008,2.3923029 16.5030828,4.54126653 16.8837774,7.22484779 L16.8977377,7.3288123 L18.036,16.311 L16.304,14.579 L15.4096382,7.51738558 C15.0681542,4.82261228 12.7972087,2.79497622 10.0903868,2.7507382 L10,2.75 C8.48661965,2.75 7.10338759,3.3702027 6.10860691,4.38297173 L5.0473274,3.32284949 C5.82237101,2.5367437 6.78135115,1.93708132 7.84955386,1.58970599 C8.13012954,0.669617967 8.98686594,5.68434189e-14 10,5.68434189e-14 Z" id="path-1"></path>
    </defs>
    <g id="静音" stroke="none" stroke-width="1" fill="none" fill-rule="evenodd">
        <g id="编组-2" transform="translate(2.000000, 1.250000)">
            <mask id="mask-2" fill="white">
                <use xlink:href="#path-1"></use>
            </mask>
            <use id="形状结合" fill="#182431" fill-rule="nonzero" opacity="0.599655878" xlink:href="#path-1"></use>
        </g>
    </g>
</svg>