<?xml version="1.0" encoding="UTF-8"?>
<svg width="32px" height="32px" viewBox="0 0 32 32" version="1.1" xmlns="http://www.w3.org/2000/svg" xmlns:xlink="http://www.w3.org/1999/xlink">
    <title>畅连通信服务</title>
    <defs>
        <linearGradient x1="50%" y1="0%" x2="50%" y2="94.301792%" id="linearGradient-1">
            <stop stop-color="#74DC74" offset="0%"></stop>
            <stop stop-color="#41BA41" offset="100%"></stop>
        </linearGradient>
        <linearGradient x1="50%" y1="0%" x2="50%" y2="100%" id="linearGradient-2">
            <stop stop-color="#FFFFFF" offset="0%"></stop>
            <stop stop-color="#C2FCD8" offset="100%"></stop>
        </linearGradient>
        <path d="M4.86956522,15.812767 C4.86956522,18.7014318 6.15795569,21.196288 8.23416531,22.9472011 C8.50246677,23.173592 8.63937198,23.5225595 8.5814348,23.8678784 C8.41060106,24.8876468 8.09839539,25.7960442 7.86026295,26.3910542 C7.75088395,26.6643421 7.95962904,26.9449275 8.23397919,26.9449275 C8.2670702,26.9449275 8.301129,26.9408528 8.33569031,26.9321661 C9.29294735,26.6920506 10.9393833,26.215098 12.2799973,25.4998265 C12.4925204,25.386381 12.7274517,25.3259817 12.964635,25.3259817 C13.0608185,25.3259817 13.1573557,25.3359278 13.2529251,25.3562832 C14.1314188,25.5437785 15.0520859,25.6429067 16.0000186,25.6429067 C22.1481905,25.6429067 27.1304348,21.493617 27.1304348,15.812767 C27.1304348,10.1319354 22.1481905,5.9826087 16.0000186,5.9826087 C9.85180946,5.9826087 4.86956522,10.1319354 4.86956522,15.812767 Z" id="path-3"></path>
    </defs>
    <g id="页面-1" stroke="none" stroke-width="1" fill="none" fill-rule="evenodd">
        <g id="编组-12">
            <path d="M16,0 C24.836556,-1.623249e-15 32,7.163444 32,16 C32,24.836556 24.836556,32 16,32 C7.163444,32 1.082166e-15,24.836556 0,16 C-1.082166e-15,7.163444 7.163444,1.623249e-15 16,0 Z" id="矩形" fill="url(#linearGradient-1)"></path>
            <g id="形状结合" fill-rule="nonzero">
                <use fill="#FFFFFF" xlink:href="#path-3"></use>
                <use fill-opacity="0.5" fill="url(#linearGradient-2)" xlink:href="#path-3"></use>
            </g>
            <path d="M20.283531,18.6863768 L20.283531,18.8717949 C20.283531,19.9843032 19.3614756,20.8945373 18.2345191,20.8945373 L14.1364954,20.8945373 C13.8462187,20.8945373 13.6242424,20.6754069 13.6242424,20.3888517 C13.4022661,17.8098551 11.9167325,16.3433668 9.18471673,16.006243 C8.89444005,16.006243 8.67246377,15.7871126 8.67246377,15.5005574 L8.67246377,13.4778149 C8.67246377,12.3653066 9.5945191,11.4550725 10.7214756,11.4550725 L18.2345191,11.4550725 C19.3614756,11.4550725 20.283531,12.3653066 20.283531,13.4778149 L20.283531,13.6463768 L22.2130171,12.7361427 C22.7252701,12.5001561 23.3570487,12.7024303 23.5961001,13.2081159 C23.6644005,13.3429654 23.6985507,13.4946711 23.6985507,13.6463768 L23.6985507,18.6863768 C23.6985507,19.242631 23.2375231,19.7146042 22.6569697,19.7146042 C22.4862187,19.7146042 22.3325428,19.6808919 22.195942,19.6134671 L20.283531,18.6863768 Z M12.6910684,20.3082126 C12.6910684,20.6265032 12.4231614,20.8945373 12.1050219,20.8945373 C11.7868824,20.8945373 11.5189754,20.6265032 11.5189754,20.3082126 C11.5189754,19.0518023 10.5143242,18.0466741 9.25851028,18.0466741 C8.94037074,18.0466741 8.67246377,17.7786399 8.67246377,17.4603493 C8.67246377,17.1420587 8.94037074,16.8740245 9.25851028,16.8740245 C11.1506033,16.8740245 12.6910684,18.4152211 12.6910684,20.3082126 Z M9.80815639,20.5449275 C9.37135153,20.5449275 9.02190765,20.1953177 9.02190765,19.7583055 C9.02190765,19.3212932 9.37135153,18.9716834 9.80815639,18.9716834 C10.2449612,18.9716834 10.5944051,19.3212932 10.5944051,19.7583055 C10.5944051,20.1953177 10.2449612,20.5449275 9.80815639,20.5449275 Z" id="-" fill="#59D159"></path>
        </g>
    </g>
</svg>