<?xml version="1.0" encoding="UTF-8"?>
<svg width="35px"
     height="36px"
     viewBox="0 0 24 24"
     version="1.1"
     xmlns="http://www.w3.org/2000/svg"
     xmlns:xlink="http://www.w3.org/1999/xlink">
    <title>Artboard</title>
    <g
        id="Artboard"
        stroke="none"
        stroke-width="1"
        fill="none"
        fill-rule="evenodd">
        <path
            d="M6.67219917,0 C1.69294606,0 1.0658141e-14,1.8 1.0658141e-14,6.8 L1.0658141e-14,17.3 C1.0658141e-14,22.3 1.69294606,24 6.67219917,24 L17.2282158,24 C22.2074689,24 24,22.2 24,17.3 L24,6.7 C23.8008299,1.8 22.0082988,0 17.0290456,0 L6.67219917,0 Z"
            id="Path"
            fill="#5595DA"
            fill-rule="nonzero"></path>
        <circle
            id="Oval"
            fill="#FFFFFF"
            fill-rule="nonzero"
            cx="12"
            cy="8"
            r="1"></circle>
        <path
            d="M12,15.8 L12,15.8 C11.6,15.8 11.2,15.4 11.2,15 L11.2,11 C11.2,10.6 11.5,10.2 12,10.2 C12.5,10.2 12.8,10.5 12.8,11 L12.8,15 C12.8,15.4 12.4,15.8 12,15.8 Z"
            id="Path"
            fill="#FFFFFF"
            fill-rule="nonzero"></path>
        <path
            d="M16.5,18.2 L7.5,18.2 L7.5,4.5 L16.5,4.5 L16.5,18.2 Z M17,3 L7,3 C6.4,3 6,3.5 6,4 L6,20 C6,20.5 6.4,21 7,21 L17,21 C17.5,21 18,20.5 18,20 L18,4 C18,3.5 17.5,3 17,3 Z"
            id="Shape"
            fill="#FFFFFF"
            fill-rule="nonzero"></path>
    </g>
</svg>