<?xml version="1.0" encoding="UTF-8"?>
<svg width="32px" height="32px" viewBox="0 0 32 32" version="1.1" xmlns="http://www.w3.org/2000/svg" xmlns:xlink="http://www.w3.org/1999/xlink">
    <title>Settings_Apps</title>
    <defs>
        <path d="M12.0936832,16.4 C13.0448457,16.4 13.4858745,16.5179431 13.8999922,16.7394157 C14.3141098,16.9608882 14.6391118,17.2858902 14.8605843,17.7000078 L14.9021533,17.7806254 C15.0967844,18.1731557 15.2,18.6165196 15.2,19.5063168 L15.2,20.4936832 C15.2,21.4448457 15.0820569,21.8858745 14.8605843,22.2999922 C14.6391118,22.7141098 14.3141098,23.0391118 13.8999922,23.2605843 L13.8193746,23.3021533 C13.4268443,23.4967844 12.9834804,23.6 12.0936832,23.6 L11.1063168,23.6 C10.1551543,23.6 9.71412546,23.4820569 9.30000781,23.2605843 C8.88589016,23.0391118 8.56088821,22.7141098 8.33941567,22.2999922 L8.29784666,22.2193746 C8.109927,21.8403798 8.00722701,21.4139968 8.0003677,20.5841549 L8,19.5063168 C8,18.5551543 8.11794313,18.1141255 8.33941567,17.7000078 C8.56088821,17.2858902 8.88589016,16.9608882 9.30000781,16.7394157 L9.38062542,16.6978467 C9.75962022,16.509927 10.1860032,16.407227 11.0158451,16.4003677 L12.0936832,16.4 Z M20.4936832,16.4 C21.4448457,16.4 21.8858745,16.5179431 22.2999922,16.7394157 C22.7141098,16.9608882 23.0391118,17.2858902 23.2605843,17.7000078 L23.3021533,17.7806254 C23.4967844,18.1731557 23.6,18.6165196 23.6,19.5063168 L23.6,20.4936832 C23.6,21.4448457 23.4820569,21.8858745 23.2605843,22.2999922 C23.0391118,22.7141098 22.7141098,23.0391118 22.2999922,23.2605843 L22.2193746,23.3021533 C21.8268443,23.4967844 21.3834804,23.6 20.4936832,23.6 L19.5063168,23.6 C18.5551543,23.6 18.1141255,23.4820569 17.7000078,23.2605843 C17.2858902,23.0391118 16.9608882,22.7141098 16.7394157,22.2999922 L16.6978467,22.2193746 C16.509927,21.8403798 16.407227,21.4139968 16.4003677,20.5841549 L16.4,19.5063168 C16.4,18.5551543 16.5179431,18.1141255 16.7394157,17.7000078 C16.9608882,17.2858902 17.2858902,16.9608882 17.7000078,16.7394157 L17.7806254,16.6978467 C18.1596202,16.509927 18.5860032,16.407227 19.4158451,16.4003677 L20.4936832,16.4 Z M20.4936832,8 C21.4448457,8 21.8858745,8.11794313 22.2999922,8.33941567 C22.7141098,8.56088821 23.0391118,8.88589016 23.2605843,9.30000781 L23.3021533,9.38062542 C23.4967844,9.77315575 23.6,10.2165196 23.6,11.1063168 L23.6,12.0936832 C23.6,13.0448457 23.4820569,13.4858745 23.2605843,13.8999922 C23.0391118,14.3141098 22.7141098,14.6391118 22.2999922,14.8605843 L22.2193746,14.9021533 C21.8268443,15.0967844 21.3834804,15.2 20.4936832,15.2 L19.5063168,15.2 C18.5551543,15.2 18.1141255,15.0820569 17.7000078,14.8605843 C17.2858902,14.6391118 16.9608882,14.3141098 16.7394157,13.8999922 L16.6978467,13.8193746 C16.509927,13.4403798 16.407227,13.0139968 16.4003677,12.1841549 L16.4,11.1063168 C16.4,10.1551543 16.5179431,9.71412546 16.7394157,9.30000781 C16.9608882,8.88589016 17.2858902,8.56088821 17.7000078,8.33941567 L17.7806254,8.29784666 C18.1596202,8.109927 18.5860032,8.00722701 19.4158451,8.0003677 L20.4936832,8 Z" id="path-1"></path>
    </defs>
    <g id="Settings_Apps" stroke="none" stroke-width="1" fill="none" fill-rule="evenodd">
        <circle id="椭圆形" fill="#F9A01E" cx="16" cy="16" r="16"></circle>
        <rect id="矩形" x="6.4" y="6.4" width="19.2" height="19.2"></rect>
        <mask id="mask-2" fill="white">
            <use xlink:href="#path-1"></use>
        </mask>
        <use id="形状结合" fill="#FFFFFF" xlink:href="#path-1"></use>
        <path d="M11.0158451,8.0003677 L12.0936832,8 C13.0448457,8 13.4858745,8.11794313 13.8999922,8.33941567 C14.3141098,8.56088821 14.6391118,8.88589016 14.8605843,9.30000781 L14.9021533,9.38062542 C15.0967844,9.77315575 15.2,10.2165196 15.2,11.1063168 L15.2,12.0936832 C15.2,13.0448457 15.0820569,13.4858745 14.8605843,13.8999922 C14.6391118,14.3141098 14.3141098,14.6391118 13.8999922,14.8605843 L13.8193746,14.9021533 C13.4268443,15.0967844 12.9834804,15.2 12.0936832,15.2 L11.1063168,15.2 C10.1551543,15.2 9.71412546,15.0820569 9.30000781,14.8605843 C8.88589016,14.6391118 8.56088821,14.3141098 8.33941567,13.8999922 L8.29784666,13.8193746 C8.109927,13.4403798 8.00722701,13.0139968 8.0003677,12.1841549 L8,11.1063168 C8,10.1551543 8.11794313,9.71412546 8.33941567,9.30000781 C8.56088821,8.88589016 8.88589016,8.56088821 9.30000781,8.33941567 L9.38062542,8.29784666 C9.75962022,8.109927 10.1860032,8.00722701 11.0158451,8.0003677 Z" id="路径" fill="#FFFFFF" opacity="0.6"></path>
    </g>
</svg>