<?xml version="1.0" encoding="UTF-8"?>
<svg width="32px"
     height="32px"
     viewBox="0 0 32 32"
     version="1.1"
     xmlns="http://www.w3.org/2000/svg"
     xmlns:xlink="http://www.w3.org/1999/xlink">
    <title>编组 19备份 2</title>
    <defs>
        <path
            d="M18.5316456,7 C21.5517343,7 24,9.53011176 24,12.6511628 C24,15.7722138 21.5517343,18.3023256 18.5316456,18.3023256 C17.5760195,18.3023256 16.6776465,18.0490016 15.8959749,17.6037895 L14.6421712,18.8708199 L15.1037743,20.0124407 C15.16444,20.1624768 15.1296942,20.3342385 15.0154829,20.4488987 L14.2559079,21.2114588 C14.1350222,21.3328196 13.9507331,21.3647319 13.796079,21.2910847 L12.7662701,20.8006839 L12.114222,21.4139892 L12.6052513,22.6455011 C12.6641414,22.7931989 12.6308985,22.9617057 12.5203282,23.0759724 L10.7775972,24.8769633 C10.701503,24.9556013 10.5967586,25 10.4873316,25 L8.40391254,25 C8.18083781,25 8,24.8191622 8,24.5960875 L8,22.2139715 C8,22.1134268 8.03749989,22.0164966 8.10516837,21.942131 L13.8701031,15.6070929 C13.3584049,14.7471176 13.0632911,13.7347561 13.0632911,12.6511628 C13.0632911,9.53011176 15.5115568,7 18.5316456,7 Z M18.5316456,10.9767442 C17.6368045,10.9767442 16.9113924,11.7264069 16.9113924,12.6511628 C16.9113924,13.5759187 17.6368045,14.3255814 18.5316456,14.3255814 C19.4264867,14.3255814 20.1518987,13.5759187 20.1518987,12.6511628 C20.1518987,11.7264069 19.4264867,10.9767442 18.5316456,10.9767442 Z"
            id="path-1"></path>
    </defs>
    <g
        id="首页"
        stroke="none"
        stroke-width="1"
        fill="none"
        fill-rule="evenodd">
        <g
            id="设置-手机-主页-已登陆全"
            transform="translate(-28.000000, -1290.000000)">
            <g
                id="编组-46备份"
                transform="translate(16.000000, 938.000000)">
                <g
                    id="编组-40"
                    transform="translate(12.000000, 340.000000)">
                    <g
                        id="编组-19备份-2"
                        transform="translate(0.000000, 12.000000)">
                        <circle
                            id="椭圆形"
                            fill="#13A2FF"
                            cx="16"
                            cy="16"
                            r="16"></circle>
                        <rect
                            id="矩形"
                            x="6.4"
                            y="6.4"
                            width="19.2"
                            height="19.2"></rect>
                        <mask
                            id="mask-2"
                            fill="white">
                            <use xlink:href="#path-1"></use>
                        </mask>
                        <use
                            id="形状结合"
                            fill="#FFFFFF"
                            xlink:href="#path-1"></use>
                    </g>
                </g>
            </g>
        </g>
    </g>
</svg>