<svg xmlns="http://www.w3.org/2000/svg" width="40" height="40" version="1.1" viewBox="0 0 40 40">
    <g fill="none" fill-rule="evenodd" stroke="none" stroke-width="1">
        <circle cx="20" cy="20" r="20" fill="#333"/>
        <g fill="#FFF" transform="translate(8.5 11.088)">
            <path d="M9.90539601,1.05463401 L5.3623125,5.19197594 L5.3623125,5.19197594 L2.25,5.19197594 C1.0074375,5.19197594 0,6.20262622 0,7.44915134 L0,10.5517302 C0,11.7982553 1.0074375,12.8089056 2.25,12.8089056 L5.3623125,12.8089056 L9.90545947,16.9454178 C10.2336156,17.2442023 10.7418515,17.2203919 11.040636,16.8922357 C11.1753611,16.7442667 11.2500281,16.5513527 11.2500281,16.3512385 L11.2500281,1.64875552 C11.2500281,1.20495528 10.8902569,0.845184096 10.4464567,0.845184096 C10.2463129,0.845184096 10.0533726,0.919873177 9.90539601,1.05463401 Z"/>
            <path fill-opacity=".6" d="M16.445705,0 C16.5879415,0 16.7205445,0.0364813273 16.8395471,0.0950211315 L16.8395471,0.0950211315 C16.8607976,0.104353564 16.879498,0.117079608 16.8993318,0.127543245 C16.9160488,0.137724081 16.9336159,0.145359707 16.9497662,0.156388946 C20.0863359,1.85376047 22.21875,5.16338041 22.21875,8.97468931 C22.21875,12.8199343 20.0489351,16.1561376 16.8661811,17.8396518 C16.7222445,17.940329 16.5479906,18 16.3592865,18 C15.8679755,18 15.46875,17.5995538 15.46875,17.1069145 C15.46875,16.7913086 15.6328036,16.5158604 15.8781758,16.3560779 L15.8781758,16.3560779 C18.5656522,14.9830791 20.4410772,12.1765621 20.4410772,8.96733649 C20.4410772,5.82287232 18.6747379,3.094974 16.0810469,1.70359314 C16.0328792,1.68210027 15.9864115,1.65721378 15.9430605,1.62780248 C15.9308769,1.62129806 15.91926,1.61394523 15.9065097,1.60800641 L15.9065097,1.60800641 C15.6945717,1.43832582 15.5529019,1.18267373 15.5529019,0.891105909 C15.5529019,0.399314993 15.9529774,0 16.445705,0 Z M13.901216,4.21875 C13.9937106,4.21875 14.0809435,4.23784707 14.1645764,4.26521003 L14.1645764,4.26521003 L14.1723304,4.25181358 C15.9294506,5.05731076 17.15625,6.86697163 17.15625,8.97420471 C17.15625,11.0734569 15.939697,12.875992 14.1944848,13.6866198 L14.1944848,13.6866198 C14.0776204,13.7450511 13.948848,13.78125 13.810383,13.78125 C13.328525,13.78125 12.9375,13.3793565 12.9375,12.8834028 C12.9375,12.53367 13.1338433,12.2343876 13.4165887,12.0856015 L13.4165887,12.0856015 C14.5877252,11.5674154 15.410207,10.3702858 15.410207,8.97477477 C15.410207,7.65536696 14.6763428,6.60531331 13.660564,5.99306704 C13.6350864,5.98024066 13.6184706,5.96855439 13.5965931,5.95629806 C13.2656619,5.82888927 13.0288869,5.50252895 13.0288869,5.11688221 C13.0288869,4.62092853 13.419358,4.21875 13.901216,4.21875 Z"/>
        </g>
    </g>
</svg>