<?xml version="1.0" encoding="UTF-8"?>
<svg width="32px" height="32px" viewBox="0 0 32 32" version="1.1" xmlns="http://www.w3.org/2000/svg" xmlns:xlink="http://www.w3.org/1999/xlink">
    <title>pen</title>
    <g id="pen" stroke="none" stroke-width="1" fill="none" fill-rule="evenodd">
        <circle id="椭圆形" fill="#13A2FF" cx="16" cy="16" r="16"></circle>
        <g id="编组" transform="translate(7.000000, 7.000000)">
            <rect id="矩形" x="0" y="0" width="18" height="18"></rect>
            <path d="M8.95377575,17.4842753 C9.45825383,17.4842753 9.92449735,17.6227971 10.3022834,17.8573429 C10.2231628,18.0719818 10.1340648,18.2826111 10.0347258,18.489005 L9.20667608,20.2094225 C9.13854039,20.3509863 8.96854538,20.4105115 8.82698161,20.3423758 C8.76845029,20.3142042 8.72132345,20.2668491 8.69343509,20.2081823 L7.88778244,18.5133875 C7.78517908,18.2975481 7.69374802,18.0771564 7.61368544,17.8530904 C7.98975262,17.6208147 8.45292049,17.4842753 8.95377575,17.4842753 Z M9.03603488,-1.38468558 C10.0066419,-1.3875094 10.7957635,-0.602966089 10.7985874,0.367640943 L10.7985807,0.379793769 L10.7985807,0.379793769 L10.7382802,15.4332277 C10.7356526,16.0891833 10.6423045,16.7396503 10.4624097,17.3665 C10.0238142,17.134901 9.50720055,17.0015363 8.95377575,17.0015363 C8.40587984,17.0015363 7.8940632,17.1322496 7.4595023,17.3588333 C7.28394106,16.7341337 7.19644054,16.0852696 7.19905882,15.4316401 L7.25931167,0.390090669 C7.26323456,-0.589221007 8.05671949,-1.38183643 9.03603488,-1.38468558 Z" id="形状结合" fill="#FFFFFF" transform="translate(8.998793, 9.493709) rotate(40.000000) translate(-8.998793, -9.493709) "></path>
        </g>
    </g>
</svg>