<svg xmlns="http://www.w3.org/2000/svg" xmlns:xlink="http://www.w3.org/1999/xlink" width="24" height="24" version="1.1" viewBox="0 0 24 24">
  <defs>
    <path id="uxs-a" d="M8.07118964,0.00144517014 L13.1958721,0 C14.2656946,0 14.7445552,0.090942193 15.1470003,0.263194481 L15.3291918,0.348433961 C15.7804738,0.575791039 16.1346426,0.909428309 16.3759909,1.33454908 L16.4131587,1.40175336 C16.5839366,1.71946222 16.6917457,2.05697767 16.7301077,2.72140192 L16.7441062,3.11808171 L16.745867,16.6558019 L16.7448011,16.8333591 C16.7338503,17.7159505 16.6386943,18.1356597 16.4677436,18.4911888 L16.3759909,18.6654509 C16.1346426,19.0905717 15.7804738,19.424209 15.3291918,19.651566 L15.2578518,19.6865792 C14.8858437,19.8640322 14.4882543,19.9693138 13.6275808,19.9942342 L13.1958721,20 L8.29586185,20 L8.10737804,19.998996 C7.01432252,19.9869607 6.5900725,19.866957 6.16254214,19.651566 C5.71126009,19.424209 5.35709129,19.0905717 5.11574301,18.6654509 L5.07857524,18.5982466 C4.90779732,18.2805378 4.79998826,17.9430223 4.76162622,17.2785981 L4.74762772,16.8819183 L4.74586696,3.34419809 C4.74586696,2.33639429 4.84240559,1.88529365 5.02525802,1.50617878 L5.11574301,1.33454908 C5.35709129,0.909428309 5.71126009,0.575791039 6.16254214,0.348433961 L6.23388207,0.313420848 C6.63450627,0.122317576 7.06479857,0.0149160285 8.07118964,0.00144517014 Z M13.3814658,1.50077538 L8.10460328,1.50077538 L7.77767944,1.50808654 L7.51564511,1.52270335 C7.43788393,1.52883783 7.36909069,1.53624734 7.30741841,1.54497042 L7.14191749,1.57511886 C7.0680015,1.59220194 7.00595197,1.61232719 6.94953536,1.63562463 L6.89476552,1.65998427 L6.83743461,1.68803097 C6.64821829,1.78335865 6.51407891,1.90972184 6.42018821,2.07510477 C6.35055997,2.19775081 6.30537314,2.31802103 6.27849427,2.53120638 L6.25979577,2.73891393 L6.24772511,3.08286134 L6.24772511,3.08286134 L6.24668386,16.8280278 L6.25739089,17.2103792 L6.25739089,17.2103792 L6.28079831,17.4860104 C6.30072679,17.6401397 6.3293912,17.740968 6.36732468,17.8241866 L6.42018821,17.9248952 C6.51407891,18.0902782 6.64821829,18.2166414 6.83743461,18.311969 C7.03165806,18.4098193 7.21710602,18.4612914 7.62489949,18.4845249 L7.9322382,18.4960294 L8.29586185,18.5 L13.3871306,18.4991111 L13.7140545,18.4919135 L13.9760888,18.4772966 C14.05385,18.4711622 14.1226432,18.4637527 14.1843155,18.4550296 L14.3498164,18.4248811 C14.4237324,18.4077981 14.4857819,18.3876728 14.5421986,18.3643754 L14.5969684,18.3400157 L14.6542993,18.311969 C14.8435156,18.2166414 14.977655,18.0902782 15.0715457,17.9248952 C15.122328,17.8354452 15.1593763,17.7498694 15.1859439,17.6303029 L15.2130024,17.468084 C15.2204839,17.406957 15.2264966,17.337968 15.2312488,17.2586938 L15.2419322,16.987592 L15.245867,16.6558019 L15.2450464,3.17197219 L15.2384229,2.88004123 L15.2250248,2.6493408 L15.2046945,2.46931417 C15.1967448,2.41657796 15.1876134,2.37052792 15.1772741,2.32940461 L15.142606,2.2190554 L15.1225048,2.17166695 L15.1225048,2.17166695 L15.0715457,2.07510477 C14.977655,1.90972184 14.8435156,1.78335865 14.6542993,1.68803097 L14.595261,1.65973731 L14.4717042,1.6109437 L14.3315368,1.57197571 L14.2517351,1.55596407 L14.2517351,1.55596407 L14.0657178,1.53046095 L13.956711,1.52079967 L13.956711,1.52079967 L13.6997232,1.50723317 L13.3814658,1.50077538 Z M21.275411,3.46888501 C21.5420716,3.73475691 21.5668948,4.15138428 21.3494754,4.44531812 L21.2769819,4.52954402 L19.805867,6.005 L21.2690212,7.46772846 L21.3927238,7.69660349 C21.524665,7.95534359 21.5246097,8.05493499 21.3923809,8.31407021 L21.2684239,8.54331566 L19.805867,10.001 L21.2706237,11.4692705 C21.5409955,11.9611834 21.5635265,12.0021761 21.3368756,12.4191598 L21.2688827,12.5428259 L19.806867,14.003 L21.2757486,15.4692218 C21.5422401,15.7352632 21.5667983,16.1519063 21.3491921,16.4457019 L21.2766451,16.5298816 C21.0106037,16.7963732 20.5939606,16.8209314 20.3001651,16.6033252 L20.2159853,16.5307782 L18.2223739,14.5405332 L18.0988115,14.3115842 C17.9670182,14.0527758 17.9670633,13.9532571 18.0990908,13.6945681 L18.2228604,13.465731 L19.684867,12.004 L18.2219067,10.5367342 L18.0985387,10.3076787 C17.9669651,10.0487569 17.967095,9.94923822 18.0993442,9.69066318 L18.22331,9.46193288 L19.683867,8.004 L18.222693,6.54341698 L18.0990324,6.31477572 C17.9671157,6.05630518 17.9670333,5.95685147 18.0985217,5.69816276 L18.2218033,5.46931697 L20.214752,3.47045598 C20.5072111,3.17712927 20.9820843,3.17642593 21.275411,3.46888501 Z M1.19710421,3.39771332 L1.28111499,3.47045598 L3.27406362,5.46931697 L3.39734529,5.69816276 C3.51004961,5.91989594 3.5260897,6.02464014 3.44529959,6.21281051 L3.39683458,6.31477572 L3.27317399,6.54341698 L1.81200001,8.004 L3.27255701,9.46193288 L3.39652274,9.69066318 C3.50987918,9.91229893 3.52616841,10.0170769 3.44565228,10.2055431 L3.39732831,10.3076787 L3.27396025,10.5367342 L1.81100001,12.004 L3.27300652,13.465731 L3.39677614,13.6945681 C3.50994261,13.9163015 3.52614234,14.0210935 3.44546613,14.2094903 L3.39705545,14.3115842 L3.27349304,14.5405332 L1.27988164,16.5307782 L1.19570186,16.6033252 C0.934550275,16.7967529 0.576333967,16.7988409 0.313105054,16.6097513 L0.219221848,16.5298816 L0.146674821,16.4457019 C-0.0467529188,16.1845503 -0.0488408587,15.826334 0.14024867,15.563105 L0.22011837,15.4692218 L1.68900001,14.003 L0.226984303,12.5428259 L0.158991354,12.4191598 C-0.0470549068,12.0400837 -0.0471657386,11.9717439 0.157651297,11.59287 L0.225243236,11.4692705 L1.69000001,10.001 L0.22744302,8.54331566 L0.103486088,8.31407021 C-0.00985291735,8.09195431 -0.0260848358,7.98705427 0.0546788846,7.79867744 L0.103143199,7.69660349 L0.22684573,7.46772846 L1.69000001,6.005 L0.218885017,4.52954402 L0.146391533,4.44531812 C-0.0710278137,4.15138428 -0.0462046591,3.73475691 0.220455985,3.46888501 C0.487116629,3.20301311 0.903815707,3.17942422 1.19710421,3.39771332 Z"/>
  </defs>
  <g fill="none" fill-rule="evenodd" stroke="none" stroke-width="1" transform="translate(1.254 2)">
    <mask id="uxs-b" fill="#fff">
      <use xlink:href="#uxs-a"/>
    </mask>
    <g fill-opacity=".9" mask="url(#uxs-b)">
      <rect width="24" height="24" x="0" y="0" fill="#000" transform="translate(-1.254 -2)"/>
    </g>
  </g>
</svg>
