<?xml version="1.0" encoding="UTF-8"?>
<svg width="32px" height="32px" viewBox="0 0 32 32" version="1.1" xmlns="http://www.w3.org/2000/svg" xmlns:xlink="http://www.w3.org/1999/xlink">
    <title>Settings_WLAN</title>
    <g id="首页" stroke="none" stroke-width="1" fill="none" fill-rule="evenodd">
        <g id="设置-手机-主页-已登陆全" transform="translate(-28.000000, -258.000000)">
            <g id="编组-49" transform="translate(16.000000, 186.000000)">
                <g id="编组-22" transform="translate(12.000000, 60.000000)">
                    <g id="编组-2" transform="translate(0.000000, 12.000000)">
                        <circle id="椭圆形" fill="#0A59F7" cx="16" cy="16" r="16"></circle>
                        <g id="编组" transform="translate(5.621622, 7.219938)">
                            <path d="M10.1189189,0.00168402581 C12.6159823,0.00168402581 14.7768628,1.65118983 15.5373786,3.99613633 L15.6972973,3.99338354 C18.4960326,3.99338354 20.7567568,6.31208405 20.7567568,9.16263139 C20.7567568,12.0131787 18.4960326,14.3318792 15.6972973,14.3318792 C14.8061993,14.3318792 14.2337097,14.2866981 13.3821481,14.1656387 L12.9737296,14.1053206 C11.9416657,13.9494453 11.3799312,13.8962194 10.3798476,13.8962194 C8.15753411,13.8962194 6.55284969,14.0179155 4.2544399,14.3250225 C1.84655847,14.6467568 0,12.5878089 0,10.0940279 C0,7.75787672 1.85415035,5.85617665 4.15135135,5.85617665 C4.23856694,5.85617665 4.3254537,5.85893355 4.41191638,5.86441506 L4.41081081,5.83621513 C4.41081081,2.61824199 6.9619449,0.00168402581 10.1189189,0.00168402581 Z" id="路径" fill="#FFFFFF" fill-rule="nonzero"></path>
                            <path d="M15.5373786,3.99613633 C14.7113013,1.54797872 12.6081371,-0.0594311307 9.79551457,0.00168402582 C6.98289201,0.0627991823 4.41191638,2.66735816 4.41191638,5.86441506 C4.41191638,9.06147195 5.97045454,9.95623735 5.96756757,11.4568285 C5.96547265,12.5457213 5.57483464,13.6044979 5.22062277,14.201615 C6.41634133,13.5781702 7.63388364,12.4256544 8.87324971,10.7440675 C10.7322988,8.22168711 10.4389533,7.32716185 12.0165299,5.66164909 C13.0682477,4.55130725 14.2418639,3.99613633 15.5373786,3.99613633 Z" id="路径" fill="#BAD1FB"></path>
                        </g>
                    </g>
                </g>
            </g>
        </g>
    </g>
</svg>