<?xml version="1.0" encoding="UTF-8"?>
<svg width="32px"
     height="32px"
     viewBox="0 0 32 32"
     version="1.1"
     xmlns="http://www.w3.org/2000/svg"
     xmlns:xlink="http://www.w3.org/1999/xlink">
    <title>编组 25备份 2</title>
    <defs>
        <path
            d="M10.0006053,0 C13.9502166,0 17.8694824,2.59318903 19.8874091,6.48651795 C20.0375315,6.77615979 20.0375302,7.12712014 19.8874056,7.41676074 C17.8705436,11.3079629 13.9655053,14 10.0137458,14 C6.06434861,14 2.13197201,11.3050708 0.112699062,7.41141903 C-0.0375779596,7.1216482 -0.0375656345,6.77046167 0.112731726,6.48070271 C2.13103128,2.58961385 6.04924042,0 10.0006053,0 Z M10.0006053,1.86666667 C6.90234198,1.86666667 3.74871413,3.83026519 1.96192427,6.85402179 L1.90786638,6.9461 L1.96202883,7.03925989 C3.74810931,10.0717136 6.88010342,12.0881485 9.91160066,12.1325837 L10.0137458,12.1333333 C13.0729445,12.1333333 16.2332738,10.1143101 18.0379257,7.04547862 L18.0920886,6.9517 L18.0379545,6.8589425 C16.2712429,3.86695486 13.1673753,1.9109867 10.1049868,1.86741009 L10.0006053,1.86666667 Z"
            id="path-1"></path>
    </defs>
    <g
        id="首页"
        stroke="none"
        stroke-width="1"
        fill="none"
        fill-rule="evenodd">
        <g
            id="设置-手机-主页-已登陆全"
            transform="translate(-28.000000, -766.000000)">
            <g
                id="编组-47备份"
                transform="translate(16.000000, 694.000000)">
                <g
                    id="编组-31"
                    transform="translate(12.000000, 60.000000)">
                    <g
                        id="编组-25备份-2"
                        transform="translate(0.000000, 12.000000)">
                        <circle
                            id="椭圆形"
                            fill="#34C759"
                            cx="16"
                            cy="16"
                            r="16"></circle>
                        <rect
                            id="矩形"
                            x="6.4"
                            y="6.4"
                            width="19.2"
                            height="19.2"></rect>
                        <g
                            id="编组-3"
                            transform="translate(6.000000, 9.000000)">
                            <mask
                                id="mask-2"
                                fill="white">
                                <use xlink:href="#path-1"></use>
                            </mask>
                            <use
                                id="形状结合"
                                fill-opacity="0.6"
                                fill="#FFFFFF"
                                fill-rule="nonzero"
                                xlink:href="#path-1"></use>
                            <path
                                d="M10.0134219,2.56666667 C12.5907508,2.56666667 14.6800886,4.76047139 14.6800886,7.46666667 C14.6800886,10.1728619 12.5907508,12.3666667 10.0134219,12.3666667 C7.4360931,12.3666667 5.34675527,10.1728619 5.34675527,7.46666667 C5.34675527,6.96596661 5.41827826,6.48280691 5.55118184,6.02783707 C5.61667569,5.80363147 5.81406425,5.85854463 5.85706771,6.03487742 C6.0905538,6.99227124 6.91771855,7.7 7.90231082,7.7 C9.04814298,7.7 9.98076401,6.74149143 10.0125827,5.54644502 L10.0134219,5.48333333 L10.0134219,5.25 C10.0134219,4.28494849 9.4260853,3.46393579 8.606267,3.1595596 C8.42028737,3.09051043 8.40330717,2.86062319 8.60618036,2.79335059 C8.70375807,2.76099389 8.80272122,2.73191177 8.90295285,2.70622748 C9.25886101,2.61502621 9.63076291,2.56666667 10.0134219,2.56666667 Z"
                                id="路径"
                                fill="#FFFFFF"
                                fill-rule="nonzero"></path>
                        </g>
                    </g>
                </g>
            </g>
        </g>
    </g>
</svg>