<?xml version="1.0" encoding="UTF-8"?>
<svg width="32px"
     height="32px"
     viewBox="0 0 32 32"
     version="1.1"
     xmlns="http://www.w3.org/2000/svg"
     xmlns:xlink="http://www.w3.org/1999/xlink">
    <title>编组 26备份 2</title>
    <g
        id="首页"
        stroke="none"
        stroke-width="1"
        fill="none"
        fill-rule="evenodd">
        <g
            id="设置-手机-主页-已登陆全"
            transform="translate(-28.000000, -1178.000000)">
            <g
                id="编组-46备份"
                transform="translate(16.000000, 938.000000)">
                <g
                    id="编组-38"
                    transform="translate(12.000000, 228.000000)">
                    <g
                        id="编组-26备份-2"
                        transform="translate(0.000000, 12.000000)">
                        <circle
                            id="椭圆形"
                            fill="#34C759"
                            cx="16"
                            cy="16"
                            r="16"></circle>
                        <g
                            id="编组-4"
                            transform="translate(7.000000, 8.000000)"
                            fill="#FFFFFF">
                            <path
                                d="M15.5555556,0 C16.9055849,-2.47996375e-16 18,1.09441506 18,2.44444444 C18,3.79447383 16.9055849,4.88888889 15.5555556,4.88888889 L2.44444444,4.88888889 C1.09441506,4.88888889 1.65330917e-16,3.79447383 0,2.44444444 C-1.65330917e-16,1.09441506 1.09441506,6.92085585e-16 2.44444444,0 L15.5555556,0 Z M2.925,1.33333333 C2.30367966,1.33333333 1.8,1.83079472 1.8,2.44444444 C1.8,3.05809417 2.30367966,3.55555556 2.925,3.55555556 C3.54632034,3.55555556 4.05,3.05809417 4.05,2.44444444 C4.05,1.83079472 3.54632034,1.33333333 2.925,1.33333333 Z"
                                id="形状结合"></path>
                            <path
                                d="M15.5555556,5.55555556 C16.9055849,5.55555556 18,6.64997061 18,8 C18,9.35002939 16.9055849,10.4444444 15.5555556,10.4444444 L2.44444444,10.4444444 C1.09441506,10.4444444 1.65330917e-16,9.35002939 0,8 C-1.65330917e-16,6.64997061 1.09441506,5.55555556 2.44444444,5.55555556 L15.5555556,5.55555556 Z M2.925,6.88888889 C2.30367966,6.88888889 1.8,7.38635028 1.8,8 C1.8,8.61364972 2.30367966,9.11111111 2.925,9.11111111 C3.54632034,9.11111111 4.05,8.61364972 4.05,8 C4.05,7.38635028 3.54632034,6.88888889 2.925,6.88888889 Z"
                                id="形状结合"
                                opacity="0.6"></path>
                            <path
                                d="M15.5555556,11.1111111 C16.9055849,11.1111111 18,12.2055262 18,13.5555556 C18,14.9055849 16.9055849,16 15.5555556,16 L2.44444444,16 C1.09441506,16 1.65330917e-16,14.9055849 0,13.5555556 C-1.65330917e-16,12.2055262 1.09441506,11.1111111 2.44444444,11.1111111 L15.5555556,11.1111111 Z M2.925,12.4444444 C2.30367966,12.4444444 1.8,12.9419058 1.8,13.5555556 C1.8,14.1692053 2.30367966,14.6666667 2.925,14.6666667 C3.54632034,14.6666667 4.05,14.1692053 4.05,13.5555556 C4.05,12.9419058 3.54632034,12.4444444 2.925,12.4444444 Z"
                                id="形状结合"></path>
                        </g>
                    </g>
                </g>
            </g>
        </g>
    </g>
</svg>