<?xml version="1.0" encoding="UTF-8"?>
<svg width="32px" height="32px" viewBox="0 0 32 32" version="1.1" xmlns="http://www.w3.org/2000/svg" xmlns:xlink="http://www.w3.org/1999/xlink">
    <title>画板</title>
    <defs>
        <path d="M9.20055094,7.2 C10.8922807,7.2 12.4725209,7.87933342 13.5806461,9.04852041 C13.8845793,9.36920153 13.8710025,9.87555152 13.5503214,10.1794848 C13.2296402,10.483418 12.7232902,10.4698412 12.419357,10.1491601 C11.6134153,9.29880796 10.4531067,8.8 9.20055094,8.8 C7.94750357,8.8 6.78678499,9.29920266 5.98082591,10.15013 C5.67699749,10.4709105 5.17065196,10.4846528 4.84987151,10.1808244 C4.52909106,9.87699596 4.51534873,9.37065043 4.81917715,9.04986998 C5.92734221,7.87987513 7.5081505,7.2 9.20055094,7.2 Z M9.20021692,3.6 C11.8148324,3.6 14.2548967,4.72542903 15.9954433,6.66524551 C16.2905149,6.99409893 16.2631293,7.49989007 15.9342759,7.79496165 C15.6054225,8.09003322 15.0996313,8.06264762 14.8045597,7.7337942 C13.3628119,6.12698504 11.3529978,5.2 9.20021692,5.2 C7.04723585,5.2 5.03725116,6.1271588 3.5954829,7.73423023 C3.30043569,8.06310551 2.79464658,8.09052858 2.4657713,7.79548137 C2.13689602,7.50043416 2.10947295,6.99464505 2.40452016,6.66576977 C4.14508929,4.72563903 6.58535867,3.6 9.20021692,3.6 Z M9.19963056,0 C12.6400899,0 15.8571948,1.4081389 18.179528,3.84850291 C18.4841115,4.16856656 18.4715623,4.67494306 18.1514986,4.9795265 C17.831435,5.28410993 17.3250585,5.27156074 17.020475,4.95149709 C14.9972219,2.82541368 12.1975802,1.6 9.19963056,1.6 C6.20203171,1.6 3.40268885,2.82512489 1.37947701,4.95077112 C1.07486397,5.27080659 0.568486304,5.28330894 0.248450833,4.97869591 C-0.0715846369,4.67408287 -0.0840869892,4.1677052 0.220526048,3.84766973 C2.54281209,1.4078073 5.75957418,0 9.19963056,0 Z" id="path-1"></path>
    </defs>
    <g id="画板" stroke="none" stroke-width="1" fill="none" fill-rule="evenodd">
        <g id="编组-6备份" transform="translate(0.000000, -0.000000)" fill="#0A59F7">
            <circle id="椭圆形" cx="16" cy="16" r="16"></circle>
        </g>
        <g id="编组-18" transform="translate(6.800000, 9.400000)">
            <mask id="mask-2" fill="white">
                <use xlink:href="#path-1"></use>
            </mask>
            <use id="合并形状" fill="#FFFFFF" fill-rule="nonzero" xlink:href="#path-1"></use>
            <rect id="Rectangle" fill="#FFFFFF" fill-rule="nonzero" opacity="0.6" x="7.40000153" y="10.8" width="3.6" height="3.6" rx="1.8"></rect>
        </g>
    </g>
</svg>