<svg width="32.000000" height="31.918579" viewBox="0 0 32 31.9186" fill="none" xmlns="http://www.w3.org/2000/svg" xmlns:xlink="http://www.w3.org/1999/xlink">
    <desc>
        Created with Pixso.
    </desc>
    <ellipse id="椭圆形" cx="16.000000" cy="15.959229" rx="16.000000" ry="15.959288" fill="#0A59F7" fill-opacity="1.000000"/>
    <g clip-path="url(#clip228_146488)">
        <g opacity="0.000000">
            <rect id="rect" x="4.000000" y="5.000000" width="24.000000" height="24.000000" fill="#000000" fill-opacity="1.000000"/>
        </g>
        <path id="path" d="M16.75 9.58L21.45 11.49C21.61 11.55 21.72 11.62 21.78 11.68C21.83 11.74 21.86 11.84 21.88 11.99L21.88 17.27C21.86 18.21 21.66 19.08 21.29 19.89C20.92 20.69 20.35 21.5 19.59 22.32C19.28 22.63 18.91 22.93 18.48 23.23C18.05 23.53 17.47 23.87 16.75 24.24L16.75 26.67C18.07 25.97 19.03 25.42 19.64 25.02C20.25 24.62 20.75 24.21 21.15 23.78C22.07 22.82 22.77 21.82 23.25 20.78C23.74 19.74 23.98 18.61 24 17.39L24 11.55C24 11.04 23.85 10.62 23.55 10.3C23.26 9.97 22.86 9.71 22.35 9.51L16.75 7.32L16.75 9.58ZM9.64 9.51C9.17 9.71 8.78 9.97 8.47 10.3C8.15 10.62 8 11.01 8 11.45L8 17.39C8.01 18.64 8.26 19.79 8.73 20.84C9.2 21.89 9.91 22.88 10.86 23.8C11.47 24.4 12.01 24.87 12.49 25.2C12.98 25.53 13.6 25.88 14.34 26.24L15.23 26.67L15.23 24.24C14.5 23.88 13.93 23.55 13.5 23.25C13.08 22.95 12.71 22.64 12.38 22.32C11.61 21.5 11.04 20.69 10.67 19.89C10.31 19.08 10.12 18.21 10.12 17.27L10.12 11.97C10.12 11.82 10.15 11.72 10.2 11.66C10.25 11.6 10.36 11.54 10.52 11.49L15.23 9.58L15.23 7.32L9.64 9.51Z" fill="#FFFFFF" fill-opacity="1.000000" fill-rule="nonzero"/>
        <path id="path" d="M14.67 19.46L17.3 19.46L17.3 13.67L14.67 13.67L14.67 19.46Z" fill="#FFFFFF" fill-opacity="0.600000" fill-rule="nonzero"/>
    </g>
</svg>
