<?xml version="1.0" encoding="UTF-8"?>
<svg width="32px" height="32px" viewBox="0 0 32 32" version="1.1" xmlns="http://www.w3.org/2000/svg" xmlns:xlink="http://www.w3.org/1999/xlink">
    <title>Settings_About</title>
    <g id="Settings_About" stroke="none" stroke-width="1" fill="none" fill-rule="evenodd">
        <circle id="椭圆形" fill-opacity="0.6" fill="#000000" cx="16" cy="16" r="16"></circle>
        <rect id="矩形" x="6.4" y="6.4" width="19.2" height="19.2"></rect>
        <path d="M16.9279155,13.0704225 C17.3819402,13.0704225 17.75,13.4384823 17.75,13.892507 L17.75,21.971 L18.1779155,21.971831 C18.6319402,21.971831 19,22.3398908 19,22.7939155 L19,23.1779155 C19,23.6319402 18.6319402,24 18.1779155,24 L14.8220845,24 C14.3680598,24 14,23.6319402 14,23.1779155 L14,22.7939155 C14,22.3398908 14.3680598,21.971831 14.8220845,21.971831 L15.25,21.971 L15.25,15.098 L14.8220845,15.0985915 C14.3680598,15.0985915 14,14.7305318 14,14.276507 L14,13.892507 C14,13.4384823 14.3680598,13.0704225 14.8220845,13.0704225 L16.9279155,13.0704225 Z M16.2083333,8 C17.3129028,8 18.2083333,8.8954305 18.2083333,10 C18.2083333,11.1045695 17.3129028,12 16.2083333,12 C15.1037638,12 14.2083333,11.1045695 14.2083333,10 C14.2083333,8.8954305 15.1037638,8 16.2083333,8 Z" id="形状结合" fill="#FFFFFF"></path>
    </g>
</svg>