<?xml version="1.0" encoding="UTF-8"?>
<svg width="32px" height="32px" viewBox="0 0 32 32" version="1.1" xmlns="http://www.w3.org/2000/svg" xmlns:xlink="http://www.w3.org/1999/xlink">
    <title>Settings_System</title>
    <g id="Settings_System" stroke="none" stroke-width="1" fill="none" fill-rule="evenodd">
        <circle id="椭圆形" fill="#0A59F7" cx="16" cy="16" r="16"></circle>
        <rect id="矩形" x="6.4" y="6.4" width="19.2" height="19.2"></rect>
        <path d="M17.4341065,7.2 C17.994592,7.2 18.5010586,7.5342809 18.7213927,8.04964185 L18.7213927,8.04964185 L19.3795094,9.589 L20.0599094,9.9818 L21.7269975,9.78086254 C22.2653523,9.71593144 22.7909903,9.96769419 23.0785897,10.4236134 L23.0785897,10.4236134 L23.1065478,10.4698817 L24.2969198,12.5281051 C24.5780815,13.0142502 24.54153,13.6213587 24.204073,14.0702593 L24.204073,14.0702593 L23.1975094,15.409 L23.1975094,16.1908 L24.2040935,17.529752 C24.5302886,17.963688 24.5753114,18.5454514 24.3239824,19.0228793 L24.3239824,19.0228793 L24.296925,19.0718859 L23.1065478,21.1301183 C22.8260187,21.6151697 22.2832975,21.8862329 21.7269975,21.8191375 L21.7269975,21.8191375 L20.0599094,21.618 L19.3795094,22.0108 L18.7213927,23.5503582 C18.5081661,24.0490946 18.0269695,24.3782451 17.4881706,24.3989616 L17.4881706,24.3989616 L17.4341065,24.4 L15.0509454,24.4 C14.4904305,24.4 13.9839433,24.0656845 13.7636274,23.5502838 L13.7636274,23.5502838 L13.1053094,22.0108 L12.4249094,21.618 L10.7580212,21.8191375 C10.2196664,21.8840686 9.69402842,21.6323058 9.406429,21.1763866 L9.406429,21.1763866 L9.37847087,21.1301183 L8.18809367,19.0718859 C7.90693662,18.5857488 7.94348197,17.9786513 8.28092526,17.529752 L8.28092526,17.529752 L9.28730935,16.1908 L9.28730935,15.409 L8.28094571,14.0702593 C7.95473732,13.636322 7.90970833,13.0545483 8.16104114,12.5771125 L8.16104114,12.5771125 L8.18809889,12.5281051 L9.37847087,10.4698817 C9.65900002,9.98483025 10.2017212,9.71376707 10.7580212,9.78086254 L10.7580212,9.78086254 L12.4249094,9.9818 L13.1053094,9.589 L13.7636274,8.0497162 C13.9768363,7.55094133 14.4580517,7.22175718 14.9968785,7.20103851 L14.9968785,7.20103851 L15.0509454,7.2 Z M16.2425094,12.2 C14.2542843,12.2 12.6425094,13.8117749 12.6425094,15.8 C12.6425094,17.7882251 14.2542843,19.4 16.2425094,19.4 C18.2307345,19.4 19.8425094,17.7882251 19.8425094,15.8 C19.8425094,13.8117749 18.2307345,12.2 16.2425094,12.2 Z" id="形状结合" fill="#FFFFFF" fill-rule="nonzero"></path>
        <path d="M16.2425094,13.4 C14.917026,13.4 13.8425094,14.4745166 13.8425094,15.8 C13.8425094,17.1254834 14.917026,18.2 16.2425094,18.2 C17.5679928,18.2 18.6425094,17.1254834 18.6425094,15.8 C18.6425094,14.4745166 17.5679928,13.4 16.2425094,13.4 Z" id="路径" fill="#FFFFFF" fill-rule="nonzero" opacity="0.6"></path>
    </g>
</svg>