<?xml version="1.0" encoding="UTF-8"?>
<svg width="24px" height="24px" viewBox="0 0 24 24" version="1.1" xmlns="http://www.w3.org/2000/svg" xmlns:xlink="http://www.w3.org/1999/xlink">
    <title>静音</title>
    <g id="静音" stroke="none" stroke-width="1" fill="none" fill-rule="evenodd">
        <g id="编组" transform="translate(2.000000, 2.000000)" fill="#000000" fill-rule="nonzero">
            <path d="M1.24433269,0.185928623 L1.28033009,0.219669913 L1.509,0.448000003 L1.51471863,0.454058453 L19.5459415,18.4852814 C19.5478012,18.487141 19.5496718,18.4889829 19.5515533,18.4908072 L19.7803301,18.7196699 C20.0732233,19.0125631 20.0732233,19.4874369 19.7803301,19.7803301 C19.4991526,20.0615076 19.0502619,20.0727547 18.7556673,19.8140714 L18.7196699,19.7803301 L16,17.061 L16,17.4388072 C16,18.3569806 15.2928897,19.1099995 14.3935272,19.183006 L14.25,19.1888072 C13.8570346,19.1888072 13.4755053,19.0565463 13.1668468,18.8133176 L13.1668468,18.8133176 L8.0105,14.74975 L4.5,14.75 C3.27954933,14.75 2.28605214,13.7782966 2.25095928,12.5663406 L2.25095928,12.5663406 L2.25,7.5 C2.25,6.35611222 3.10361121,5.41159601 4.20857123,5.26869847 L0.219669907,1.28033009 C-0.0732233025,0.987436873 -0.0732233025,0.512563133 0.219669907,0.219669913 C0.500847398,-0.061507577 0.949738138,-0.072754677 1.24433269,0.185928623 Z M5.689,6.75 L4.5,6.75 C4.08578644,6.75 3.75,7.08578644 3.75,7.5 L3.75,7.5 L3.75,12.5 C3.75,12.9142136 4.08578644,13.25 4.49998035,13.25 L4.49998035,13.25 L8.5304923,13.2498944 L14.095265,17.6351668 C14.1393579,17.6699128 14.1938621,17.6888072 14.25,17.6888072 C14.3880712,17.6888072 14.5,17.5768784 14.5,17.4388072 L14.5,17.4388072 L14.5,15.561 L5.689,6.75 Z M13.1668552,1.18667572 C13.92598,0.588471353 15.0263127,0.718923173 15.6245171,1.47804801 C15.8677391,1.78669814 16,2.16822738 16,2.56119283 L16,2.56119283 L16,13.525 L14.5,12.025 L14.5,2.56119283 C14.5,2.52376755 14.4916025,2.48706838 14.475709,2.45369607 L14.4463596,2.40645786 L14.42542,2.38303254 C14.337007,2.2957604 14.195368,2.28595026 14.0952467,2.36484769 L14.0952467,2.36484769 L8.918,6.443 L7.723,5.249 L8.01025,5.24975 L13.1668552,1.18667572 Z" id="形状结合"></path>
        </g>
    </g>
</svg>