<?xml version="1.0" encoding="UTF-8"?>
<svg width="24px" height="24px" viewBox="0 0 24 24" version="1.1" xmlns="http://www.w3.org/2000/svg" xmlns:xlink="http://www.w3.org/1999/xlink">
    <title>声音2备份</title>
    <g id="声音2备份" stroke="none" stroke-width="1" fill="none" fill-rule="evenodd">
        <g id="编组" transform="translate(1.500000, 4.649941)" fill="#000000" fill-rule="nonzero">
            <path d="M10.7723226,0.714249743 C10.991988,0.994933359 11.125669,1.33173686 11.1593806,1.68409879 L11.1678409,1.86138851 L11.1678409,12.3858726 C11.1678409,13.413844 10.3345055,14.2471794 9.30653409,14.2471794 C8.95011271,14.2471794 8.60248954,14.1448792 8.30417764,13.9542259 L8.15931853,13.851601 L4.65858506,11.1110816 L2.39310877,11.1121452 C1.18157108,11.1121452 0.180309703,10.2118453 0.0218462623,9.04376707 L0.00552096844,8.8828833 L0,8.7190364 L0,5.52822471 C0,4.26161716 0.98400547,3.22483637 2.22908493,3.14063696 L2.39290776,3.135116 L4.65752146,3.13405237 L8.15939532,0.395600089 C8.96892792,-0.237947165 10.1387753,-0.095282847 10.7723226,0.714249743 Z M9.20414411,1.61593109 L9.1425997,1.65203511 L5.20914374,4.72981225 L2.39310877,4.73052182 C1.98643878,4.73052182 1.65084462,5.03483369 1.60162108,5.42816256 L1.59540584,5.52822471 L1.59540584,8.7190364 C1.59540584,9.12570643 1.89971769,9.46130055 2.29288851,9.51052416 L2.39290776,9.51673943 L5.20906197,9.51602979 L9.14265712,12.595271 C9.18943772,12.6318819 9.24713052,12.6517736 9.30653409,12.6517736 C9.43240814,12.6517736 9.53785392,12.5643098 9.56541243,12.4468413 L9.57243506,12.3858726 L9.57243506,1.86138851 C9.57243506,1.80198495 9.55254334,1.74429215 9.51593244,1.69751154 C9.44051015,1.60113862 9.31188348,1.57092325 9.20414411,1.61593109 Z" id="形状结合"></path>
            <path d="M17.5390179,1.16784001 C19.1042566,2.73630594 20,4.8572091 20,7.11788943 C20,9.37281595 19.108832,11.4887826 17.5506397,13.0562705 C17.2400451,13.3687178 16.7349697,13.3702198 16.4225223,13.0596253 C16.1100749,12.7490307 16.1085729,12.2439554 16.4191674,11.9315081 C17.6831523,10.6599829 18.4045942,8.94700958 18.4045942,7.11788943 C18.4045942,5.28410762 17.6794437,3.56712704 16.4097344,2.29479995 C16.098533,1.98295695 16.0990532,1.47787966 16.4108962,1.16667826 C16.7227391,0.855476866 17.2278164,0.855997 17.5390179,1.16784001 Z" id="path-1-path"></path>
            <path d="M14.5084722,4.05131412 C15.3066659,4.86998064 15.7621726,5.96676476 15.7621726,7.13334423 C15.7621726,8.3144368 15.295219,9.42368653 14.479345,10.2449704 C14.1688538,10.5575205 13.663779,10.5591894 13.3512289,10.2486982 C13.0386788,9.93820693 13.0370098,9.43313218 13.3475011,9.12058207 C13.8693921,8.59523046 14.1667668,7.88881602 14.1667668,7.13334423 C14.1667668,6.38713133 13.8767011,5.68870169 13.3661571,5.1650628 C13.0586039,4.84962117 13.0649987,4.34458411 13.3804403,4.03703091 C13.695882,3.72947771 14.200919,3.73587252 14.5084722,4.05131412 Z" id="path-1-path"></path>
        </g>
    </g>
</svg>