<?xml version="1.0" encoding="UTF-8"?>
<svg width="32px"
     height="32px"
     viewBox="0 0 32 32"
     version="1.1"
     xmlns="http://www.w3.org/2000/svg"
     xmlns:xlink="http://www.w3.org/1999/xlink">
    <title>编组 9备份 3</title>
    <defs>
        <path
            d="M8.08563998,7.65685425 L8.18032941,7.66223643 C8.58413888,7.70844852 8.89758058,8.04658558 8.89758058,8.45685425 C8.89758058,8.89868205 8.53406239,9.25685425 8.08563998,9.25685425 L4.83787759,9.25685425 L4.69475455,9.2609284 C3.41610461,9.33392555 2.40205579,10.3787095 2.40205579,11.6568542 C2.40205579,12.9823376 3.49261035,14.0568542 4.83787759,14.0568542 L8.08563998,14.0568542 L8.18032941,14.0622364 C8.58413888,14.1084485 8.89758058,14.4465856 8.89758058,14.8568542 C8.89758058,15.298682 8.53406239,15.6568542 8.08563998,15.6568542 L4.83787759,15.6568542 L4.6617761,15.6531586 C2.50136157,15.5623087 0.778174593,13.807858 0.778174593,11.6568542 C0.778174593,9.44771525 2.59576553,7.65685425 4.83787759,7.65685425 L8.08563998,7.65685425 Z M7.09604909,10.8255541 L13.9349339,10.8762138 C14.380059,10.8795111 14.7435772,11.2430293 14.7468745,11.6881544 C14.7499181,12.0990391 14.4449641,12.4358338 14.0479271,12.4826236 L13.9468745,12.4881544 L7.10798969,12.4374947 C6.66286459,12.4341974 6.2993464,12.0706792 6.29604909,11.6255541 C6.29300543,11.2146694 6.59795944,10.8778747 6.99499641,10.8310849 L7.09604909,10.8255541 Z"
            id="path-1"></path>
        <path
            d="M13.7781746,1.65685425 C15.9873136,1.65685425 17.7781746,3.44771525 17.7781746,5.65685425 C17.7781746,7.80785801 16.0803292,9.56230874 13.9516863,9.65315864 L13.7781746,9.65685425 L10.5781746,9.65685425 C10.1363468,9.65685425 9.77817459,9.29868205 9.77817459,8.85685425 C9.77817459,8.44658558 10.0870067,8.10844852 10.4848777,8.06223643 L10.5781746,8.05685425 L13.7781746,8.05685425 C15.103658,8.05685425 16.1781746,6.98233765 16.1781746,5.65685425 C16.1781746,4.37870954 15.1790386,3.33392555 13.9191928,3.2609284 L13.7781746,3.25685425 L10.5781746,3.25685425 C10.1363468,3.25685425 9.77817459,2.89868205 9.77817459,2.45685425 C9.77817459,2.04658558 10.0870067,1.70844852 10.4848777,1.66223643 L10.5781746,1.65685425 L13.7781746,1.65685425 Z"
            id="path-3"></path>
    </defs>
    <g
        id="页面-1"
        stroke="none"
        stroke-width="1"
        fill="none"
        fill-rule="evenodd">
        <g id="编组-9备份-2">
            <circle
                id="椭圆形备份-9"
                fill="#F9A01E"
                cx="16"
                cy="16"
                r="16"></circle>
            <g
                id="编组-47"
                transform="translate(6.221825, 6.343146)">
                <mask
                    id="mask-2"
                    fill="white">
                    <use xlink:href="#path-1"></use>
                </mask>
                <use
                    id="形状结合"
                    fill="#FFFFFF"
                    fill-rule="nonzero"
                    transform="translate(7.778175, 11.656854) rotate(-45.000000) translate(-7.778175, -11.656854) "
                    xlink:href="#path-1"></use>
                <mask
                    id="mask-4"
                    fill="white">
                    <use xlink:href="#path-3"></use>
                </mask>
                <use
                    id="形状结合"
                    fill="#FFFFFF"
                    fill-rule="nonzero"
                    opacity="0.6"
                    transform="translate(13.778175, 5.656854) rotate(-45.000000) translate(-13.778175, -5.656854) "
                    xlink:href="#path-3"></use>
            </g>
        </g>
    </g>
</svg>