<?xml version="1.0" encoding="UTF-8"?>
<svg width="18px" height="18px" viewBox="0 0 18 18" version="1.1" xmlns="http://www.w3.org/2000/svg" xmlns:xlink="http://www.w3.org/1999/xlink">
    <title>ic_public_search</title>
    <defs>
        <path d="M12.2129889,11.2463949 L14.6099466,13.6430364 C14.9028398,13.9359296 14.9028398,14.4108033 14.6099466,14.7036966 C14.3170533,14.9965898 13.8421796,14.9965898 13.5492864,14.7036966 L11.1424668,12.2968868 C11.5355197,11.9856781 11.8945263,11.6333482 12.2129889,11.2463949 Z M6.78125,0.5 C10.2502886,0.5 13.0625,3.31221142 13.0625,6.78125 C13.0625,8.23090694 12.571411,9.5658639 11.7465202,10.6288338 L11.5852288,10.8281795 C11.5065389,10.9214937 11.4251798,11.0124834 11.3412691,11.1010309 L11.2391385,11.2063305 L11.2391385,11.2063305 L11.1042686,11.3381988 L11.1042686,11.3381988 L11.0040285,11.4312816 L11.0040285,11.4312816 L10.7500714,11.6500283 L10.7500714,11.6500283 L10.6103411,11.7608162 L10.6103411,11.7608162 C9.55039989,12.5770819 8.22251268,13.0625 6.78125,13.0625 C3.31221142,13.0625 0.5,10.2502886 0.5,6.78125 C0.5,3.31221142 3.31221142,0.5 6.78125,0.5 Z M6.78125,2 C4.14063854,2 2,4.14063854 2,6.78125 C2,9.42186146 4.14063854,11.5625 6.78125,11.5625 C9.42186146,11.5625 11.5625,9.42186146 11.5625,6.78125 C11.5625,4.14063854 9.42186146,2 6.78125,2 Z" id="path-1"></path>
    </defs>
    <g id="ic_public_search" stroke="none" stroke-width="1" fill="none" fill-rule="evenodd">
        <g id="ic_search_op" transform="translate(1.000000, 1.000000)">
            <mask id="mask-2" fill="white">
                <use xlink:href="#path-1"></use>
            </mask>
            <use id="形状" fill="#007DFF" fill-rule="nonzero" xlink:href="#path-1"></use>
        </g>
    </g>
</svg>