<?xml version="1.0" encoding="UTF-8"?>
<svg width="32px" height="32px" viewBox="0 0 32 32" version="1.1" xmlns="http://www.w3.org/2000/svg" xmlns:xlink="http://www.w3.org/1999/xlink">
    <title>编组 7</title>
    <g id="页面-1" stroke="none" stroke-width="1" fill="none" fill-rule="evenodd">
        <g id="直板机备份-4" transform="translate(-28.000000, -606.000000)">
            <g id="编组-48备份" transform="translate(16.000000, 450.000000)">
                <g id="编组-26" transform="translate(12.000000, 148.000000)">
                    <g id="编组-7" transform="translate(0.000000, 8.000000)">
                        <g id="编组-10" fill="#F9A01E">
                            <circle id="椭圆形备份-8" cx="16" cy="16" r="16"></circle>
                        </g>
                        <g id="ic_Settings_北斗卫星消息_light" transform="translate(2.916932, 2.473437)" fill-rule="nonzero">
                            <g id="编组-2" transform="translate(13.184409, 13.836067) rotate(60.000000) translate(-13.184409, -13.836067) translate(2.404048, 4.836067)">
                                <path d="M11.6809718,5.26661468 L12.5636617,2.28910804 C12.6175926,2.10718753 12.567921,1.91021825 12.4342669,1.77600176 L10.8165156,0.151443458 C10.6857038,0.020081237 10.4947668,-0.030705856 10.3163525,0.0184056527 L8.06883543,0.637071945 C7.89347581,0.685342588 7.75647465,0.822920199 7.70840627,0.999017693 L7.09600966,3.24251945 C7.045156,3.42882078 7.1019669,3.62805173 7.24330913,3.75908602 L9.51344786,5.86366602 C9.64399091,5.98468874 9.82744569,6.02957075 9.99879182,5.98240488 L11.323628,5.61772177 C11.4951312,5.57051269 11.6302325,5.43776927 11.6809718,5.26661468 Z M11.4743838,12.7333853 L10.5916938,15.710892 C10.5377629,15.8928125 10.5874346,16.0897818 10.7210887,16.2239982 L12.33884,17.8485566 C12.4696518,17.9799188 12.6605887,18.0307059 12.8390031,17.9815943 L15.0865201,17.3629281 C15.2618798,17.3146574 15.3988809,17.1770798 15.4469493,17.0009823 L16.0593459,14.7574806 C16.1101996,14.5711792 16.0533886,14.3719483 15.9120464,14.240914 L13.6419077,12.136334 C13.5113646,12.0153113 13.3279099,11.9704293 13.1565637,12.0175951 L11.8317275,12.3822783 C11.6602243,12.4294873 11.525123,12.5622308 11.4743838,12.7333853 Z" id="形状结合" fill-opacity="0.4" fill="#FFFFFF"></path>
                                <polygon id="路径" fill="#FFFFFF" opacity="0.400000006" transform="translate(11.638954, 9.067305) scale(-1, 1) rotate(105.000000) translate(-11.638954, -9.067305) " points="12.3948884 3.56443739 10.8340448 3.57138735 10.883019 14.5701733 12.4438626 14.5632234"></polygon>
                                <path d="M3.2919437,8.78636988 L8.37789248,8.78636988 C8.53850113,8.78636988 8.66870022,8.91656898 8.66870022,9.07717763 L8.66870022,11.7824967 C8.66870022,11.9431003 8.53849605,12.0732973 8.37789248,12.0733174 L3.2919437,12.0735442 C3.13133501,12.0735442 3.00112297,11.9433711 3.00112297,11.7827623 C3.00112297,11.7827581 3.00112297,11.7827537 3.00112297,11.7827494 L3.00112297,9.07717763 C3.00112297,8.91656898 3.13133501,8.78636988 3.2919437,8.78636988 Z" id="矩形备份" fill="#FFEEE3" transform="translate(5.834912, 10.429957) scale(-1, 1) rotate(105.000000) translate(-5.834912, -10.429957) "></path>
                                <path d="M-0.221946153,9.69318017 L4.8640026,9.69318017 C5.02461129,9.69318017 5.15481037,9.82337926 5.15481037,9.98398792 L5.15481037,12.689307 C5.15481037,12.8499106 5.02460623,12.9801076 4.8640026,12.9801277 L-0.221946154,12.9803545 C-0.382554846,12.9803545 -0.512766885,12.8501813 -0.512766885,12.6895726 C-0.512766885,12.6895683 -0.512766885,12.689564 -0.512766885,12.6895597 L-0.512766885,9.98398792 C-0.512766885,9.82337926 -0.382554847,9.69318017 -0.221946153,9.69318017 Z" id="矩形备份-2" fill="#FFEEE3" transform="translate(2.321022, 11.336767) scale(-1, 1) rotate(105.000000) translate(-2.321022, -11.336767) "></path>
                                <path d="M16.6967325,5.2686181 L21.7826813,5.2686181 C21.94329,5.2686181 22.0734891,5.39881718 22.0734891,5.55942587 L22.0734891,8.26474489 C22.0734891,8.42534854 21.9432849,8.55554553 21.7826813,8.55556563 L16.6967325,8.5557924 C16.5361238,8.5557924 16.4059118,8.42561928 16.4059118,8.26501055 C16.4059118,8.26500627 16.4059118,8.26500192 16.4059118,8.26499764 L16.4059118,5.55942587 C16.4059118,5.39881718 16.5361238,5.2686181 16.6967325,5.2686181 Z" id="矩形备份-4" fill="#FFEEE3" transform="translate(19.239700, 6.912205) scale(-1, 1) rotate(105.000000) translate(-19.239700, -6.912205) "></path>
                                <path d="M13.1828427,6.17542839 L18.2687914,6.17542839 C18.4294001,6.17542839 18.5595992,6.30562746 18.5595992,6.46623615 L18.5595992,9.17155518 C18.5595992,9.33215883 18.4293951,9.46235582 18.2687914,9.46237591 L13.1828427,9.46260269 C13.022234,9.46260269 12.892022,9.33242956 12.892022,9.17182084 C12.892022,9.17181656 12.892022,9.17181221 12.892022,9.17180793 L12.892022,6.46623615 C12.892022,6.30562746 13.022234,6.17542839 13.1828427,6.17542839 Z" id="矩形备份-3" fill="#FFEEE3" transform="translate(15.725811, 7.819016) scale(-1, 1) rotate(105.000000) translate(-15.725811, -7.819016) "></path>
                                <path d="M7.45432925,6.79626083 L14.2157396,6.79626083 C14.5397042,6.79626083 14.8023294,7.05888604 14.8023294,7.38285067 L14.8023294,10.997336 C14.8023294,11.321291 14.5396946,11.5839122 14.2157396,11.5839505 L7.45432925,11.5842342 C7.13036464,11.5842342 6.8677148,11.3216583 6.8677148,10.9976936 C6.8677148,10.9976854 6.8677148,10.9976772 6.8677148,10.997669 L6.8677148,7.38285067 C6.8677148,7.05888604 7.13036464,6.79626083 7.45432925,6.79626083 Z" id="矩形" fill="#FFFFFF" transform="translate(10.835022, 9.190248) scale(-1, 1) rotate(105.000000) translate(-10.835022, -9.190248) "></path>
                            </g>
                        </g>
                    </g>
                </g>
            </g>
        </g>
    </g>
</svg>