<?xml version="1.0" encoding="UTF-8"?>
<svg width="32px" height="32px" viewBox="0 0 32 32" version="1.1" xmlns="http://www.w3.org/2000/svg" xmlns:xlink="http://www.w3.org/1999/xlink">
    <title>WLAN_icon备份 14</title>
    <g id="页面-1" stroke="none" stroke-width="1" fill="none" fill-rule="evenodd">
        <g id="手写笔设置页---after" transform="translate(-36.000000, -831.000000)">
            <g id="编组-5" transform="translate(24.000000, 36.000000)">
                <g id="编组-47备份" transform="translate(0.000000, 687.000000)">
                    <g id="编组-32" transform="translate(12.000000, 100.000000)">
                        <g id="编组" transform="translate(0.000000, 8.000000)">
                            <circle id="椭圆形" fill="#F9A01E" cx="16" cy="16" r="16"></circle>
                            <path d="M22.4,14.3992591 L22.4,18.4 C22.4,21.9346224 19.5346224,24.8 16,24.8 C12.4653776,24.8 9.6,21.9346224 9.6,18.4 L9.6,14.3992591 L22.4,14.3992591 Z M22.4,13.6 L17.1392,13.5996302 C16.6973722,13.5996011 16.3392252,13.2414037 16.3392562,12.7995759 C16.3392562,12.7995752 16.3392562,12.7995746 16.3392582,12.7995739 L16.3396652,7.20885913 L16.3396652,7.20885913 C19.7163808,7.38543143 22.4,10.1793193 22.4,13.6 Z M15.5393807,7.21632129 L15.5392227,12.7995739 C15.5391301,13.2413705 15.1809965,13.5995196 14.7392,13.5996313 L9.6,13.6 L9.6,13.6 C9.6,10.220264 12.2197591,7.45240557 15.5393807,7.21632129 Z" id="形状" fill="#FFFFFF"></path>
                        </g>
                    </g>
                </g>
            </g>
        </g>
    </g>
</svg>