<?xml version="1.0" encoding="UTF-8"?>
<svg width="12px" height="24px" viewBox="0 0 12 24" version="1.1" xmlns="http://www.w3.org/2000/svg" xmlns:xlink="http://www.w3.org/1999/xlink">
    <title>画板</title>
    <defs>
        <path d="M1.2482689,0.189129071 L1.28033009,0.219389723 L6.23007755,5.16913719 C6.8992572,5.83831684 6.91319844,6.91460943 6.27190128,7.60075212 L6.23007755,7.64401093 L1.28033009,12.5937584 C1.15145707,12.7226314 0.987352626,12.7948003 0.81902041,12.8102651 L0.773030097,12.8130768 L0.726969903,12.8130768 C0.542775715,12.8074533 0.360258659,12.7343471 0.219669914,12.5937584 C-0.0627628326,12.3113256 -0.0728497164,11.8596789 0.189409263,11.5651594 L0.219669914,11.5330982 L4.81586399,6.93690414 C5.09829674,6.6544714 5.10838362,6.20282463 4.84612464,5.90830516 L4.81586399,5.87624397 L0.219669914,1.28004989 C-0.0732233047,0.987156676 -0.0732233047,0.512282942 0.219669914,0.219389723 C0.360886287,0.0781733495 0.544406167,0.00504344191 0.729436886,0 L0.775702435,0.00015760756 C0.945285075,0.00593655141 1.11328081,0.0689270394 1.2482689,0.189129071 Z" id="path-1"></path>
    </defs>
    <g id="页面-1" stroke="none" stroke-width="1" fill="none" fill-rule="evenodd">
        <g id="Public/ic_public_arrow_right" transform="translate(3.000000, 5.593426)">
            <mask id="mask-2" fill="white">
                <use xlink:href="#path-1"></use>
            </mask>
            <use id="路径" fill="#000000" fill-rule="nonzero" xlink:href="#path-1"></use>
        </g>
    </g>
</svg>