<?xml version="1.0" encoding="UTF-8"?>
<svg width="32px" height="32px" viewBox="0 0 32 32" version="1.1" xmlns="http://www.w3.org/2000/svg" xmlns:xlink="http://www.w3.org/1999/xlink">
    <title>画板备份 2</title>
    <g id="画板备份-2" stroke="none" stroke-width="1" fill="none" fill-rule="evenodd">
        <g id="编组-8备份-3" fill="#0A59F7">
            <circle id="椭圆形备份" cx="16" cy="16" r="16"></circle>
        </g>
        <g id="编组备份" transform="translate(6.400000, 6.400000)">
            <rect id="矩形" x="0" y="0" width="19.2" height="19.2"></rect>
            <path d="M11.297,10.1614001 L14.1318885,12.9963178 C14.6661968,13.5306261 14.6783401,14.3893659 14.1683186,14.9384211 L14.1318885,14.9762168 L10.9677117,18.0032989 C10.408966,18.5377513 9.52275382,18.5180577 8.9883014,17.959312 C8.75293581,17.713248 8.61579441,17.3903858 8.60128291,17.0515486 L8.6,16.9916003 L8.6,12.8584001 L11.297,10.1614001 Z M10.2,11.3272001 L10.2,16.5234001 L12.8558,13.9830001 L10.2,11.3272001 Z" id="形状结合" fill="#FFFFFF" fill-rule="nonzero" opacity="0.6"></path>
            <path d="M5.36568542,14.9614856 C5.06367997,15.263491 4.58028713,15.2735579 4.26618918,14.9916861 L4.23431458,14.9614856 C3.93230912,14.6594801 3.92224227,14.1760873 4.20411403,13.8619893 L4.23431458,13.8301147 L8.4686,9.59580015 L4.23431458,5.36148557 C3.93230912,5.05948012 3.92224227,4.57608728 4.20411403,4.26198933 L4.23431458,4.23011472 C4.53632003,3.92810927 5.01971287,3.91804242 5.33381082,4.19991418 L5.36568542,4.23011472 L8.6,7.46440015 L8.6,2.2 C8.6,1.44290966 9.20095668,0.826180263 9.95187005,0.800811804 L10,0.8 C10.3405062,0.8 10.6686152,0.924065541 10.9235038,1.14779089 L10.9677117,1.1883014 L14.1096507,4.19363438 C14.6556977,4.71594015 14.6869164,5.5741983 14.189219,6.13444893 L14.1318885,6.19528248 L5.36568542,14.9614856 Z M10.2,2.66800015 L10.2,7.86420015 L12.8558,5.20840015 L10.2,2.66800015 Z" id="形状结合" fill="#FFFFFF" fill-rule="nonzero"></path>
        </g>
    </g>
</svg>