<?xml version="1.0" encoding="UTF-8"?>
<svg width="24px" height="24px" viewBox="0 0 24 24" version="1.1" xmlns="http://www.w3.org/2000/svg" xmlns:xlink="http://www.w3.org/1999/xlink">
    <title>声音1备份</title>
    <g id="声音1备份" stroke="none" stroke-width="1" fill="none" fill-rule="evenodd">
        <path d="M20.1297132,4.22021633 C22.267174,6.36208412 23.4900393,9.25753275 23.4900393,12.3446605 C23.4900393,15.4239324 22.2734214,18.3126391 20.1455849,20.4531692 C19.8535641,20.7469322 19.3786924,20.7483444 19.0849295,20.4563235 C18.7911665,20.1643026 18.7897543,19.6894309 19.0817752,19.395668 C20.9329978,17.5334019 21.9900393,15.0235894 21.9900393,12.3446605 C21.9900393,9.6589026 20.9275654,7.14322181 19.0679613,5.27978367 C18.7753698,4.98658898 18.7758589,4.5117155 19.0690535,4.21912406 C19.3622482,3.92653262 19.8371217,3.92702165 20.1297132,4.22021633 Z M8.17146054,6.02188408 C8.9325828,5.42622318 10.0324729,5.56035612 10.6281338,6.32147837 C10.8690847,6.62936011 11,7.00905937 11,7.40001783 L11,7.40001783 L11,17.295134 C11,18.2616323 10.2164983,19.045134 9.25,19.045134 C8.85904154,19.045134 8.47934229,18.9142187 8.17138834,18.6732113 L8.17138834,18.6732113 L4.88,16.0965759 L2.75,16.0975759 C1.55913601,16.0975759 0.584355084,15.1724143 0.505190813,14.0016247 L0.505190813,14.0016247 L0.5,13.8475759 L0.5,10.8475759 C0.5,9.60493524 1.50735931,8.59757593 2.74981101,8.59757595 L2.74981101,8.59757595 L4.879,8.59657593 L8.17146054,6.02188408 Z M16.9901783,6.74794378 C18.4618152,8.22261488 19.3039928,10.2166873 19.3039928,12.3421781 C19.3039928,14.4622592 18.466117,16.4516903 17.0011051,17.9254418 C16.7090842,18.2192047 16.2342125,18.2206169 15.9404496,17.928596 C15.6466866,17.6365751 15.6452744,17.1617035 15.9372953,16.8679406 C17.1256934,15.6724531 17.8039928,14.0619162 17.8039928,12.3421781 C17.8039928,10.6180571 17.1222066,9.00375258 15.9284264,7.80751111 C15.6358349,7.51431643 15.636324,7.03944294 15.9295187,6.7468515 C16.2227133,6.45426006 16.6975868,6.45474909 16.9901783,6.74794378 Z M9.44687625,7.24594076 C9.36178184,7.13720901 9.20465469,7.11804716 9.09586895,7.20318383 L9.09586895,7.20318383 L5.39763507,10.0969088 L2.75,10.0975759 C2.33578644,10.0975759 2,10.4333624 2,10.8475759 L2,10.8475759 L2,13.8475759 C2,14.2617895 2.33578644,14.5975759 2.74981101,14.597576 L2.74981101,14.597576 L5.39755819,14.5969088 L9.09592293,17.4920103 C9.13990604,17.5264318 9.19414879,17.545134 9.25,17.545134 C9.38807119,17.545134 9.5,17.4332052 9.5,17.295134 L9.5,17.295134 L9.5,7.40001783 C9.5,7.34416662 9.48129781,7.28992387 9.44687625,7.24594076 Z M14.1408603,9.4589851 C14.8913218,10.2286951 15.319589,11.2598911 15.319589,12.3567087 C15.319589,13.4671715 14.8805594,14.5100877 14.113475,15.2822585 C13.8215512,15.576118 13.3466801,15.5776871 13.0528206,15.2857634 C12.7589611,14.9938396 12.7573919,14.5189685 13.0493157,14.225109 C13.5399975,13.7311736 13.819589,13.067003 13.819589,12.3567087 C13.819589,11.6551196 13.5468694,10.9984563 13.0668561,10.5061312 C12.7776947,10.2095531 12.7837071,9.73471743 13.0802852,9.44555603 C13.3768633,9.15639462 13.8516989,9.16240702 14.1408603,9.4589851 Z" id="path-1" fill="#000000" fill-rule="nonzero"></path>
    </g>
</svg>