<?xml version="1.0" encoding="UTF-8"?>
<svg width="24px" height="24px" viewBox="0 0 24 24" version="1.1" xmlns="http://www.w3.org/2000/svg" xmlns:xlink="http://www.w3.org/1999/xlink">
    <title>声音3备份</title>
    <g id="声音3备份" stroke="none" stroke-width="1" fill="none" fill-rule="evenodd">
        <g id="编组" transform="translate(2.500000, 3.649941)" fill="#000000" fill-rule="nonzero">
            <path d="M12.3017182,0.815655031 C12.5577966,1.14286636 12.7115491,1.53686329 12.745986,1.94836996 L12.7533901,2.12565832 L12.7533901,14.1443513 C12.7533901,15.3182685 11.8017422,16.2699164 10.6278251,16.2699164 C10.2123213,16.2699164 9.80728781,16.1481737 9.46194175,15.921632 L9.31773412,15.8181759 L5.31998559,12.6885724 L2.73286931,12.689787 C1.34429303,12.689787 0.197596522,11.6541766 0.023011968,10.313188 L0.00630480547,10.1440267 L0,9.95691769 L0,6.31309194 C0,4.85967074 1.13459252,3.6712478 2.56618556,3.58521022 L2.73263976,3.58022269 L5.31877099,3.57900806 L9.31782182,0.451765235 C10.2422874,-0.271729607 11.5782234,-0.108810587 12.3017182,0.815655031 Z M10.5004128,1.84996833 L10.4406162,1.88658205 L5.94870959,5.40132522 L2.73286931,5.40213554 C2.26569821,5.40213554 1.88066304,5.75380137 1.82804155,6.20685519 L1.82191287,6.31309194 L1.82191287,9.95691769 C1.82191287,10.4240888 2.17357867,10.809124 2.62644876,10.8617456 L2.73263976,10.8678742 L5.94861621,10.8670639 L10.4406818,14.383479 C10.494104,14.4252876 10.5599877,14.4480035 10.6278251,14.4480035 C10.7715701,14.4480035 10.8919865,14.3481221 10.9234576,14.213976 L10.9314772,14.1443513 L10.9314772,2.12565832 C10.9314772,2.05782096 10.9087614,1.99193725 10.8669527,1.93851498 C10.7783615,1.82531511 10.6254908,1.79204433 10.5004128,1.84996833 Z" id="形状结合"></path>
            <path d="M16.568306,4.62649764 C17.479823,5.56139396 18,6.81389352 18,8.14609759 C18,9.49487524 17.4667509,10.7616102 16.5350436,11.6994955 C16.1804704,12.0564198 15.6036879,12.0583256 15.2467636,11.7037526 C14.8898394,11.3491794 14.8879334,10.7723969 15.2425066,10.4154726 C15.8384929,9.81553446 16.1780871,9.00882715 16.1780871,8.14609759 C16.1780871,7.29394145 15.8468396,6.49635257 15.2638113,5.89837028 C14.9125934,5.53814397 14.9198961,4.96140449 15.2801224,4.61018657 C15.6403487,4.25896864 16.2170881,4.26627135 16.568306,4.62649764 Z" id="path-1-path"></path>
        </g>
    </g>
</svg>