<?xml version="1.0" encoding="UTF-8"?>
<svg width="32px" height="32px" viewBox="0 0 32 32" version="1.1" xmlns="http://www.w3.org/2000/svg" xmlns:xlink="http://www.w3.org/1999/xlink">
    <title>Settings_touchpad备份</title>
    <g id="Settings_touchpad备份" stroke="none" stroke-width="1" fill="none" fill-rule="evenodd">
        <circle id="椭圆形" fill="#564AF7" cx="16" cy="16" r="16"></circle>
        <g id="Cursor/PC/Hand-Pointing" transform="translate(8.000000, 8.000000)" fill="#FFFFFF">
            <path d="M14.4,1.95399252e-12 C15.2836556,1.95304535e-12 16,0.7163444 16,1.6 L16,8 C16,8.8836556 15.2836556,9.6 14.4,9.6 L14.0949649,9.59930789 C13.7926989,8.57372523 13.2997977,8.0140318 12.6225729,7.88523707 L12.6225729,7.88523707 L12.4509053,7.85778981 L12.2851649,7.84188544 C12.0682907,7.82841544 11.868193,7.8459698 11.6887552,7.89552179 L11.6887552,7.89552179 L11.674943,7.89976076 L11.6343424,7.85494926 L11.5231307,7.75309714 C11.1365847,7.43033985 10.5920232,7.27648732 9.9010998,7.33375231 L9.9010998,7.33375231 L9.7481395,7.35186409 L9.60563883,7.37972148 C9.51407665,7.40146033 9.42934272,7.42945246 9.35114734,7.46321025 L9.35114734,7.46321025 L9.31621307,7.47997238 L9.27526639,7.43723749 L9.16513701,7.34039014 C8.78504175,7.03525862 8.27363731,6.9079852 7.59084517,6.98641139 L7.59084517,6.98641139 L7.4309594,7.00991744 L7.28160643,7.04230013 L7.14258045,7.08328853 L7.08219685,7.10521177 L6.97021997,6.71079255 L6.44259717,4.90176024 C5.83832531,2.86581082 2.8418129,3.67559899 3.2846595,5.76329065 L3.2846595,5.76329065 L3.40776759,6.32095673 L3.47065628,6.58814406 L3.81830442,8.00594686 L4.00344862,8.81370477 L4.173,9.6 L1.6,9.6 C0.7163444,9.6 1.81887558e-12,8.8836556 1.8189894e-12,8 L1.8189894e-12,1.6 C1.81888119e-12,0.7163444 0.7163444,1.95415485e-12 1.6,1.95399252e-12 L14.4,1.95399252e-12 Z" id="形状结合"></path>
        </g>
        <path d="M14.844415,12.8088512 C14.9514075,13.7434245 15.1474114,15.541744 15.2712579,16.9282494 L15.2959224,17.2200068 L15.2937592,17.1524111 C15.2741329,16.4906612 15.3933447,15.6442935 16.2852518,15.6980272 C17.492371,15.7707511 17.6245426,16.5973603 17.6387243,17.4875787 L17.6379224,17.4900068 L17.640712,17.443479 C17.6639457,16.9844009 17.8011991,16.3772577 18.4773599,16.4395315 C20.1693794,16.5953652 19.6884309,17.9803578 19.7660854,18.2845407 C19.7660854,17.9436328 19.7105481,16.9708456 20.8724551,17.4114687 C21.1979346,17.5348983 21.5999224,17.9614925 21.5999224,19.4508167 C21.5999224,20.7003402 21.3766265,21.4227928 21.0868684,22.1493393 C20.843541,22.7594641 20.4367717,23.5007031 20.1637099,23.9535101 C19.9419404,24.3212612 19.9060109,24.4759776 19.8671782,24.7937376 C19.8283456,25.1114976 19.9661826,25.6163761 19.5044838,25.9809836 C19.0716412,26.3228032 17.3194759,26.3918588 16.5199106,26.3991555 L15.9005971,26.3990794 C15.1621625,26.3928687 14.081442,26.3493653 13.7382742,26.0695998 C13.3093145,25.7198928 13.4617238,24.8728586 13.3602339,24.6467263 C13.2285582,24.3533363 13.0002376,24.2173772 12.8523986,24.0613479 C11.9754765,23.1358436 11.7755562,22.2388982 11.4575571,21.2218431 C11.1974945,20.3900861 11.0300721,20.2777833 10.5464984,19.3830408 C10.0398209,18.4455502 10.9446634,17.5620542 11.7673211,18.1103321 C12.3573365,18.5035607 12.8715717,19.034842 13.3100266,19.7041763 C13.2964961,18.8020801 13.2635409,17.7138652 13.2111609,16.4395315 C13.132591,14.528031 13.0623958,14.2381408 13.0197497,13.0022014 C12.9771036,11.7662619 14.7106744,11.6406345 14.844415,12.8088512 Z M18.4835405,24.4663589 L18.4095433,24.4671111 C16.8741198,24.6394121 15.6835426,24.6513819 14.8453058,24.5069612 C14.6464032,24.4726921 14.457688,24.6079611 14.4237987,24.809093 C14.3899094,25.010225 14.5236792,25.2010552 14.7225818,25.2353243 C15.6395177,25.3933041 16.8928703,25.3807033 18.4901336,25.2014627 C18.6906715,25.1789589 18.8351989,24.9963257 18.8129445,24.7935401 C18.7906901,24.5907545 18.6100812,24.4446072 18.4095433,24.4671111 Z" id="形状结合" fill="#FFFFFF" transform="translate(15.999922, 19.199581) rotate(-10.000000) translate(-15.999922, -19.199581) "></path>
    </g>
</svg>