<?xml version="1.0" encoding="UTF-8"?>
<svg width="32px" height="32px" viewBox="0 0 32 32" version="1.1" xmlns="http://www.w3.org/2000/svg" xmlns:xlink="http://www.w3.org/1999/xlink">
    <title>画板备份</title>
    <defs>
        <path d="M15.8453374,2.95683668 C17.5923537,4.70745486 18.5920314,7.07444948 18.5920314,9.59766767 C18.5920314,12.1144643 17.5974603,14.4759489 15.8583093,16.2254748 C15.5468203,16.5388219 15.0402906,16.5403283 14.7269434,16.2288393 C14.4135963,15.9173504 14.4120899,15.4108206 14.7235789,15.0974735 C16.1676751,13.6447625 16.9920314,11.6874317 16.9920314,9.59766767 C16.9920314,7.50257732 16.1634378,5.5406684 14.7128021,4.08704184 C14.4007046,3.77430084 14.4012262,3.26776912 14.7139672,2.95567159 C15.0267082,2.64357405 15.5332399,2.64409568 15.8453374,2.95683668 Z M13.3337095,4.97901864 C14.5480667,6.19587947 15.2431942,7.8417731 15.2431942,9.59568173 C15.2431942,11.3451257 14.5516167,12.9871898 13.3427254,14.2032928 C13.0312364,14.51664 12.5247067,14.5181463 12.2113595,14.2066574 C11.8980124,13.8951684 11.896506,13.3886387 12.207995,13.0752915 C13.1218316,12.1560034 13.6431942,10.9180932 13.6431942,9.59568173 C13.6431942,8.26990094 13.1191508,7.02909301 12.2011742,6.10922379 C11.8890767,5.79648279 11.8895983,5.28995108 12.2023393,4.97785354 C12.5150803,4.66575601 13.021612,4.66627764 13.3337095,4.97901864 Z M11.0558888,7.14950786 C11.6923177,7.80226047 12.0556712,8.67715497 12.0556712,9.60730625 C12.0556712,10.5490322 11.6831891,11.4338646 11.0326679,12.0886993 C10.7212825,12.4021494 10.2147533,12.4038232 9.90130322,12.0924379 C9.58785312,11.7810525 9.58617931,11.2745233 9.89756467,10.9610732 C10.2532564,10.603023 10.4556712,10.1221859 10.4556712,9.60730625 C10.4556712,9.09873204 10.2582352,8.62333915 9.91028432,8.26646368 C9.60184549,7.95011373 9.60825872,7.44362235 9.92460867,7.13518352 C10.2409586,6.82674468 10.74745,6.83315791 11.0558888,7.14950786 Z" id="path-1"></path>
    </defs>
    <g id="画板备份" stroke="none" stroke-width="1" fill="none" fill-rule="evenodd">
        <g id="编组-20备份-3">
            <circle id="椭圆形" fill="#7655FF" cx="16" cy="16" r="16"></circle>
            <g id="编组-2" transform="translate(6.400000, 6.400000)">
                <rect id="矩形" x="0" y="0" width="19.2" height="19.2"></rect>
                <path d="M7.67892698,5.04304911 C7.75749672,5.1471621 7.8,5.27404257 7.8,5.40447538 L7.8,13.7955246 C7.8,14.1268955 7.53137085,14.3955246 7.2,14.3955246 C7.06956719,14.3955246 6.94268672,14.3530213 6.83857374,14.2744516 L3.558,11.7994414 L1.4,11.8 C0.9581722,11.8 0.6,11.4418278 0.6,11 L0.6,8.2 C0.6,7.7581722 0.9581722,7.4 1.4,7.4 L3.558,7.39944143 L6.83857374,4.92554839 C7.10307781,4.72593818 7.47931677,4.77854504 7.67892698,5.04304911 Z" id="形状结合" stroke="#FFFFFF" stroke-width="1.2" fill="#FFFFFF"></path>
                <mask id="mask-2" fill="white">
                    <use xlink:href="#path-1"></use>
                </mask>
                <use id="合并形状" fill="#FFFFFF" opacity="0.6" xlink:href="#path-1"></use>
            </g>
        </g>
    </g>
</svg>