<?xml version="1.0" encoding="UTF-8"?>
<svg width="32px" height="32px" viewBox="0 0 32 32" version="1.1" xmlns="http://www.w3.org/2000/svg" xmlns:xlink="http://www.w3.org/1999/xlink">
    <title>#illustration_编组 7备份</title>
    <g id="页面-1" stroke="none" stroke-width="1" fill="none" fill-rule="evenodd">
        <g id="首页" transform="translate(-28.000000, -654.000000)">
            <g id="编组-48备份" transform="translate(16.000000, 450.000000)">
                <g id="编组-29" transform="translate(12.000000, 196.000000)">
                    <g id="#illustration_编组-10" transform="translate(0.000000, 8.000000)">
                        <circle id="椭圆形备份-8" fill="#0A59F7" cx="16" cy="16" r="16"></circle>
                        <g id="编组" transform="translate(6.000000, 7.000000)">
                            <circle id="椭圆形" fill="#FFFFFF" cx="10.4545455" cy="9.09090909" r="2.27272727"></circle>
                            <circle id="椭圆形备份" fill="#FFFFFF" cx="16.1363636" cy="9.09090909" r="1.36363636"></circle>
                            <circle id="椭圆形备份-2" fill="#FFFFFF" cx="1.36363636" cy="9.09090909" r="1.36363636"></circle>
                            <path d="M2.3338271,5.00014695 C3.83090435,2.03408687 6.90518168,0 10.4545455,0 C15.4753159,0 19.5454545,4.07013864 19.5454545,9.09090909 C19.5454545,14.1116795 15.4753159,18.1818182 10.4545455,18.1818182 C6.90533117,18.1818182 3.83116332,16.1479027 2.3338271,13.182046" id="路径" stroke="#FFFFFF" stroke-width="1.81818182" stroke-linecap="round"></path>
                            <path d="M14.0620777,13.1821801 C13.1005834,14.030642 11.8376849,14.5454545 10.4545455,14.5454545 C7.44208318,14.5454545 5,12.1033714 5,9.09090909 C5,6.07844682 7.44208318,3.63636364 10.4545455,3.63636364 C11.8378254,3.63636364 13.1008399,4.1512808 14.0623707,4.9998966" id="形状" stroke="#FFFFFF" stroke-width="1.81818182" opacity="0.600000024" stroke-linecap="round"></path>
                        </g>
                    </g>
                </g>
            </g>
        </g>
    </g>
</svg>