<?xml version="1.0" encoding="UTF-8"?>
<svg width="32px"
     height="32px"
     viewBox="0 0 32 32"
     version="1.1"
     xmlns="http://www.w3.org/2000/svg"
     xmlns:xlink="http://www.w3.org/1999/xlink">
    <title>编组 50</title>
    <defs>
        <path
            d="M8.125,18.1399656 C8.125,18.3796726 7.93067914,18.5739934 7.69097222,18.5739934 C7.5758609,18.5739934 7.46546423,18.5282656 7.38406824,18.4468696 L3.42813038,14.4909318 C3.25863199,14.3214334 3.25863199,14.0466222 3.42813038,13.8771238 C3.50952637,13.7957278 3.61992304,13.75 3.73503436,13.75 L6.04100658,13.7496667 L6.04166667,2.70833333 C6.04166667,2.17138983 6.4479268,1.72933346 6.96983227,1.67277902 L7.08333333,1.66666667 C7.65862995,1.66666667 8.125,2.13303672 8.125,2.70833333 L8.125,18.1399656 Z"
            id="path-1"></path>
    </defs>
    <g
        id="页面-1"
        stroke="none"
        stroke-width="1"
        fill="none"
        fill-rule="evenodd">
        <g id="编组-50">
            <g id="编组-10备份">
                <circle
                    id="椭圆形备份-8"
                    fill="#34C759"
                    cx="16"
                    cy="16"
                    r="16"></circle>
                <g
                    id="notification/Notification/ic_mobiledata"
                    transform="translate(16.000000, 16.000000) rotate(-180.000000) translate(-16.000000, -16.000000) translate(6.000000, 6.000000)">
                    <mask
                        id="mask-2"
                        fill="white">
                        <use xlink:href="#path-1"></use>
                    </mask>
                    <use
                        id="Combined-Shape"
                        fill="#FFFFFF"
                        xlink:href="#path-1"></use>
                </g>
            </g>
            <g
                id="编组-46"
                transform="translate(9.301007, 7.666667)"
                fill="#FFFFFF"
                opacity="0.6">
                <path
                    d="M4.82399342,16.473299 C4.82399342,16.7130059 4.62967256,16.9073267 4.38996564,16.9073267 C4.27485431,16.9073267 4.16445765,16.861599 4.08306165,16.780203 L0.127123793,12.8242651 C-0.0423745976,12.6547667 -0.0423745976,12.3799555 0.127123793,12.2104571 C0.20851979,12.1290611 0.318916454,12.0833333 0.434027778,12.0833333 L2.74,12.083 L2.74066008,1.04166667 C2.74066008,0.50472316 3.14692022,0.0626667917 3.66882569,0.00611235818 L3.78232675,0 C4.35762336,0 4.82399342,0.466370052 4.82399342,1.04166667 L4.82399342,16.473299 Z"
                    id="形状结合"></path>
            </g>
        </g>
    </g>
</svg>