<?xml version="1.0" encoding="UTF-8"?>
<svg width="32px"
     height="32px"
     viewBox="0 0 32 32"
     version="1.1"
     xmlns="http://www.w3.org/2000/svg"
     xmlns:xlink="http://www.w3.org/1999/xlink">
    <title>编组 2备份 3</title>
    <g
        id="页面-1"
        stroke="none"
        stroke-width="1"
        fill="none"
        fill-rule="evenodd">
        <g id="编组-2备份-3">
            <circle
                id="椭圆形"
                fill="#F9A01E"
                cx="16"
                cy="16"
                r="16"></circle>
            <rect
                id="矩形"
                x="6.4"
                y="6.4"
                width="19.2"
                height="19.2"></rect>
            <g
                id="编组-12"
                transform="translate(16.000000, 16.000000) rotate(-180.000000) translate(-16.000000, -16.000000) translate(7.000000, 7.000000)"
                fill="#FFFFFF">
                <path
                    d="M14.4157883,0 C15.5132835,0 16.0221629,0.136088226 16.499991,0.391633466 C16.977819,0.647178706 17.3528213,1.02218096 17.6083665,1.5 L17.6563308,1.59302933 C17.8809051,2.04594894 18,2.5575226 18,3.58421169 L18,4.72348062 C18,5.82097585 17.8639118,6.32985524 17.6083665,6.80768329 C17.3528213,7.28551135 16.977819,7.6605136 16.499991,7.91605884 L16.4069707,7.96402309 C15.9540511,8.18859741 15.4424774,8.30769231 14.4157883,8.30769231 L13.2765194,8.30769231 C12.1790242,8.30769231 11.6701448,8.17160408 11.1923077,7.91605884 C10.7144887,7.6605136 10.3394864,7.28551135 10.0839412,6.80768329 L10.0359769,6.71466298 C9.81914653,6.27736129 9.70064656,5.7853809 9.69273197,4.82787104 L9.69230769,3.58421169 C9.69230769,2.48671646 9.82839592,1.97783707 10.0839412,1.5 C10.3394864,1.02218096 10.7144887,0.647178706 11.1923077,0.391633466 L11.285337,0.343669222 C11.7226387,0.126838842 12.2146191,0.00833886277 13.172129,0.00042427491 L14.4157883,0 Z"
                    id="路径"></path>
                <path
                    d="M3.47982127,9.69273197 L4.72348062,9.69230769 C5.82097585,9.69230769 6.32985524,9.82839592 6.80768329,10.0839412 C7.28551135,10.3394864 7.6605136,10.7144887 7.91605884,11.1923077 L7.96402309,11.285337 C8.18859741,11.7382566 8.30769231,12.2498303 8.30769231,13.2765194 L8.30769231,14.4157883 C8.30769231,15.5132835 8.17160408,16.0221629 7.91605884,16.499991 C7.6605136,16.977819 7.28551135,17.3528213 6.80768329,17.6083665 L6.71466298,17.6563308 C6.26174337,17.8809051 5.7501697,18 4.72348062,18 L3.58421169,18 C2.48671646,18 1.97783707,17.8639118 1.5,17.6083665 C1.02218096,17.3528213 0.647178706,16.977819 0.391633466,16.499991 L0.343669222,16.4069707 C0.126838842,15.969669 0.00833886277,15.4776886 0.00042427491,14.5201787 L0,13.2765194 C0,12.1790242 0.136088226,11.6701448 0.391633466,11.1923077 C0.647178706,10.7144887 1.02218096,10.3394864 1.5,10.0839412 L1.59302933,10.0359769 C2.03033102,9.81914653 2.5223114,9.70064656 3.47982127,9.69273197 Z"
                    id="路径"></path>
                <path
                    d="M14.4157883,9.69230769 C15.5132835,9.69230769 16.0221629,9.82839592 16.499991,10.0839412 C16.977819,10.3394864 17.3528213,10.7144887 17.6083665,11.1923077 L17.6563308,11.285337 C17.8809051,11.7382566 18,12.2498303 18,13.2765194 L18,14.4157883 C18,15.5132835 17.8639118,16.0221629 17.6083665,16.499991 C17.3528213,16.977819 16.977819,17.3528213 16.499991,17.6083665 L16.4069707,17.6563308 C15.9540511,17.8809051 15.4424774,18 14.4157883,18 L13.2765194,18 C12.1790242,18 11.6701448,17.8639118 11.1923077,17.6083665 C10.7144887,17.3528213 10.3394864,16.977819 10.0839412,16.499991 L10.0359769,16.4069707 C9.81914653,15.969669 9.70064656,15.4776886 9.69273197,14.5201787 L9.69230769,13.2765194 C9.69230769,12.1790242 9.82839592,11.6701448 10.0839412,11.1923077 C10.3394864,10.7144887 10.7144887,10.3394864 11.1923077,10.0839412 L11.285337,10.0359769 C11.7226387,9.81914653 12.2146191,9.70064656 13.172129,9.69273197 L14.4157883,9.69230769 Z"
                    id="路径"
                    opacity="0.6"></path>
                <path
                    d="M3.47982127,0.00042427491 L4.72348062,0 C5.82097585,0 6.32985524,0.136088226 6.80768329,0.391633466 C7.28551135,0.647178706 7.6605136,1.02218096 7.91605884,1.5 L7.96402309,1.59302933 C8.18859741,2.04594894 8.30769231,2.5575226 8.30769231,3.58421169 L8.30769231,4.72348062 C8.30769231,5.82097585 8.17160408,6.32985524 7.91605884,6.80768329 C7.6605136,7.28551135 7.28551135,7.6605136 6.80768329,7.91605884 L6.71466298,7.96402309 C6.26174337,8.18859741 5.7501697,8.30769231 4.72348062,8.30769231 L3.58421169,8.30769231 C2.48671646,8.30769231 1.97783707,8.17160408 1.5,7.91605884 C1.02218096,7.6605136 0.647178706,7.28551135 0.391633466,6.80768329 L0.343669222,6.71466298 C0.126838842,6.27736129 0.00833886277,5.7853809 0.00042427491,4.82787104 L0,3.58421169 C0,2.48671646 0.136088226,1.97783707 0.391633466,1.5 C0.647178706,1.02218096 1.02218096,0.647178706 1.5,0.391633466 L1.59302933,0.343669222 C2.03033102,0.126838842 2.5223114,0.00833886277 3.47982127,0.00042427491 Z"
                    id="路径"></path>
            </g>
        </g>
    </g>
</svg>