<?xml version="1.0" encoding="UTF-8"?>
<!--
  - Copyright (c) Huawei Technologies Co., Ltd. 2023-2023. All rights reserved.
  -->

<svg width="40px" height="40px" viewBox="0 0 40 40" version="1.1" xmlns="http://www.w3.org/2000/svg" xmlns:xlink="http://www.w3.org/1999/xlink">
    <title>Settings_users</title>
    <defs>
        <path d="M11.0571895,26.0277778 C11.7088448,24.7035785 13.4020565,20.75 20,20.75 C26.5979435,20.75 28.3199937,24.7035785 28.9428105,26.0277778 C29.1786799,26.5292707 29.3404947,27.2000571 29.4282547,28.0401369 C29.543932,29.1386325 28.7473924,30.1230696 27.6489195,30.2389613 C27.5781237,30.2464304 27.5069796,30.2501143 27.435791,30.25 L12.5456543,30.25 C11.441085,30.2493549 10.5461774,29.3534018 10.5468222,28.2488325 C10.5468621,28.1803624 10.5504182,28.1119395 10.557217,28.0438072 C10.6433817,27.2020107 10.8100392,26.5300008 11.0571895,26.0277778 Z M20,10.25 C17.3766474,10.25 15.25,12.3766474 15.25,15 C15.25,17.6233526 17.3766474,19.75 20,19.75 C22.6233526,19.75 24.75,17.6233526 24.75,15 C24.75,12.3766474 22.6233526,10.25 20,10.25 Z" id="path-1"></path>
    </defs>
    <g id="Settings_users" stroke="none" stroke-width="1" fill="none" fill-rule="evenodd">
        <g id="编组">
            <circle id="椭圆形" fill="#E84026" cx="20" cy="20" r="20"></circle>
            <mask id="mask-2" fill="white">
                <use xlink:href="#path-1"></use>
            </mask>
            <use id="椭圆形" fill="#FFFFFF" fill-rule="nonzero" xlink:href="#path-1"></use>
        </g>
        <rect id="矩形" x="8" y="8" width="24" height="24"></rect>
    </g>
</svg>