<svg xmlns="http://www.w3.org/2000/svg" width="29.502" height="15.56" viewBox="0 0 29.502 15.56">
  <defs>
    <style>
      .cls-1, .cls-2 {
        fill: none;
      }

      .cls-2 {
        stroke: #b2b2b2;
        stroke-linecap: round;
        stroke-width: 5px;
      }

      .cls-3 {
        fill: #b2b2b2;
      }

      .cls-4, .cls-5 {
        stroke: none;
      }

      .cls-5 {
        fill: #b2b2b2;
      }
    </style>
  </defs>
  <g id="组_1" data-name="组 1" transform="translate(-35 -10.64)">
    <g id="路径_14" data-name="路径 14" class="cls-1" transform="translate(35 10.64)">
      <path class="cls-4" d="M7.78,0A7.78,7.78,0,1,1,0,7.78,7.78,7.78,0,0,1,7.78,0Z"/>
      <path class="cls-5" d="M 7.780176162719727 4.999996185302734 C 6.247176170349121 4.999996185302734 4.999996185302734 6.247176170349121 4.999996185302734 7.780176162719727 C 4.999996185302734 9.313176155090332 6.247176170349121 10.56035614013672 7.780176162719727 10.56035614013672 C 9.313176155090332 10.56035614013672 10.56035614013672 9.313176155090332 10.56035614013672 7.780176162719727 C 10.56035614013672 6.247176170349121 9.313176155090332 4.999996185302734 7.780176162719727 4.999996185302734 M 7.780176162719727 -3.814697265625e-06 C 12.07704639434814 -3.814697265625e-06 15.56035614013672 3.483305931091309 15.56035614013672 7.780176162719727 C 15.56035614013672 12.07704639434814 12.07704639434814 15.56035614013672 7.780176162719727 15.56035614013672 C 3.483305931091309 15.56035614013672 -3.814697265625e-06 12.07704639434814 -3.814697265625e-06 7.780176162719727 C -3.814697265625e-06 3.483305931091309 3.483305931091309 -3.814697265625e-06 7.780176162719727 -3.814697265625e-06 Z"/>
    </g>
    <line id="直线_7" data-name="直线 7" class="cls-2" x2="11.875" transform="translate(50.127 18.625)"/>
    <path id="路径_15" data-name="路径 15" class="cls-3" d="M0,0H5V2A2,2,0,0,1,3,4H2A2,2,0,0,1,0,2Z" transform="translate(57 22)"/>
  </g>
</svg>
