<svg width="24.000000" height="24.000000" viewBox="0 0 24 24" fill="none" xmlns="http://www.w3.org/2000/svg" xmlns:xlink="http://www.w3.org/1999/xlink">
	<desc>
			Created with Pixso.
	</desc>
	<defs/>
	<g opacity="0.000000">
		<rect id="矩形" width="24.000000" height="24.000000" fill="#000000" fill-opacity="1.000000"/>
	</g>
	<path id="路径" d="M5.93 1.98C5.22 1.98 4.56 2.16 3.96 2.51C3.35 2.87 2.87 3.35 2.52 3.95C2.16 4.56 1.99 5.22 1.99 5.92L1.99 18.04C1.99 18.77 2.16 19.43 2.52 20.04C2.87 20.64 3.35 21.12 3.96 21.48C4.56 21.83 5.22 22.01 5.93 22.01L18.05 22.01C18.77 22.01 19.43 21.83 20.03 21.48C20.63 21.12 21.1 20.64 21.46 20.04C21.8 19.43 21.98 18.77 21.98 18.04L21.98 5.92C21.98 5.22 21.8 4.56 21.46 3.95C21.1 3.35 20.63 2.87 20.03 2.51C19.43 2.16 18.77 1.98 18.07 1.98L5.93 1.98Z" fill="#00BC88" fill-opacity="1.000000" fill-rule="evenodd"/>
	<path id="路径" d="M5.89 20.5C5.27 20.5 4.74 20.28 4.27 19.86C3.82 19.43 3.56 18.91 3.5 18.29L13.56 10.97C13.87 10.74 14.22 10.59 14.6 10.52C14.98 10.45 15.35 10.47 15.72 10.57C16.08 10.67 16.41 10.85 16.7 11.11L20.5 14.35L20.5 18.04C20.5 18.72 20.26 19.29 19.79 19.78C19.31 20.26 18.74 20.5 18.06 20.5L5.89 20.5Z" fill="#FFFFFF" fill-opacity="0.450980" fill-rule="evenodd"/>
	<path id="路径" d="M8.5 7.25C8.98 7.25 9.39 7.42 9.73 7.75C10.07 8.1 10.25 8.52 10.25 9C10.25 9.47 10.07 9.89 9.73 10.24C9.39 10.58 8.98 10.75 8.5 10.75C8.02 10.75 7.6 10.58 7.26 10.24C6.91 9.89 6.74 9.47 6.74 9C6.74 8.52 6.91 8.1 7.26 7.75C7.6 7.42 8.02 7.25 8.5 7.25Z" fill="#FFFFFF" fill-opacity="0.450980" fill-rule="evenodd"/>
</svg>
