<?xml version="1.0" encoding="UTF-8"?>
<svg width="120px" height="120px" viewBox="0 0 120 120" version="1.1" xmlns="http://www.w3.org/2000/svg" xmlns:xlink="http://www.w3.org/1999/xlink">
    <title>05 SearchNoResult</title>
    <g id="05-SearchNoResult" stroke="none" stroke-width="1" fill="none" fill-rule="evenodd">
        <g id="编组" transform="translate(5.442857, 14.967857)" fill="#A1A7B3">
            <path d="M66.8745113,81.5472546 C68.4251242,81.5636925 72.8283566,82.1579284 74.7670742,75.8215255 C81.2263534,77.2078831 85.3071429,79.2496947 85.3071429,81.5261746 C85.3071429,85.7075122 71.5398989,89.0971561 54.5571429,89.0971561 C37.5743868,89.0971561 23.8071429,85.7075122 23.8071429,81.5261746 L23.8081429,81.5465255 Z" id="shadow" opacity="0.15"></path>
            <g id="名单">
                <path d="M84.184284,0.477047294 C89.175101,0.477047294 92.6887483,4.78091008 92.6887483,9.57246878 C92.6887483,9.67270637 92.687082,9.77254693 92.6837761,9.8719632 L92.6887483,9.87163721 L92.6887483,18.8466902 L75.6798198,18.8466902 L75.6798198,9.87163721 C75.6814861,9.77254693 75.6798198,9.67270637 75.6798198,9.57246878 C75.6798198,4.78091008 79.1934671,0.477047294 84.184284,0.477047294 Z" id="形状结合" opacity="0.600000024"></path>
                <path d="M84.3111383,0.62870946 C80.9446833,0.62870946 78.7389646,2.38998069 77.6240825,3.93452927 C76.2145162,5.88733097 75.7261838,7.6891589 75.7030018,9.34458111 C75.6926987,10.0803243 75.6892643,10.8102482 75.6926987,11.5343527 L75.7030018,12.6161449 L75.7029342,36.4757346 C67.4304629,38.2636106 61.2321429,45.6233507 61.2321429,54.4307861 C61.2321429,63.1562984 67.3156909,70.4609219 75.4726349,72.3345045 C74.2667871,82.3567138 68.6662522,81.5662487 66.8745113,81.5472546 L19.890534,81.5469229 L19.8901769,81.5257095 L7.84059012,81.5261746 C6.84986747,81.5261746 3.6925978,79.2739018 1.8922999,75.705109 C0.692101303,73.3259139 0.115621403,69.7952744 0.1628602,65.1131905 L19.8901769,65.1127095 L19.890534,10.5261956 C19.890534,5.491719 22.2927014,2.22433678 27.0970361,0.724048984 L27.413768,0.62870946 L84.3111383,0.62870946 Z" id="形状结合" opacity="0.300000012"></path>
                <path d="M0.1628602,65.1131905 L57.2866489,65.1131905 C56.909716,70.8184653 57.6384432,74.8662764 59.4728305,77.2566241 C61.3072179,79.6469717 64.0232696,81.0701552 67.6209856,81.5261746 C28.4278704,81.5261746 8.50107189,81.5261746 7.84059012,81.5261746 C6.84986747,81.5261746 3.6925978,79.2739018 1.8922999,75.705109 C0.692101303,73.3259139 0.115621403,69.7952744 0.1628602,65.1131905 Z" id="矩形" opacity="0.400000006"></path>
            </g>
            <g id="放大镜" transform="translate(61.232143, 36.058929)">
                <path d="M31.8552859,30.8429902 L35.4226083,34.4104671 C36.3682462,34.0276822 37.4921636,34.2196849 38.2589537,34.986475 L47.5001621,44.2276834 C48.5230917,45.250613 48.5230917,46.9091095 47.5001621,47.932039 L47.247423,48.1847781 C46.2244935,49.2077077 44.5659969,49.2077077 43.5430674,48.1847781 L34.301859,38.9435698 C33.5352083,38.176919 33.343136,37.053271 33.7256423,36.1077402 L30.1144064,32.4948519 C30.7300227,31.9824198 31.3116118,31.4305033 31.8552859,30.8429902 Z" id="形状结合" opacity="0.600000024"></path>
                <path d="M18.3696429,0 C28.5149165,0 36.7392857,8.22436925 36.7392857,18.3696429 C36.7392857,28.5149165 28.5149165,36.7392857 18.3696429,36.7392857 C8.22436925,36.7392857 0,28.5149165 0,18.3696429 C0,8.22436925 8.22436925,0 18.3696429,0 Z M18.3696429,4.08214286 C10.4788745,4.08214286 4.08214286,10.4788745 4.08214286,18.3696429 C4.08214286,26.2604112 10.4788745,32.6571429 18.3696429,32.6571429 C26.2604112,32.6571429 32.6571429,26.2604112 32.6571429,18.3696429 C32.6571429,10.4788745 26.2604112,4.08214286 18.3696429,4.08214286 Z" id="形状结合" opacity="0.5"></path>
                <circle id="椭圆形" opacity="0.200000003" cx="18.3696429" cy="18.3696429" r="14.2875"></circle>
                <rect id="矩形" opacity="0.200000003" transform="translate(27.039014, 19.156542) rotate(-255.000000) translate(-27.039014, -19.156542) " x="22.9568713" y="18.4761844" width="8.16428571" height="1.36071429" rx="0.680357143"></rect>
                <rect id="矩形备份" opacity="0.200000003" transform="translate(24.997943, 14.394042) rotate(-255.000000) translate(-24.997943, -14.394042) " x="22.9568713" y="13.7136844" width="4.08214286" height="1.36071429" rx="0.680357143"></rect>
            </g>
        </g>
        <path d="M54.3825439,48.1498383 L56.2216997,55.0136613 C56.4162027,55.7395562 55.9854244,56.4856861 55.2595294,56.6801891 C54.5336345,56.8746921 53.7875046,56.4439138 53.5930016,55.7180188 L51.7538458,48.8541959 C51.5593428,48.1283009 51.9901211,47.382171 52.7160161,47.187668 C53.441911,46.9931651 54.188041,47.4239434 54.3825439,48.1498383 Z M72.6464342,47.187668 C73.3723292,47.382171 73.8031075,48.1283009 73.6086045,48.8541959 L71.7694487,55.7180188 C71.5749457,56.4439138 70.8288158,56.8746921 70.1029209,56.6801891 C69.3770259,56.4856861 68.9462476,55.7395562 69.1407506,55.0136613 L70.9799064,48.1498383 C71.1744093,47.4239434 71.9205393,46.9931651 72.6464342,47.187668 Z M63.0592013,46.2642857 C63.8107031,46.2642857 64.4199156,46.8734983 64.4199156,47.625 L64.4199156,54.7309524 C64.4199156,55.4824541 63.8107031,56.0916667 63.0592013,56.0916667 C62.3076996,56.0916667 61.6984871,55.4824541 61.6984871,54.7309524 L61.6984871,47.625 C61.6984871,46.8734983 62.3076996,46.2642857 63.0592013,46.2642857 Z" id="形状结合" fill="#A1A7B3" opacity="0.300000012" transform="translate(62.681225, 51.495589) rotate(-53.000000) translate(-62.681225, -51.495589) "></path>
    </g>
</svg>