<?xml version="1.0" encoding="UTF-8"?>
<svg width="320px" height="320px" viewBox="0 0 320 320" version="1.1" xmlns="http://www.w3.org/2000/svg" xmlns:xlink="http://www.w3.org/1999/xlink">
    <title>mouse</title>
    <g id="mouse" stroke="none" stroke-width="1" fill="none" fill-rule="evenodd">
        <g id="编组-2备份">
            <rect id="矩形" x="0" y="0" width="320" height="320"></rect>
            <g id="编组" transform="translate(91.000000, 37.000000)">
                <path d="M70.1188061,-1.79767312e-12 C75.192288,0.0199195401 80.1446512,0.231567565 84.9844715,0.646027315 C90.3400773,1.10525156 95.2297455,1.78506462 99.8650336,2.7535304 C105.261325,3.88011218 109.951061,5.32654176 114.189352,7.26812608 C116.562307,8.35580053 118.749054,9.58106173 120.743817,10.9596005 C122.756229,12.3516628 124.595962,13.9164087 126.22089,15.6289823 L126.443987,15.8660939 C127.701816,17.2188219 128.854102,18.6852593 129.910381,20.2935234 L130.04293,20.4971457 L130.059229,20.5232283 C130.623659,21.3940401 131.154677,22.2976143 131.656265,23.2437373 C132.173541,24.2194528 132.658728,25.239692 133.112736,26.3096273 C133.580707,27.4113601 134.014998,28.5649842 134.417304,29.7790446 C134.834788,31.0355966 135.215313,32.3483876 135.56203,33.7352559 C135.919744,35.1620461 136.242166,36.6753199 136.529376,38.2808348 C136.821593,39.9151424 137.07745,41.651633 137.295353,43.4842482 C137.512528,45.3048733 137.694961,47.2557659 137.845723,49.3558434 L137.88532,49.9251369 L137.925741,50.5388497 C138.024904,52.0876993 138.11006,53.7477875 138.185058,55.5636596 L138.227483,56.6283292 L138.261116,57.5368577 C138.297751,58.5615099 138.332035,59.6391673 138.365008,60.7940095 L138.427925,63.1504237 C138.489151,65.5627206 138.544637,68.1707381 138.59811,71.104134 C138.651648,74.0410951 138.695314,76.9206294 138.728965,79.798635 L138.728185,79.805 L138.763076,82.9608748 L138.785885,85.4343054 C138.825924,90.1501187 138.849,95.1359059 138.860041,100.763975 C138.869174,105.404863 138.871946,110.070037 138.864554,114.774382 L138.856125,119.044841 L138.849215,121.593717 C138.841461,124.151175 138.831173,126.734954 138.81838,129.350256 L138.793621,133.930467 L138.752776,140.078317 C138.729426,143.20458 138.70298,146.164431 138.67221,149.05814 L138.641961,151.763558 L138.604228,154.82316 C138.564534,157.89145 138.518957,160.986146 138.467499,164.110317 L138.396676,168.203424 L138.336661,171.314333 C138.25315,175.403792 138.16273,178.834492 138.044458,182.285882 L138.000827,183.509613 L137.952306,184.757619 C137.707578,190.767204 137.36664,194.955721 136.697578,199.269404 L136.660944,199.503398 C136.52411,200.371646 136.371841,201.240287 136.20588,202.097088 C136.034687,202.975879 135.849416,203.839605 135.648646,204.692679 C135.228985,206.474995 134.744,208.193722 134.18711,209.854222 C134.007005,210.389317 133.820509,210.916125 133.627099,211.435521 L133.479852,211.825 L133.350577,212.161042 C132.212777,215.076744 130.805993,217.832631 129.147384,220.372019 C127.404079,223.039051 125.347919,225.522523 123.03403,227.761196 C120.781702,229.939523 118.251586,231.921447 115.487799,233.69093 C112.858015,235.374116 110.01937,236.865366 106.993576,238.169345 C101.378202,240.59085 95.2291632,242.325873 88.5614988,243.449446 C82.6475843,244.446131 76.4693904,244.936542 69.9915265,244.964152 L69.4349041,244.964152 C66.7407903,244.964152 64.109008,244.883122 61.550026,244.724724 C59.0911324,244.571684 56.7115533,244.347112 54.400991,244.052966 C52.1769025,243.770618 50.0221034,243.425279 47.9348693,243.019474 C45.9146803,242.626219 43.9730566,242.180159 42.1011365,241.681198 C40.2868219,241.198381 38.5348185,240.665827 36.8435592,240.085429 C35.212457,239.525675 33.6395568,238.921501 32.1189279,238.273082 C30.6475887,237.645681 29.2350857,236.981068 27.883156,236.281851 C26.5658646,235.600136 25.3100163,234.889112 24.1115583,234.147907 C22.9383798,233.424115 21.8191451,232.671928 20.7501603,231.89034 C19.6992991,231.122003 18.7033743,230.331287 17.7542789,229.512459 C16.8231958,228.709966 15.9307515,227.874229 15.0742165,227.00463 C14.2333821,226.150971 13.4370086,225.273072 12.6779798,224.363693 C11.9257816,223.461696 11.2107044,222.528357 10.528815,221.559314 C9.84745905,220.589879 9.20798226,219.594713 8.60586286,218.565825 C7.99339606,217.520646 7.42366713,216.447235 6.89220541,215.334911 C6.41293195,214.331027 5.96268033,213.292144 5.5449135,212.225276 L5.38929618,211.822778 L5.24335066,211.43552 C5.0499402,210.91612 4.86343671,210.389292 4.68329834,209.854098 C4.12645054,208.193722 3.64146538,206.474995 3.22180114,204.692666 C3.01987931,203.834698 2.83470636,202.970491 2.6653693,202.097068 C2.5327384,201.415598 2.40869335,200.72373 2.29387747,200.026883 L2.20716786,199.49081 C1.91800436,197.649295 1.67498185,195.683607 1.47822193,193.598274 C1.29773715,191.686171 1.15269906,189.644987 1.03821672,187.431395 L0.989942345,186.458029 L0.938522509,185.312734 C0.872230371,183.749704 0.814153794,182.024441 0.754032579,179.916705 L0.683027347,177.317209 L0.633573964,175.345039 C0.61173343,174.443619 0.590028096,173.507361 0.568258778,172.529699 L0.544212658,171.434281 C0.485271416,168.712405 0.433735451,166.061303 0.388851994,163.402523 L0.334948915,160.029299 C0.306763841,158.156029 0.280003686,156.180261 0.254115095,154.071961 L0.200742612,149.402599 C0.174688549,146.934205 0.150867091,144.358915 0.129120252,141.664843 L0.103509022,138.239399 L0.0756479941,133.898607 C0.0670262777,132.433382 0.0590724276,130.949793 0.051794164,129.447629 L0.0346422218,125.640087 L0.0191295989,121.293067 C0.0114293464,118.744684 0.00609858578,116.170439 0.00318525732,113.550524 C-0.00360757724,108.204563 0.00012951715,102.841249 0.0176338581,97.4708998 L0.0291414591,94.4365776 L0.0449466285,91.2552573 C0.0625870351,88.1221471 0.0858878495,85.1229994 0.116241338,82.1618056 L0.141806021,79.7988855 L0.166406781,77.8217416 L0.194435707,75.8270356 C0.21427758,74.4891838 0.236441739,73.1330423 0.260990825,71.7454479 L0.320212945,68.6152847 L0.372164993,66.1463769 C0.395752628,65.0785813 0.420051807,64.0484817 0.445253581,63.0495464 L0.508932174,60.6794246 L0.54818378,59.367765 C0.588133959,58.0879787 0.630360011,56.89963 0.676483345,55.7650749 L0.706602441,55.0458663 L0.739824488,54.3003993 C0.824633719,52.4569048 0.92276284,50.762932 1.03790233,49.1785391 C1.18957759,47.0921975 1.37546035,45.1353153 1.59711414,43.2956689 C1.81931208,41.4581399 2.07929599,39.7210294 2.37677122,38.0824906 C2.66621395,36.4889826 2.99621396,34.9658282 3.36259906,33.5208712 C3.7101611,32.150149 4.09330151,30.8474315 4.51460568,29.5926597 C4.91714777,28.3953347 5.34814609,27.2641145 5.81275655,26.1811141 C6.26094133,25.1345592 6.74163295,24.1313592 7.25557564,23.1658695 C7.75120435,22.2362692 8.27708784,21.3449379 8.83726238,20.4816777 C9.38023534,19.6449261 9.95042863,18.8438065 10.5554518,18.0659199 C11.0820792,17.3913555 11.6263086,16.744623 12.1851127,16.1297102 L12.4265444,15.8664948 C14.1055074,14.0608773 16.021637,12.4157625 18.1267581,10.95957 C20.1214767,9.58106173 22.3082234,8.35580053 24.6812023,7.26811542 C28.91947,5.32654176 33.6092057,3.88011218 39.0054825,2.75353345 C43.6420309,1.78496281 48.5312769,1.10518094 53.8860724,0.646026181 C58.7258795,0.231567565 63.6782426,0.0199195401 68.7517245,-1.79767312e-12 C68.7630067,-1.79767312e-12 68.7739388,0.00331907825 68.7843148,0.00618408262 L68.7842156,-1.79767312e-12 L70.1188061,-1.79767312e-12 Z" id="形状结合" fill-opacity="0.6" fill="#A1A4B3" fill-rule="nonzero"></path>
                <path d="M72.7631183,24.4444444 C73.9904178,24.4444444 74.9853406,25.4393672 74.9853406,26.6666667 L74.9853406,57.348519 C74.9853406,58.5758185 73.9904178,59.5707412 72.7631183,59.5707412 L70.2771111,59.57 L70.2777778,106.744721 L68.6111111,106.744721 L68.6111111,59.57 L65.8333333,59.5707412 C64.6060339,59.5707412 63.6111111,58.5758185 63.6111111,57.348519 L63.6111111,26.6666667 C63.6111111,25.4393672 64.6060339,24.4444444 65.8333333,24.4444444 L72.7631183,24.4444444 Z M70.2777778,-4.92050845e-13 L70.2777778,24.4211397 L68.6111111,24.4211397 L68.6111111,-4.92050845e-13 L70.2777778,-4.92050845e-13 Z" id="形状结合" fill="#000000" opacity="0.600000024"></path>
            </g>
        </g>
    </g>
</svg>