<?xml version="1.0" encoding="UTF-8"?>
<svg width="120px" height="120px" viewBox="0 0 120 120" version="1.1" xmlns="http://www.w3.org/2000/svg" xmlns:xlink="http://www.w3.org/1999/xlink">
    <title>EmptyPage/19 NoContent</title>
    <g id="EmptyPage/19-NoContent" stroke="none" stroke-width="1" fill="none" fill-rule="evenodd">
        <ellipse id="椭圆形" fill="#A1A7B3" opacity="0.15" cx="60" cy="109.870774" rx="23.5074388" ry="2.73195876"></ellipse>
        <g id="balloon" transform="translate(60.170103, 54.500000) rotate(-360.000000) translate(-60.170103, -54.500000) translate(26.670103, 7.000000)" fill="#A1A7B3">
            <path d="M32.4421929,0.00779702331 L32.7618277,0.00482509757 C19.9333059,0.322957718 5.52079638,16.3405679 9.7496445,38.536407 C12.7683777,54.3807491 20.2805965,67.0768407 26.4958379,73.1612883 L26.764,73.4204766 L23.8122393,73.4204766 C22.4518441,72.154694 21.1824528,70.6010079 19.829625,68.8272692 L19.1454505,67.9223763 L19.1454505,67.9223763 L17.3423763,65.5120577 C17.0907882,65.1774947 16.8340559,64.8379185 16.5713718,64.4936432 L14.5435412,61.8560156 L14.5435412,61.8560156 L13.2008945,60.0942822 L13.2008945,60.0942822 L12.1816953,58.7382436 L12.1816953,58.7382436 L11.5002289,57.8193418 L11.5002289,57.8193418 L10.8195364,56.8895759 L10.8195364,56.8895759 L10.1416532,55.9498345 L10.1416532,55.9498345 L9.46861434,55.0010062 L9.46861434,55.0010062 L8.80245501,54.0439796 C8.69211482,53.8838413 8.58214607,53.7233985 8.47259116,53.5626696 L7.82056703,52.5950118 C3.51136965,46.1230497 1.52198254e-11,39.2526389 1.52198254e-11,33.1686003 C1.52198254e-11,15.0928419 14.4591145,0.394190627 32.4421929,0.00779702331 L32.4421929,0.00779702331 Z M33.1686003,-7.10542736e-14 C51.4871124,-7.10542736e-14 66.3372006,14.8500882 66.3372006,33.1686003 C66.3372006,39.0776199 62.9928997,45.621643 58.8047624,51.8411817 L58.1541133,52.7953444 L58.1541133,52.7953444 L57.4921726,53.7436106 L57.4921726,53.7436106 L56.8209636,54.6852039 L56.8209636,54.6852039 L56.1425096,55.6193479 L56.1425096,55.6193479 L55.458834,56.5452663 L55.458834,56.5452663 L54.7719601,57.4621826 L54.7719601,57.4621826 L53.7400786,58.8189798 L53.7400786,58.8189798 L52.7123821,60.151155 L52.7123821,60.151155 L49.722691,63.9737454 L49.722691,63.9737454 C49.3181933,64.4903389 48.9295164,64.9980859 48.5537128,65.4957421 L47.4619746,66.9571947 L47.4619746,66.9571947 L46.0959086,68.7987165 C44.7688074,70.573888 43.537641,72.1411616 42.2137717,73.4209138 L39.3285512,73.4209138 C45.596418,67.2723763 53.3623651,54.0003663 56.5504858,38.536407 C60.9099315,17.3909426 46.3694363,0.343965211 33.5383417,0.00514020996 L33.1686003,-7.10542736e-14 L33.1686003,-7.10542736e-14 Z" id="形状" opacity="0.300000012"></path>
            <path d="M33.0992652,7.57289682e-05 C26.4851423,0.0386631191 17.181171,14.8212528 21.1464232,38.536407 L21.6362995,41.4968544 L21.6362995,41.4968544 L23.4924287,52.9480512 L23.4924287,52.9480512 L23.8953101,55.3619788 L23.8953101,55.3619788 L24.1936358,57.098845 L24.1936358,57.098845 L24.4903271,58.7714068 L24.4903271,58.7714068 L24.687948,59.8501738 L24.687948,59.8501738 L24.8859445,60.8995368 L24.8859445,60.8995368 L25.0847574,61.9191662 L25.0847574,61.9191662 L25.2848275,62.9087323 L25.2848275,62.9087323 L25.4865957,63.8679055 L25.4865957,63.8679055 L25.6905027,64.7963559 L25.6905027,64.7963559 L25.8969893,65.693754 L25.8969893,65.693754 L26.1064964,66.5597701 L26.1064964,66.5597701 L26.3194647,67.3940745 C26.9281946,69.7127007 27.5839115,71.6454953 28.3317336,73.1587144 L28.4646675,73.4216529 L26.7652309,73.4216529 C20.4992858,67.4441821 12.8121275,54.6103773 9.7496445,38.536407 C5.52079638,16.3405679 19.9333059,0.322957718 32.7618277,0.00482509757 L33.0992652,7.57289682e-05 Z M33.1500651,-7.10542736e-14 C46.0737606,-7.10542736e-14 60.9539663,17.177352 56.5504858,38.536407 C53.3621965,54.0011843 45.5955964,67.2737804 39.3275566,73.4215159 L37.5480406,73.4215159 C38.5376535,71.4581998 39.3618737,68.7687004 40.1223294,65.5139311 L40.3604722,64.4675069 C40.4392257,64.1125607 40.5173911,63.751539 40.5950871,63.3846296 L40.8268851,62.2664262 L41.0158163,61.3215959 L41.1604279,60.5794722 L41.1604279,60.5794722 L41.448546,59.0564559 L41.448546,59.0564559 L41.7363893,57.4836471 L41.7363893,57.4836471 L42.0253961,55.8633257 L42.0253961,55.8633257 L42.4642344,53.3487438 L42.4642344,53.3487438 L43.3788927,48.0450311 L43.3788927,48.0450311 L43.8644218,45.2712877 L43.8644218,45.2712877 L44.2018486,43.3822061 L44.2018486,43.3822061 L44.5519462,41.4638487 L44.5519462,41.4638487 L44.9161529,39.518495 L44.9161529,39.518495 L45.1039967,38.536407 C49.1762183,17.406384 39.929081,0.344274039 33.3245227,0.00514484238 L33.1500651,-7.10542736e-14 L33.1500651,-7.10542736e-14 Z" id="形状" opacity="0.5"></path>
            <path d="M33.1252099,0 C39.6747542,0 49.0281091,16.8508097 45.2233368,37.8973615 L44.732196,40.4944039 C44.6715049,40.8186454 44.6114316,41.1418095 44.5519462,41.4638487 L44.2018486,43.3822061 L44.2018486,43.3822061 L43.8644218,45.2712877 L43.8644218,45.2712877 L43.2218268,48.9525047 L43.2218268,48.9525047 L42.3170048,54.1977711 L42.3170048,54.1977711 L41.8806573,56.679283 L41.8806573,56.679283 L41.5924121,58.2761331 L41.5924121,58.2761331 L41.3046112,59.8243306 C41.2085918,60.3320344 41.1124067,60.8312495 41.0158163,61.3215959 L40.8268851,62.2664262 L40.5950871,63.3846296 C40.5173911,63.751539 40.4392257,64.1125607 40.3604722,64.4675069 L40.1223294,65.5139311 C39.3618737,68.7687004 38.5376535,71.4581998 37.5480406,73.4213908 L28.4646675,73.4213908 C27.6612173,71.8715478 26.9640022,69.8490905 26.3194647,67.3940745 L26.1064964,66.5597701 L26.1064964,66.5597701 L25.8969893,65.693754 L25.8969893,65.693754 L25.6905027,64.7963559 L25.6905027,64.7963559 L25.4865957,63.8679055 L25.4865957,63.8679055 L25.2848275,62.9087323 L25.2848275,62.9087323 L25.0847574,61.9191662 L25.0847574,61.9191662 L24.8859445,60.8995368 L24.8859445,60.8995368 L24.687948,59.8501738 L24.687948,59.8501738 L24.3915197,58.2210998 L24.3915197,58.2210998 L24.0944489,56.5269796 L24.0944489,56.5269796 L23.6947836,54.1688928 L23.6947836,54.1688928 L22.8699857,49.1222898 L22.8699857,49.1222898 L21.6362995,41.4968544 L21.6362995,41.4968544 L21.1464232,38.536407 L21.1464232,38.536407 C17.1759835,14.7902276 26.5095087,0 33.1252099,0 Z" id="路径" opacity="0.600000024"></path>
            <path d="M42.4573933,73.4200204 C43.009678,73.4200204 43.4573933,73.8677356 43.4573933,74.4200204 L43.4573933,78.4121342 C43.4573933,78.964419 43.009678,79.4121342 42.4573933,79.4121342 L40.675737,79.4120204 L37.6926299,88.0603757 C38.151831,88.1897628 38.4884161,88.6117328 38.4884161,89.1123164 L38.4884161,89.9382231 C38.4884161,90.4303856 38.1630603,90.8465571 37.7156998,90.9833866 L37.7151368,92.7757896 C37.7151368,93.982845 36.7366252,94.9613566 35.5295698,94.9613566 L31.130224,94.9613566 C29.9231687,94.9613566 28.944657,93.982845 28.944657,92.7757896 L28.944094,90.9833866 C28.4967335,90.8465571 28.1713777,90.4303856 28.1713777,89.9382231 L28.1713777,89.1123164 C28.1713777,88.6473344 28.4617893,88.2501816 28.8711261,88.0923445 L25.876737,79.4120204 L23.842737,79.4121342 C23.2904522,79.4121342 22.842737,78.964419 22.842737,78.4121342 L22.842737,74.4200204 C22.842737,73.8677356 23.2904522,73.4200204 23.842737,73.4200204 L42.4573933,73.4200204 Z M39.358737,79.4120204 L27.193737,79.4120204 L30.1388654,87.9447761 L30.157737,88.0190204 L36.394737,88.0190204 L36.4146677,87.9447761 L39.358737,79.4120204 Z" id="形状结合" opacity="0.300000012"></path>
            <rect id="矩形" opacity="0.300000012" x="28.944657" y="90.9798562" width="8.77047988" height="1.16234974"></rect>
        </g>
        <path d="M25.9080941,46.5997977 C27.0533447,47.1689331 27.9766004,47.7612909 28.6788954,48.3755131 C28.8482678,48.5236451 29.1472916,48.5417757 29.3467838,48.4160091 C29.5462761,48.2902425 29.570693,48.0682039 29.4013206,47.920072 C28.6387074,47.2530958 27.6496504,46.6185202 26.4351839,46.0149877 C26.217701,45.9069089 25.9234032,45.950208 25.7778513,46.1116988 C25.6322995,46.2731896 25.6906112,46.4917189 25.9080941,46.5997977 Z M29.8603698,51.5001447 C30.0412852,52.3981088 29.9359421,53.3432524 29.539526,54.3415448 C29.4600009,54.5418126 29.5721834,54.7634104 29.7900927,54.8364973 C30.008002,54.9095842 30.2491203,54.8064838 30.3286454,54.6062161 C30.7748141,53.4826319 30.895656,52.3984318 30.6863567,51.3595852 C30.6441231,51.149961 30.4249826,51.0114923 30.1968926,51.0503067 C29.9688026,51.0891211 29.8181363,51.2905205 29.8603698,51.5001447 Z M27.2993561,57.6475717 L26.6166585,58.9348023 L26.2248837,59.6867963 L25.9220121,60.2812819 L25.7345966,60.6572348 C25.631576,60.8658937 25.7519785,61.1043215 26.003523,61.1897781 C26.2550675,61.2752348 26.5424992,61.1753597 26.6455198,60.9667008 L26.8307245,60.5951901 L27.1304618,60.0068771 L27.631511,59.0475926 L28.1998146,57.9774389 C28.3096267,57.7711771 28.1970725,57.5301256 27.9484177,57.4390353 C27.699763,57.347945 27.4091682,57.4413099 27.2993561,57.6475717 Z M24.9183839,64.0422498 C24.5489627,65.2750353 24.3806555,66.3228328 24.4359914,67.2187094 C24.4491,67.4309353 24.6373786,67.5926873 24.8565236,67.5799926 C25.0756685,67.5672978 25.2426939,67.3849636 25.2295853,67.1727377 C25.1805053,66.3781407 25.3356541,65.4122607 25.6818956,64.2568272 C25.7430813,64.052646 25.6217642,63.8390896 25.4109263,63.7798357 C25.2000884,63.7205817 24.9795696,63.8380685 24.9183839,64.0422498 Z M25.8421471,69.6975374 C26.6792746,70.5309633 27.7405831,71.0934013 29.0191574,71.3876248 C29.2434999,71.4392501 29.4614491,71.2701694 29.5059606,71.0099723 C29.550472,70.7497752 29.4046902,70.4969932 29.1803477,70.4453679 C28.0355526,70.1819294 27.1049479,69.6887577 26.3816183,68.9686263 C26.2080714,68.7958468 25.9466192,68.8189537 25.7976483,69.0202369 C25.6486775,69.2215202 25.6686003,69.5247579 25.8421471,69.6975374 Z M33.7399717,71.3960149 C34.6907593,71.3300945 35.7238008,71.1749822 36.8394598,70.9309833 C37.0475064,70.8854827 37.1813221,70.6700369 37.1383455,70.4497717 C37.095369,70.2295065 36.8918745,70.0878318 36.6838279,70.1333324 C35.6014842,70.3700451 34.6033203,70.5199206 33.6897001,70.5832641 C33.4777151,70.5979615 33.317121,70.7918166 33.3310031,71.0162515 C33.3448852,71.2406865 33.5279867,71.4107123 33.7399717,71.3960149 Z M40.201662,71.3733595 C41.1679804,70.9659241 42.1820565,70.4904679 43.243964,69.9470122 C43.4505479,69.8412881 43.5575636,69.5181576 43.4829901,69.22528 C43.4084166,68.9324024 43.1804935,68.7806845 42.9739096,68.8864086 C41.9259206,69.4227412 40.9262372,69.8914493 39.9749332,70.292554 C39.7644144,70.3813165 39.6445102,70.6952192 39.7071196,70.9936754 C39.769729,71.2921316 39.9911432,71.4621219 40.201662,71.3733595 Z M46.5707323,67.5632524 C47.5738674,67.28335 48.564493,67.0744598 49.5426987,66.9364282 C49.7558354,66.9063531 49.898413,66.7425024 49.8611547,66.5704574 C49.8238965,66.3984124 49.6209113,66.283323 49.4077746,66.3133981 C48.3877584,66.4573295 47.3567194,66.6747415 46.3147471,66.9654805 C46.1102513,67.0225405 46.0017788,67.2026126 46.0724672,67.3676827 C46.1431555,67.5327529 46.3662364,67.6203124 46.5707323,67.5632524 Z M52.789039,67.1800825 C53.7930878,67.1972872 54.7838499,67.3274219 55.7617095,67.5705239 C55.9686746,67.6219767 56.1731726,67.4731045 56.2184687,67.2380085 C56.2637648,67.0029125 56.1327063,66.7706188 55.9257412,66.719166 C54.8977411,66.4635988 53.855903,66.3267552 52.8006112,66.3086725 C52.5887716,66.3050426 52.414451,66.4971717 52.4112554,66.7378049 C52.4080598,66.9784381 52.5771993,67.1764525 52.789039,67.1800825 Z M59.0265989,68.4264825 C60.008968,68.868308 60.9796498,69.4110455 61.9387103,70.0549411 C62.1345618,70.1864321 62.3952395,70.1269575 62.5209504,69.9221007 C62.6466612,69.7172439 62.589801,69.4445801 62.3939495,69.3130891 C61.3965489,68.6434527 60.3850461,68.0778908 59.3595071,67.6166495 C59.1457084,67.5204924 58.8978663,67.6238291 58.8059362,67.8474583 C58.7140061,68.0710875 58.8128002,68.3303254 59.0265989,68.4264825 Z M65.3044893,72.292961 C66.2482011,73.1257437 67.1816792,74.0464501 68.1048474,75.0551581 C68.2910171,75.2585782 68.6005447,75.2665702 68.7961965,75.0730087 C68.9918484,74.8794473 68.9995352,74.5576302 68.8133655,74.3542102 C67.8667121,73.3198408 66.9080695,72.3743143 65.9373615,71.5177086 C65.7314567,71.3360069 65.4228646,71.3622549 65.2481018,71.5763349 C65.0733389,71.790415 65.0985845,72.1112594 65.3044893,72.292961 Z M69.0831312,77.3307019 C70.0057659,78.3208409 70.9563726,79.2674369 71.9349418,80.1704647 C72.13716,80.3570724 72.4505677,80.342446 72.6349577,80.1377956 C72.8193476,79.9331452 72.804895,79.6159678 72.6026769,79.42936 C71.6425854,78.5433836 70.7097387,77.6144727 69.8041271,76.6426022 C69.6163719,76.44111 69.3027658,76.4318046 69.1036683,76.6218181 C68.9045708,76.8118316 68.895376,77.1292097 69.0831312,77.3307019 Z M74.209692,82.2577095 C75.166158,82.8914213 76.1489327,83.4904852 77.1579944,84.0548851 C77.3651006,84.1707261 77.6431519,84.1215091 77.7790394,83.9449558 C77.9149269,83.7684025 77.8571928,83.5313701 77.6500866,83.4155291 C76.6610519,82.8623309 75.6977508,82.2751374 74.7601615,81.6539325 C74.5645804,81.5243492 74.2828038,81.5544612 74.1307959,81.7211896 C73.9787879,81.887918 74.0141109,82.1281261 74.209692,82.2577095 Z M80.6134234,84.9770525 C81.5935773,85.5663003 82.5977981,86.1144614 83.6260611,86.6215293 C83.8358778,86.7249963 84.0822634,86.621882 84.1763787,86.3912171 C84.270494,86.1605521 84.1766995,85.8896847 83.9668828,85.7862177 C82.9585258,85.288966 81.9738964,84.7514991 81.0129697,84.1738103 C80.8112084,84.0525156 80.558207,84.1339987 80.4478753,84.3558079 C80.3375436,84.5776172 80.4116621,84.8557578 80.6134234,84.9770525 Z M87.0194095,88.4904582 C88.0145353,88.7496432 89.0312092,88.9845359 90.0694128,89.19514 C90.2803258,89.2379246 90.499276,89.1489889 90.5584516,88.9964966 C90.6176273,88.8440042 90.4946198,88.685701 90.2837068,88.6429164 C89.2638052,88.436025 88.2653302,88.2053369 87.2882636,87.9508556 C87.0821709,87.8971778 86.8549147,87.9744576 86.7806727,88.1234647 C86.7064307,88.2724719 86.8133168,88.4367805 87.0194095,88.4904582 Z M93.4249476,89.950011 C94.4283827,90.1536508 95.4508576,90.3283345 96.4923629,90.4740704 C96.7035239,90.5036177 96.8993116,90.360948 96.9296671,90.1554087 C96.9600226,89.9498694 96.8134508,89.759294 96.6022899,89.7297466 C95.5766813,89.5862352 94.5701301,89.414272 93.5826268,89.2138654 C93.373786,89.1714827 93.1691893,89.3019165 93.1256474,89.5051975 C93.0821055,89.7084785 93.2161068,89.9076283 93.4249476,89.950011 Z" id="路径-24" fill="#A1A7B3" opacity="0.300000012" transform="translate(60.679663, 68.216726) scale(-1, 1) rotate(-5.000000) translate(-60.679663, -68.216726) "></path>
        <path d="M34.1306761,68.4785929 C32.9105364,70.2858783 32.0134713,71.3719706 31.4394808,71.73687 C29.8091396,72.7733164 28.338775,73.0060494 27.3419942,73.0060494 C25.0572205,73.0060494 29.7661381,72.4701688 31.4394808,70.6550185 C32.5550425,69.4449183 33.8753138,67.6140476 35.4002946,65.1624065 L34.1306761,65.1624065 L32.7279816,66.87468 C32.2896869,66.3350704 31.7228887,66.0652656 31.0275871,66.0652656 C29.9846347,66.0652656 27.2907419,66.5101145 26.2589521,69.3757488 C25.5710923,71.2861716 24.1573081,72.9678819 22.0175994,74.4208796 C25.1091196,75.9545993 28.1124489,75.9545993 31.0275871,74.4208796 C33.9427254,72.8871598 34.9770884,70.9063976 34.1306761,68.4785929 Z" id="路径-14" fill="#A1A7B3" opacity="0.400000006"></path>
        <path d="M109.344928,43.4123929 C108.531501,44.6172498 107.933458,45.3413113 107.550797,45.5845776 C106.463903,46.2755419 105.48366,46.4306972 104.81914,46.4306972 C103.295957,46.4306972 106.435235,46.0734434 107.550797,44.8633432 C108.294505,44.0566098 109.174686,42.8360293 110.19134,41.2016019 L109.344928,41.2016019 L108.409798,42.3431176 C108.117601,41.9833778 107.739736,41.803508 107.276202,41.803508 C106.5809,41.803508 104.784971,42.1000739 104.097112,44.0104968 C103.638538,45.284112 102.696015,46.4052522 101.269543,47.3739173 C103.330557,48.3963971 105.332776,48.3963971 107.276202,47.3739173 C109.219627,46.3514375 109.909202,45.0309293 109.344928,43.4123929 Z" id="路径-14备份-3" fill="#A1A7B3" opacity="0.400000006" transform="translate(105.730441, 44.671190) rotate(-285.000000) translate(-105.730441, -44.671190) "></path>
        <path d="M46.59068,58.1355734 C45.9128246,59.1683079 45.4144551,59.7889321 45.0955715,59.997446 C44.1898264,60.5897011 43.3729571,60.7226914 42.81919,60.7226914 C41.5498713,60.7226914 44.1659366,60.4164739 45.0955715,59.3792452 C45.715328,58.6877593 46.448812,57.6415475 47.2960236,56.2406097 L46.59068,56.2406097 L45.8114053,57.2190518 C45.5679082,56.9107034 45.2530203,56.7565292 44.8667417,56.7565292 C44.2873237,56.7565292 42.7907165,57.0107286 42.2175,58.6482339 C41.8353556,59.7399041 41.04992,60.7008814 39.8611929,61.5311658 C41.5787042,62.4075771 43.2472204,62.4075771 44.8667417,61.5311658 C46.4862629,60.6547545 47.060909,59.5228904 46.59068,58.1355734 Z" id="路径-14备份" fill="#A1A7B3" opacity="0.6" transform="translate(43.578608, 59.214542) rotate(-62.000000) translate(-43.578608, -59.214542) "></path>
        <path d="M25.6320855,36.4931155 C24.818659,37.7840336 24.2206156,38.5598139 23.8379553,38.8204563 C22.7510612,39.5607752 21.7708181,39.727013 21.1062975,39.727013 C19.5831151,39.727013 22.7223935,39.3442411 23.8379553,38.0477052 C24.5816631,37.1833479 25.461844,35.8755832 26.4784978,34.1244109 L25.6320855,34.1244109 L24.6969558,35.3474635 C24.4047594,34.962028 24.0268939,34.7693103 23.5633595,34.7693103 C22.8680579,34.7693103 21.0721293,35.0870595 20.3842695,37.1339411 C19.9256963,38.4985289 18.9831735,39.6997505 17.556701,40.737606 C19.6177145,41.8331201 21.619934,41.8331201 23.5633595,40.737606 C25.506785,39.6420919 26.1963604,38.2272617 25.6320855,36.4931155 Z" id="路径-14备份-2" fill="#A1A7B3" opacity="0.600000024" transform="translate(22.017599, 37.841826) rotate(80.000000) translate(-22.017599, -37.841826) "></path>
    </g>
</svg>