<?xml version="1.0" encoding="UTF-8"?>
<svg width="180px" height="180px" viewBox="0 0 32 32" version="1.1" xmlns="http://www.w3.org/2000/svg" xmlns:xlink="http://www.w3.org/1999/xlink">
    <title>编组 28备份 3</title>
    <g id="首页" stroke="none" stroke-width="1" fill="none" fill-rule="evenodd">
        <g id="编组-28备份-3">
            <circle id="椭圆形" fill="#7655FF" cx="16" cy="16" r="16"></circle>
            <g id="Public/ic_photo_filled" transform="translate(6.000000, 6.000000)">
                <g id="symbol/frame/symbol_grid24-copy" transform="translate(-0.014731, -0.014731)"></g>
                <g id="编组" transform="translate(2.500000, 2.500000)" fill="#FFFFFF">
                    <path d="M10.0385839,12.9174574 C9.74460482,14.0106112 8.74655016,14.8152583 7.56056012,14.8152583 C6.37457008,14.8152583 5.37651543,14.0106112 5.08253638,12.9174574 Z M7.56056012,9.6835443 C8.92176944,9.6835443 10.0354097,10.7435133 10.1211132,12.0830836 L5.00000699,12.0830836 C5.08571051,10.7435133 6.1993508,9.6835443 7.56056012,9.6835443 Z" id="形状结合" opacity="0.6"></path>
                    <path d="M7.50913847,0 C10.0119695,4.5976261e-16 12.1279676,1.85330011 12.4578099,4.33430141 L13.207,9.975 L13.9470031,9.97578841 C14.4897266,9.97572806 14.9365872,10.3863117 14.9938091,10.9138289 L15,11.0285511 C15,11.6102413 14.5285762,12.0817175 13.9470031,12.0817822 L1.05299689,12.0832162 C0.510273405,12.0832766 0.0634128086,11.6726929 0.0061909207,11.1451757 L0,11.0303364 C-7.12221601e-17,10.4487634 0.471423825,9.9772871 1.05299689,9.97722242 L1.81,9.977 L2.56046702,4.33430141 C2.88031412,1.92848197 4.87970527,0.11289762 7.28271297,0.00507140586 Z" id="形状结合"></path>
                </g>
            </g>
        </g>
    </g>
</svg>