<svg xmlns="http://www.w3.org/2000/svg" xmlns:xlink="http://www.w3.org/1999/xlink" width="312" height="108" viewBox="0 0 312 108"><defs><rect id="a" width="312" height="108" x="0" y="0"/></defs><g fill="none" fill-rule="evenodd"><mask id="b" fill="#fff"><use xlink:href="#a"/></mask><use xlink:href="#a" fill="#D8D8D8" fill-opacity="0"/><g mask="url(#b)"><g transform="rotate(90 147.5 148)"><path fill="#505259" d="M166.642243,-8.74071875e-15 C171.634748,5.07860931e-15 173.445151,0.519823422 175.270336,1.49594314 C177.095521,2.47206286 178.527937,3.90447887 179.504057,5.72966406 C180.480177,7.55484925 181,9.36525218 181,14.3577571 L181,265.642243 C181,270.634748 180.480177,272.445151 179.504057,274.270336 C178.527937,276.095521 177.095521,277.527937 175.270336,278.504057 C173.445151,279.480177 171.634748,280 166.642243,280 L14.3577571,280 C9.36525218,280 7.55484925,279.480177 5.72966406,278.504057 C3.90447887,277.527937 2.47206286,276.095521 1.49594314,274.270336 C0.519823422,272.445151 5.49912338e-15,270.634748 -9.46445924e-15,265.642243 L3.86713715e-16,14.3577571 C-2.24691805e-16,9.36525218 0.519823422,7.55484925 1.49594314,5.72966406 C2.47206286,3.90447887 3.90447887,2.47206286 5.72966406,1.49594314 C7.55484925,0.519823422 9.36525218,-3.35123954e-15 14.3577571,5.7677684e-15 L166.642243,-8.74071875e-15 Z M165.667302,5.83333333 L15.4105478,5.83333333 C12.0822111,5.83333333 10.8752758,6.17988228 9.65848572,6.83062876 C8.44169559,7.48137524 7.48675158,8.43631925 6.8360051,9.65310937 C6.18525863,10.8698995 5.83870968,12.0768348 5.83870968,15.4051714 L5.83870968,15.4051714 L5.83870968,265.061495 C5.83870968,268.389832 6.18525863,269.596767 6.8360051,270.813557 C7.48675158,272.030347 8.44169559,272.985291 9.65848572,273.636038 C10.8752758,274.286784 12.0822111,274.633333 15.4105478,274.633333 L15.4105478,274.633333 L165.667302,274.633333 C168.995638,274.633333 170.202574,274.286784 171.419364,273.636038 C172.636154,272.985291 173.591098,272.030347 174.241844,270.813557 C174.892591,269.596767 175.23914,268.389832 175.23914,265.061495 L175.23914,265.061495 L175.23914,15.4051714 C175.23914,12.0768348 174.892591,10.8698995 174.241844,9.65310937 C173.591098,8.43631925 172.636154,7.48137524 171.419364,6.83062876 C170.202574,6.17988228 168.995638,5.83333333 165.667302,5.83333333 L165.667302,5.83333333 Z"/><path fill="#FFF" d="M15.4105478,5.83333333 L165.667302,5.83333333 C168.995638,5.83333333 170.202574,6.17988228 171.419364,6.83062876 C172.636154,7.48137524 173.591098,8.43631925 174.241844,9.65310937 C174.892591,10.8698995 175.23914,12.0768348 175.23914,15.4051714 L175.23914,265.061495 C175.23914,268.389832 174.892591,269.596767 174.241844,270.813557 C173.591098,272.030347 172.636154,272.985291 171.419364,273.636038 C170.202574,274.286784 168.995638,274.633333 165.667302,274.633333 L15.4105478,274.633333 C12.0822111,274.633333 10.8752758,274.286784 9.65848572,273.636038 C8.44169559,272.985291 7.48675158,272.030347 6.8360051,270.813557 C6.18525863,269.596767 5.83870968,268.389832 5.83870968,265.061495 L5.83870968,15.4051714 C5.83870968,12.0768348 6.18525863,10.8698995 6.8360051,9.65310937 C7.48675158,8.43631925 8.44169559,7.48137524 9.65848572,6.83062876 C10.8752758,6.17988228 12.0822111,5.83333333 15.4105478,5.83333333 Z" opacity=".1"/></g></g><g mask="url(#b)"><g transform="translate(39 10.187)"><path fill="#505259" fill-rule="nonzero" d="M5.06480268,4.19815385 C5.06480268,5.57169231 4.84621645,6.61107692 4.40904401,7.31630769 C3.97187157,8.02153846 3.34454689,8.37415385 2.52706997,8.37415385 C1.71670154,8.37415385 1.0929311,8.01969231 0.655758662,7.31076923 C0.218586221,6.60184615 0,5.56430769 0,4.19815385 C0,2.82461538 0.218586221,1.78153846 0.655758662,1.06892308 C1.0929311,0.356307692 1.71670154,0 2.52706997,0 C3.34454689,0 3.97187157,0.354461538 4.40904401,1.06338462 C4.84621645,1.77230769 5.06480268,2.81723077 5.06480268,4.19815385 Z M1.01296054,4.19815385 C1.01296054,5.29846154 1.13558207,6.11815385 1.38082515,6.65723077 C1.62606823,7.19630769 2.00814983,7.46584615 2.52706997,7.46584615 C3.0459901,7.46584615 3.42984883,7.19815385 3.67864615,6.66276923 C3.92744348,6.12738462 4.05184214,5.30584615 4.05184214,4.19815385 C4.05184214,3.08307692 3.92744348,2.25415385 3.67864615,1.71138462 C3.42984883,1.16861538 3.0459901,0.897230769 2.52706997,0.897230769 C2.00814983,0.897230769 1.62606823,1.16861538 1.38082515,1.71138462 C1.13558207,2.25415385 1.01296054,3.08307692 1.01296054,4.19815385 Z M9.83104856,3.84369231 C10.2362328,4.03569231 10.5543379,4.31630769 10.785364,4.68553846 C11.0163901,5.05476923 11.1319031,5.47938462 11.1319031,5.95938462 C11.1319031,6.41723077 11.0270528,6.82892308 10.8173522,7.19446154 C10.6076516,7.56 10.3126491,7.848 9.93234462,8.05846154 C9.55204013,8.26892308 9.11664482,8.37415385 8.62615866,8.37415385 C8.12145552,8.37415385 7.67717458,8.27076923 7.29331585,8.064 C6.90945712,7.85723077 6.61090033,7.56923077 6.39764548,7.2 C6.18439064,6.83076923 6.07776321,6.41723077 6.07776321,5.95938462 C6.07776321,5.47938462 6.19327625,5.05476923 6.42430234,4.68553846 C6.65532843,4.31630769 6.97698783,4.03569231 7.38928054,3.84369231 C7.06228977,3.66646154 6.80638395,3.42830769 6.62156308,3.12923077 C6.43674221,2.83015385 6.34433177,2.49230769 6.34433177,2.11569231 C6.34433177,1.73169231 6.44029645,1.37723077 6.63222582,1.05230769 C6.82415518,0.727384615 7.09427799,0.470769231 7.44259425,0.282461538 C7.7909105,0.0941538462 8.18543197,0 8.62615866,0 C9.05977686,0 9.44541271,0.0941538462 9.78306622,0.282461538 C10.1207197,0.470769231 10.3819569,0.725538462 10.5667778,1.04676923 C10.7515987,1.368 10.8440091,1.72430769 10.8440091,2.11569231 C10.8440091,2.49230769 10.7551529,2.83015385 10.5774405,3.12923077 C10.3997282,3.42830769 10.1509308,3.66646154 9.83104856,3.84369231 Z M8.62615866,0.864 C8.22808294,0.864 7.91353204,0.982153846 7.68250595,1.21846154 C7.45147987,1.45476923 7.33596682,1.76492308 7.33596682,2.14892308 C7.33596682,2.52553846 7.45147987,2.832 7.68250595,3.06830769 C7.91353204,3.30461538 8.22808294,3.42276923 8.62615866,3.42276923 C9.01712589,3.42276923 9.32634542,3.30276923 9.55381726,3.06276923 C9.7812891,2.82276923 9.89502502,2.51815385 9.89502502,2.14892308 C9.89502502,1.77230769 9.7812891,1.464 9.55381726,1.224 C9.32634542,0.984 9.01712589,0.864 8.62615866,0.864 Z M8.62615866,7.488 C9.08110234,7.488 9.44718983,7.34769231 9.72442114,7.06707692 C10.0016524,6.78646154 10.1402681,6.40615385 10.1402681,5.92615385 C10.1402681,5.43876923 10.0052067,5.05107692 9.73508388,4.76307692 C9.46496107,4.47507692 9.09531933,4.33107692 8.62615866,4.33107692 C8.1498895,4.33107692 7.77491639,4.47507692 7.50123933,4.76307692 C7.22756227,5.05107692 7.09072375,5.43876923 7.09072375,5.92615385 C7.09072375,6.41353846 7.2293394,6.79569231 7.5065707,7.07261538 C7.78380201,7.34953846 8.15699799,7.488 8.62615866,7.488 Z M13.1578242,2.70276923 C12.9943288,2.70276923 12.8539361,2.64 12.7366459,2.51446154 C12.6193557,2.38892308 12.5607106,2.23753846 12.5607106,2.06030769 C12.5607106,1.88307692 12.6193557,1.73169231 12.7366459,1.60615385 C12.8539361,1.48061538 12.9943288,1.41784615 13.1578242,1.41784615 C13.3284281,1.41784615 13.4723751,1.48061538 13.5896653,1.60615385 C13.7069555,1.73169231 13.7656005,1.88307692 13.7656005,2.06030769 C13.7656005,2.23753846 13.7069555,2.38892308 13.5896653,2.51446154 C13.4723751,2.64 13.3284281,2.70276923 13.1578242,2.70276923 Z M13.1578242,6.97846154 C12.9943288,6.97846154 12.8539361,6.91569231 12.7366459,6.79015385 C12.6193557,6.66461538 12.5607106,6.51323077 12.5607106,6.336 C12.5607106,6.15876923 12.6193557,6.00738462 12.7366459,5.88184615 C12.8539361,5.75630769 12.9943288,5.69353846 13.1578242,5.69353846 C13.3284281,5.69353846 13.4723751,5.75630769 13.5896653,5.88184615 C13.7069555,6.00738462 13.7656005,6.15876923 13.7656005,6.336 C13.7656005,6.51323077 13.7069555,6.66461538 13.5896653,6.79015385 C13.4723751,6.91569231 13.3284281,6.97846154 13.1578242,6.97846154 Z M20.2592107,4.19815385 C20.2592107,5.57169231 20.0406245,6.61107692 19.603452,7.31630769 C19.1662796,8.02153846 18.5389549,8.37415385 17.721478,8.37415385 C16.9111096,8.37415385 16.2873391,8.01969231 15.8501667,7.31076923 C15.4129942,6.60184615 15.194408,5.56430769 15.194408,4.19815385 C15.194408,2.82461538 15.4129942,1.78153846 15.8501667,1.06892308 C16.2873391,0.356307692 16.9111096,0 17.721478,0 C18.5389549,0 19.1662796,0.354461538 19.603452,1.06338462 C20.0406245,1.77230769 20.2592107,2.81723077 20.2592107,4.19815385 Z M16.2073686,4.19815385 C16.2073686,5.29846154 16.3299901,6.11815385 16.5752332,6.65723077 C16.8204763,7.19630769 17.2025579,7.46584615 17.721478,7.46584615 C18.2403981,7.46584615 18.6242569,7.19815385 18.8730542,6.66276923 C19.1218515,6.12738462 19.2462502,5.30584615 19.2462502,4.19815385 C19.2462502,3.08307692 19.1218515,2.25415385 18.8730542,1.71138462 C18.6242569,1.16861538 18.2403981,0.897230769 17.721478,0.897230769 C17.2025579,0.897230769 16.8204763,1.16861538 16.5752332,1.71138462 C16.3299901,2.25415385 16.2073686,3.08307692 16.2073686,4.19815385 Z M25.0254566,3.84369231 C25.4306408,4.03569231 25.748746,4.31630769 25.979772,4.68553846 C26.2107981,5.05476923 26.3263112,5.47938462 26.3263112,5.95938462 C26.3263112,6.41723077 26.2214609,6.82892308 26.0117603,7.19446154 C25.8020597,7.56 25.5070571,7.848 25.1267526,8.05846154 C24.7464482,8.26892308 24.3110528,8.37415385 23.8205667,8.37415385 C23.3158635,8.37415385 22.8715826,8.27076923 22.4877239,8.064 C22.1038652,7.85723077 21.8053084,7.56923077 21.5920535,7.2 C21.3787987,6.83076923 21.2721712,6.41723077 21.2721712,5.95938462 C21.2721712,5.47938462 21.3876843,5.05476923 21.6187104,4.68553846 C21.8497365,4.31630769 22.1713959,4.03569231 22.5836886,3.84369231 C22.2566978,3.66646154 22.000792,3.42830769 21.8159711,3.12923077 C21.6311502,2.83015385 21.5387398,2.49230769 21.5387398,2.11569231 C21.5387398,1.73169231 21.6347045,1.37723077 21.8266338,1.05230769 C22.0185632,0.727384615 22.288686,0.470769231 22.6370023,0.282461538 C22.9853185,0.0941538462 23.37984,0 23.8205667,0 C24.2541849,0 24.6398207,0.0941538462 24.9774742,0.282461538 C25.3151278,0.470769231 25.5763649,0.725538462 25.7611858,1.04676923 C25.9460067,1.368 26.0384171,1.72430769 26.0384171,2.11569231 C26.0384171,2.49230769 25.9495609,2.83015385 25.7718486,3.12923077 C25.5941362,3.42830769 25.3453389,3.66646154 25.0254566,3.84369231 Z M23.8205667,0.864 C23.422491,0.864 23.1079401,0.982153846 22.876914,1.21846154 C22.6458879,1.45476923 22.5303748,1.76492308 22.5303748,2.14892308 C22.5303748,2.52553846 22.6458879,2.832 22.876914,3.06830769 C23.1079401,3.30461538 23.422491,3.42276923 23.8205667,3.42276923 C24.2115339,3.42276923 24.5207534,3.30276923 24.7482253,3.06276923 C24.9756971,2.82276923 25.089433,2.51815385 25.089433,2.14892308 C25.089433,1.77230769 24.9756971,1.464 24.7482253,1.224 C24.5207534,0.984 24.2115339,0.864 23.8205667,0.864 Z M23.8205667,7.488 C24.2755104,7.488 24.6415979,7.34769231 24.9188292,7.06707692 C25.1960605,6.78646154 25.3346761,6.40615385 25.3346761,5.92615385 C25.3346761,5.43876923 25.1996147,5.05107692 24.9294919,4.76307692 C24.6593691,4.47507692 24.2897274,4.33107692 23.8205667,4.33107692 C23.3442975,4.33107692 22.9693244,4.47507692 22.6956474,4.76307692 C22.4219703,5.05107692 22.2851318,5.43876923 22.2851318,5.92615385 C22.2851318,6.41353846 22.4237474,6.79569231 22.7009787,7.07261538 C22.97821,7.34953846 23.351406,7.488 23.8205667,7.488 Z" transform="translate(0 .819)"/><path fill="#505259" d="M6.1604587 7.56335404C5.57187532 7.56335404 5.09418445 8.02494783 5.09418445 8.59426211 5.09418445 9.16426398 5.57187532 9.62608696 6.1604587 9.62608696 6.74951599 9.62608696 7.22673295 9.16426398 7.22673295 8.59426211 7.22673295 8.02494783 6.74951599 7.56335404 6.1604587 7.56335404M6.1604587 5.04670528C7.04783583 5.04670528 7.93236955 5.35107298 8.6391909 5.95224503L8.57062531 5.89540406C8.73524795 5.9974118 8.8441999 6.17501666 8.8441999 6.37709925 8.8441999 6.69361416 8.57692049 6.95008062 8.24708632 6.95008062 8.09614035 6.95008062 7.95826475 6.89629 7.85314685 6.80757543 7.38359374 6.41246366 6.79050831 6.19266801 6.16069565 6.19266801 5.60360027 6.19266801 5.0753367 6.36452281 4.63764583 6.67909697L4.47787794 6.80369534C4.36950222 6.89377105 4.22874482 6.95008062 4.07430498 6.95008062 3.74447082 6.95008062 3.47719141 6.69361416 3.47719141 6.37709925 3.47719141 6.17501666 3.58614335 5.9974118 3.75076599 5.89540406 4.44563605 5.33174296 5.30215304 5.04670528 6.1604587 5.04670528ZM6.1604587 2.52918559C7.56743522 2.52918559 8.9737925 2.97480924 10.1323619 3.86419313L10.376744 4.06156696 10.4091825 4.08914455C10.5172316 4.19282553 10.5840514 4.33607087 10.5840514 4.49432832 10.5840514 4.81084323 10.316772 5.06730969 9.98693786 5.06730969 9.83332937 5.06730969 9.69328838 5.01168473 9.58749384 4.92027474L9.58367294 4.92447689C8.63705835 4.11955267 7.4357227 3.67514832 6.1604587 3.67514832 4.97958536 3.67514832 3.86163912 4.05615988 2.95099334 4.75138741L2.74458991 4.91737193C2.63476123 5.00892117 2.49157082 5.06730969 2.3341928 5.06730969 2.00459559 5.06730969 1.73731617 4.81084323 1.73731617 4.49432832 1.73731617 4.35304341 1.7905722 4.22372328 1.87885464 4.12383767L1.95175577 4.05492037C3.15285447 3.03868062 4.65606421 2.52918559 6.1604587 2.52918559ZM6.1604587 0C8.17897197 0 10.1964219.648783786 11.8475411 1.94303847L12.1192731 2.1647236C12.2434526 2.26841471 12.3213913 2.42182263 12.3213913 2.59274068 12.3213913 2.90925559 12.0541119 3.16572205 11.7242777 3.16572205 11.5733318 3.16572205 11.4354562 3.11193143 11.3303383 3.02321686 9.90165961 1.81062112 8.08449134 1.14596273 6.1604587 1.14596273 4.35272661 1.14596273 2.63986629 1.73289867 1.25478518 2.8102755L.998980495 3.01800745C.891452406 3.10975531.751082564 3.16572205.597113579 3.16572205.267279411 3.16572205 0 2.90925559 0 2.59274068 0 2.43448323.0668198528 2.29123789.174868977 2.18755691L.209463652 2.1585354C1.90697225.720810559 4.03288615 0 6.1604587 0ZM32.8924105.770086957C33.6485789.770086957 34.261454 1.36884983 34.261454 2.10760641L34.261454 2.10760641 34.261454 7.90352403C34.261454 8.6422806 33.6485789 9.24104348 32.8924105 9.24104348L32.8924105 9.24104348 19.2019757 9.24104348C18.4458074 9.24104348 17.8329323 8.6422806 17.8329323 7.90352403L17.8329323 7.90352403 17.8329323 2.10760641C17.8329323 1.36884983 18.4458074.770086957 19.2019757.770086957L19.2019757.770086957ZM32.8924105 1.21592677 19.2019757 1.21592677C18.6986241 1.21592677 18.2892801 1.61584509 18.2892801 2.10760641L18.2892801 2.10760641 18.2892801 7.90352403C18.2892801 8.39528535 18.6986241 8.79520366 19.2019757 8.79520366L19.2019757 8.79520366 32.8924105 8.79520366C33.3957622 8.79520366 33.8051062 8.39528535 33.8051062 7.90352403L33.8051062 7.90352403 33.8051062 2.10760641C33.8051062 1.61584509 33.3957622 1.21592677 32.8924105 1.21592677L32.8924105 1.21592677ZM32.6642366 1.8846865C32.9163688 1.8846865 33.1205844 2.08442274 33.1205844 2.33052632L33.1205844 7.68060412C33.1205844 7.9267077 32.9163688 8.12644394 32.6642366 8.12644394L19.4301496 8.12644394C19.1782456 8.12644394 18.9738018 7.9267077 18.9738018 7.68060412L18.9738018 2.33052632C18.9738018 2.08442274 19.1782456 1.8846865 19.4301496 1.8846865L32.6642366 1.8846865ZM35.6304975 2.33052632C36.0085816 2.33052632 36.3150192 2.62990775 36.3150192 2.99928604L36.3150192 7.01184439C36.3150192 7.38122268 36.0085816 7.68060412 35.6304975 7.68060412 35.2524133 7.68060412 34.9459757 7.38122268 34.9459757 7.01184439L34.9459757 2.99928604C34.9459757 2.62990775 35.2524133 2.33052632 35.6304975 2.33052632Z" transform="translate(195.685)"/></g></g></g></svg>