<?xml version="1.0" encoding="UTF-8"?>
<svg width="312px"
     height="96px"
     viewBox="0 0 312 96"
     version="1.1"
     xmlns="http://www.w3.org/2000/svg"
     xmlns:xlink="http://www.w3.org/1999/xlink">
    <title>画板</title>
    <defs>
        <polygon
            id="path-1"
            points="0 0 312 0 312 96 0 96"></polygon>
    </defs>
    <g
        id="画板"
        stroke="none"
        stroke-width="1"
        fill="none"
        fill-rule="evenodd">
        <g id="手机170">
            <mask
                id="mask-2"
                fill="white">
                <use xlink:href="#path-1"></use>
            </mask>
            <g id="蒙版"></g>
            <g
                id="编组"
                mask="url(#mask-2)">
                <g transform="translate(62.000000, 0.000000)">
                    <g id="编组-8备份-2">
                        <path
                            d="M175.722148,3.20559245 C179.63326,5.29727756 182.702722,8.36674045 184.794408,12.2778516 C186.886093,16.1889627 188,20.0683975 188,30.7666224 L188,366.245142 C188,376.943367 186.886093,380.822802 184.794408,384.733913 C182.702722,388.645024 179.63326,391.714487 175.722148,393.806172 C171.811037,395.897857 167.931602,397.011765 157.233378,397.011765 L30.7666224,397.011765 C20.0683975,397.011765 16.1889627,395.897857 12.2778516,393.806172 C8.36674045,391.714487 5.29727756,388.645024 3.20559245,384.733913 C1.14935962,380.889092 0.0380404605,377.074883 0.000959326263,366.783277 L4.4560088e-15,30.7666224 C-2.58906944e-15,20.0683975 1.11390733,16.1889627 3.20559245,12.2778516 C5.29727756,8.36674045 8.36674045,5.29727756 12.2778516,3.20559245 C16.1226726,1.14935962 19.9368822,0.0380404605 30.2284881,0.000959326263 L157.233378,-2.95329134e-15 C167.931602,1.71594732e-15 171.811037,1.11390733 175.722148,3.20559245 Z M156.820011,8.00095834 L31.1799886,8.00095834 C21.9368526,8.03608478 18.5072093,9.03613297 15.0500664,10.8850332 C11.5300664,12.7675498 8.7675498,15.5300664 6.8850332,19.0500664 C5.0025166,22.5700664 4,26.0615578 4,35.6899602 L4,358.91004 C4,368.538442 5.0025166,372.029934 6.8850332,375.549934 C8.7675498,379.069934 11.5300664,381.83245 15.0500664,383.714967 C18.5700664,385.597483 22.0615578,386.6 31.6899602,386.6 L156.31004,386.6 C165.938442,386.6 169.429934,385.597483 172.949934,383.714967 C176.469934,381.83245 179.23245,379.069934 181.114967,375.549934 C182.997483,372.029934 184,368.538442 184,358.91004 L184,35.6899602 C184,26.0615578 182.997483,22.5700664 181.114967,19.0500664 C179.23245,15.5300664 176.469934,12.7675498 172.949934,10.8850332 C169.429934,9.0025166 165.938442,8 156.31004,8 Z"
                            id="形状结合"
                            fill="#505259"></path>
                        <path
                            d="M31.6899602,8 L156.31004,8 C165.938442,8 169.429934,9.0025166 172.949934,10.8850332 C176.469934,12.7675498 179.23245,15.5300664 181.114967,19.0500664 C182.997483,22.5700664 184,26.0615578 184,35.6899602 L184,358.91004 C184,368.538442 182.997483,372.029934 181.114967,375.549934 C179.23245,379.069934 176.469934,381.83245 172.949934,383.714967 C169.429934,385.597483 165.938442,386.6 156.31004,386.6 L31.6899602,386.6 C22.0615578,386.6 18.5700664,385.597483 15.0500664,383.714967 C11.5300664,381.83245 8.7675498,379.069934 6.8850332,375.549934 C5.0025166,372.029934 4,368.538442 4,358.91004 L4,35.6899602 C4,26.0615578 5.0025166,22.5700664 6.8850332,19.0500664 C8.7675498,15.5300664 11.5300664,12.7675498 15.0500664,10.8850332 C18.5700664,9.0025166 22.0615578,8 31.6899602,8 Z"
                            id="矩形"
                            fill="#FFFFFF"
                            opacity="0.102485003"></path>
                    </g>
                    <g
                        id="Bars/Status-Bar/Transparent-with-Black"
                        transform="translate(20.458585, 16.478750)"
                        fill="#505259">
                        <g
                            id="right"
                            transform="translate(0.000000, 0.690000)">
                            <g
                                id="r-r"
                                transform="translate(0.000000, 0.177215)"
                                fill-rule="nonzero">
                                <path
                                    d="M4.53807692,3.62090769 C4.53807692,4.80558462 4.34222308,5.70205385 3.95051538,6.31031538 C3.55880769,6.91857692 2.99672308,7.22270769 2.26426154,7.22270769 C1.53816923,7.22270769 0.979269231,6.91698462 0.587561538,6.30553846 C0.195853846,5.69409231 0,4.79921538 0,3.62090769 C0,2.43623077 0.195853846,1.53657692 0.587561538,0.921946154 C0.979269231,0.307315385 1.53816923,0 2.26426154,0 C2.99672308,0 3.55880769,0.305723077 3.95051538,0.917169231 C4.34222308,1.52861538 4.53807692,2.42986154 4.53807692,3.62090769 Z M0.907615385,3.62090769 C0.907615385,4.56992308 1.01748462,5.27690769 1.23722308,5.74186154 C1.45696154,6.20681538 1.79930769,6.43929231 2.26426154,6.43929231 C2.72921538,6.43929231 3.07315385,6.20840769 3.29607692,5.74663846 C3.519,5.28486923 3.63046154,4.57629231 3.63046154,3.62090769 C3.63046154,2.65915385 3.519,1.94420769 3.29607692,1.47606923 C3.07315385,1.00793077 2.72921538,0.773861538 2.26426154,0.773861538 C1.79930769,0.773861538 1.45696154,1.00793077 1.23722308,1.47606923 C1.01748462,1.94420769 0.907615385,2.65915385 0.907615385,3.62090769 Z"
                                    id="形状"></path>
                                <path
                                    d="M8.80864615,3.31518462 C9.17169231,3.48078462 9.45671538,3.72281538 9.66371538,4.04127692 C9.87071538,4.35973846 9.97421538,4.72596923 9.97421538,5.13996923 C9.97421538,5.53486154 9.88026923,5.88994615 9.69237692,6.20522308 C9.50448462,6.5205 9.24016154,6.7689 8.89940769,6.95042308 C8.55865385,7.13194615 8.16853846,7.22270769 7.72906154,7.22270769 C7.27684615,7.22270769 6.87876923,7.13353846 6.53483077,6.9552 C6.19089231,6.77686154 5.92338462,6.52846154 5.73230769,6.21 C5.54123077,5.89153846 5.44569231,5.53486154 5.44569231,5.13996923 C5.44569231,4.72596923 5.54919231,4.35973846 5.75619231,4.04127692 C5.96319231,3.72281538 6.2514,3.48078462 6.62081538,3.31518462 C6.32783077,3.16232308 6.09853846,2.95691538 5.93293846,2.69896154 C5.76733846,2.44100769 5.68453846,2.14961538 5.68453846,1.82478462 C5.68453846,1.49358462 5.77052308,1.18786154 5.94249231,0.907615385 C6.11446154,0.627369231 6.35649231,0.406038462 6.66858462,0.243623077 C6.98067692,0.0812076923 7.33416923,0 7.72906154,0 C8.11758462,0 8.46311538,0.0812076923 8.76565385,0.243623077 C9.06819231,0.406038462 9.30226154,0.625776923 9.46786154,0.902838462 C9.63346154,1.1799 9.71626154,1.48721538 9.71626154,1.82478462 C9.71626154,2.14961538 9.63664615,2.44100769 9.47741538,2.69896154 C9.31818462,2.95691538 9.09526154,3.16232308 8.80864615,3.31518462 Z M7.72906154,0.7452 C7.37238462,0.7452 7.09054615,0.847107692 6.88354615,1.05092308 C6.67654615,1.25473846 6.57304615,1.52224615 6.57304615,1.85344615 C6.57304615,2.17827692 6.67654615,2.4426 6.88354615,2.64641538 C7.09054615,2.85023077 7.37238462,2.95213846 7.72906154,2.95213846 C8.07936923,2.95213846 8.35643077,2.84863846 8.56024615,2.64163846 C8.76406154,2.43463846 8.86596923,2.17190769 8.86596923,1.85344615 C8.86596923,1.52861538 8.76406154,1.2627 8.56024615,1.0557 C8.35643077,0.8487 8.07936923,0.7452 7.72906154,0.7452 Z M7.72906154,6.4584 C8.13669231,6.4584 8.46470769,6.33738462 8.71310769,6.09535385 C8.96150769,5.85332308 9.08570769,5.52530769 9.08570769,5.11130769 C9.08570769,4.69093846 8.96469231,4.35655385 8.72266154,4.10815385 C8.48063077,3.85975385 8.14943077,3.73555385 7.72906154,3.73555385 C7.30232308,3.73555385 6.96634615,3.85975385 6.72113077,4.10815385 C6.47591538,4.35655385 6.35330769,4.69093846 6.35330769,5.11130769 C6.35330769,5.53167692 6.47750769,5.86128462 6.72590769,6.10013077 C6.97430769,6.33897692 7.30869231,6.4584 7.72906154,6.4584 Z"
                                    id="形状"></path>
                                <path
                                    d="M11.7894462,2.33113846 C11.6429538,2.33113846 11.5171615,2.277 11.4120692,2.16872308 C11.3069769,2.06044615 11.2544308,1.92987692 11.2544308,1.77701538 C11.2544308,1.62415385 11.3069769,1.49358462 11.4120692,1.38530769 C11.5171615,1.27703077 11.6429538,1.22289231 11.7894462,1.22289231 C11.9423077,1.22289231 12.0712846,1.27703077 12.1763769,1.38530769 C12.2814692,1.49358462 12.3340154,1.62415385 12.3340154,1.77701538 C12.3340154,1.92987692 12.2814692,2.06044615 12.1763769,2.16872308 C12.0712846,2.277 11.9423077,2.33113846 11.7894462,2.33113846 Z M11.7894462,6.01892308 C11.6429538,6.01892308 11.5171615,5.96478462 11.4120692,5.85650769 C11.3069769,5.74823077 11.2544308,5.61766154 11.2544308,5.4648 C11.2544308,5.31193846 11.3069769,5.18136923 11.4120692,5.07309231 C11.5171615,4.96481538 11.6429538,4.91067692 11.7894462,4.91067692 C11.9423077,4.91067692 12.0712846,4.96481538 12.1763769,5.07309231 C12.2814692,5.18136923 12.3340154,5.31193846 12.3340154,5.4648 C12.3340154,5.61766154 12.2814692,5.74823077 12.1763769,5.85650769 C12.0712846,5.96478462 11.9423077,6.01892308 11.7894462,6.01892308 Z"
                                    id="形状"></path>
                                <path
                                    d="M18.1523077,3.62090769 C18.1523077,4.80558462 17.9564538,5.70205385 17.5647462,6.31031538 C17.1730385,6.91857692 16.6109538,7.22270769 15.8784923,7.22270769 C15.1524,7.22270769 14.5935,6.91698462 14.2017923,6.30553846 C13.8100846,5.69409231 13.6142308,4.79921538 13.6142308,3.62090769 C13.6142308,2.43623077 13.8100846,1.53657692 14.2017923,0.921946154 C14.5935,0.307315385 15.1524,0 15.8784923,0 C16.6109538,0 17.1730385,0.305723077 17.5647462,0.917169231 C17.9564538,1.52861538 18.1523077,2.42986154 18.1523077,3.62090769 Z M14.5218462,3.62090769 C14.5218462,4.56992308 14.6317154,5.27690769 14.8514538,5.74186154 C15.0711923,6.20681538 15.4135385,6.43929231 15.8784923,6.43929231 C16.3434462,6.43929231 16.6873846,6.20840769 16.9103077,5.74663846 C17.1332308,5.28486923 17.2446923,4.57629231 17.2446923,3.62090769 C17.2446923,2.65915385 17.1332308,1.94420769 16.9103077,1.47606923 C16.6873846,1.00793077 16.3434462,0.773861538 15.8784923,0.773861538 C15.4135385,0.773861538 15.0711923,1.00793077 14.8514538,1.47606923 C14.6317154,1.94420769 14.5218462,2.65915385 14.5218462,3.62090769 Z"
                                    id="形状"></path>
                                <path
                                    d="M22.4228769,3.31518462 C22.7859231,3.48078462 23.0709462,3.72281538 23.2779462,4.04127692 C23.4849462,4.35973846 23.5884462,4.72596923 23.5884462,5.13996923 C23.5884462,5.53486154 23.4945,5.88994615 23.3066077,6.20522308 C23.1187154,6.5205 22.8543923,6.7689 22.5136385,6.95042308 C22.1728846,7.13194615 21.7827692,7.22270769 21.3432923,7.22270769 C20.8910769,7.22270769 20.493,7.13353846 20.1490615,6.9552 C19.8051231,6.77686154 19.5376154,6.52846154 19.3465385,6.21 C19.1554615,5.89153846 19.0599231,5.53486154 19.0599231,5.13996923 C19.0599231,4.72596923 19.1634231,4.35973846 19.3704231,4.04127692 C19.5774231,3.72281538 19.8656308,3.48078462 20.2350462,3.31518462 C19.9420615,3.16232308 19.7127692,2.95691538 19.5471692,2.69896154 C19.3815692,2.44100769 19.2987692,2.14961538 19.2987692,1.82478462 C19.2987692,1.49358462 19.3847538,1.18786154 19.5567231,0.907615385 C19.7286923,0.627369231 19.9707231,0.406038462 20.2828154,0.243623077 C20.5949077,0.0812076923 20.9484,0 21.3432923,0 C21.7318154,0 22.0773462,0.0812076923 22.3798846,0.243623077 C22.6824231,0.406038462 22.9164923,0.625776923 23.0820923,0.902838462 C23.2476923,1.1799 23.3304923,1.48721538 23.3304923,1.82478462 C23.3304923,2.14961538 23.2508769,2.44100769 23.0916462,2.69896154 C22.9324154,2.95691538 22.7094923,3.16232308 22.4228769,3.31518462 Z M21.3432923,0.7452 C20.9866154,0.7452 20.7047769,0.847107692 20.4977769,1.05092308 C20.2907769,1.25473846 20.1872769,1.52224615 20.1872769,1.85344615 C20.1872769,2.17827692 20.2907769,2.4426 20.4977769,2.64641538 C20.7047769,2.85023077 20.9866154,2.95213846 21.3432923,2.95213846 C21.6936,2.95213846 21.9706615,2.84863846 22.1744769,2.64163846 C22.3782923,2.43463846 22.4802,2.17190769 22.4802,1.85344615 C22.4802,1.52861538 22.3782923,1.2627 22.1744769,1.0557 C21.9706615,0.8487 21.6936,0.7452 21.3432923,0.7452 Z M21.3432923,6.4584 C21.7509231,6.4584 22.0789385,6.33738462 22.3273385,6.09535385 C22.5757385,5.85332308 22.6999385,5.52530769 22.6999385,5.11130769 C22.6999385,4.69093846 22.5789231,4.35655385 22.3368923,4.10815385 C22.0948615,3.85975385 21.7636615,3.73555385 21.3432923,3.73555385 C20.9165538,3.73555385 20.5805769,3.85975385 20.3353615,4.10815385 C20.0901462,4.35655385 19.9675385,4.69093846 19.9675385,5.11130769 C19.9675385,5.53167692 20.0917385,5.86128462 20.3401385,6.10013077 C20.5885385,6.33897692 20.9229231,6.4584 21.3432923,6.4584 Z"
                                    id="形状"></path>
                            </g>
                            <path
                                d="M144.487142,0 C145.164671,0 145.713809,0.536493158 145.713809,1.19842105 L145.713809,6.39157895 C145.713809,7.05350684 145.164671,7.59 144.487142,7.59 L132.220476,7.59 C131.542947,7.59 130.993809,7.05350684 130.993809,6.39157895 L130.993809,1.19842105 C130.993809,0.536493158 131.542947,0 132.220476,0 Z M144.487142,0.399473684 L132.220476,0.399473684 C131.769471,0.399473684 131.402698,0.757801579 131.402698,1.19842105 L131.402698,6.39157895 C131.402698,6.83219842 131.769471,7.19052632 132.220476,7.19052632 L144.487142,7.19052632 C144.938147,7.19052632 145.30492,6.83219842 145.30492,6.39157895 L145.30492,1.19842105 C145.30492,0.757801579 144.938147,0.399473684 144.487142,0.399473684 Z M144.282698,0.998684211 C144.508609,0.998684211 144.691587,1.17764842 144.691587,1.39815789 L144.691587,6.19184211 C144.691587,6.41235158 144.508609,6.59131579 144.282698,6.59131579 L132.42492,6.59131579 C132.199213,6.59131579 132.016031,6.41235158 132.016031,6.19184211 L132.016031,1.39815789 C132.016031,1.17764842 132.199213,0.998684211 132.42492,0.998684211 L144.282698,0.998684211 Z M146.940476,1.39815789 C147.27924,1.39815789 147.553809,1.66640447 147.553809,1.99736842 L147.553809,5.59263158 C147.553809,5.92359553 147.27924,6.19184211 146.940476,6.19184211 C146.601711,6.19184211 146.327142,5.92359553 146.327142,5.59263158 L146.327142,1.99736842 C146.327142,1.66640447 146.601711,1.39815789 146.940476,1.39815789 Z"
                                id="Combined-Shape-Copy"></path>
                        </g>
                        <g
                            id="left"
                            transform="translate(102.471415, 0.000000)">
                            <path
                                d="M15.45,8.03693182 C15.45,8.36154545 15.1578975,8.625 14.7975,8.625 C14.4371025,8.625 14.145,8.36154545 14.145,8.03693182 L14.145,7.44886364 C14.145,7.12425 14.4371025,6.86079545 14.7975,6.86079545 C15.1578975,6.86079545 15.45,7.12425 15.45,7.44886364 L15.45,8.03693182 Z M17.625,8.03693182 C17.625,8.36154545 17.3328975,8.625 16.9725,8.625 C16.6121025,8.625 16.32,8.36154545 16.32,8.03693182 L16.32,5.68465909 C16.32,5.36004545 16.6121025,5.09659091 16.9725,5.09659091 C17.3328975,5.09659091 17.625,5.36004545 17.625,5.68465909 L17.625,8.03693182 Z M19.8,8.03693182 C19.8,8.36154545 19.5078975,8.625 19.1475,8.625 C18.7871025,8.625 18.495,8.36154545 18.495,8.03693182 L18.495,3.92045455 C18.495,3.59584091 18.7871025,3.33238636 19.1475,3.33238636 C19.5078975,3.33238636 19.8,3.59584091 19.8,3.92045455 L19.8,8.03693182 Z M21.975,8.03693182 C21.975,8.36154545 21.6828975,8.625 21.3225,8.625 C20.9621025,8.625 20.67,8.36154545 20.67,8.03693182 L20.67,2.15625 C20.67,1.83163636 20.9621025,1.56818182 21.3225,1.56818182 C21.6828975,1.56818182 21.975,1.83163636 21.975,2.15625 L21.975,8.03693182 Z M24.15,8.03693182 C24.15,8.36154545 23.8578975,8.625 23.4975,8.625 C23.1371025,8.625 22.845,8.36154545 22.845,8.03693182 L22.845,0.588068182 C22.845,0.263454545 23.1371025,0 23.4975,0 C23.8578975,0 24.15,0.263454545 24.15,0.588068182 L24.15,8.03693182 Z"
                                id="Combined-Shape"></path>
                            <path
                                d="M5.51978769,6.77678571 C4.99241538,6.77678571 4.56440308,7.190375 4.56440308,7.70048214 C4.56440308,8.21120536 4.99241538,8.625 5.51978769,8.625 C6.04758462,8.625 6.47517231,8.21120536 6.47517231,7.70048214 C6.47517231,7.190375 6.04758462,6.77678571 5.51978769,6.77678571 M5.51978769,4.52186161 C6.24259888,4.52186161 6.96330454,4.74724531 7.56418635,5.19292123 L7.738,5.331 L7.67617622,5.28037492 C7.82542444,5.37145439 7.92442708,5.53155507 7.92442708,5.71389821 C7.92442708,5.99749643 7.684944,6.22729107 7.38941169,6.22729107 C7.2545694,6.22729107 7.13136805,6.17938325 7.03728925,6.10032052 C6.61572,5.74558482 6.08431385,5.54864732 5.52,5.54864732 C4.95844615,5.54864732 4.42958769,5.74353125 4.01219077,6.09612946 C3.91518195,6.17679908 3.78901956,6.22729107 3.65058831,6.22729107 C3.355056,6.22729107 3.11557292,5.99749643 3.11557292,5.71389821 C3.11557292,5.53323565 3.21275903,5.37440744 3.35970994,5.2829108 C3.98289039,4.77739312 4.75053728,4.52186161 5.51978769,4.52186161 Z M5.51978769,2.26615714 C6.86308813,2.26615714 8.2057586,2.71950496 9.27986151,3.62418058 C9.40380227,3.71792626 9.48333877,3.86349376 9.48333877,4.02693036 C9.48333877,4.31052857 9.24385569,4.54032321 8.94832338,4.54032321 C8.81081877,4.54032321 8.68544788,4.49057649 8.59068708,4.40880972 C7.73882769,3.69113036 6.66242769,3.29294286 5.51978769,3.29294286 C4.38033231,3.29294286 3.30626769,3.68887143 2.45916,4.40597857 C2.36090792,4.48794384 2.23253923,4.54032321 2.09144308,4.54032321 C1.79612308,4.54032321 1.55664,4.31052857 1.55664,4.02693036 C1.55664,3.86727507 1.63253872,3.7246716 1.75157033,3.63051998 C2.82496615,2.72266607 4.17184615,2.26615714 5.51978769,2.26615714 Z M5.51978769,0 C7.42885846,0 9.33686769,0.647696429 10.8589015,1.93959821 L10.8363185,1.9199474 C10.9603861,2.01395699 11.04,2.15958659 11.04,2.32310268 C11.04,2.60670089 10.8005169,2.83649554 10.5049846,2.83649554 C10.3696927,2.83649554 10.2461195,2.7882677 10.1519221,2.70873309 C8.87191385,1.62232143 7.24372615,1.02678571 5.51978769,1.02678571 C3.79882154,1.02678571 2.17381846,1.62047321 0.895089231,2.70414286 C0.799407737,2.78608407 0.673336205,2.83649554 0.535015385,2.83649554 C0.239483077,2.83649554 0,2.60670089 0,2.32310268 C0,2.16001241 0.0791997697,2.0147156 0.202713154,1.9206829 C1.7218345,0.641386409 3.62007315,0 5.51978769,0 Z"
                                id="Combined-Shape"></path>
                        </g>
                    </g>
                </g>
            </g>
        </g>
    </g>
</svg>