<svg width="32.000000" height="32.000000" viewBox="0 0 32 32" fill="none" xmlns="http://www.w3.org/2000/svg" xmlns:xlink="http://www.w3.org/1999/xlink">
	<desc>
			Created with Pixso.
	</desc>
	<defs/>
	<circle id="椭圆形" cx="16.000000" cy="16.000000" r="16.000000" fill="#E64566" fill-opacity="1.000000"/>
	<path id="path" d="M10.34 11.34C9.74 11.34 9.19 11.48 8.69 11.78C8.19 12.07 7.79 12.47 7.5 12.98C7.2 13.48 7.05 14.04 7.05 14.64L7.05 19.31C7.05 20.16 7.33 20.88 7.89 21.5C8.44 22.11 9.12 22.46 9.94 22.55C9.94 22.46 9.93 22.39 9.91 22.34L9.89 22.14L9.89 20.5C9.89 19.84 10.06 19.24 10.38 18.7C10.7 18.15 11.13 17.72 11.69 17.39C12.24 17.07 12.83 16.91 13.48 16.91L18.5 16.91C19.15 16.91 19.75 17.07 20.29 17.39C20.84 17.72 21.27 18.15 21.6 18.7C21.92 19.24 22.08 19.84 22.08 20.5L22.08 22.14C22.08 22.21 22.06 22.36 22.04 22.58C22.58 22.52 23.07 22.34 23.51 22.04C23.96 21.73 24.31 21.34 24.56 20.85C24.82 20.38 24.95 19.86 24.95 19.31L24.95 14.64C24.95 14.04 24.81 13.48 24.51 12.98C24.22 12.47 23.82 12.07 23.31 11.78C22.81 11.48 22.25 11.34 21.65 11.34L10.34 11.34ZM21.4 13.84C21.69 13.84 21.94 13.94 22.15 14.14C22.35 14.34 22.45 14.58 22.45 14.88C22.45 15.17 22.35 15.41 22.15 15.61C21.94 15.81 21.69 15.91 21.4 15.91C21.12 15.91 20.87 15.81 20.66 15.61C20.46 15.41 20.35 15.17 20.35 14.88C20.35 14.58 20.46 14.34 20.66 14.14C20.87 13.94 21.12 13.84 21.4 13.84Z" fill="#FFFFFF" fill-opacity="1.000000" fill-rule="nonzero"/>
	<g opacity="0.500000">
		<path id="path" d="M21.61 9.85C21.61 9.4 21.5 8.99 21.28 8.6C21.05 8.23 20.75 7.92 20.36 7.69C19.98 7.47 19.57 7.35 19.11 7.35L12.85 7.35C12.4 7.35 11.99 7.47 11.6 7.69C11.23 7.92 10.92 8.23 10.7 8.6C10.47 8.99 10.35 9.4 10.35 9.85L10.35 10.25L21.61 10.25L21.61 9.85ZM10.98 22.14C10.98 22.58 11.09 22.98 11.31 23.36C11.54 23.75 11.85 24.05 12.23 24.28C12.61 24.5 13.02 24.61 13.48 24.61L18.5 24.61C18.95 24.61 19.37 24.5 19.75 24.28C20.12 24.05 20.43 23.75 20.65 23.36C20.88 22.98 21 22.58 21 22.14L21 20.5C21 20.04 20.88 19.62 20.65 19.25C20.43 18.87 20.12 18.56 19.75 18.34C19.37 18.11 18.95 18 18.5 18L13.48 18C13.02 18 12.61 18.11 12.23 18.34C11.85 18.56 11.54 18.87 11.31 19.25C11.09 19.62 10.98 20.04 10.98 20.5L10.98 22.14Z" fill="#FFFFFF" fill-opacity="1.000000" fill-rule="nonzero"/>
	</g>
</svg>
