<?xml version="1.0" encoding="UTF-8"?>
<svg width="67px" height="140px" viewBox="0 0 67 140" version="1.1" xmlns="http://www.w3.org/2000/svg" xmlns:xlink="http://www.w3.org/1999/xlink">
    <title>简易布局</title>
    <g id="简易布局" stroke="none" stroke-width="1" fill="none" fill-rule="evenodd">
        <g id="编组-8备份-2" transform="translate(1.000000, 1.000000)">
            <path d="M53.5261281,-3.22432144e-15 C57.6271143,1.87342361e-15 59.114231,0.426997811 60.6134902,1.22881044 C62.1127495,2.03062306 63.2893769,3.2072505 64.0911896,4.70650976 C64.8930022,6.20576902 65.32,7.69288572 65.32,11.7938719 L65.32,126.206128 C65.32,130.307114 64.8930022,131.794231 64.0911896,133.29349 C63.2893769,134.792749 62.1127495,135.969377 60.6134902,136.77119 C59.114231,137.573002 57.6271143,138 53.5261281,138 L11.7938719,138 C7.69288572,138 6.20576902,137.573002 4.70650976,136.77119 C3.2072505,135.969377 2.03062306,134.792749 1.22881044,133.29349 C0.426997811,131.794231 5.39651736e-15,130.307114 -9.28786555e-15,126.206128 L1.22449183e-15,11.7938719 C-7.11465018e-16,7.69288572 0.426997811,6.20576902 1.22881044,4.70650976 C2.03062306,3.2072505 3.2072505,2.03062306 4.70650976,1.22881044 C6.20576902,0.426997811 7.69288572,-1.30383785e-15 11.7938719,2.24401588e-15 L53.5261281,-3.22432144e-15 Z M53.1289507,2.76 L12.1910493,2.76 C8.43181191,2.76 7.0686216,3.15141466 5.69430062,3.88640957 C4.31997963,4.62140447 3.24140447,5.69997963 2.50640957,7.07430062 C1.77141466,8.4486216 1.38,9.81181191 1.38,13.5710493 L1.38,13.5710493 L1.38,123.202284 C1.38,126.961521 1.77141466,128.324712 2.50640957,129.699033 C3.24140447,131.073354 4.31997963,132.151929 5.69430062,132.886924 C7.0686216,133.621919 8.43181191,134.013333 12.1910493,134.013333 L12.1910493,134.013333 L53.1289507,134.013333 C56.8881881,134.013333 58.2513784,133.621919 59.6256994,132.886924 C61.0000204,132.151929 62.0785955,131.073354 62.8135904,129.699033 C63.5485853,128.324712 63.94,126.961521 63.94,123.202284 L63.94,123.202284 L63.94,13.5710493 C63.94,9.81181191 63.5485853,8.4486216 62.8135904,7.07430062 C62.0785955,5.69997963 61.0000204,4.62140447 59.6256994,3.88640957 C58.2513784,3.15141466 56.8881881,2.76 53.1289507,2.76 L53.1289507,2.76 Z" id="形状结合" fill="#505259"></path>
            <path d="M12.1910493,2.76 L53.1289507,2.76 C56.8881881,2.76 58.2513784,3.15141466 59.6256994,3.88640957 C61.0000204,4.62140447 62.0785955,5.69997963 62.8135904,7.07430062 C63.5485853,8.4486216 63.94,9.81181191 63.94,13.5710493 L63.94,123.202284 C63.94,126.961521 63.5485853,128.324712 62.8135904,129.699033 C62.0785955,131.073354 61.0000204,132.151929 59.6256994,132.886924 C58.2513784,133.621919 56.8881881,134.013333 53.1289507,134.013333 L12.1910493,134.013333 C8.43181191,134.013333 7.0686216,133.621919 5.69430062,132.886924 C4.31997963,132.151929 3.24140447,131.073354 2.50640957,129.699033 C1.77141466,128.324712 1.38,126.961521 1.38,123.202284 L1.38,13.5710493 C1.38,9.81181191 1.77141466,8.4486216 2.50640957,7.07430062 C3.24140447,5.69997963 4.31997963,4.62140447 5.69430062,3.88640957 C7.0686216,3.15141466 8.43181191,2.76 12.1910493,2.76 Z" id="矩形" fill="#FFFFFF" opacity="0.1"></path>
            <g id="编组" transform="translate(8.000000, 16.000000)" fill="#596080" fill-opacity="0.2">
                <g id="编组-11" transform="translate(0.000000, 99.000000)">
                    <rect id="矩形" x="0" y="0" width="12" height="12" rx="3"></rect>
                    <rect id="矩形备份" x="19" y="0" width="12" height="12" rx="3"></rect>
                    <rect id="矩形备份-2" x="38" y="0" width="12" height="12" rx="3"></rect>
                </g>
                <g id="编组-10" transform="translate(0.000000, 70.000000)">
                    <rect id="矩形备份-3" x="0" y="0" width="12" height="12" rx="3"></rect>
                    <rect id="矩形备份-4" x="19" y="0" width="12" height="12" rx="3"></rect>
                    <rect id="矩形备份-5" x="38" y="0" width="12" height="12" rx="3"></rect>
                </g>
                <g id="编组-9" transform="translate(0.000000, 47.000000)">
                    <rect id="矩形备份-6" x="0" y="0" width="12" height="12" rx="3"></rect>
                    <rect id="矩形备份-7" x="19" y="0" width="12" height="12" rx="3"></rect>
                    <rect id="矩形备份-8" x="38" y="0" width="12" height="12" rx="3"></rect>
                </g>
                <g id="编组-7" transform="translate(0.000000, 24.000000)">
                    <rect id="矩形备份-9" x="0" y="0" width="12" height="12" rx="3"></rect>
                    <rect id="矩形备份-10" x="19" y="0" width="12" height="12" rx="3"></rect>
                    <rect id="矩形备份-11" x="38" y="0" width="12" height="12" rx="3"></rect>
                </g>
                <g id="编组-3">
                    <rect id="矩形备份-12" x="0" y="0" width="12" height="12" rx="3"></rect>
                    <rect id="矩形备份-41" x="19" y="0" width="12" height="12" rx="3"></rect>
                    <rect id="矩形备份-42" x="38" y="0" width="12" height="12" rx="3"></rect>
                </g>
            </g>
        </g>
    </g>
</svg>