<svg width="16.000000" height="16.000000" viewBox="0 0 16 16" fill="none" xmlns="http://www.w3.org/2000/svg" xmlns:xlink="http://www.w3.org/1999/xlink">
	<desc>
			Created with Pixso.
	</desc>
	<defs>
		<clipPath id="clip380_12261">
			<rect id="square" width="16.000000" height="16.000000" fill="white" fill-opacity="0"/>
		</clipPath>
	</defs>
	<g clip-path="url(#clip380_12261)">
		<g opacity="0.000000">
			<rect id="rect" width="16.000000" height="16.000000" fill="#000000" fill-opacity="1.000000"/>
		</g>
		<path id="矢量 4" d="M2.61 2.99C2.64 2.9 2.7 2.83 2.76 2.76C2.85 2.68 2.95 2.62 3.06 2.58C3.14 2.55 3.23 2.54 3.33 2.54L12.67 2.54C12.8 2.54 12.92 2.56 13.03 2.61C13.1 2.65 13.17 2.7 13.23 2.76C13.29 2.82 13.34 2.89 13.38 2.96C13.43 3.07 13.46 3.19 13.46 3.33L13.46 12.67C13.46 12.76 13.44 12.85 13.41 12.93C13.37 13.04 13.31 13.14 13.23 13.23C13.16 13.29 13.09 13.35 13 13.38C12.9 13.43 12.79 13.46 12.67 13.46L3.33 13.46C3.24 13.46 3.16 13.44 3.08 13.42C2.97 13.38 2.86 13.31 2.77 13.22C2.68 13.13 2.61 13.02 2.57 12.91C2.55 12.83 2.54 12.75 2.54 12.67L2.54 3.33C2.54 3.2 2.56 3.09 2.61 2.99Z" fill="#FFFFFF" fill-opacity="0.298039" fill-rule="evenodd"/>
		<path id="矢量 4" d="M2.3 1.27C2.1 1.37 1.91 1.5 1.74 1.66L1.72 1.68L1.69 1.7C1.55 1.85 1.43 2 1.33 2.17C1.3 2.23 1.27 2.3 1.24 2.36C1.19 2.46 1.16 2.55 1.13 2.65C1.06 2.87 1.03 3.09 1.03 3.33L1.03 12.67C1.03 12.82 1.05 12.97 1.08 13.12C1.09 13.21 1.12 13.3 1.15 13.38C1.18 13.49 1.22 13.59 1.27 13.69C1.37 13.9 1.51 14.09 1.68 14.27L1.7 14.29L1.73 14.31C1.92 14.49 2.13 14.64 2.35 14.74C2.43 14.78 2.52 14.82 2.6 14.84C2.68 14.87 2.76 14.89 2.83 14.91C2.99 14.94 3.16 14.96 3.33 14.96L12.67 14.96C12.91 14.96 13.14 14.92 13.37 14.85C13.45 14.83 13.54 14.79 13.63 14.75C13.7 14.72 13.78 14.68 13.85 14.64C14.01 14.54 14.16 14.43 14.29 14.29L14.31 14.27L14.33 14.25C14.49 14.08 14.62 13.89 14.72 13.69C14.76 13.6 14.8 13.52 14.83 13.43C14.86 13.35 14.88 13.27 14.9 13.19C14.94 13.02 14.96 12.84 14.96 12.67L14.96 3.33C14.96 3.08 14.92 2.84 14.85 2.62C14.82 2.51 14.78 2.41 14.73 2.31C14.7 2.25 14.67 2.18 14.63 2.12C14.54 1.98 14.44 1.84 14.32 1.72L14.3 1.69L14.27 1.67C14.16 1.56 14.03 1.46 13.9 1.38C13.83 1.33 13.75 1.29 13.68 1.26C13.58 1.21 13.48 1.17 13.37 1.14C13.15 1.07 12.91 1.03 12.67 1.03L3.33 1.03C3.11 1.03 2.9 1.06 2.7 1.12C2.65 1.13 2.61 1.14 2.56 1.16C2.47 1.19 2.38 1.23 2.3 1.27ZM2.61 2.99C2.64 2.9 2.7 2.83 2.76 2.76C2.85 2.68 2.95 2.62 3.06 2.58C3.14 2.55 3.23 2.54 3.33 2.54L12.67 2.54C12.8 2.54 12.92 2.56 13.03 2.61C13.1 2.65 13.17 2.7 13.23 2.76C13.29 2.82 13.34 2.89 13.38 2.96C13.43 3.07 13.46 3.19 13.46 3.33L13.46 12.67C13.46 12.76 13.44 12.85 13.41 12.93C13.37 13.04 13.31 13.14 13.23 13.23C13.16 13.29 13.09 13.35 13 13.38C12.9 13.43 12.79 13.46 12.67 13.46L3.33 13.46C3.24 13.46 3.16 13.44 3.08 13.42L3.08 13.42C2.97 13.38 2.86 13.31 2.77 13.22C2.68 13.13 2.61 13.02 2.57 12.91C2.55 12.83 2.54 12.75 2.54 12.67L2.54 3.33C2.54 3.2 2.56 3.09 2.61 2.99Z" fill="#000000" fill-opacity="0.250000" fill-rule="evenodd"/>
	</g>
</svg>
