<?xml version="1.0" encoding="UTF-8"?>
<svg width="24px" height="24px" viewBox="0 0 24 24" version="1.1" xmlns="http://www.w3.org/2000/svg" xmlns:xlink="http://www.w3.org/1999/xlink">
    <title>ic_settings_sound</title>
    <g id="settings" stroke="none" stroke-width="1" fill="none" fill-rule="evenodd">
        <g id="Artboard" transform="translate(-855.000000, -438.000000)" fill-rule="nonzero">
            <g id="ic_settings_sound" transform="translate(855.000000, 438.000000)">
                <path d="M6.725,0 C1.8,0 0,1.8 0,6.725 L0,17.25 C0,22.2 1.8,24 6.725,24 L17.25,24 C22.2,24 24,22.2 24,17.275 L24,6.725 C24,1.8 22.2,0 17.275,0 L6.725,0 Z" id="Path" fill="#48BBD8"></path>
                <g id="Group" transform="translate(3.500000, 4.250000)" fill="#FFFFFF">
                    <path d="M8.475,0.25 C8.35,0.25 8.225,0.3 8.15,0.4 L8.15,0.4 L4.25,4.25 L1,4.25 C0.45,4.25 0,4.7 0,5.25 L0,9.5 C0,10.05 0.45,10.5 1,10.5 L4.275,10.5 L8.15,14.425 L8.15,14.425 C8.275,14.55 8.425,14.6 8.625,14.55 C8.85,14.475 9,14.25 9,14 L9,0.7 L9,0.7 C9,0.45 8.75,0.25 8.475,0.25 Z" id="Path"></path>
                    <path d="M11.2,11.15 C10.925,11.15 10.675,11 10.55,10.75 C10.35,10.375 10.5,9.925 10.85,9.725 C11.7,9.25 12.25,8.375 12.25,7.4 C12.25,6.425 11.725,5.525 10.85,5.075 C10.475,4.875 10.35,4.425 10.55,4.05 C10.75,3.675 11.2,3.55 11.575,3.75 C12.925,4.475 13.75,5.875 13.75,7.4 C13.75,8.925 12.9,10.325 11.575,11.05 C11.45,11.125 11.325,11.15 11.2,11.15 Z" id="Path"></path>
                    <path d="M12.95,14.775 C12.675,14.775 12.425,14.625 12.275,14.375 C12.075,14 12.225,13.55 12.6,13.375 C14.85,12.225 16.25,9.95 16.25,7.425 C16.25,4.9 14.85,2.625 12.6,1.475 C12.225,1.275 12.075,0.825 12.275,0.475 C12.475,0.1 12.925,-0.05 13.275,0.15 C16.025,1.525 17.75,4.325 17.75,7.4 C17.75,10.5 16.025,13.275 13.275,14.7 C13.175,14.75 13.05,14.775 12.95,14.775 Z" id="Path"></path>
                </g>
            </g>
        </g>
    </g>
</svg>