<?xml version="1.0" encoding="UTF-8"?>
<svg width="35px"
     height="36px"
     viewBox="0 0 24 24"
     version="1.1"
     xmlns="http://www.w3.org/2000/svg"
     xmlns:xlink="http://www.w3.org/1999/xlink">
    <title>Artboard</title>
    <g
        id="Artboard"
        stroke="none"
        stroke-width="1"
        fill="none"
        fill-rule="evenodd">
        <path
            d="M6.7,0 C1.8,0 0,1.8 0,6.7 L0,17.2 C0,22.2 1.8,24 6.7,24 L17.2,24 C22.2,24 24,22.2 24,17.3 L24,6.7 C24,1.8 22.2,0 17.3,0 L6.7,0 Z"
            id="Path"
            fill="#53CB7A"
            fill-rule="nonzero"></path>
        <path
            d="M18.8,4.5 L13.6,4.5 C13,4.5 12.6,5 12.6,5.5 L12.6,10.7 C12.6,11.3 13,11.7 13.6,11.7 L18.8,11.7 C19.4,11.7 19.8,11.3 19.8,10.7 L19.8,5.5 C19.8,4.9 19.3,4.5 18.8,4.5 Z M18.2,6 L18.2,10.1 L14.1,10.1 L14.1,6 L18.2,6"
            id="Shape"
            fill="#FFFFFF"
            fill-rule="nonzero"></path>
        <path
            d="M11.4,10.6 C11.4,11.2 11,11.6 10.4,11.6 L5.2,11.6 C4.7,11.6 4.2,11.2 4.2,10.6 L4.2,5.5 C4.2,4.9 4.6,4.5 5.2,4.5 L10.4,4.5 C11,4.5 11.4,5 11.4,5.5 L11.4,10.6 Z"
            id="Path"
            fill="#FFFFFF"
            fill-rule="nonzero"></path>
        <path
            d="M18.8,12.6 L13.6,12.6 C13,12.6 12.6,13 12.6,13.6 L12.6,18.8 C12.6,19.4 13,19.8 13.6,19.8 L18.8,19.8 C19.4,19.8 19.8,19.3 19.8,18.8 L19.8,13.6 C19.8,13.1 19.3,12.6 18.8,12.6 Z M18.2,14.1 L18.2,18.2 L14.1,18.2 L14.1,14.1 L18.2,14.1"
            id="Shape"
            fill="#FFFFFF"
            fill-rule="nonzero"></path>
        <path
            d="M10.4,12.6 L5.2,12.6 C4.7,12.6 4.2,13 4.2,13.6 L4.2,18.8 C4.2,19.4 4.6,19.8 5.2,19.8 L10.4,19.8 C11,19.8 11.4,19.3 11.4,18.8 L11.4,13.6 C11.4,13.1 10.9,12.6 10.4,12.6 Z M9.9,14.1 L9.9,18.2 L5.8,18.2 L5.8,14.1 L9.9,14.1"
            id="Shape"
            fill="#FFFFFF"
            fill-rule="nonzero"></path>
    </g>
</svg>