<?xml version="1.0" encoding="UTF-8"?>
<svg width="20px" height="20px" viewBox="0 0 20 20" version="1.1" xmlns="http://www.w3.org/2000/svg" xmlns:xlink="http://www.w3.org/1999/xlink">
    <title>虚化</title>
    <defs>
        <path d="M10,0.509143765 L9.89994792,0.509143765 L9.7778738,0.510094541 C5.58992573,0.576726582 2.29166667,3.9282945 2.29166667,8.08360406 C2.29166667,10.5246326 3.35519338,12.7899725 5.35495976,15.3132434 L5.54220902,15.5469059 L5.73475431,15.7821094 C5.76728529,15.8214426 5.80003601,15.8608431 5.83300601,15.9003127 L6.03345365,16.1379697 L6.2391417,16.3773571 C6.2738585,16.4174035 6.30879273,16.4575251 6.34394392,16.4977235 L6.55745089,16.7398487 L6.75071379,16.9554988 L6.82899612,17.0395822 C6.84264095,17.054017 6.85658506,17.0686628 6.87082906,17.0835203 L6.95989632,17.1752101 L7.0561892,17.2720124 L7.15973619,17.3739606 L7.27056583,17.4810879 L7.38870662,17.5934277 L7.57968861,17.7717835 L7.78728109,17.9620547 L8.01158032,18.1643536 L8.25268253,18.3787926 L8.42279985,18.528552 L8.69854478,18.7690343 L8.75780668,18.8184306 C9.51748082,19.4205756 10.5867691,19.4012077 11.3140108,18.7777199 L11.5432452,18.5795933 C11.6182459,18.514228 11.6918361,18.4495388 11.7640171,18.3855236 L11.9763336,18.1954976 C12.0110155,18.1641628 12.0453453,18.132996 12.0793233,18.1019967 L12.2789698,17.9180111 C12.4092541,17.7966922 12.533913,17.6780467 12.652956,17.562057 L12.8273097,17.3900618 C13.0541685,17.1633846 13.258582,16.9472944 13.4406251,16.7416486 C13.5222658,16.6494227 13.6023207,16.5583489 13.6808445,16.4683288 L13.9118775,16.2013308 L14.1340529,15.9400633 C15.0417874,14.8625661 15.727422,13.9189032 16.2980238,12.9166118 C17.2145416,11.3067014 17.7083333,9.71380169 17.7083333,8.08360406 C17.7083333,3.89764603 14.2545423,0.509143765 10,0.509143765 Z M9.90491671,1.75912401 L10,1.75912401 C13.5694695,1.75912401 16.4583333,4.59339788 16.4583333,8.08360406 C16.4583333,10.1595145 15.6026858,12.0500066 13.8519813,14.3002895 L13.676893,14.5228083 C13.5582412,14.6719534 13.4357353,14.8227224 13.3093639,14.975269 L13.1169066,15.2054414 L12.9186429,15.4383956 C12.8851146,15.4774596 12.851344,15.5166442 12.817331,15.555952 L12.6103422,15.793295 C12.5753587,15.8331049 12.5401323,15.8730426 12.5046631,15.9131106 C12.316533,16.1256328 12.0996324,16.35294 11.8540676,16.5948294 L11.6861124,16.758247 L11.5096711,16.925972 L11.3247507,17.0979908 L11.1313582,17.2742902 C11.0654828,17.3337686 10.9981965,17.3939582 10.9295006,17.4548568 L10.7191848,17.6396772 L10.500418,17.828738 C10.2279547,18.0623296 9.82527962,18.0696232 9.54492859,17.84748 L9.50830706,17.8169082 L9.16624124,17.517821 L8.93820031,17.3159607 L8.72565713,17.1254637 L8.52867396,16.946402 L8.40602705,16.8334161 L8.23511561,16.6735735 L8.07993022,16.5253584 L7.94053316,16.3888428 L7.85640383,16.3043677 L7.77933765,16.2251458 L7.70935309,16.1511984 C7.69828015,16.1393146 7.68750305,16.1276514 7.67702218,16.1162094 L7.48997788,15.9074502 L7.28037829,15.6696872 C4.8326645,12.8688635 3.54166667,10.5141982 3.54166667,8.08360406 C3.54166667,4.61086166 6.2923641,1.81570546 9.79278831,1.75999565 L9.90491671,1.75912401 Z" id="path-1"></path>
    </defs>
    <g id="虚化" stroke="none" stroke-width="1" fill="none" fill-rule="evenodd">
        <mask id="mask-2" fill="white">
            <use xlink:href="#path-1"></use>
        </mask>
        <use id="蒙版" fill="#FFFFFF" fill-rule="nonzero" transform="translate(10.000000, 9.883554) scale(1, -1) translate(-10.000000, -9.883554) " xlink:href="#path-1"></use>
    </g>
</svg>