<?xml version="1.0" encoding="UTF-8"?>
<svg width="24px" height="24px" viewBox="0 0 24 24" version="1.1" xmlns="http://www.w3.org/2000/svg" xmlns:xlink="http://www.w3.org/1999/xlink">
    <title>加</title>
    <defs>
        <path d="M18.031219,16.9401146 L21.9488058,20.8572022 C22.2905145,21.198911 22.2905145,21.7529303 21.9488058,22.0946391 C21.607097,22.4363479 21.0530777,22.4363479 20.7113689,22.0946391 L16.7820217,18.1659493 C17.2303141,17.7911551 17.6481326,17.3811241 18.031219,16.9401146 Z M9.77083333,19.5416667 C4.37455109,19.5416667 0,15.1671156 0,9.77083333 C0,4.37455109 4.37455109,0 9.77083333,0 C15.1671156,0 19.5416667,4.37455109 19.5416667,9.77083333 C19.5416667,12.1908156 18.6618979,14.4053168 17.2047472,16.1119503 L17.2043544,16.1124102 L17.1868338,16.1328712 C17.1034787,16.2299453 17.0182504,16.3253642 16.9312051,16.4190719 L17.2043544,16.1124102 C17.0989175,16.2358839 16.9904582,16.3566987 16.8790909,16.4747402 C16.7010018,16.6634742 16.51602,16.8446268 16.3241097,17.0182636 C16.3034855,17.0369226 16.2830632,17.0552439 16.2625637,17.0734802 C16.167746,17.1578324 16.0711571,17.2404622 15.9729653,17.321214 C15.9665507,17.3264889 15.9604456,17.3314969 15.9543342,17.3364977 L15.8250919,17.4404445 C14.160506,18.756233 12.0573936,19.5416667 9.77083333,19.5416667 Z M9.77083333,1.75 C5.3410494,1.75 1.75,5.3410494 1.75,9.77083333 C1.75,14.2006173 5.3410494,17.7916667 9.77083333,17.7916667 C14.2006173,17.7916667 17.7916667,14.2006173 17.7916667,9.77083333 C17.7916667,5.3410494 14.2006173,1.75 9.77083333,1.75 Z" id="path-1"></path>
        <path d="M6.75,11.25 C6.75,11.6642136 6.41421356,12 6,12 C5.58578644,12 5.25,11.6642136 5.25,11.25 L5.25,6.749 L0.75,6.75 C0.335786438,6.75 0,6.41421356 0,6 C0,5.58578644 0.335786438,5.25 0.75,5.25 L5.25,5.249 L5.25,0.75 C5.25,0.335786438 5.58578644,7.6089797e-17 6,0 C6.41421356,-7.6089797e-17 6.75,0.335786438 6.75,0.75 L6.75,11.25 Z M11.25,5.25 C11.6642136,5.25 12,5.58578644 12,6 C12,6.41421356 11.6642136,6.75 11.25,6.75 L7.75,6.75 L7.75,5.25 L11.25,5.25 Z" id="path-3"></path>
    </defs>
    <g id="加" stroke="none" stroke-width="1" fill="none" fill-rule="evenodd">
        <g id="加备份" transform="translate(1.333333, 1.333333)">
            <g id="Public/ic_public_input_search-Copy">
                <mask id="mask-2" fill="white">
                    <use xlink:href="#path-1"></use>
                </mask>
                <g id="形状结合" fill-rule="nonzero"></g>
                <g id="编组" mask="url(#mask-2)" fill-opacity="0.9">
                    <g transform="translate(-2.333333, -2.333333)" id="Symbol/color-light/colorPrimary">
                        <rect id="color/#000000" fill="#000000" x="0" y="0" width="28" height="28"></rect>
                    </g>
                </g>
            </g>
            <g id="Public/ic_brightness备份" transform="translate(3.666667, 3.666667)">
                <mask id="mask-4" fill="white">
                    <use xlink:href="#path-3"></use>
                </mask>
                <g id="形状结合" fill-rule="nonzero"></g>
                <g id="编组" mask="url(#mask-4)" fill-opacity="0.9">
                    <g transform="translate(-6.000000, -6.000000)">
                        <rect id="color/#000000" fill="#000000" x="0" y="0" width="24" height="24"></rect>
                    </g>
                </g>
            </g>
        </g>
    </g>
</svg>