<?xml version="1.0" encoding="UTF-8"?>
<svg width="24px" height="24px" viewBox="0 0 24 24" version="1.1" xmlns="http://www.w3.org/2000/svg" xmlns:xlink="http://www.w3.org/1999/xlink">
    <title>减</title>
    <g id="减" stroke="none" stroke-width="1" fill="none" fill-rule="evenodd">
        <path d="M19.031219,17.9401146 L22.9488058,21.8572022 C23.2905145,22.198911 23.2905145,22.7529303 22.9488058,23.0946391 C22.607097,23.4363479 22.0530777,23.4363479 21.7113689,23.0946391 L17.7820217,19.1659493 C18.2303141,18.7911551 18.6481326,18.3811241 19.031219,17.9401146 Z M17.9990583,16.9074548 L18.2043544,17.1124102 C17.825024,17.5566315 17.4065728,17.9664385 16.9543342,18.3364977 L16.7616214,18.1448916 C16.4199127,17.8031829 16.4199127,17.2491635 16.7616214,16.9074548 C17.1033302,16.565746 17.6573495,16.565746 17.9990583,16.9074548 Z" id="形状结合" fill="#000000" fill-rule="nonzero"></path>
        <path d="M10.7708333,1 C16.1671156,1 20.5416667,5.37455109 20.5416667,10.7708333 C20.5416667,16.1671156 16.1671156,20.5416667 10.7708333,20.5416667 C5.37455109,20.5416667 1,16.1671156 1,10.7708333 C1,5.37455109 5.37455109,1 10.7708333,1 Z M10.7708333,2.75 C6.3410494,2.75 2.75,6.3410494 2.75,10.7708333 C2.75,15.2006173 6.3410494,18.7916667 10.7708333,18.7916667 C15.2006173,18.7916667 18.7916667,15.2006173 18.7916667,10.7708333 C18.7916667,6.3410494 15.2006173,2.75 10.7708333,2.75 Z" id="椭圆形" fill="#000000" fill-rule="nonzero"></path>
        <rect id="矩形备份" fill-opacity="0.9" fill="#000000" fill-rule="nonzero" transform="translate(10.533333, 10.666667) rotate(-270.000000) translate(-10.533333, -10.666667) " x="9.78333333" y="4.66666667" width="1.5" height="12" rx="0.75"></rect>
    </g>
</svg>