<svg width="1605.000000" height="862.000000" viewBox="0 0 1605 862" fill="none" xmlns="http://www.w3.org/2000/svg" xmlns:xlink="http://www.w3.org/1999/xlink">
	<desc>
			Created with Pixso.
	</desc>
	<defs>
		<filter id="filter_151_110643_dd" x="115.733276" y="13.415283" width="1378.850220" height="783.456787" filterUnits="userSpaceOnUse" color-interpolation-filters="sRGB">
			<feFlood flood-opacity="0" result="BackgroundImageFix"/>
			<feGaussianBlur in="BackgroundImage" stdDeviation="25.1733"/>
			<feComposite in2="SourceAlpha" operator="in" result="effect_backgroundBlur_1"/>
			<feBlend mode="normal" in="SourceGraphic" in2="effect_backgroundBlur_1" result="shape"/>
		</filter>
	</defs>
	<rect id="#illustration_智慧屏" width="1605.000000" height="862.000000" fill="#FFFFFF" fill-opacity="0"/>
	<g filter="url(#filter_151_110643_dd)">
		<rect id="矩形 107" rx="5.484831" width="1376.107788" height="780.714355" transform="matrix(-1 0 0 1 1494.58 13.4153)" stroke="#0A59F7" stroke-opacity="0" stroke-width="2.742415" style=""/>
	</g>
	<path id="边框备份" d="M1485.48 811.62L119.46 811.62C111.48 811.62 105 805.65 105 798.29L105 13.33C105 5.98 111.46 0.01 119.46 0L1485.48 0C1493.48 0.01 1499.95 5.98 1499.95 13.33L1499.95 798.29C1499.95 805.64 1493.48 811.62 1485.48 811.62ZM1484.21 14.45L120.73 14.45C118.45 14.45 116.6 16.36 116.6 18.73L116.6 785.47C116.6 787.84 118.45 789.75 120.73 789.75L1484.21 789.75C1486.49 789.75 1488.34 787.84 1488.34 785.47L1488.34 18.73C1488.34 16.36 1486.49 14.45 1484.21 14.45Z" fill="#505259" fill-opacity="1.000000" fill-rule="evenodd"/>
	<path id="边框备份" d="M119.46 811.62C111.48 811.62 105 805.65 105 798.29L105 13.33C105 5.98 111.46 0.01 119.46 0L1485.48 0C1493.48 0.01 1499.95 5.98 1499.95 13.33L1499.95 798.29C1499.95 805.64 1493.48 811.62 1485.48 811.62L119.46 811.62ZM120.73 14.45C118.45 14.45 116.6 16.36 116.6 18.73L116.6 785.47C116.6 787.84 118.45 789.75 120.73 789.75L1484.21 789.75C1486.49 789.75 1488.34 787.84 1488.34 785.47L1488.34 18.73C1488.34 16.36 1486.49 14.45 1484.21 14.45L120.73 14.45Z" stroke="#000000" stroke-opacity="0" stroke-width="1.371208"/>
	<path id="形状结合" d="M379.8 794.75L305.06 859.21C300.5 863.14 293.69 862.88 289.43 858.63C285.18 854.38 284.93 847.57 288.86 843.02L330.55 794.75L379.8 794.75ZM1329.11 794.75L1370.8 843.02C1374.73 847.57 1374.48 854.38 1370.23 858.63C1366.06 862.79 1359.45 863.12 1354.9 859.45L1354.61 859.21L1279.86 794.75L1329.11 794.75Z" fill="#505259" fill-opacity="1.000000" fill-rule="evenodd"/>
	<path id="形状结合" d="M305.06 859.21C300.5 863.14 293.69 862.88 289.43 858.63C285.18 854.38 284.93 847.57 288.86 843.02L330.55 794.75L379.8 794.75L305.06 859.21ZM1370.8 843.02C1374.73 847.57 1374.48 854.38 1370.23 858.63C1366.06 862.79 1359.45 863.12 1354.9 859.45L1354.6 859.21L1279.86 794.75L1329.11 794.75L1370.8 843.02Z" stroke="#000000" stroke-opacity="0" stroke-width="1.371208"/>
</svg>
