<svg width="1285.000000" height="747.000488" viewBox="0 0 1285 747" fill="none" xmlns="http://www.w3.org/2000/svg" xmlns:xlink="http://www.w3.org/1999/xlink">
	<desc>
			Created with Pixso.
	</desc>
	<defs/>
	<rect id="#illustration_显示器" width="1285.000000" height="747.000000" transform="translate(0.000000 0.000244)" fill="#FFFFFF" fill-opacity="0"/>
	<rect id="矩形 123" width="1285.000000" height="747.000000" fill="#C4C4C4" fill-opacity="0"/>
	<path id="形状结合" d="M1168.32 0C1174.82 0 1180.1 5.26 1180.1 11.76L1180.1 630.08C1180.1 636.58 1174.82 641.84 1168.32 641.84L116.76 641.84C110.26 641.84 105 636.58 105 630.08L105 11.76C105 5.26 110.26 0 116.76 0L1168.32 0ZM1158.8 18L126.29 18C124.48 18 123.02 19.46 123.02 21.27L123.02 608.92C123.02 610.73 124.48 612.19 126.29 612.19L1158.8 612.19C1160.61 612.19 1162.06 610.73 1162.06 608.92L1162.06 21.27C1162.06 19.46 1160.61 18 1158.8 18Z" fill="#505259" fill-opacity="1.000000" fill-rule="evenodd"/>
	<path id="形状结合" d="M1180.1 11.76L1180.1 630.08C1180.1 636.58 1174.82 641.84 1168.32 641.84L116.76 641.84C110.26 641.84 105 636.58 105 630.08L105 11.76C105 5.26 110.26 0 116.76 0L1168.32 0C1174.82 0 1180.1 5.26 1180.1 11.76ZM126.29 18C124.48 18 123.02 19.46 123.02 21.27L123.02 608.92C123.02 610.73 124.48 612.19 126.29 612.19L1158.8 612.19C1160.61 612.19 1162.06 610.73 1162.06 608.92L1162.06 21.27C1162.06 19.46 1160.61 18 1158.8 18L126.29 18Z" stroke="#000000" stroke-opacity="0" stroke-width="0.995459"/>
	<rect id="矩形" x="618.656799" y="623.157471" rx="0.653822" width="50.768398" height="103.527710" fill="#505259" fill-opacity="1.000000"/>
	<rect id="矩形" x="618.656799" y="623.157471" rx="0.653822" width="50.768398" height="103.527710" stroke="#000000" stroke-opacity="0" stroke-width="0.995459"/>
	<rect id="矩形" x="463.365112" y="723.698975" rx="7.192042" width="360.485626" height="23.301476" fill="#505259" fill-opacity="1.000000"/>
	<rect id="矩形" x="463.365112" y="723.698975" rx="7.192042" width="360.485626" height="23.301476" stroke="#000000" stroke-opacity="0" stroke-width="0.995459"/>
</svg>
