<svg width="957.000000" height="973.000000" viewBox="0 0 957 973" fill="none" xmlns="http://www.w3.org/2000/svg" xmlns:xlink="http://www.w3.org/1999/xlink">
	<desc>
			Created with Pixso.
	</desc>
	<defs/>
	<rect id="#illustration_hopper" width="973.000000" height="957.000000" transform="translate(957.000000 0.000000) rotate(90.000000)" fill="#FFFFFF" fill-opacity="0"/>
	<rect id="矩形 132" width="957.000000" height="973.000000" fill="#C4C4C4" fill-opacity="0"/>
	<mask id="mask_151_110667" fill="white">
		<path id="减去顶层" d="M852 41.0894L852 431.118L851.984 432.804L851.955 434.404L851.885 436.654L851.783 438.732L851.698 440.029L851.597 441.259C851.562 441.658 851.524 442.047 851.484 442.426L851.356 443.533L851.215 444.585L851.06 445.584C850.979 446.071 850.893 446.54 850.802 446.992L850.613 447.876L850.41 448.721C850.34 448.997 850.268 449.266 850.194 449.53L849.964 450.307L849.659 451.237L849.333 452.13L849.058 452.822L848.768 453.499L848.467 454.162L848.153 454.817L847.741 455.63L847.657 455.792C847.235 456.597 846.783 457.376 846.303 458.129L846.301 476.103C849.774 478.923 852 483.272 852 488.151C852 493.031 849.774 497.38 846.301 500.2L846.303 518.173C846.783 518.926 847.235 519.706 847.657 520.511L848.163 521.505L848.483 522.175L848.79 522.853L849.084 523.544L849.364 524.253L849.63 524.982C849.76 525.353 849.885 525.732 850.003 526.124L850.236 526.922L850.453 527.754L850.657 528.625C850.92 529.813 851.145 531.114 851.331 532.568L851.464 533.688L851.524 534.271L851.686 536.116L851.813 538.117L851.909 540.287L851.954 541.833L851.984 543.465L852 545.185L852 935.594C852 956.221 835.278 972.943 814.65 972.943L142.35 972.943C121.722 972.943 105 956.221 105 935.594L105 545.185L105.017 543.499L105.045 541.898L105.115 539.649L105.217 537.57L105.303 536.274L105.403 535.044C105.438 534.644 105.476 534.255 105.516 533.876L105.644 532.769L105.785 531.718L105.94 530.719C106.021 530.232 106.107 529.763 106.198 529.31L106.387 528.426L106.59 527.581C106.66 527.306 106.732 527.037 106.806 526.772L107.036 525.996L107.341 525.065L107.667 524.172L107.943 523.48L108.231 522.804L108.533 522.14L108.847 521.485L109.259 520.673L109.343 520.511C110.616 518.083 112.156 515.891 113.946 513.95L113.947 502.215C108.675 499.815 105 494.421 105 488.151C105 481.882 108.675 476.488 113.947 474.088L113.947 462.354C112.156 460.412 110.616 458.219 109.343 455.792L109.009 455.143L108.689 454.491L108.231 453.499L107.943 452.822L107.667 452.13L107.341 451.237L107.036 450.307L106.806 449.53C106.732 449.266 106.66 448.997 106.59 448.721L106.387 447.876L106.198 446.992C106.107 446.54 106.021 446.071 105.94 445.584L105.785 444.585L105.644 443.533L105.516 442.426L105.458 441.85L105.351 440.652L105.238 439.063L105.13 437.012L105.065 435.174L105.029 433.614L105 431.972L105 41.0894C105 20.4624 121.722 3.74048 142.35 3.74048L814.65 3.74048C835.278 3.74048 852 20.4624 852 41.0894ZM807.177 963.6C823.679 963.6 837.057 950.223 837.057 933.721L837.057 41.0837C837.057 24.5815 823.679 11.2041 807.177 11.2041L149.818 11.2041C133.315 11.2041 119.937 24.5815 119.937 41.0837L119.937 933.721C119.937 950.223 133.315 963.6 149.818 963.6L807.177 963.6Z" clip-rule="evenodd" fill="" fill-opacity="1.000000" fill-rule="evenodd"/>
	</mask>
	<path id="减去顶层" d="M852 41.0894L852 431.118L851.984 432.804L851.955 434.404L851.885 436.654L851.783 438.732L851.698 440.029L851.597 441.259C851.562 441.658 851.524 442.047 851.484 442.426L851.356 443.533L851.215 444.585L851.06 445.584C850.979 446.071 850.893 446.54 850.802 446.992L850.613 447.876L850.41 448.721C850.34 448.997 850.268 449.266 850.194 449.53L849.964 450.307L849.659 451.237L849.333 452.13L849.058 452.822L848.768 453.499L848.467 454.162L848.153 454.817L847.741 455.63L847.657 455.792C847.235 456.597 846.783 457.376 846.303 458.129L846.301 476.103C849.774 478.923 852 483.272 852 488.151C852 493.031 849.774 497.38 846.301 500.2L846.303 518.173C846.783 518.926 847.235 519.706 847.657 520.511L848.163 521.505L848.483 522.175L848.79 522.853L849.084 523.544L849.364 524.253L849.63 524.982C849.76 525.353 849.885 525.732 850.003 526.124L850.236 526.922L850.453 527.754L850.657 528.625C850.92 529.813 851.145 531.114 851.331 532.568L851.464 533.688L851.524 534.271L851.686 536.116L851.813 538.117L851.909 540.287L851.954 541.833L851.984 543.465L852 545.185L852 935.594C852 956.221 835.278 972.943 814.65 972.943L142.35 972.943C121.722 972.943 105 956.221 105 935.594L105 545.185L105.017 543.499L105.045 541.898L105.115 539.649L105.217 537.57L105.303 536.274L105.403 535.044C105.438 534.644 105.476 534.255 105.516 533.876L105.644 532.769L105.785 531.718L105.94 530.719C106.021 530.232 106.107 529.763 106.198 529.31L106.387 528.426L106.59 527.581C106.66 527.306 106.732 527.037 106.806 526.772L107.036 525.996L107.341 525.065L107.667 524.172L107.943 523.48L108.231 522.804L108.533 522.14L108.847 521.485L109.259 520.673L109.343 520.511C110.616 518.083 112.156 515.891 113.946 513.95L113.947 502.215C108.675 499.815 105 494.421 105 488.151C105 481.882 108.675 476.488 113.947 474.088L113.947 462.354C112.156 460.412 110.616 458.219 109.343 455.792L109.009 455.143L108.689 454.491L108.231 453.499L107.943 452.822L107.667 452.13L107.341 451.237L107.036 450.307L106.806 449.53C106.732 449.266 106.66 448.997 106.59 448.721L106.387 447.876L106.198 446.992C106.107 446.54 106.021 446.071 105.94 445.584L105.785 444.585L105.644 443.533L105.516 442.426L105.458 441.85L105.351 440.652L105.238 439.063L105.13 437.012L105.065 435.174L105.029 433.614L105 431.972L105 41.0894C105 20.4624 121.722 3.74048 142.35 3.74048L814.65 3.74048C835.278 3.74048 852 20.4624 852 41.0894ZM807.177 963.6C823.679 963.6 837.057 950.223 837.057 933.721L837.057 41.0837C837.057 24.5815 823.679 11.2041 807.177 11.2041L149.818 11.2041C133.315 11.2041 119.937 24.5815 119.937 41.0837L119.937 933.721C119.937 950.223 133.315 963.6 149.818 963.6L807.177 963.6Z" clip-rule="evenodd" fill="#505259" fill-opacity="1.000000" fill-rule="evenodd" mask="url(#mask_151_110667)"/>
	<path id="减去顶层" d="" fill="#000000" fill-opacity="0.000000" fill-rule="nonzero"/>
	<path id="Rectangle备份" d="M691.96 11.2C690.61 11.2 689.52 10.11 689.52 8.77L689.52 0L689.52 0L767.96 0L767.96 8.77C767.96 10.11 766.86 11.2 765.52 11.2L691.96 11.2L691.96 11.2Z" fill="#505259" fill-opacity="1.000000" fill-rule="evenodd"/>
</svg>
