<svg width="1285.000000" height="747.000000" viewBox="0 0 1285 747" fill="none" xmlns="http://www.w3.org/2000/svg" xmlns:xlink="http://www.w3.org/1999/xlink">
	<desc>
			Created with Pixso.
	</desc>
	<defs/>
	<rect id="#illustration_显示器" width="1285.000000" height="747.000000" fill="#FFFFFF" fill-opacity="0"/>
	<rect id="矩形 123" width="1285.000000" height="747.000000" fill="#C4C4C4" fill-opacity="0"/>
	<rect id="#illustration_hopper" width="937.777161" height="720.000000" transform="translate(174.000000 13.000000)" fill="#FFFFFF" fill-opacity="0"/>
	<mask id="mask_275_106659" fill="white">
		<path id="减去顶层" d="M213.605 13L589.537 13L591.161 13.0156L592.704 13.043L594.872 13.1108L596.876 13.2095L598.126 13.2915L599.311 13.3882C599.696 13.4219 600.071 13.4585 600.436 13.4976L601.503 13.6206L602.517 13.7568L603.48 13.9058C603.949 13.9844 604.401 14.0669 604.837 14.1548L605.69 14.3369L606.504 14.5327C606.769 14.5996 607.029 14.6689 607.283 14.7407L608.032 14.9619L608.929 15.2563L609.79 15.5703L610.457 15.8359L611.108 16.1147L611.748 16.4048L612.38 16.708L613.163 17.1045L613.319 17.186C614.095 17.5928 614.846 18.0283 615.572 18.4912L632.896 18.4927C635.614 15.1455 639.806 13 644.509 13C649.212 13 653.404 15.1455 656.122 18.4927L673.446 18.4912C674.171 18.0283 674.922 17.5928 675.698 17.186L676.657 16.6987L677.302 16.3896L677.956 16.0938L678.623 15.811L679.305 15.541L680.008 15.2847C680.365 15.1592 680.731 15.0391 681.108 14.9243L681.878 14.7007L682.68 14.4912L683.52 14.2944C684.665 14.041 685.918 13.8242 687.32 13.645L688.4 13.5171L688.961 13.4585L690.74 13.3032L692.669 13.1802L694.76 13.0879L696.251 13.0444L697.823 13.0156L699.481 13L1075.78 13C1095.66 13 1111.78 29.1177 1111.78 49L1111.78 697C1111.78 716.882 1095.66 733 1075.78 733L699.481 733L697.856 732.984L696.313 732.957L694.145 732.889L692.142 732.791L690.892 732.708L689.706 732.612C689.321 732.578 688.946 732.542 688.581 732.502L687.514 732.379L686.5 732.243L685.538 732.094C685.068 732.016 684.616 731.933 684.18 731.845L683.328 731.663L682.513 731.467C682.248 731.4 681.988 731.331 681.734 731.259L680.986 731.038L680.089 730.744L679.228 730.43L678.561 730.164L677.909 729.885L677.269 729.595L676.638 729.292L675.855 728.895L675.698 728.814C673.359 727.587 671.246 726.103 669.375 724.377L658.064 724.376C655.75 729.458 650.551 733 644.509 733C638.466 733 633.267 729.458 630.954 724.376L619.643 724.376C617.772 726.102 615.659 727.587 613.319 728.814L612.693 729.136L612.065 729.445L611.108 729.885L610.457 730.164L609.79 730.43L608.929 730.744L608.032 731.038L607.283 731.259C607.029 731.331 606.769 731.4 606.504 731.467L605.69 731.663L604.837 731.845C604.401 731.933 603.949 732.016 603.48 732.094L602.517 732.243L601.503 732.379L600.436 732.502L599.881 732.559L598.726 732.662L597.194 732.771L595.217 732.875L593.446 732.938L591.943 732.972L590.359 733L213.605 733C193.724 733 177.606 716.882 177.606 697L177.606 49C177.606 29.1177 193.724 13 213.605 13ZM1102.77 56.2026C1102.77 40.2969 1089.88 27.4023 1073.97 27.4023L213.599 27.4023C197.693 27.4023 184.799 40.2969 184.799 56.2026L184.799 689.802C184.799 705.708 197.693 718.602 213.599 718.602L1073.97 718.602C1089.88 718.602 1102.77 705.708 1102.77 689.802L1102.77 56.2026Z" clip-rule="evenodd" fill="" fill-opacity="1.000000" fill-rule="evenodd"/>
	</mask>
	<path id="减去顶层" d="M213.605 13L589.537 13L591.161 13.0156L592.704 13.043L594.872 13.1108L596.876 13.2095L598.126 13.2915L599.311 13.3882C599.696 13.4219 600.071 13.4585 600.436 13.4976L601.503 13.6206L602.517 13.7568L603.48 13.9058C603.949 13.9844 604.401 14.0669 604.837 14.1548L605.69 14.3369L606.504 14.5327C606.769 14.5996 607.029 14.6689 607.283 14.7407L608.032 14.9619L608.929 15.2563L609.79 15.5703L610.457 15.8359L611.108 16.1147L611.748 16.4048L612.38 16.708L613.163 17.1045L613.319 17.186C614.095 17.5928 614.846 18.0283 615.572 18.4912L632.896 18.4927C635.614 15.1455 639.806 13 644.509 13C649.212 13 653.404 15.1455 656.122 18.4927L673.446 18.4912C674.171 18.0283 674.922 17.5928 675.698 17.186L676.657 16.6987L677.302 16.3896L677.956 16.0938L678.623 15.811L679.305 15.541L680.008 15.2847C680.365 15.1592 680.731 15.0391 681.108 14.9243L681.878 14.7007L682.68 14.4912L683.52 14.2944C684.665 14.041 685.918 13.8242 687.32 13.645L688.4 13.5171L688.961 13.4585L690.74 13.3032L692.669 13.1802L694.76 13.0879L696.251 13.0444L697.823 13.0156L699.481 13L1075.78 13C1095.66 13 1111.78 29.1177 1111.78 49L1111.78 697C1111.78 716.882 1095.66 733 1075.78 733L699.481 733L697.856 732.984L696.313 732.957L694.145 732.889L692.142 732.791L690.892 732.708L689.706 732.612C689.321 732.578 688.946 732.542 688.581 732.502L687.514 732.379L686.5 732.243L685.538 732.094C685.068 732.016 684.616 731.933 684.18 731.845L683.328 731.663L682.513 731.467C682.248 731.4 681.988 731.331 681.734 731.259L680.986 731.038L680.089 730.744L679.228 730.43L678.561 730.164L677.909 729.885L677.269 729.595L676.638 729.292L675.855 728.895L675.698 728.814C673.359 727.587 671.246 726.103 669.375 724.377L658.064 724.376C655.75 729.458 650.551 733 644.509 733C638.466 733 633.267 729.458 630.954 724.376L619.643 724.376C617.772 726.102 615.659 727.587 613.319 728.814L612.693 729.136L612.065 729.445L611.108 729.885L610.457 730.164L609.79 730.43L608.929 730.744L608.032 731.038L607.283 731.259C607.029 731.331 606.769 731.4 606.504 731.467L605.69 731.663L604.837 731.845C604.401 731.933 603.949 732.016 603.48 732.094L602.517 732.243L601.503 732.379L600.436 732.502L599.881 732.559L598.726 732.662L597.194 732.771L595.217 732.875L593.446 732.938L591.943 732.972L590.359 733L213.605 733C193.724 733 177.606 716.882 177.606 697L177.606 49C177.606 29.1177 193.724 13 213.605 13ZM1102.77 56.2026C1102.77 40.2969 1089.88 27.4023 1073.97 27.4023L213.599 27.4023C197.693 27.4023 184.799 40.2969 184.799 56.2026L184.799 689.802C184.799 705.708 197.693 718.602 213.599 718.602L1073.97 718.602C1089.88 718.602 1102.77 705.708 1102.77 689.802L1102.77 56.2026Z" clip-rule="evenodd" fill="#505259" fill-opacity="1.000000" fill-rule="evenodd" mask="url(#mask_275_106659)"/>
	<path id="减去顶层" d="" fill="#000000" fill-opacity="0.000000" fill-rule="nonzero"/>
	<path id="Rectangle备份" d="M184.8 167.25C184.8 168.55 183.75 169.6 182.45 169.6L174 169.6L174 169.6L174 94L182.45 94C183.75 94 184.8 95.05 184.8 96.35L184.8 167.25L184.8 167.25Z" fill="#505259" fill-opacity="1.000000" fill-rule="evenodd"/>
</svg>
