<svg width="1204.000000" height="747.000000" viewBox="0 0 1204 747" fill="none" xmlns="http://www.w3.org/2000/svg" xmlns:xlink="http://www.w3.org/1999/xlink">
	<desc>
			Created with Pixso.
	</desc>
	<defs/>
	<path id="形状结合" d="M1087.94 0C1094.05 0 1099 4.94 1099 11.04L1099 678L105 678L105 11.04C105 4.94 109.94 0 116.04 0L1087.94 0ZM1079.43 19.23L126.63 19.23L126.63 665.73L1079.43 665.73L1079.43 19.23Z" fill="#505259" fill-opacity="1.000000" fill-rule="evenodd"/>
	<path id="形状结合" d="M1099 11.04L1099 678L105 678L105 11.04C105 4.94 109.94 0 116.04 0L1087.94 0C1094.05 0 1099 4.94 1099 11.04ZM126.63 19.23L126.63 665.73L1079.43 665.73L1079.43 19.23L126.63 19.23Z" stroke="#000000" stroke-opacity="0" stroke-width="1.115949"/>
	<g opacity="0.100000"/>
	<path id="路径" d="M10.1 678C4.52 678 0 682.17 0 687.32L0 694.83C0 723.64 25.29 747 56.5 747L1147.49 747C1162.48 747 1176.85 741.5 1187.44 731.72C1198.05 721.94 1204 708.67 1204 694.83L1204 687.32C1204 682.17 1199.48 678 1193.9 678L10.1 678Z" fill="#737580" fill-opacity="0.200000" fill-rule="evenodd"/>
	<path id="路径" d="M0 687.32L0 694.83C0 723.64 25.29 747 56.5 747L1147.49 747C1162.48 747 1176.85 741.5 1187.44 731.72C1198.05 721.94 1204 708.67 1204 694.83L1204 687.32C1204 682.17 1199.48 678 1193.9 678L10.1 678C4.52 678 0 682.17 0 687.32Z" stroke="#000000" stroke-opacity="0" stroke-width="1.115949"/>
	<path id="路径" d="M500.63 678.06L703.56 678.06C697.77 683.98 689.84 687.32 681.56 687.32L521.22 687.3C513.35 687.3 505.86 683.94 500.63 678.06Z" fill="#737580" fill-opacity="1.000000" fill-rule="evenodd"/>
	<path id="路径" d="M703.56 678.06C697.77 683.98 689.84 687.32 681.56 687.32L521.22 687.3C513.35 687.3 505.86 683.94 500.63 678.06L703.56 678.06Z" stroke="#000000" stroke-opacity="0" stroke-width="1.115949"/>
</svg>
