<svg width="60.000000" height="30.000000" viewBox="0 0 60 30" fill="none" xmlns="http://www.w3.org/2000/svg" xmlns:xlink="http://www.w3.org/1999/xlink">
	<desc>
			Created with Pixso.
	</desc>
	<defs/>
	<path id="矩形 4 (边框)" d="M60 5C60 2.23 57.76 0 55 0L5 0C2.23 0 0 2.23 0 5L0 25C0 27.76 2.23 30 5 30L55 30C57.76 30 60 27.76 60 25L60 5ZM59 5C59 2.79 57.2 1 55 1L5 1C2.79 1 1 2.79 1 5L1 25C1 27.2 2.79 29 5 29L55 29C57.2 29 59 27.2 59 25L59 5Z" fill="#000000" fill-opacity="0.600000" fill-rule="evenodd"/>
	<path id="L2HC" d="M26.09 20.68L19.88 20.68L23.25 17.37C24.41 16.24 25.25 15.29 25.75 14.56C26.24 13.81 26.54 13.02 26.62 12.18C26.73 11.31 26.62 10.56 26.33 9.93C26.18 9.61 25.99 9.32 25.75 9.08C25.54 8.85 25.28 8.66 24.99 8.5C24.37 8.16 23.66 8 22.87 8C22.45 8 22.05 8.04 21.66 8.12C21.04 8.27 20.44 8.52 19.87 8.89C19.54 9.1 19.24 9.34 18.98 9.6C18.49 10.11 18.11 10.72 17.83 11.43L19.41 12.39C19.7 11.62 20.13 11.02 20.69 10.56C21.07 10.26 21.48 10.06 21.91 9.97C22.1 9.93 22.29 9.91 22.49 9.91C23.12 9.91 23.62 10.12 23.99 10.52C24.3 10.93 24.48 11.55 24.4 12.27C24.33 12.87 24.09 13.45 23.71 13.98C23.33 14.5 22.69 15.22 21.76 16.14L16.69 21.18L16.54 22.54L25.88 22.54L26.09 20.68ZM54.29 19.7L52.69 18.7C52.28 19.37 51.79 19.89 51.2 20.27C51.08 20.35 50.96 20.41 50.83 20.48C50.33 20.72 49.78 20.83 49.16 20.83C48.32 20.83 47.58 20.6 46.98 20.16C46.36 19.7 45.91 19.06 45.65 18.24C45.37 17.41 45.29 16.45 45.41 15.37C45.54 14.29 45.83 13.35 46.29 12.52C46.75 11.68 47.33 11.04 48.04 10.6C48.76 10.14 49.54 9.93 50.4 9.93C51.16 9.93 51.79 10.12 52.29 10.5C52.8 10.87 53.17 11.39 53.42 12.08L55.25 11.06C54.99 10.14 54.44 9.39 53.62 8.85C52.79 8.29 51.8 8 50.65 8C49.42 8 48.26 8.31 47.19 8.93C46.12 9.54 45.21 10.41 44.5 11.52C43.79 12.64 43.36 13.93 43.2 15.37C43.04 16.81 43.19 18.1 43.63 19.23C43.96 20.01 44.41 20.68 44.98 21.23C45.21 21.45 45.46 21.64 45.74 21.83C46.67 22.45 47.75 22.75 48.99 22.75C50.15 22.75 51.2 22.48 52.13 21.93C52.78 21.55 53.3 21.1 53.73 20.56C53.94 20.3 54.12 20.01 54.29 19.7ZM8.29 20.66L9.7 8.25L7.61 8.25L6 22.54L15.15 22.54L15.36 20.66L8.29 20.66ZM38.66 14.18L39.33 8.25L41.44 8.25L39.83 22.54L37.71 22.54L38.46 16.06L31.19 16.06L30.46 22.54L28.37 22.54L29.98 8.25L32.07 8.25L31.4 14.18L38.66 14.18Z" fill="#000000" fill-opacity="0.600000" fill-rule="evenodd"/>
</svg>
