<?xml version="1.0" encoding="UTF-8"?>
<svg width="32px" height="32px" viewBox="0 0 32 32" version="1.1" xmlns="http://www.w3.org/2000/svg" xmlns:xlink="http://www.w3.org/1999/xlink">
    <title>WLAN_icon备份 14</title>
    <g id="页面-1" stroke="none" stroke-width="1" fill="none" fill-rule="evenodd">
        <g id="#illustration_设置-PC-NEXT-首页" transform="translate(-468.000000, -452.000000)">
            <g id="nav" transform="translate(444.000000, 75.000000)">
                <g id="左侧导航" transform="translate(0.000000, 129.000000)">
                    <g id="Group" transform="translate(16.000000, 144.000000)">
                        <g id="列表高度56图标32" transform="translate(0.000000, 96.000000)">
                            <g transform="translate(8.000000, 8.000000)" id="编组">
                                <circle id="椭圆形" fill="#34C759" cx="16" cy="16" r="16"></circle>
                                <path d="M15.7758676,19.4619985 C16.6919546,19.4619985 17.5854139,19.5149537 18.4338028,19.6152409 C18.2460336,20.8244976 17.9666605,21.9183538 17.611388,22.8293055 C17.0711016,24.2146502 16.4616024,24.920075 16.0680421,24.9941798 L16.0197819,24.9979985 L15.979206,25 C15.6072473,24.9758074 15.0131117,24.3360347 14.472607,23.0336742 L14.3903918,22.8293055 C14.0304532,21.9063897 13.7484209,20.7957335 13.5615242,19.5696549 C14.2756867,19.4982381 15.0180346,19.4619985 15.7758676,19.4619985 Z M12.2215289,19.7429124 C12.5449725,21.8885974 13.1383381,23.6898568 13.8948537,24.872917 L13.9296028,24.9274815 C13.8199275,24.9187005 13.7108502,24.9091472 13.6024154,24.8988327 C11.4175035,24.2808633 9.5652017,22.838926 8.3837819,20.919256 C8.60152444,20.804594 8.84567704,20.6906685 9.11647219,20.5795955 C9.9748593,20.2275076 10.9997988,19.9481084 12.1300962,19.7567311 L12.2215289,19.7429124 Z M19.7685807,19.8188592 C20.761974,20.0066256 21.6655738,20.2638891 22.4352631,20.5795955 C22.8526862,20.7508115 23.2068031,20.9288051 23.4990122,21.1049478 C22.3633155,22.8555135 20.661271,24.1854269 18.6612726,24.8194705 C18.4769946,24.8428903 18.2903122,24.8645055 18.1015982,24.8838048 C18.8398498,23.7316694 19.4241414,21.990164 19.7538649,19.9134278 L19.7685807,19.8188592 Z M24.1595136,12.0986911 C24.6987992,13.2834666 25,14.6051289 25,15.998944 C25,17.3930894 24.6986565,18.7150478 24.1591302,19.9000392 C23.1130239,19.2683511 21.6528098,18.7608553 19.9385072,18.4434015 C20.0122315,17.6600486 20.0512903,16.8416484 20.0512903,15.9998568 C20.0512903,15.158065 20.0122315,14.3396648 19.9385072,13.5559212 C21.6397317,13.2412799 23.0907295,12.7390946 24.1355042,12.1137471 L24.1595136,12.0986911 Z M7.75100478,12.3025535 C8.85851842,12.8917531 10.3431068,13.3555764 12.05656,13.6332318 C11.9870586,14.392715 11.9504894,15.1853356 11.9504894,15.9998568 C11.9504894,16.8143778 11.9870586,17.6069985 12.0562168,18.3675133 C10.3435233,18.6440695 8.85924017,19.1077349 7.75181252,19.6967303 C7.26818285,18.5651058 7,17.3141466 7,15.998944 C7,14.7042153 7.25989819,13.4717453 7.72910519,12.3534204 L7.75100478,12.3025535 Z M18.6009382,13.7583179 C18.6667568,14.4816948 18.7011569,15.2330461 18.7011569,15.9998568 C18.7011569,16.7666673 18.6667568,17.5180186 18.6009382,18.2413956 C17.7042834,18.1345414 16.7563477,18.0773882 15.7758676,18.0773882 C14.9564977,18.0773882 14.1598555,18.117302 13.3968675,18.1926479 C13.3335238,17.4849017 13.3006229,16.749772 13.3006229,15.9998568 C13.3006229,15.2499415 13.3335238,14.5148117 13.3965367,13.8061735 C14.1598555,13.8824115 14.9564977,13.9223252 15.7758676,13.9223252 C16.7401761,13.9223252 17.6730049,13.8670418 18.5565435,13.7637804 L18.6009382,13.7583179 Z M16.0282908,7.00061593 L16.0581663,7.00379923 C16.4513538,7.06783062 17.0665614,7.77342166 17.611388,9.17040794 C17.9666605,10.0813596 18.2460336,11.1752158 18.4329392,12.3824344 C17.5854139,12.4847597 16.6919546,12.5377149 15.7758676,12.5377149 C15.0180346,12.5377149 14.2756867,12.5014753 13.5615291,12.4321798 C13.7484209,11.20398 14.0304532,10.0933238 14.3903918,9.17040794 C14.9306782,7.78506318 15.5401774,7.07963847 15.9337377,7.00553371 L15.9898384,7 L16.0282908,7.00061593 Z M13.9302477,7.07207968 C13.156849,8.25394494 12.5499999,10.0777651 12.2215289,12.256801 C11.0546592,12.0664759 9.99778232,11.7816083 9.11647219,11.420118 C8.84534804,11.30891 8.60093119,11.1948426 8.38283842,11.0802803 C9.56285709,9.16215527 11.4120086,7.72109135 13.5939962,7.10174494 L13.6942214,7.09234399 L13.9302477,7.07207968 Z M18.1015982,7.11590862 C18.2936835,7.13555277 18.4836641,7.15759623 18.6712896,7.18197629 C20.6674501,7.81699546 22.3662513,9.14607432 23.4996052,10.8940537 C23.2074788,11.0705687 22.8530845,11.2487386 22.4352631,11.420118 C21.6655738,11.7358243 20.761974,11.9930878 19.7685807,12.1808542 C19.4427007,10.0684501 18.8544636,8.29581661 18.106926,7.12679639 L18.1015982,7.11590862 Z" id="形状结合" fill="#FFFFFF"></path>
                            </g>
                        </g>
                    </g>
                </g>
            </g>
        </g>
    </g>
</svg>