<?xml version="1.0" encoding="UTF-8"?>
<svg width="24px" height="24px" viewBox="0 0 24 24" version="1.1" xmlns="http://www.w3.org/2000/svg" xmlns:xlink="http://www.w3.org/1999/xlink">
    <title>编组</title>
    <defs>
        <path d="M15.164557,1 C18.9396679,1 22,4.09235882 22,7.90697674 C22,11.7215947 18.9396679,14.8139535 15.164557,14.8139535 C13.9696786,14.8139535 12.846408,14.5041561 11.8691201,13.9597146 L10.302714,15.5087799 L10.8742514,16.8908751 C10.9531236,17.0816042 10.9083338,17.3011169 10.7610441,17.4456996 L10.7610441,17.4456996 L9.81808209,18.3713304 C9.66747949,18.519165 9.44097717,18.5580868 9.24966344,18.4690067 L9.24966344,18.4690067 L7.9578376,17.8675025 L7.14277754,18.6170979 L7.75125562,20.1092612 C7.8278391,20.297066 7.7849635,20.5124493 7.6422971,20.6566087 L7.6422971,20.6566087 L5.47178929,22.8498312 C5.37668712,22.9459286 5.24710211,23 5.11190176,23 L5.11190176,23 L2.50632911,23 C2.22669127,23 2,22.7733087 2,22.4936709 L2,22.4936709 L2,19.6030175 C2,19.4750217 2.04847599,19.3517753 2.13567414,19.2580768 L2.13567414,19.2580768 L9.33720555,11.5190845 C8.69784335,10.4681534 8.32911392,9.23107637 8.32911392,7.90697674 C8.32911392,4.09235882 11.389446,1 15.164557,1 Z M15.164557,5.86046512 C14.0460056,5.86046512 13.1392405,6.77671958 13.1392405,7.90697674 C13.1392405,9.03723391 14.0460056,9.95348837 15.164557,9.95348837 C16.2831084,9.95348837 17.1898734,9.03723391 17.1898734,7.90697674 C17.1898734,6.77671958 16.2831084,5.86046512 15.164557,5.86046512 Z" id="path-1"></path>
    </defs>
    <g id="首页" stroke="none" stroke-width="1" fill="none" fill-rule="evenodd">
        <g id="编组">
            <rect id="矩形" x="0" y="0" width="24" height="24"></rect>
            <mask id="mask-2" fill="white">
                <use xlink:href="#path-1"></use>
            </mask>
            <use id="形状结合" fill="#00BFC9" xlink:href="#path-1"></use>
        </g>
    </g>
</svg>