<?xml version="1.0" standalone="no"?><!DOCTYPE svg PUBLIC "-//W3C//DTD SVG 1.1//EN" "http://www.w3.org/Graphics/SVG/1.1/DTD/svg11.dtd"><svg t="1642398140073" class="icon" viewBox="0 0 1024 1024" version="1.1" xmlns="http://www.w3.org/2000/svg" p-id="9455" xmlns:xlink="http://www.w3.org/1999/xlink" width="50" height="50"><defs><style type="text/css"></style></defs><path d="M512 2.56C231.424 2.56 3.584 229.888 3.584 510.976S231.424 1018.88 512 1018.88s508.416-227.328 508.416-508.416S793.088 2.56 512 2.56z m0 941.568c-239.616 0-433.664-194.048-433.664-433.664S272.384 76.8 512 76.8s433.664 194.048 433.664 433.664-194.048 433.664-433.664 433.664z" fill="#F4DCCB" p-id="9456"></path><path d="M366.08 466.944c-11.264 0-20.48-9.216-20.48-20.48V399.36c0-76.8 62.464-139.776 139.776-139.776 65.536 0 122.88 46.08 136.704 109.568 2.56 11.264-4.608 22.016-15.872 24.576s-22.016-4.608-24.576-15.872c-9.728-44.544-50.176-77.312-96.768-77.312-54.272 0-98.816 44.032-98.816 98.816v47.104c0.512 11.264-8.704 20.48-19.968 20.48z" fill="#FF9D4D" p-id="9457"></path><path d="M629.76 761.344H336.896c-32.256 0-58.368-25.6-58.368-56.832v-220.16c0-31.232 26.112-56.832 58.368-56.832h209.92c11.264 0 20.48 9.216 20.48 20.48s-9.216 20.48-20.48 20.48h-209.92c-9.216 0-17.408 7.68-17.408 15.872v220.16c0 8.704 8.192 15.872 17.408 15.872H629.76c9.216 0 17.408-7.68 17.408-15.872v-165.376c0-11.264 9.216-20.48 20.48-20.48s20.48 9.216 20.48 20.48v165.376c0 31.232-26.112 56.832-58.368 56.832z" fill="#FF9D4D" p-id="9458"></path><path d="M486.912 655.872c-5.12 0-10.24-2.048-14.336-6.144-8.192-8.192-8.192-20.992 0-29.184l258.56-259.584c8.192-8.192 20.992-8.192 29.184 0 8.192 8.192 8.192 20.992 0 29.184L501.76 649.728c-4.608 4.096-9.728 6.144-14.848 6.144z" fill="#FF9D4D" p-id="9459"></path></svg>