<?xml version="1.0" encoding="UTF-8"?>
<svg width="26px" height="24px" viewBox="0 0 26 24" version="1.1" xmlns="http://www.w3.org/2000/svg" xmlns:xlink="http://www.w3.org/1999/xlink">
    <title>编组 17</title>
    <defs>
        <path d="M12.5000019,16.25 C13.7426426,16.25 14.7500019,17.2573593 14.7500019,18.5 C14.7500019,19.7426407 13.7426426,20.75 12.5000019,20.75 C11.2573612,20.75 10.2500019,19.7426407 10.2500019,18.5 C10.2500019,17.2573593 11.2573612,16.25 12.5000019,16.25 Z M12.5006887,11.75 C14.6153508,11.75 16.5906512,12.5991668 17.9758076,14.0606505 C18.3557241,14.4615019 18.3387531,15.0944394 17.9379017,15.474356 C17.5370503,15.8542725 16.9041128,15.8373015 16.5241962,15.4364501 C15.5167691,14.37351 14.0663833,13.75 12.5006887,13.75 C10.9343795,13.75 9.48348124,14.3740033 8.47603239,15.4376625 C8.09624686,15.8386381 7.46331494,15.855816 7.06233938,15.4760305 C6.66136382,15.0962449 6.64418591,14.463313 7.02397143,14.0623375 C8.40917777,12.5998439 10.3851881,11.75 12.5006887,11.75 Z M12.5002712,7.25 C15.7685405,7.25 18.8186209,8.65678629 20.9943041,11.0815569 C21.3631436,11.4926237 21.3289116,12.1248626 20.9178448,12.4937021 C20.5067781,12.8625415 19.8745391,12.8283095 19.5056997,12.4172428 C17.7035149,10.4087313 15.1912473,9.25 12.5002712,9.25 C9.80904482,9.25 7.29656395,10.4089485 5.49435362,12.4177878 C5.12554461,12.8288819 4.49330822,12.8631607 4.08221412,12.4943517 C3.67112002,12.1255427 3.63684119,11.4933063 4.0056502,11.0822122 C6.18136161,8.65704879 9.23169833,7.25 12.5002712,7.25 Z M12.4995382,2.75 C16.8001124,2.75 20.8214935,4.51017363 23.72441,7.56062864 C24.1051393,7.96070819 24.0894528,8.59367883 23.6893733,8.97440812 C23.2892937,9.35513741 22.6563231,9.33945092 22.2755938,8.93937136 C19.7465273,6.28176711 16.2469753,4.75 12.4995382,4.75 C8.75253964,4.75 5.25336106,6.28140612 2.72434626,8.9384639 C2.34357996,9.33850824 1.71060788,9.35413618 1.31056354,8.97336988 C0.910519204,8.59260359 0.894891263,7.9596315 1.27565756,7.55958716 C4.17851511,4.50975912 8.19946773,2.75 12.4995382,2.75 Z" id="path-1"></path>
    </defs>
    <g id="首页" stroke="none" stroke-width="1" fill="none" fill-rule="evenodd">
        <g id="编组-17" transform="translate(0.499998, 0.000000)">
            <rect id="color/#000000" fill-rule="nonzero" x="0.50000191" y="0" width="24" height="24"></rect>
            <mask id="mask-2" fill="white">
                <use xlink:href="#path-1"></use>
            </mask>
            <use id="合并形状" fill="#00AAEE" fill-rule="nonzero" xlink:href="#path-1"></use>
        </g>
    </g>
</svg>