<?xml version="1.0" encoding="UTF-8"?>
<svg width="35px" height="36px" viewBox="0 0 24 24" version="1.1" xmlns="http://www.w3.org/2000/svg" xmlns:xlink="http://www.w3.org/1999/xlink">
    <title>Artboard</title>
    <g id="Artboard" stroke="none" stroke-width="1" fill="none" fill-rule="evenodd">
        <path d="M6.7,0 C1.8,0 0,1.8 0,6.7 L0,17.2 C0,22.2 1.8,24 6.7,24 L17.2,24 C22.2,24 24,22.2 24,17.3 L24,6.7 C24,1.8 22.2,0 17.3,0 L6.7,0 Z" id="Path" fill="#A0A0A1" fill-rule="nonzero"></path>
        <path d="M12,17.7 C8.9,17.7 6.3,15.1 6.3,12 C6.3,8.9 8.9,6.3 12,6.3 C15.1,6.3 17.7,8.9 17.7,12 C17.7,15.1 15.1,17.7 12,17.7 Z M20.5,10.9 L19.1,10.6 C18.9,9.6 18.5,8.8 18,8 L18.8,6.8 C19,6.5 19,6.3 18.8,6 L18,5.2 C17.8,5 17.5,5.1 17.2,5.2 L16,6 C15.2,5.5 14.4,5.1 13.4,4.9 L13.1,3.5 C13,3.2 12.8,3 12.5,3 L11.5,3 C11.2,3 11.1,3.2 11,3.5 L10.6,5 C9.6,5.1 8.8,5.5 8,6 L6.8,5.3 C6.5,5.1 6.2,5.1 6,5.3 L5.2,6 C5,6.2 5,6.5 5.2,6.8 L6,8 C5.5,8.8 5.1,9.7 4.9,10.6 L3.5,11 C3.2,11.1 3,11.2 3,11.5 L3,12.6 C3,12.9 3.2,13 3.5,13.1 L4.9,13.5 C5.1,14.4 5.5,15.2 6,16 L5.2,17.2 C5.1,17.4 5,17.8 5.2,18 L6,18.8 C6.2,19 6.4,19 6.8,18.8 L8,18 C8.8,18.5 9.6,18.9 10.6,19.1 L10.9,20.5 C11,20.8 11.1,21 11.4,21 L12.4,21 C12.7,21 12.9,20.8 12.9,20.5 L13.2,19.1 C14.2,18.9 15,18.5 15.8,18 L17,18.8 C17.3,19 17.5,19 17.8,18.8 L18.6,18 C18.8,17.8 18.7,17.5 18.6,17.2 L18,16 C18.5,15.2 18.9,14.4 19.1,13.4 L20.5,13 C20.8,12.9 21,12.8 21,12.5 L21,11.4 C21,11.2 20.8,11 20.5,10.9 Z" id="Shape" fill="#FFFFFF" fill-rule="nonzero"></path>
        <path d="M12,13.9 C11,13.9 10.1,13 10.1,12 C10.1,11 11,10.1 12,10.1 C13,10.1 13.9,11 13.9,12 C13.9,13 13,13.9 12,13.9 Z M12,8.6 C10.1,8.6 8.6,10.1 8.6,12 C8.6,13.9 10.1,15.4 12,15.4 C13.9,15.4 15.4,13.9 15.4,12 C15.4,10.1 13.9,8.6 12,8.6 Z" id="Shape" fill="#FFFFFF" fill-rule="nonzero"></path>
    </g>
</svg>