<?xml version="1.0" encoding="utf-8"?>
<!-- Generator: Adobe Illustrator 18.1.1, SVG Export Plug-In . SVG Version: 6.00 Build 0)  -->
<svg version="1.1" id="图层_1" xmlns="http://www.w3.org/2000/svg" xmlns:xlink="http://www.w3.org/1999/xlink" x="0px" y="0px"
	 viewBox="0 0 96 96" enable-background="new 0 0 96 96" xml:space="preserve">
<path fill="#CCCCCC" d="M87,45h-7.1c-0.6-6.6-3.2-12.6-7.2-17.4l5-5c1.2-1.2,1.2-3.1,0-4.2c-1.2-1.2-3.1-1.2-4.2,0l-5,5
	c-4.8-4-10.8-6.6-17.4-7.2V9c0-1.7-1.3-3-3-3s-3,1.3-3,3v7.1c-6.6,0.6-12.6,3.2-17.4,7.2l-5-5c-1.2-1.2-3.1-1.2-4.2,0
	c-1.2,1.2-1.2,3.1,0,4.2l5,5c-4,4.8-6.6,10.8-7.2,17.4H9c-1.7,0-3,1.3-3,3s1.3,3,3,3h7.1c0.6,6.6,3.2,12.6,7.2,17.4l-5,5
	c-1.2,1.2-1.2,3.1,0,4.2c0.6,0.6,1.4,0.9,2.1,0.9s1.5-0.3,2.1-0.9l5-5c4.8,4,10.8,6.6,17.4,7.2V87c0,1.7,1.3,3,3,3s3-1.3,3-3v-7.1
	c6.6-0.6,12.6-3.2,17.4-7.2l5,5c0.6,0.6,1.4,0.9,2.1,0.9s1.5-0.3,2.1-0.9c1.2-1.2,1.2-3.1,0-4.2l-5-5c4-4.8,6.6-10.8,7.2-17.4H87
	c1.7,0,3-1.3,3-3S88.7,45,87,45z"/>
</svg>
