<?xml version="1.0" encoding="UTF-8"?>
<svg width="40px"
     height="40px"
     viewBox="0 0 96 96"
     version="1.1"
     xmlns="http://www.w3.org/2000/svg"
     xmlns:xlink="http://www.w3.org/1999/xlink">
    <title>ic_wifi_lock_signal_3_dark</title>
    <g
        id="ic_wifi_lock_signal_3_dark"
        stroke="none"
        stroke-width="1"
        fill="none"
        fill-rule="evenodd">
        <path
            d="M64.1,54.9 C59.6,50 53.2,46.9 46,46.9 C38.8,46.9 32.4,50 27.9,54.9 L27.9,54.9 C27.3,55.4 27,56.2 27,57 C27,58.7 28.3,60 30,60 C30.8,60 31.6,59.7 32.1,59.1 L32.1,59.1 C35.6,55.4 40.5,53 46,53 C51.5,53 56.4,55.4 59.8,59.2 L59.8,59.2 C60.3,59.7 61.1,60.1 61.9,60.1 C63.6,60.1 64.9,58.8 64.9,57.1 C64.9,56.2 64.6,55.5 64.1,54.9 L64.1,54.9 Z"
            id="Path"
            fill="#000000"
            fill-rule="nonzero"></path>
        <path
            d="M74.7,44.3 C67.5,36.7 57.3,32 46,32 C34.7,32 24.5,36.7 17.3,44.4 L17.3,44.4 C16.8,44.9 16.5,45.7 16.5,46.5 C16.5,48.2 17.8,49.5 19.5,49.5 C20.4,49.5 21.1,49.1 21.7,48.5 C27.8,42 36.4,38 46,38 C55.6,38 64.2,42 70.3,48.5 L70.3,48.5 C70.3,48.5 70.3,48.5 70.4,48.6 L70.4,48.6 C70.9,49.1 71.6,49.4 72.4,49.4 C74.1,49.4 75.4,48.1 75.4,46.4 C75.5,45.6 75.2,44.9 74.7,44.3 L74.7,44.3 Z"
            id="Path"
            fill="#000000"
            fill-rule="nonzero"></path>
        <path
            d="M85.1,33.9 L85.1,33.9 C75.3,23.5 61.4,17 46,17 C30.6,17 16.7,23.5 6.8,33.9 L6.8,33.9 C6.3,34.4 6,35.1 6,35.9 C6,37.6 7.3,38.9 9,38.9 C9.8,38.9 10.5,38.6 11.1,38.1 L11.1,38.1 L11.1,38.1 L11.2,38 C19.9,28.8 32.3,23 46,23 C59.7,23 72.1,28.8 80.9,38 C81.4,38.6 82.2,38.9 83.1,38.9 C84.8,38.9 86.1,37.6 86.1,35.9 C86,35.2 85.7,34.4 85.1,33.9"
            id="Path"
            fill="#000000"
            fill-rule="nonzero"
            opacity="0.25"></path>
        <path
            d="M46,64 C41.9,64 38.5,67.4 38.5,71.5 C38.5,75.6 41.9,79 46,79 C50.1,79 53.5,75.6 53.5,71.5 C53.5,67.4 50.1,64 46,64"
            id="Path"
            fill="#000000"
            fill-rule="nonzero"></path>
        <path
            d="M88.1,61.5 L88.1,61.5 L88,59.5 C88,54.8 84.2,51 79.5,51 C74.8,51 71,54.8 71,59.5 L71,61.5 L70.9,61.5 C69.3,61.5 68,62.8 68,64.4 L68,77.1 C68,78.7 69.3,80 70.9,80 L88.1,80 C89.7,80 91,78.7 91,77.1 L91,64.4 C91,62.8 89.7,61.5 88.1,61.5 Z M75,59.5 C75,57 77,55 79.5,55 C82,55 84,57 84,59.5 L84,61.5 L75,61.5 L75,59.5 Z"
            id="Shape"
            fill="#000000"
            fill-rule="nonzero"></path>
    </g>
</svg>