<?xml version="1.0" encoding="UTF-8"?>
<svg width="40px"
     height="40px"
     viewBox="0 0 96 96"
     version="1.1"
     xmlns="http://www.w3.org/2000/svg"
     xmlns:xlink="http://www.w3.org/1999/xlink">
    <title>ic_wifi_lock_signal_1_dark</title>
    <g
        id="ic_wifi_lock_signal_1_dark"
        stroke="none"
        stroke-width="1"
        fill="none"
        fill-rule="evenodd">
        <path
            d="M66.1,54.9 C61.6,50 55.2,46.9 48,46.9 C40.8,46.9 34.4,50 29.9,54.9 L29.9,54.9 C29.3,55.4 29,56.2 29,57 C29,58.7 30.3,60 32,60 C32.8,60 33.6,59.7 34.1,59.1 L34.1,59.1 C37.6,55.4 42.5,53 48,53 C53.5,53 58.4,55.4 61.8,59.2 L61.8,59.2 C62.3,59.7 63.1,60.1 63.9,60.1 C65.6,60.1 66.9,58.8 66.9,57.1 C66.9,56.2 66.6,55.5 66.1,54.9 L66.1,54.9 Z"
            id="Path"
            fill="#000000"
            fill-rule="nonzero"
            opacity="0.25"></path>
        <path
            d="M76.7,44.3 C69.5,36.7 59.3,32 48,32 C36.7,32 26.5,36.7 19.3,44.4 L19.3,44.4 C18.8,44.9 18.5,45.7 18.5,46.5 C18.5,48.2 19.8,49.5 21.5,49.5 C22.4,49.5 23.1,49.1 23.7,48.5 C29.8,42 38.4,38 48,38 C57.6,38 66.2,42 72.3,48.5 L72.3,48.5 C72.3,48.5 72.3,48.5 72.4,48.6 L72.4,48.6 C72.9,49.1 73.6,49.4 74.4,49.4 C76.1,49.4 77.4,48.1 77.4,46.4 C77.5,45.6 77.2,44.9 76.7,44.3 L76.7,44.3 Z"
            id="Path"
            fill="#000000"
            fill-rule="nonzero"
            opacity="0.25"></path>
        <path
            d="M87.1,33.9 L87.1,33.9 C77.3,23.5 63.4,17 48,17 C32.6,17 18.7,23.5 8.8,33.9 L8.8,33.9 C8.3,34.4 8,35.1 8,35.9 C8,37.6 9.3,38.9 11,38.9 C11.8,38.9 12.5,38.6 13.1,38.1 L13.1,38.1 L13.1,38.1 L13.2,38 C21.9,28.8 34.3,23 48,23 C61.7,23 74.1,28.8 82.9,38 C83.4,38.6 84.2,38.9 85.1,38.9 C86.8,38.9 88.1,37.6 88.1,35.9 C88,35.2 87.7,34.4 87.1,33.9"
            id="Path"
            fill="#000000"
            fill-rule="nonzero"
            opacity="0.25"></path>
        <path
            d="M48,64 C43.9,64 40.5,67.4 40.5,71.5 C40.5,75.6 43.9,79 48,79 C52.1,79 55.5,75.6 55.5,71.5 C55.5,67.4 52.1,64 48,64"
            id="Path"
            fill="#000000"
            fill-rule="nonzero"></path>
        <path
            d="M90.1,61.5 L90.1,61.5 L90,59.5 C90,54.8 86.2,51 81.5,51 C76.8,51 73,54.8 73,59.5 L73,61.5 L72.9,61.5 C71.3,61.5 70,62.8 70,64.4 L70,77.1 C70,78.7 71.3,80 72.9,80 L90.1,80 C91.7,80 93,78.7 93,77.1 L93,64.4 C93,62.8 91.7,61.5 90.1,61.5 Z M77,59.5 C77,57 79,55 81.5,55 C84,55 86,57 86,59.5 L86,61.5 L77,61.5 L77,59.5 Z"
            id="Shape"
            fill="#000000"
            fill-rule="nonzero"></path>
    </g>
</svg>