<?xml version="1.0" encoding="UTF-8"?>
<!--
  - Copyright (c) Huawei Technologies Co., Ltd. 2024-2024. All rights reserved.
  -->

<svg width="270px" height="270px" viewBox="0 0 270 270" version="1.1" xmlns="http://www.w3.org/2000/svg" xmlns:xlink="http://www.w3.org/1999/xlink">
    <title>编组 2备份</title>
    <defs>
        <linearGradient x1="50%" y1="0%" x2="50%" y2="100%" id="linearGradient-1">
            <stop stop-color="#4C99F3" offset="0%"></stop>
            <stop stop-color="#3778EF" offset="100%"></stop>
        </linearGradient>
        <path d="M86.1305184,-3.47977603e-15 L182.619482,3.47977603e-15 C212.568939,-2.02185009e-15 223.429336,3.11836037 234.37841,8.97398927 C245.327484,14.8296182 253.920382,23.4225156 259.776011,34.3715896 C265.63164,45.3206637 268.75,56.1810608 268.75,86.1305184 L268.75,182.619482 C268.75,212.568939 265.63164,223.429336 259.776011,234.37841 C253.920382,245.327484 245.327484,253.920382 234.37841,259.776011 C223.429336,265.63164 212.568939,268.75 182.619482,268.75 L86.1305184,268.75 C56.1810608,268.75 45.3206637,265.63164 34.3715896,259.776011 C23.4225156,253.920382 14.8296182,245.327484 8.97398927,234.37841 C3.11836037,223.429336 1.34790006e-15,212.568939 -2.31985069e-15,182.619482 L2.31985069e-15,86.1305184 C-1.34790006e-15,56.1810608 3.11836037,45.3206637 8.97398927,34.3715896 C14.8296182,23.4225156 23.4225156,14.8296182 34.3715896,8.97398927 C45.3206637,3.11836037 56.1810608,2.02185009e-15 86.1305184,-3.47977603e-15 Z" id="path-2"></path>
    </defs>
    <g id="页面-1" stroke="none" stroke-width="1" fill="none" fill-rule="evenodd">
        <g id="OTA备份-6" transform="translate(-15.000000, -15.000000)">
            <g id="编组-2备份" transform="translate(15.625000, 15.625000)">
                <g id="icon备份-2">
                    <mask id="mask-3" fill="white">
                        <use xlink:href="#path-2"></use>
                    </mask>
                    <use id="蒙版" fill="url(#linearGradient-1)" xlink:href="#path-2"></use>
                </g>
                <g id="编组" transform="translate(79.687500, 71.875000)" fill="#FFFFFF" fill-rule="nonzero">
                    <path d="M63.1579286,3.14256085 C63.6590279,3.57094102 64.1271363,4.03655101 64.5582697,4.53542816 L108.267769,55.112926 C110.635273,57.8524321 110.33617,61.9946137 107.599704,64.3647481 C106.409079,65.3959845 104.887341,65.9635314 103.312959,65.9635314 L82.8086055,65.9582841 L82.8086055,95.4840614 C82.8086055,99.1065506 79.8719973,102.043159 76.2495081,102.043159 L33.6153745,102.043159 C29.992885,102.043159 27.0562771,99.1065506 27.0562771,95.4840614 L27.0562771,65.9582841 L6.55181838,65.9635314 C2.93334901,65.9635314 0,63.0269238 0,59.4044339 C0,57.8428853 0.556494687,56.3325659 1.56941224,55.1450682 L44.6838384,4.5997123 C49.3833825,-0.909815836 57.6545146,-1.56220479 63.1579286,3.14256085 Z" id="path-1"></path>
                    <path d="M76.2495081,111.881805 C79.8719973,111.881805 82.8086055,114.818413 82.8086055,118.440903 C82.8086055,122.063392 79.8719973,125 76.2495081,125 L33.6153745,125 C29.992885,125 27.0562771,122.063392 27.0562771,118.440903 C27.0562771,114.818413 29.992885,111.881805 33.6153745,111.881805 L76.2495081,111.881805 Z" id="path-1-path" opacity="0.402868362"></path>
                </g>
            </g>
        </g>
    </g>
</svg>