<?xml version="1.0" encoding="UTF-8"?>
<svg width="24px" height="12px" viewBox="0 0 24 12" version="1.1" xmlns="http://www.w3.org/2000/svg" xmlns:xlink="http://www.w3.org/1999/xlink">
    <title>ic_public_arrow_up</title>
    <defs>
        <path d="M9.87348697,-0.58872969 L9.90554816,-0.558469039 L14.8552956,4.39127843 C15.5244753,5.06045808 15.5384165,6.13675067 14.8971194,6.82289336 L14.8552956,6.86615216 L9.90554816,11.8158996 C9.77667514,11.9447726 9.6125707,12.0169415 9.44423848,12.0324063 L9.39824817,12.0352181 L9.35218798,12.0352181 C9.16799379,12.0295945 8.98547673,11.9564884 8.84488799,11.8158996 C8.56245524,11.5334669 8.55236836,11.0818201 8.81462734,10.7873007 L8.84488799,10.7552395 L13.4410821,6.15904538 C13.7235148,5.87661264 13.7336017,5.42496586 13.4713427,5.1304464 L13.4410821,5.09838521 L8.84488799,0.502191133 C8.55199477,0.209297914 8.55199477,-0.26557582 8.84488799,-0.558469039 C8.98610436,-0.699685412 9.16962424,-0.77281532 9.35465496,-0.777858762 L9.40092051,-0.777701154 C9.57050315,-0.77192221 9.73849888,-0.708931722 9.87348697,-0.58872969 Z" id="path-1"></path>
    </defs>
    <g id="ic_public_arrow_up" stroke="none" stroke-width="1" fill="none" fill-rule="evenodd">
        <mask id="mask-2" fill="white">
            <use xlink:href="#path-1" transform="translate(11.996538, 5.628680) rotate(-90.000000) translate(-11.996538, -5.628680) "></use>
        </mask>
        <use id="路径" fill-opacity="0.4" fill="#000000" style="mix-blend-mode: normal;" transform="translate(11.996538, 5.628680) rotate(-90.000000) translate(-11.996538, -5.628680) " xlink:href="#path-1"></use>
    </g>
</svg>