<?xml version="1.0" encoding="UTF-8"?>
<svg width="24px" height="24px" viewBox="0 0 24 24" version="1.1" xmlns="http://www.w3.org/2000/svg" xmlns:xlink="http://www.w3.org/1999/xlink">
    <title>ic_public_ok_filled</title>
    <g id="ic_public_ok_filled" stroke="none" stroke-width="1" fill="none" fill-rule="evenodd">
        <g id="Public/ic_public_ok_filled备份" transform="translate(1.843146, 5.250000)" fill="#0A59F7" fill-rule="nonzero">
            <path d="M8.57106781,12.4068542 C7.80475599,13.1731661 6.57130255,13.1876248 5.78736274,12.4502304 L5.74264069,12.4068542 L0.792893219,7.45710678 L0.292893219,6.95710678 C-0.0976310729,6.56658249 -0.0976310729,5.93341751 0.292893219,5.54289322 C0.671583441,5.164203 1.27843166,5.15272754 1.67094964,5.50846683 L1.70710678,5.54289322 L6.80330086,10.6390873 C6.98968745,10.8254739 7.28661593,10.833946 7.48305179,10.6645037 L7.496,10.652 L12.1066017,6.04289322 L12.111,6.038 L17.8566017,0.292893219 C18.247126,-0.0976310729 18.880291,-0.0976310729 19.2708153,0.292893219 C19.6495055,0.671583441 19.660981,1.27843166 19.3052417,1.67094964 L19.2708153,1.70710678 L8.57106781,12.4068542 Z" id="形状结合"></path>
        </g>
    </g>
</svg>