<svg width="48.000000" height="48.000000" viewBox="0 0 48 48" fill="none" xmlns="http://www.w3.org/2000/svg" xmlns:xlink="http://www.w3.org/1999/xlink">
	<desc>
			Created with Pixso.
	</desc>
	<defs>
		<clipPath id="clip173_19338">
			<rect id="communicationsharing" width="48.000000" height="48.000000" fill="white" fill-opacity="0"/>
		</clipPath>
	</defs>
	<g clip-path="url(#clip173_19338)">
		<g opacity="0.000000">
			<rect id="rect" width="48.000000" height="48.000000" fill="#000000" fill-opacity="1.000000"/>
		</g>
		<path id="path" d="M28.93 24.96C28.93 24.06 28.72 23.24 28.28 22.48C27.82 21.73 27.22 21.14 26.48 20.72C25.72 20.28 24.89 20.06 24 20.06C23.1 20.06 22.28 20.28 21.52 20.72C20.77 21.14 20.17 21.73 19.72 22.48C19.28 23.24 19.06 24.06 19.06 24.96C19.06 26.05 19.38 27.02 20.04 27.86C20.69 28.71 21.52 29.3 22.52 29.62L22.52 43.48C22.52 43.9 22.66 44.26 22.93 44.54C23.23 44.83 23.58 44.98 24 44.98C24.41 44.98 24.76 44.83 25.06 44.54C25.33 44.26 25.48 43.9 25.48 43.48L25.48 29.62C26.48 29.3 27.3 28.71 27.96 27.86C28.61 27.02 28.93 26.05 28.93 24.96Z" fill="#000000" fill-opacity="0.901961" fill-rule="nonzero"/>
		<path id="path" d="M11.48 25.92C11.63 27.26 11.98 28.54 12.5 29.76C13.03 30.97 13.74 32.06 14.63 33.02C14.86 33.31 15.21 33.47 15.67 33.5C16.13 33.54 16.47 33.41 16.69 33.12C17.02 32.86 17.18 32.53 17.19 32.12C17.22 31.69 17.09 31.32 16.79 31C16.13 30.26 15.6 29.44 15.19 28.54C14.79 27.62 14.54 26.65 14.43 25.64C14.41 25.21 14.23 24.86 13.91 24.6C13.6 24.33 13.23 24.22 12.81 24.28C12.4 24.34 12.06 24.53 11.79 24.84C11.54 25.14 11.43 25.5 11.48 25.92ZM12.19 20.02C12.19 20.56 12.38 21.04 12.75 21.44C13.14 21.84 13.61 22.04 14.15 22.04C14.7 22.04 15.17 21.84 15.58 21.44C15.98 21.04 16.17 20.56 16.17 20.02C16.17 19.47 15.98 19 15.58 18.6C15.17 18.2 14.7 18 14.15 18C13.61 18 13.14 18.2 12.75 18.6C12.38 19 12.19 19.47 12.19 20.02ZM16.56 16.32C16.78 16.66 17.1 16.88 17.5 16.96C17.89 17.04 18.27 16.97 18.61 16.76C19.41 16.21 20.27 15.8 21.19 15.52C22.1 15.25 23.04 15.12 24 15.12C25.73 15.12 27.32 15.55 28.77 16.42C30.23 17.28 31.38 18.44 32.23 19.9C33.08 21.35 33.5 22.94 33.5 24.68C33.5 25.85 33.29 26.99 32.87 28.1C32.46 29.2 31.85 30.19 31.06 31.06C30.76 31.38 30.62 31.74 30.63 32.16C30.66 32.57 30.83 32.92 31.15 33.22C31.5 33.5 31.87 33.62 32.25 33.6C32.64 33.57 32.98 33.4 33.25 33.08C34.31 31.92 35.11 30.62 35.67 29.18C36.23 27.74 36.52 26.24 36.52 24.68C36.52 22.4 35.96 20.29 34.83 18.38C33.71 16.46 32.19 14.93 30.27 13.8C28.35 12.66 26.26 12.1 24 12.1C22.71 12.1 21.48 12.28 20.27 12.64C19.08 13.01 17.96 13.55 16.93 14.26C16.59 14.51 16.38 14.84 16.31 15.24C16.25 15.64 16.33 16 16.56 16.32Z" fill="#000000" fill-opacity="0.901961" fill-rule="nonzero"/>
		<path id="path" d="M2.35 24.67C2.35 27.81 3.02 30.81 4.33 33.67C5.67 36.53 7.52 39 9.87 41.08C10.19 41.34 10.57 41.46 11 41.41C11.41 41.39 11.74 41.22 12 40.89C12.29 40.58 12.41 40.22 12.37 39.82C12.35 39.41 12.17 39.07 11.85 38.78C9.77 37.02 8.17 34.9 7.04 32.43C5.89 29.98 5.31 27.39 5.31 24.67C5.31 21.32 6.15 18.2 7.83 15.34C9.52 12.47 11.78 10.2 14.63 8.52C17.49 6.84 20.61 6 24 6C26.49 6 28.86 6.47 31.11 7.41C33.38 8.36 35.41 9.71 37.19 11.48C37.45 11.76 37.79 11.89 38.23 11.89C38.66 11.89 39.02 11.76 39.31 11.48C39.6 11.18 39.73 10.83 39.73 10.41C39.73 10 39.6 9.65 39.31 9.36C37.26 7.3 34.91 5.73 32.27 4.65C29.63 3.56 26.87 3.02 24 3.02C20.09 3.02 16.48 3.98 13.15 5.91C9.82 7.86 7.19 10.5 5.25 13.82C3.32 17.15 2.35 20.77 2.35 24.67ZM39.73 15.8C39.73 16.33 39.93 16.79 40.33 17.2C40.73 17.6 41.21 17.79 41.75 17.79C42.3 17.79 42.77 17.6 43.17 17.2C43.58 16.79 43.77 16.33 43.77 15.8C43.77 15.25 43.58 14.78 43.17 14.38C42.77 13.98 42.3 13.78 41.75 13.78C41.21 13.78 40.73 13.98 40.33 14.38C39.93 14.78 39.73 15.25 39.73 15.8ZM36 40.89C36.22 41.17 36.53 41.35 36.91 41.41C37.29 41.48 37.67 41.36 38.06 41.04C40.46 38.96 42.31 36.49 43.63 33.64C44.94 30.8 45.6 27.79 45.6 24.62C45.6 23.47 45.53 22.43 45.39 21.5C45.34 21.08 45.14 20.76 44.79 20.52C44.46 20.28 44.09 20.19 43.67 20.26C43.26 20.28 42.93 20.46 42.69 20.8C42.46 21.14 42.37 21.52 42.43 21.93C42.53 22.41 42.58 22.89 42.58 23.38C42.6 23.65 42.61 24.09 42.61 24.67C42.61 27.36 42.05 29.93 40.91 32.39C39.78 34.86 38.19 36.99 36.13 38.78C35.81 39.07 35.64 39.42 35.61 39.84C35.58 40.25 35.7 40.6 36 40.89Z" fill="#000000" fill-opacity="0.901961" fill-rule="nonzero"/>
	</g>
</svg>
