<?xml version="1.0" encoding="UTF-8"?>
<svg width="48px" height="48px" viewBox="0 0 48 48" version="1.1" xmlns="http://www.w3.org/2000/svg" xmlns:xlink="http://www.w3.org/1999/xlink">
    <title>Wi-Fi备份 8</title>
    <g id="Wi-Fi备份-8" stroke="none" stroke-width="1" fill="none" fill-rule="evenodd">
        <path d="M23.9990483,32.3802817 C26.4015883,32.3802817 28.3492318,34.3098713 28.3492318,36.6901408 C28.3492318,39.0704104 26.4015883,41 23.9990483,41 C21.5965082,41 19.6488647,39.0704104 19.6488647,36.6901408 C19.6488647,34.3098713 21.5965082,32.3802817 23.9990483,32.3802817 Z" id="path-1-path" fill="#000000" fill-rule="nonzero"></path>
        <path d="M23.9990483,23.8189625 C28.113396,23.8189625 31.9461448,25.5662944 34.6204866,28.5586781 C35.1513815,29.1527086 35.0956941,30.0606511 34.4961058,30.5866246 C33.8965173,31.1125981 32.9800798,31.0574271 32.4491851,30.4633967 C30.3196392,28.080598 27.2742112,26.692202 23.9990483,26.692202 C20.7225932,26.692202 17.6760764,28.0817025 15.5464659,30.466134 C15.0157661,31.0603352 14.0993467,31.1158014 13.4995858,30.5900208 C12.8998249,30.0642404 12.8438399,29.1563157 13.3745397,28.5621144 C16.0489611,25.5676822 19.8830753,23.8189625 23.9990483,23.8189625 Z" id="path-1-path" fill="#000000" fill-rule="nonzero"></path>
        <path d="M23.9990483,15.4094813 C30.38367,15.4094813 36.3463094,18.0397969 40.6078587,22.5822975 C41.1530737,23.1634569 41.1195271,24.0724667 40.5329301,24.6126279 C39.9463332,25.1527891 39.0288184,25.1195533 38.4836033,24.5383939 C34.7651784,20.5748243 29.5692288,18.2827207 23.9990483,18.2827207 C18.4283504,18.2827207 13.2319617,20.575253 9.51348634,24.5394672 C8.96831492,25.1206668 8.05080252,25.15397 7.46416505,24.6138521 C6.87752758,24.0737342 6.84391273,23.1647267 7.38908417,22.5835272 C11.6506908,18.0402885 17.6138331,15.4094813 23.9990483,15.4094813 Z" id="path-1-path" fill="#000000" fill-rule="nonzero"></path>
        <path d="M23.9990483,7 C32.6596729,7 40.756401,10.5201915 46.6016593,16.6213211 C47.1529919,17.1967877 47.1290626,18.106096 46.5482116,18.652318 C45.9673606,19.1985399 45.0495446,19.1748324 44.498212,18.5993657 C39.1950053,13.0640156 31.8559593,9.87323944 23.9990483,9.87323944 C16.1430567,9.87323944 8.80479399,13.0632637 3.50169556,18.5974755 C2.95030927,19.1728917 2.03249099,19.1965151 1.45169106,18.6502399 C0.870891122,18.1039648 0.847046654,17.1946543 1.39843295,16.6192381 C7.24357262,10.5193625 15.3394379,7 23.9990483,7 Z" id="path-1-path" fill-opacity="0.25" fill="#000000" fill-rule="nonzero"></path>
        <path d="M44.5,38.5 C45.6045695,38.5 46.5,39.3954305 46.5,40.5 C46.5,41.6045695 45.6045695,42.5 44.5,42.5 C43.3954305,42.5 42.5,41.6045695 42.5,40.5 C42.5,39.3954305 43.3954305,38.5 44.5,38.5 Z M43,35 L42.5123817,26.7238024 C42.5042007,26.6503298 42.5,26.5756554 42.5,26.5 C42.5,25.3954305 43.3954305,24.5 44.5,24.5 C45.6045695,24.5 46.5,25.3954305 46.5,26.5 C46.5,26.6060331 46.4917486,26.7101389 46.4758529,26.8117104 L45.9999732,34.9909322 C45.999991,34.9939527 46,34.9969753 46,35 C46,35.8284271 45.3284271,36.5 44.5,36.5 C43.6715729,36.5 43,35.8284271 43,35 L43,35 Z" id="形状结合" fill="#000000" fill-rule="nonzero"></path>
    </g>
</svg>