<?xml version="1.0" encoding="UTF-8"?>
<!--
  - Copyright (c) Huawei Technologies Co., Ltd. 2024-2024. All rights reserved.
  -->

<svg width="96px" height="96px" viewBox="0 0 96 96" version="1.1" xmlns="http://www.w3.org/2000/svg" xmlns:xlink="http://www.w3.org/1999/xlink">
    <title>ic_wifi7_lock</title>
    <g id="ic_wifi7_lock" stroke="none" stroke-width="1" fill="none" fill-rule="evenodd">
        <path d="M48.000673,12 C65.9184431,12 82.6695948,19.3509882 94.7627226,32.0915822 C95.9033625,33.293292 95.8538556,35.1921417 94.6521458,36.3327817 C93.450436,37.4734216 91.5515863,37.4239147 90.4109463,36.2222049 C79.4392574,24.6630915 64.2556652,18 48.000673,18 C37.866893,18 28.1495106,20.5896704 19.6094684,25.3408843 L22.8971845,17.0706867 C30.710167,13.7672929 39.2151861,12 48.000673,12 Z" id="Path" fill="#000000" fill-rule="nonzero"></path>
        <path d="M48.000673,29.5609756 C61.2096778,29.5609756 73.5456525,35.0536935 82.3622791,44.5395035 C82.5828579,44.7768242 82.7576482,45.0403255 82.8870477,45.3191277 C81.9581886,45.1101488 80.99254,45 80,45 L79.691745,45.0035489 L79.3809945,45.0143437 C77.9090453,45.0827217 76.5024532,45.3937748 75.1956346,45.9088363 C67.7919749,39.3099146 58.1995312,35.5609756 48.000673,35.5609756 C36.4755775,35.5609756 25.7248823,40.3483226 18.0318095,48.6265345 C16.9039162,49.8402159 15.0056948,49.909761 13.7920133,48.7818677 C12.5783319,47.6539744 12.5087868,45.755753 13.6366801,44.5420715 C22.4534253,35.0547201 34.7904406,29.5609756 48.000673,29.5609756 Z" id="Path" fill="#000000" fill-rule="nonzero"></path>
        <path d="M48.000673,47.1219512 C55.2084059,47.1219512 61.9984127,49.7382078 67.2693378,54.3339058 C66.7704525,55.7966615 66.5,57.367874 66.5,59 L66.5,60.066 L66.323636,60.1581472 L66.0612326,60.3022494 C65.7971317,60.4524906 65.5406485,60.6143789 65.292459,60.7871969 L65.4829768,60.997093 C61.0772058,56.0212488 54.7765863,53.1219512 48.000673,53.1219512 C41.2220867,53.1219512 34.9192142,56.0235553 30.5133096,61.0028091 C29.4153563,62.2436413 27.519396,62.3594675 26.2785638,61.2615142 C25.0377317,60.1635608 24.9219054,58.2676006 26.0198588,57.0267684 C31.5529109,50.7736891 39.4852261,47.1219512 48.000673,47.1219512 Z" id="Path" fill="#000000" fill-rule="nonzero"></path>
        <rect id="Rectangle" fill="#000000" fill-rule="nonzero" x="39.000673" y="65" width="18" height="18" rx="9"></rect>
        <path d="M80,50 C85.3529137,50 89.6923077,54.339394 89.6923077,59.6923077 L89.6930653,63.2421948 C92.1823819,63.9729894 94,66.274231 94,69 L94,79 C94,82.3137085 91.3137085,85 88,85 L72,85 C68.6862915,85 66,82.3137085 66,79 L66,69 C66,66.274231 67.8176181,63.9729894 70.3069347,63.2421948 L70.3076923,59.6923077 C70.3076923,54.339394 74.6470863,50 80,50 Z M79.7692308,70 C77.6875421,70 76,71.6875421 76,73.7692308 C76,75.8509194 77.6875421,77.5384615 79.7692308,77.5384615 C81.8509194,77.5384615 83.5384615,75.8509194 83.5384615,73.7692308 C83.5384615,71.6875421 81.8509194,70 79.7692308,70 Z M80,54.3076923 C77.026159,54.3076923 74.6153846,56.7184667 74.6153846,59.6923077 L74.615,63 L85.384,63 L85.3846154,59.6923077 C85.3846154,56.7909994 83.0900056,54.425626 80.2165664,54.3119679 L80,54.3076923 Z" id="合并形状" fill="#000000"></path>
        <g id="7" transform="translate(4.000000, 12.000000)" fill="#000000" fill-rule="nonzero">
            <polygon id="路径" points="10.784 3.52 0 3.52 0 -5.69655434e-15 15.328 -5.69655434e-15 15.328 2.528 7.008 23.456 2.592 23.456"></polygon>
        </g>
    </g>
</svg>