<svg width="48" height="48" viewBox="0 0 48 48" xmlns="http://www.w3.org/2000/svg">
    <g fill="#000" fill-opacity="0.25" transform="translate(1 7)">
        <!-- 最内层圆环 -->
        <path d="M23,25.38 C25.4,25.38 27.35,27.31 27.35,29.69 C27.35,32.07 25.4,34 23,34 C20.6,34 18.65,32.07 18.65,29.69 C18.65,27.31 20.6,25.38 23,25.38 Z"/>
        <!-- 第二层圆环 -->
        <path d="M23,16.82 C27.11,16.82 30.95,18.57 33.62,21.56 C34.15,22.15 34.1,23.06 33.5,23.59 C32.9,24.11 31.98,24.06 31.45,23.46 C29.32,21.08 26.27,19.69 23,19.69 C19.72,19.69 16.68,21.08 14.55,23.47 C14.02,24.06 13.1,24.12 12.5,23.59 C11.9,23.06 11.84,22.16 12.37,21.56 C15.05,18.57 18.88,16.82 23,16.82 Z"/>
        <!-- 第三层圆环 -->
        <path d="M23,8.41 C29.38,8.41 35.35,11.04 39.61,15.58 C40.15,16.16 40.12,17.07 39.53,17.61 C38.95,18.15 38.03,18.12 37.48,17.54 C33.77,13.57 28.57,11.28 23,11.28 C17.43,11.28 12.23,13.58 8.51,17.54 C7.97,18.12 7.05,18.15 6.46,17.61 C5.88,17.07 5.84,16.16 6.39,15.58 C10.65,11.04 16.61,8.41 23,8.41 Z"/>
        <!-- 最外层圆环 -->
        <path d="M23,0 C31.66,0 39.76,3.52 45.6,9.62 C46.15,10.2 46.13,11.11 45.55,11.65 C44.97,12.2 44.05,12.17 43.5,11.6 C38.2,6.06 30.86,2.87 23,2.87 C15.14,2.87 7.8,6.06 2.5,11.6 C1.95,12.17 1.03,12.2 0.45,11.65 C-0.13,11.1 -0.15,10.19 0.4,9.62 C6.24,3.52 14.34,0 23,0 Z"/>
    </g>
</svg>