<?xml version="1.0" encoding="UTF-8"?>
<svg width="48px" height="48px" viewBox="0 0 48 48" version="1.1" xmlns="http://www.w3.org/2000/svg" xmlns:xlink="http://www.w3.org/1999/xlink">
    <title>Wi-Fi备份</title>
    <g id="Wi-Fi备份" stroke="none" stroke-width="1" fill="none" fill-rule="evenodd">
        <g id="编组" transform="translate(1.000000, 7.000000)" fill="#000000" fill-rule="nonzero">
            <path d="M22.9990483,25.3802817 C25.4015883,25.3802817 27.3492318,27.3098713 27.3492318,29.6901408 C27.3492318,32.0704104 25.4015883,34 22.9990483,34 C20.5965082,34 18.6488647,32.0704104 18.6488647,29.6901408 C18.6488647,27.3098713 20.5965082,25.3802817 22.9990483,25.3802817 Z" id="path-1-path"></path>
            <path d="M22.9990483,16.8189625 C27.113396,16.8189625 30.9461448,18.5662944 33.6204866,21.5586781 C34.1513815,22.1527086 34.0956941,23.0606511 33.4961058,23.5866246 C32.8965173,24.1125981 31.9800798,24.0574271 31.4491851,23.4633967 C29.3196392,21.080598 26.2742112,19.692202 22.9990483,19.692202 C19.7225932,19.692202 16.6760764,21.0817025 14.5464659,23.466134 C14.0157661,24.0603352 13.0993467,24.1158014 12.4995858,23.5900208 C11.8998249,23.0642404 11.8438399,22.1563157 12.3745397,21.5621144 C15.0489611,18.5676822 18.8830753,16.8189625 22.9990483,16.8189625 Z" id="path-1-path"></path>
            <path d="M22.9990483,8.40948127 C29.38367,8.40948127 35.3463094,11.0397969 39.6078587,15.5822975 C40.1530737,16.1634569 40.1195271,17.0724667 39.5329301,17.6126279 C38.9463332,18.1527891 38.0288184,18.1195533 37.4836033,17.5383939 C33.7651784,13.5748243 28.5692288,11.2827207 22.9990483,11.2827207 C17.4283504,11.2827207 12.2319617,13.575253 8.51348634,17.5394672 C7.96831492,18.1206668 7.05080252,18.15397 6.46416505,17.6138521 C5.87752758,17.0737342 5.84391273,16.1647267 6.38908417,15.5835272 C10.6506908,11.0402885 16.6138331,8.40948127 22.9990483,8.40948127 Z" id="path-1-path"></path>
            <path d="M22.9990483,0 C31.6596729,0 39.756401,3.52019151 45.6016593,9.62132105 C46.1529919,10.1967877 46.1290626,11.106096 45.5482116,11.652318 C44.9673606,12.1985399 44.0495446,12.1748324 43.498212,11.5993657 C38.1950053,6.06401562 30.8559593,2.87323944 22.9990483,2.87323944 C15.1430567,2.87323944 7.80479399,6.06326371 2.50169556,11.5974755 C1.95030927,12.1728917 1.03249099,12.1965151 0.451691056,11.6502399 C-0.129108878,11.1039648 -0.152953346,10.1946543 0.398432946,9.61923815 C6.24357262,3.51936249 14.3394379,0 22.9990483,0 Z" id="path-1-path" fill-opacity="0.25"></path>
        </g>
    </g>
</svg>