<?xml version="1.0" encoding="UTF-8"?>
<svg width="48px" height="48px" viewBox="0 0 48 48" version="1.1" xmlns="http://www.w3.org/2000/svg" xmlns:xlink="http://www.w3.org/1999/xlink">
    <title>Public/ic_wifi_lock</title>
    <defs>
        <path d="M38,19 C40.6764569,19 42.8461538,21.169697 42.8461538,23.8461538 L42.8467875,25.6211722 C44.091315,25.9866518 45,27.1372085 45,28.5 L45,33.5 C45,35.1568542 43.6568542,36.5 42,36.5 L34,36.5 C32.3431458,36.5 31,35.1568542 31,33.5 L31,28.5 C31,27.1372085 31.908685,25.9866518 33.1532125,25.6211722 L33.1538462,23.8461538 C33.1538462,21.169697 35.3235431,19 38,19 Z M37.8846154,29 C36.843771,29 36,29.843771 36,30.8846154 C36,31.9254597 36.843771,32.7692308 37.8846154,32.7692308 C38.9254597,32.7692308 39.7692308,31.9254597 39.7692308,30.8846154 C39.7692308,29.843771 38.9254597,29 37.8846154,29 Z M38,21.1538462 C36.5702688,21.1538462 35.4008309,22.2682944 35.3129891,23.6758881 L35.3076923,23.8461538 L35.307,25.5 L40.692,25.5 L40.6923077,23.8461538 C40.6923077,22.4164226 39.5778595,21.2469847 38.1702658,21.1591429 L38,21.1538462 Z" id="path-1"></path>
    </defs>
    <g id="Public/ic_wifi_lock" stroke="none" stroke-width="1" fill="none" fill-rule="evenodd">
        <g id="编组" transform="translate(1.000000, 6.000000)">
            <path d="M22.9990483,0 C31.6596729,0 39.2585137,3.96779197 45.103772,10.0689215 C45.6551046,10.6443882 45.6311753,11.5536965 45.0503243,12.0999184 C44.4694733,12.6461404 43.5516572,12.6224328 43.0003246,12.0469662 C37.6971179,6.51161608 30.8559593,2.87323944 22.9990483,2.87323944 C15.1430567,2.87323944 7.80479399,6.06326371 2.50169556,11.5974755 C1.95030927,12.1728917 1.03249099,12.1965151 0.451691056,11.6502399 C-0.129108878,11.1039648 -0.152953346,10.1946543 0.398432946,9.61923815 C6.24357262,3.51936249 14.3394379,0 22.9990483,0 Z" id="path-1-path" fill="#000000" fill-rule="nonzero"></path>
            <path d="M22.0003365,8.7804878 C28.6048389,8.7804878 34.7728263,11.5268468 39.1811396,16.2697517 C39.2915534,16.388546 39.3790213,16.52046 39.4437427,16.6600357 C38.9793999,16.5551093 38.4964271,16.5 38,16.5 L38,16.5 L37.8458725,16.5017745 L37.6904972,16.5071719 C36.9544037,16.5413664 36.2509991,16.6969377 35.5975003,16.9545431 C31.8965899,13.6551927 27.1000859,11.7804878 22.0003365,11.7804878 C16.2377887,11.7804878 10.8624411,14.1741613 7.01590476,18.3132672 C6.4519581,18.920108 5.5028474,18.9548805 4.89600667,18.3909338 C4.28916594,17.8269872 4.25439342,16.8778765 4.81834007,16.2710358 C9.22671264,11.5273601 15.3952203,8.7804878 22.0003365,8.7804878 Z" id="Path" fill="#000000" fill-rule="nonzero"></path>
            <path d="M22.0003365,17.5609756 C25.6043087,17.5609756 28.9994055,18.8691806 31.6349008,21.1671551 C31.3853001,21.897902 31.25,22.6837143 31.25,23.5 L31.25,23.5 L31.25,24.033 L31.161818,24.0790736 L31.0306163,24.1511247 C30.8983888,24.226346 30.7699804,24.3074065 30.6457304,24.3939461 L30.7414884,24.4985465 C28.5386029,22.0106244 25.3882931,20.5609756 22.0003365,20.5609756 C18.6110434,20.5609756 15.4596071,22.0117777 13.2566548,24.5014045 C12.7076781,25.1218206 11.759698,25.1797337 11.1392819,24.6307571 C10.5188658,24.0817804 10.4609527,23.1338003 11.0099294,22.5133842 C13.7764554,19.3868446 17.7426131,17.5609756 22.0003365,17.5609756 Z" id="Path" fill="#000000" fill-rule="nonzero"></path>
            <rect id="Rectangle" fill="#000000" fill-rule="nonzero" x="17.5003365" y="26.5" width="9" height="9" rx="4.5"></rect>
            <mask id="mask-2" fill="white">
                <use xlink:href="#path-1"></use>
            </mask>
            <use id="合并形状" fill="#000000" xlink:href="#path-1"></use>
        </g>
    </g>
</svg>