<?xml version="1.0" encoding="UTF-8"?>
<svg width="96px" height="96px" viewBox="0 0 96 96" version="1.1" xmlns="http://www.w3.org/2000/svg" xmlns:xlink="http://www.w3.org/1999/xlink">
    <title>ic_wifi7+_signal_0</title>
    <g id="ic_wifi7+_signal_0" stroke="none" stroke-width="1" fill="none" fill-rule="evenodd">
        <rect id="Rectangle" fill-opacity="0.25" fill="#000000" fill-rule="nonzero" x="39.0012986" y="65" width="18" height="18" rx="9"></rect>
        <path d="M69.9757612,57.0195926 C71.0741176,58.2600679 70.9589074,60.1560657 69.718432,61.2544222 C68.4779566,62.3527786 66.5819589,62.2375684 65.4836024,60.997093 C61.0778314,56.0212488 54.7772119,53.1219512 48.0012986,53.1219512 C41.2227123,53.1219512 34.9198398,56.0235553 30.5139352,61.0028091 C29.4159819,62.2436413 27.5200216,62.3594675 26.2791894,61.2615142 C25.0383572,60.1635608 24.922531,58.2676006 26.0204844,57.0267684 C31.5535365,50.7736891 39.4858517,47.1219512 48.0012986,47.1219512 C56.513383,47.1219512 64.4428733,50.7707911 69.9757612,57.0195926 Z" id="Path" fill-opacity="0.25" fill="#000000" fill-rule="nonzero"></path>
        <path d="M48.0012986,12 C65.9190687,12 82.6702204,19.3509882 94.7633482,32.0915822 C95.9039881,33.293292 95.8544812,35.1921417 94.6527714,36.3327817 C93.4510616,37.4734216 91.5522119,37.4239147 90.4115719,36.2222049 C79.439883,24.6630915 64.2562908,18 48.0012986,18 C43.9166755,18 39.8997027,18.420732 36.0002104,19.2341601 L36.000476,13.1171888 C39.9130659,12.3800823 43.9270229,12 48.0012986,12 Z" id="Path" fill-opacity="0.25" fill="#000000" fill-rule="nonzero"></path>
        <path d="M82.3629047,44.5395035 C83.4908882,45.7531011 83.4214843,47.6513277 82.2078866,48.7793112 C80.994289,49.9072947 79.0960624,49.8378907 77.9680789,48.6242931 C70.2751105,40.3474272 59.5253239,35.5609756 48.0012986,35.5609756 C36.4762031,35.5609756 25.7255079,40.3483226 18.0324351,48.6265345 C16.9045418,49.8402159 15.0063204,49.909761 13.7926389,48.7818677 C12.5789575,47.6539744 12.5094124,45.755753 13.6373057,44.5420715 C22.4540509,35.0547201 34.7910662,29.5609756 48.0012986,29.5609756 C61.2103034,29.5609756 73.5462781,35.0536935 82.3629047,44.5395035 Z" id="Path" fill-opacity="0.25" fill="#000000" fill-rule="nonzero"></path>
        <polygon id="路径" fill="#000000" fill-rule="nonzero" points="13.784 15.52 3 15.52 3 12 18.328 12 18.328 14.528 10.008 35.456 5.592 35.456"></polygon>
        <path d="M19.5,19.5 L23.5,19.5 L23.5,23.5 C23.5,23.7761424 23.7238576,24 24,24 L27,24 C27.2761424,24 27.5,23.7761424 27.5,23.5 L27.5,19.5 L31.5,19.5 C31.7761424,19.5 32,19.2761424 32,19 L32,16 C32,15.7238576 31.7761424,15.5 31.5,15.5 L27.5,15.5 L27.5,11.5 C27.5,11.2238576 27.2761424,11 27,11 L24,11 C23.7238576,11 23.5,11.2238576 23.5,11.5 L23.5,15.5 L19.5,15.5 C19.2238576,15.5 19,15.7238576 19,16 L19,19 C19,19.2761424 19.2238576,19.5 19.5,19.5 Z" id="路径" fill="#000000" fill-rule="nonzero"></path>
    </g>
</svg>