<?xml version="1.0" encoding="UTF-8"?>
<svg width="96px" height="96px" viewBox="0 0 96 96" version="1.1" xmlns="http://www.w3.org/2000/svg" xmlns:xlink="http://www.w3.org/1999/xlink">
    <title>ic_wifi7+-lock_signal_4</title>
    <g id="ic_wifi7+-lock_signal_4" stroke="none" stroke-width="1" fill="none" fill-rule="evenodd">
        <rect id="Rectangle" fill="#000000" fill-rule="nonzero" x="39.0012986" y="65" width="18" height="18" rx="9"></rect>
        <path d="M48.0012986,12 C65.9190687,12 82.6702204,19.3509882 94.7633482,32.0915822 C95.9039881,33.293292 95.8544812,35.1921417 94.6527714,36.3327817 C93.4510616,37.4734216 91.5522119,37.4239147 90.4115719,36.2222049 C79.439883,24.6630915 64.2562908,18 48.0012986,18 C43.9163255,18 39.8990142,18.4208041 35.9992079,19.2343692 L35.9994736,13.1173776 C39.9123803,12.3801473 43.9266749,12 48.0012986,12 Z" id="Path" fill="#000000" fill-rule="nonzero"></path>
        <path d="M48.0012986,29.5609756 C61.2103034,29.5609756 73.5462781,35.0536935 82.3629047,44.5395035 C82.5834835,44.7768242 82.7582738,45.0403255 82.8876733,45.3191277 C81.9588825,45.110228 80.9928967,45 80,45 L79.691745,45.0035489 L79.3809945,45.0143437 C77.9094045,45.0827051 76.5031396,45.393623 75.1965912,45.9084593 C67.7926005,39.3099146 58.2001568,35.5609756 48.0012986,35.5609756 C36.4762031,35.5609756 25.7255079,40.3483226 18.0324351,48.6265345 C16.9045418,49.8402159 15.0063204,49.909761 13.7926389,48.7818677 C12.5789575,47.6539744 12.5094124,45.755753 13.6373057,44.5420715 C22.4540509,35.0547201 34.7910662,29.5609756 48.0012986,29.5609756 Z" id="Path" fill="#000000" fill-rule="nonzero"></path>
        <path d="M48.0012986,47.1219512 C55.2090315,47.1219512 61.9990383,49.7382078 67.2699634,54.3339058 C66.7704525,55.7966615 66.5,57.367874 66.5,59 L66.5,60.066 L66.323636,60.1581472 L66.0612326,60.3022494 C65.7974829,60.4522908 65.5413307,60.6139484 65.2934492,60.7865076 L65.4836024,60.997093 C61.0778314,56.0212488 54.7772119,53.1219512 48.0012986,53.1219512 C41.2227123,53.1219512 34.9198398,56.0235553 30.5139352,61.0028091 C29.4159819,62.2436413 27.5200216,62.3594675 26.2791894,61.2615142 C25.0383572,60.1635608 24.922531,58.2676006 26.0204844,57.0267684 C31.5535365,50.7736891 39.4858517,47.1219512 48.0012986,47.1219512 Z" id="Path" fill="#000000" fill-rule="nonzero"></path>
        <path d="M19.5,19.5 L23.5,19.5 L23.5,23.5 C23.5,23.7761424 23.7238576,24 24,24 L27,24 C27.2761424,24 27.5,23.7761424 27.5,23.5 L27.5,19.5 L31.5,19.5 C31.7761424,19.5 32,19.2761424 32,19 L32,16 C32,15.7238576 31.7761424,15.5 31.5,15.5 L27.5,15.5 L27.5,11.5 C27.5,11.2238576 27.2761424,11 27,11 L24,11 C23.7238576,11 23.5,11.2238576 23.5,11.5 L23.5,15.5 L19.5,15.5 C19.2238576,15.5 19,15.7238576 19,16 L19,19 C19,19.2761424 19.2238576,19.5 19.5,19.5 Z" id="路径" fill="#000000" fill-rule="nonzero"></path>
        <path d="M80,50 C85.3529137,50 89.6923077,54.339394 89.6923077,59.6923077 L89.6930653,63.2421948 C92.1823819,63.9729894 94,66.274231 94,69 L94,79 C94,82.3137085 91.3137085,85 88,85 L72,85 C68.6862915,85 66,82.3137085 66,79 L66,69 C66,66.274231 67.8176181,63.9729894 70.3069347,63.2421948 L70.3076923,59.6923077 C70.3076923,54.339394 74.6470863,50 80,50 Z M79.7692308,70 C77.6875421,70 76,71.6875421 76,73.7692308 C76,75.8509194 77.6875421,77.5384615 79.7692308,77.5384615 C81.8509194,77.5384615 83.5384615,75.8509194 83.5384615,73.7692308 C83.5384615,71.6875421 81.8509194,70 79.7692308,70 Z M80,54.3076923 C77.026159,54.3076923 74.6153846,56.7184667 74.6153846,59.6923077 L74.615,63 L85.384,63 L85.3846154,59.6923077 C85.3846154,56.7909994 83.0900056,54.425626 80.2165664,54.3119679 L80,54.3076923 Z" id="合并形状" fill="#000000"></path>
        <polygon id="路径" fill="#000000" fill-rule="nonzero" points="13.784 15.52 3 15.52 3 12 18.328 12 18.328 14.528 10.008 35.456 5.592 35.456"></polygon>
    </g>
</svg>