<?xml version="1.0" encoding="UTF-8"?>
<!--
  - Copyright (c) Huawei Technologies Co., Ltd. 2024-2024. All rights reserved.
  -->

<svg width="96px" height="96px" viewBox="0 0 96 96" version="1.1" xmlns="http://www.w3.org/2000/svg" xmlns:xlink="http://www.w3.org/1999/xlink">
    <title>ic_wifi7备份4</title>
    <g id="ic_wifi7备份4" stroke="none" stroke-width="1" fill="none" fill-rule="evenodd">
        <path d="M48.000673,12 C65.9184431,12 82.6695948,19.3509882 94.7627226,32.0915822 C95.9033625,33.293292 95.8538556,35.1921417 94.6521458,36.3327817 C93.450436,37.4734216 91.5515863,37.4239147 90.4109463,36.2222049 C79.4392574,24.6630915 64.2556652,18 48.000673,18 C37.866893,18 28.1495106,20.5896704 19.6094684,25.3408843 L22.8971845,17.0706867 C30.710167,13.7672929 39.2151861,12 48.000673,12 Z" id="Path" fill-opacity="0.25" fill="#000000" fill-rule="nonzero"></path>
        <path d="M82.3622791,44.5395035 C83.4902626,45.7531011 83.4208587,47.6513277 82.207261,48.7793112 C80.9936634,49.9072947 79.0954369,49.8378907 77.9674533,48.6242931 C70.2744849,40.3474272 59.5246983,35.5609756 48.000673,35.5609756 C36.4755775,35.5609756 25.7248823,40.3483226 18.0318095,48.6265345 C16.9039162,49.8402159 15.0056948,49.909761 13.7920133,48.7818677 C12.5783319,47.6539744 12.5087868,45.755753 13.6366801,44.5420715 C22.4534253,35.0547201 34.7904406,29.5609756 48.000673,29.5609756 C61.2096778,29.5609756 73.5456525,35.0536935 82.3622791,44.5395035 Z" id="Path" fill-opacity="0.25" fill="#000000" fill-rule="nonzero"></path>
        <path d="M69.9751356,57.0195926 C71.073492,58.2600679 70.9582818,60.1560657 69.7178064,61.2544222 C68.477331,62.3527786 66.5813333,62.2375684 65.4829768,60.997093 C61.0772058,56.0212488 54.7765863,53.1219512 48.000673,53.1219512 C41.2220867,53.1219512 34.9192142,56.0235553 30.5133096,61.0028091 C29.4153563,62.2436413 27.519396,62.3594675 26.2785638,61.2615142 C25.0377317,60.1635608 24.9219054,58.2676006 26.0198588,57.0267684 C31.5529109,50.7736891 39.4852261,47.1219512 48.000673,47.1219512 C56.5127574,47.1219512 64.4422477,50.7707911 69.9751356,57.0195926 Z" id="Path" fill-opacity="0.25" fill="#000000" fill-rule="nonzero"></path>
        <rect id="Rectangle" fill="#000000" fill-rule="nonzero" x="39.000673" y="65" width="18" height="18" rx="9"></rect>
        <g id="7" transform="translate(4.000000, 12.000000)" fill="#000000" fill-rule="nonzero">
            <polygon id="路径" points="10.784 3.52 0 3.52 0 -5.69655434e-15 15.328 -5.69655434e-15 15.328 2.528 7.008 23.456 2.592 23.456"></polygon>
        </g>
    </g>
</svg>