<?xml version="1.0" encoding="UTF-8"?>
<svg width="84px" height="84px" viewBox="0 0 84 84" version="1.1" xmlns="http://www.w3.org/2000/svg" xmlns:xlink="http://www.w3.org/1999/xlink">
    <title>svghotspot</title>
    <defs>
        <filter id="filter-1">
            <feColorMatrix in="SourceGraphic" type="matrix" values="0 0 0 0 0.039216 0 0 0 0 0.349020 0 0 0 0 0.968627 0 0 0 1.000000 0"></feColorMatrix>
        </filter>
    </defs>
    <g id="hotspot" stroke="none" stroke-width="1" fill="none" fill-rule="evenodd" opacity="0.699999988">
        <g filter="url(#filter-1)" id="Notification/ic_notification_hotspot_filled">
            <g>
                <g id="symbol/frame/symbol_grid24"></g>
                <g id="Notification/ic_notification_hotspot" fill="#000000" fill-rule="nonzero">
                    <path d="M41.8970037,8 C62.826941,8 79.7940075,24.9670665 79.7940075,45.8970037 C79.7940075,57.4046551 74.6648705,67.7143323 66.5680196,74.6646122 L66.5294123,74.6184168 C65.9755937,74.985924 65.3111303,75.2 64.5966667,75.2 C62.66367,75.2 61.0966667,73.6329966 61.0966667,71.7 C61.0966667,70.4997136 61.7008622,69.4405446 62.6217068,68.8100395 C68.8696575,63.1579227 72.7940075,54.9857538 72.7940075,45.8970037 C72.7940075,28.8330598 58.9609477,15 41.8970037,15 C24.8330598,15 11,28.8330598 11,45.8970037 C11,55.0504527 14.9804204,63.2742246 21.3047801,68.9318383 C21.4291029,69.0249577 21.5453155,69.127844 21.6542733,69.2379246 C21.6963107,69.2762926 21.7398661,69.3138892 21.7835273,69.351366 L21.7736977,69.3647019 C22.3289574,69.9841524 22.6666667,70.8026381 22.6666667,71.7 C22.6666667,73.6329966 21.0996633,75.2 19.1666667,75.2 C18.4612703,75.2 17.804613,74.9913232 17.2550599,74.6323347 L17.2269943,74.665476 C9.12956205,67.7151866 4,57.4051319 4,45.8970037 C4,24.9670665 20.9670665,8 41.8970037,8 Z M41.8970037,23.9400749 C54.0234807,23.9400749 63.8539326,33.7705268 63.8539326,45.8970037 C63.8539326,52.5646564 60.8819236,58.5381591 56.1903693,62.5650482 L56.1823949,62.5568747 C55.5557219,63.1478043 54.710992,63.51 53.7816667,63.51 C51.84867,63.51 50.2816667,61.9429966 50.2816667,60.01 C50.2816667,58.8733435 50.8235006,57.8632392 51.662971,57.2238843 L51.6336326,57.2511129 C54.8294489,54.5080209 56.8539326,50.4389341 56.8539326,45.8970037 C56.8539326,37.63652 50.1574874,30.9400749 41.8970037,30.9400749 C33.63652,30.9400749 26.9400749,37.63652 26.9400749,45.8970037 C26.9400749,50.1903561 28.7490243,54.0612057 31.6463232,56.7889526 C32.5252734,57.4239572 33.0966667,58.4577506 33.0966667,59.625 C33.0966667,61.5579966 31.5296633,63.125 29.5966667,63.125 C28.8709222,63.125 28.1967693,62.9041104 27.6377709,62.5258943 L27.6036382,62.5650482 C22.9120839,58.5381591 19.9400749,52.5646564 19.9400749,45.8970037 C19.9400749,33.7705268 29.7705268,23.9400749 41.8970037,23.9400749 Z M41.5666667,38.625 C45.4326599,38.625 48.5666667,41.7590068 48.5666667,45.625 L48.5666667,45.6289005 C48.5666667,49.4948938 45.4326599,52.6289005 41.5666667,52.6289005 C37.7006734,52.6289005 34.5666667,49.4948938 34.5666667,45.6289005 L34.5666667,45.625 C34.5666667,41.7590068 37.7006734,38.625 41.5666667,38.625 Z" id="形状结合"></path>
                </g>
            </g>
        </g>
    </g>
</svg>