<?xml version="1.0" encoding="UTF-8"?>
<svg width="84px" height="84px" viewBox="0 0 84 84" version="1.1" xmlns="http://www.w3.org/2000/svg" xmlns:xlink="http://www.w3.org/1999/xlink">
    <title>svgwifi</title>
    <g id="wifi" stroke="none" stroke-width="1" fill="none" fill-rule="evenodd" opacity="0.7">
        <path d="M42,58.5 C46.5383391,58.5 50.2173899,62.1790508 50.2173899,66.7173899 L50.2173899,66.7826101 C50.2173899,71.3209492 46.5383391,75 42,75 C37.4616608,75 33.78261,71.3209492 33.78261,66.7826101 L33.78261,66.7173899 C33.78261,62.1790508 37.4616608,58.5 42,58.5 Z M42.0025082,42 C49.7256209,42 56.93976,45.1136115 61.9985913,50.4723852 C63.3861124,51.9421737 63.3241312,54.2629445 61.8601524,55.6559719 C60.3961737,57.0489993 58.0845762,56.9867722 56.6970551,55.5169837 C53.0177567,51.6195365 47.7206964,49.3333333 42.0025082,49.3333333 C36.2820755,49.3333333 30.9831437,51.6213455 27.3037659,55.5214293 C25.9167233,56.991673 23.6051463,57.0546587 22.1407141,55.6621117 C20.6762818,54.2695648 20.6135451,51.9488145 22.0005877,50.4785707 C27.0596013,45.1160944 34.2763335,42 42.0025082,42 Z M42.0009833,25.5 C53.9372695,25.5 65.0766916,30.6582164 73.0226638,39.5490419 C74.3697295,41.0562868 74.2447083,43.3744962 72.7434212,44.7269076 C71.2421341,46.0793189 68.933088,45.9538016 67.5860223,44.4465568 C61.0041311,37.0820148 51.8288945,32.8333333 42.0009833,32.8333333 C32.1721583,32.8333333 22.9961428,37.0828112 16.4141583,44.4485552 C15.0672039,45.9559003 12.758167,46.0815893 11.2567801,44.7292896 C9.75539324,43.3769899 9.63020099,41.0587898 10.9771554,39.5514448 C18.9232306,30.6591789 30.0635889,25.5 42.0009833,25.5 Z M41.9983064,9 C57.7047486,9 72.3915293,15.45397 82.9934837,26.6389717 C84.383973,28.10593 84.3266832,30.4268224 82.8655234,31.8228298 C81.4043635,33.2188372 79.092645,33.16132 77.7021557,31.6943617 C68.4655667,21.9498127 55.684596,16.3333333 41.9983064,16.3333333 C28.3136183,16.3333333 15.5340117,21.9484891 6.29761138,31.6910343 C4.90698687,33.1578635 2.59526313,33.215166 1.13423188,31.8190229 C-0.326799375,30.4228798 -0.383875322,28.1019822 1.00674918,26.6351529 C11.608488,15.4524501 26.2937038,9 41.9983064,9 Z" id="形状结合" fill="#0A59F7" fill-rule="nonzero"></path>
    </g>
</svg>