<svg width="20.000000" height="20.000000" viewBox="0 0 20 20" fill="none" xmlns="http://www.w3.org/2000/svg" xmlns:xlink="http://www.w3.org/1999/xlink">
	<desc>
			Created with Pixso.
	</desc>
	<defs>
		<clipPath id="clip29_2951">
			<rect id="chevron_backward" width="20.000000" height="20.000000" fill="white" fill-opacity="0"/>
		</clipPath>
	</defs>
	<g clip-path="url(#clip29_2951)">
		<g opacity="0.000000">
			<rect id="rect" width="20.000002" height="20.000002" fill="#000000" fill-opacity="1.000000"/>
		</g>
		<path id="路径" d="M14.63 17.71C14.43 17.71 14.24 17.64 14.07 17.53L4.14 11.02C3.8 10.79 3.59 10.41 3.59 10C3.59 9.58 3.8 9.2 4.15 8.97L14.07 2.46C14.72 2.03 15.59 2.37 15.59 3.48L15.59 16.51C15.59 17.3 15.11 17.71 14.63 17.71Z" fill="#000000" fill-opacity="0.298039" fill-rule="evenodd"/>
		<path id="路径" d="M14.07 17.53C14.24 17.64 14.43 17.71 14.63 17.71C15.11 17.71 15.59 17.3 15.59 16.51L15.59 3.48C15.59 2.37 14.72 2.03 14.07 2.46L4.15 8.97C3.8 9.2 3.59 9.58 3.59 10C3.59 10.41 3.8 10.79 4.14 11.02L14.07 17.53ZM3.11 12.59L13.03 19.09Q13.2 19.21 13.38 19.29Q13.56 19.39 13.77 19.45Q14.17 19.58 14.63 19.59Q14.91 19.59 15.17 19.54Q15.47 19.48 15.76 19.34Q15.99 19.24 16.18 19.11Q16.46 18.91 16.69 18.65Q16.81 18.53 16.9 18.39Q17.14 18.06 17.28 17.65Q17.47 17.11 17.47 16.51L17.47 3.48Q17.47 2.71 17.18 2.07Q17.15 2.01 17.12 1.94Q16.89 1.49 16.54 1.16Q16.3 0.93 16 0.76Q15.67 0.57 15.31 0.48Q14.9 0.38 14.46 0.41Q14.15 0.43 13.86 0.51Q13.43 0.63 13.03 0.89L3.14 7.39Q2.81 7.6 2.55 7.88Q2.28 8.16 2.09 8.51Q1.91 8.84 1.81 9.2Q1.71 9.59 1.71 10Q1.71 10.39 1.8 10.76Q1.9 11.13 2.08 11.47Q2.29 11.85 2.58 12.15Q2.81 12.4 3.11 12.59Z" fill="#FFFFFF" fill-opacity="0.250000" fill-rule="evenodd"/>
	</g>
</svg>
