<svg width="20.000000" height="20.000000" viewBox="0 0 20 20" fill="none" xmlns="http://www.w3.org/2000/svg" xmlns:xlink="http://www.w3.org/1999/xlink">
	<desc>
			Created with Pixso.
	</desc>
	<defs>
		<clipPath id="clip29_2207">
			<rect id="circle" width="20.000000" height="20.000000" fill="white" fill-opacity="0"/>
		</clipPath>
	</defs>
	<g clip-path="url(#clip29_2207)">
		<g opacity="0.000000">
			<rect id="rect" width="20.000000" height="20.000000" fill="#000000" fill-opacity="0"/>
			<rect id="rect" x="0.625000" y="0.625000" width="18.750000" height="18.750000" stroke="#000000" stroke-opacity="1.000000" stroke-width="1.250000"/>
		</g>
		<path id="矢量 2" d="M13.78 3.48C13.24 3.16 12.68 2.92 12.1 2.75C11.43 2.55 10.73 2.46 10.01 2.46C9.19 2.46 8.42 2.58 7.68 2.82C7.17 2.98 6.69 3.2 6.22 3.48C5.6 3.84 5.05 4.28 4.57 4.77C4.15 5.21 3.78 5.69 3.47 6.23C3.16 6.75 2.93 7.3 2.76 7.86C2.56 8.54 2.46 9.25 2.46 9.99C2.46 10.74 2.56 11.45 2.76 12.13C2.93 12.7 3.16 13.24 3.47 13.76C3.78 14.3 4.15 14.78 4.57 15.22C5.05 15.71 5.6 16.15 6.22 16.51C6.69 16.79 7.17 17.01 7.67 17.17C8.41 17.41 9.19 17.53 10.01 17.53C10.73 17.53 11.43 17.43 12.1 17.24C12.68 17.07 13.24 16.83 13.78 16.51C14.37 16.16 14.9 15.75 15.37 15.27C15.81 14.83 16.19 14.32 16.52 13.76C16.83 13.24 17.06 12.69 17.23 12.13C17.43 11.45 17.53 10.73 17.53 9.99C17.53 9.25 17.43 8.54 17.23 7.86C17.06 7.29 16.83 6.75 16.52 6.23C16.19 5.67 15.81 5.16 15.36 4.71C14.9 4.24 14.37 3.83 13.78 3.48Z" fill="#000000" fill-opacity="0.298039" fill-rule="evenodd"/>
		<path id="矢量 2" d="M12.68 0.96C12.66 0.95 12.64 0.95 12.62 0.94L12.62 0.94C12.53 0.92 12.43 0.89 12.33 0.87C11.58 0.67 10.81 0.58 10.01 0.58C9.09 0.58 8.21 0.7 7.36 0.95C7.27 0.97 7.18 1 7.1 1.03C7.05 1.05 7 1.06 6.96 1.08C6.37 1.28 5.81 1.54 5.26 1.86C4.63 2.24 4.04 2.67 3.52 3.17C3.42 3.27 3.32 3.37 3.22 3.47C3.16 3.52 3.11 3.58 3.05 3.64C2.6 4.14 2.2 4.68 1.85 5.28C1.47 5.92 1.18 6.6 0.97 7.3C0.96 7.31 0.96 7.32 0.96 7.33C0.93 7.42 0.9 7.51 0.88 7.6C0.68 8.37 0.58 9.17 0.58 9.99C0.58 10.83 0.68 11.63 0.89 12.41C0.91 12.5 0.93 12.58 0.96 12.66C0.98 12.73 1 12.79 1.02 12.86C1.22 13.5 1.5 14.11 1.84 14.71C2.23 15.37 2.68 15.97 3.2 16.5C3.2 16.51 3.21 16.52 3.22 16.52C3.27 16.58 3.32 16.63 3.37 16.68C3.94 17.24 4.57 17.72 5.27 18.13C5.73 18.41 6.21 18.64 6.71 18.82C6.83 18.87 6.96 18.92 7.09 18.96C7.17 18.98 7.25 19.01 7.33 19.03C8.18 19.29 9.08 19.41 10.01 19.41C10.84 19.41 11.65 19.31 12.43 19.1C12.5 19.08 12.56 19.06 12.63 19.04C12.71 19.02 12.79 19 12.86 18.97C13.51 18.76 14.13 18.48 14.73 18.13C15.46 17.7 16.11 17.19 16.69 16.61C16.7 16.6 16.7 16.6 16.71 16.59C16.78 16.52 16.85 16.45 16.92 16.37C17.38 15.87 17.79 15.32 18.14 14.71C18.52 14.06 18.82 13.38 19.03 12.68C19.03 12.67 19.03 12.67 19.03 12.66C19.06 12.58 19.08 12.51 19.1 12.43C19.31 11.65 19.41 10.83 19.41 9.99C19.41 9.17 19.31 8.37 19.11 7.59C19.08 7.5 19.06 7.41 19.03 7.32C19.01 7.25 18.99 7.18 18.97 7.11C18.76 6.48 18.49 5.87 18.15 5.28C17.74 4.6 17.28 3.98 16.74 3.43C16.73 3.42 16.72 3.41 16.7 3.39C16.65 3.34 16.6 3.29 16.54 3.23C16 2.71 15.4 2.25 14.74 1.86C14.08 1.47 13.39 1.17 12.68 0.96ZM13.78 3.48C13.24 3.16 12.68 2.92 12.1 2.75C11.43 2.55 10.73 2.46 10.01 2.46C9.19 2.46 8.42 2.58 7.68 2.82C7.17 2.98 6.69 3.2 6.22 3.48C5.6 3.84 5.05 4.28 4.57 4.77C4.15 5.21 3.78 5.69 3.47 6.23C3.16 6.75 2.93 7.3 2.76 7.86C2.56 8.54 2.46 9.25 2.46 9.99C2.46 10.74 2.56 11.45 2.76 12.13C2.93 12.7 3.16 13.24 3.47 13.76C3.78 14.3 4.15 14.78 4.57 15.22C5.05 15.71 5.6 16.15 6.22 16.51C6.69 16.79 7.17 17.01 7.67 17.17C8.41 17.41 9.19 17.53 10.01 17.53C10.73 17.53 11.43 17.43 12.1 17.24C12.68 17.07 13.24 16.83 13.78 16.51C14.37 16.16 14.9 15.75 15.37 15.27C15.81 14.83 16.19 14.32 16.52 13.76C16.83 13.24 17.06 12.69 17.23 12.13C17.43 11.45 17.53 10.73 17.53 9.99C17.53 9.26 17.43 8.55 17.23 7.87C17.23 7.87 17.23 7.86 17.23 7.86C17.06 7.29 16.83 6.75 16.52 6.23C16.19 5.67 15.81 5.16 15.36 4.71C14.9 4.24 14.37 3.83 13.78 3.48Z" fill="#FFFFFF" fill-opacity="0.250000" fill-rule="evenodd"/>
	</g>
</svg>
