<svg width="20.000000" height="20.000000" viewBox="0 0 20 20" fill="none" xmlns="http://www.w3.org/2000/svg" xmlns:xlink="http://www.w3.org/1999/xlink">
	<desc>
			Created with Pixso.
	</desc>
	<defs>
		<clipPath id="clip29_2203">
			<rect id="square" width="19.999996" height="19.999998" fill="white" fill-opacity="0"/>
		</clipPath>
	</defs>
	<g clip-path="url(#clip29_2203)">
		<g opacity="0.000000">
			<rect id="rect" width="19.999996" height="19.999998" fill="#000000" fill-opacity="1.000000"/>
		</g>
		<path id="矢量 4" d="M3.26 3.73C3.3 3.63 3.37 3.54 3.46 3.45C3.57 3.35 3.69 3.27 3.82 3.23C3.93 3.19 4.04 3.17 4.16 3.17L15.83 3.17C16 3.17 16.15 3.2 16.29 3.27C16.38 3.31 16.46 3.37 16.54 3.45C16.62 3.53 16.68 3.61 16.72 3.7C16.79 3.84 16.82 3.99 16.82 4.16L16.82 15.83C16.82 15.95 16.8 16.06 16.77 16.17C16.72 16.3 16.64 16.42 16.54 16.53C16.45 16.62 16.36 16.69 16.26 16.73C16.13 16.79 15.99 16.82 15.83 16.82L4.16 16.82C4.05 16.82 3.95 16.8 3.85 16.77C3.71 16.73 3.58 16.64 3.46 16.53C3.35 16.41 3.26 16.28 3.22 16.14C3.19 16.04 3.17 15.94 3.17 15.83L3.17 4.16C3.17 4 3.2 3.86 3.26 3.73Z" fill="#000000" fill-opacity="0.298039" fill-rule="evenodd"/>
		<path id="矢量 4" d="M2.87 1.59Q2.5 1.77 2.18 2.07L2.15 2.1L2.12 2.13Q1.85 2.4 1.67 2.72Q1.6 2.83 1.55 2.95Q1.47 3.13 1.41 3.32Q1.29 3.72 1.29 4.16L1.29 15.83Q1.29 16.12 1.35 16.4Q1.38 16.57 1.43 16.73Q1.5 16.93 1.59 17.11Q1.79 17.5 2.1 17.83L2.13 17.86L2.16 17.89Q2.52 18.23 2.94 18.43Q3.1 18.5 3.26 18.56Q3.4 18.6 3.54 18.63Q3.84 18.7 4.16 18.7L15.83 18.7Q16.29 18.7 16.71 18.57Q16.87 18.52 17.04 18.44Q17.18 18.38 17.32 18.3Q17.61 18.12 17.86 17.87L17.89 17.84L17.92 17.81Q18.22 17.49 18.41 17.11Q18.48 16.95 18.54 16.79Q18.59 16.64 18.63 16.49Q18.7 16.17 18.7 15.83L18.7 4.16Q18.7 3.7 18.57 3.27Q18.51 3.08 18.42 2.89Q18.36 2.77 18.29 2.65Q18.13 2.38 17.9 2.15L17.87 2.12L17.84 2.09Q17.62 1.88 17.37 1.72Q17.24 1.64 17.1 1.57Q16.91 1.48 16.71 1.42Q16.29 1.29 15.83 1.29L4.16 1.29Q3.75 1.29 3.37 1.4Q3.29 1.42 3.21 1.45Q3.04 1.51 2.87 1.59ZM3.26 3.73C3.3 3.63 3.37 3.54 3.46 3.45C3.57 3.35 3.69 3.27 3.82 3.23C3.93 3.19 4.04 3.17 4.16 3.17L15.83 3.17C16 3.17 16.15 3.2 16.29 3.27C16.38 3.31 16.46 3.37 16.54 3.45C16.62 3.53 16.68 3.61 16.72 3.7C16.79 3.84 16.82 3.99 16.82 4.16L16.82 15.83C16.82 15.95 16.8 16.06 16.77 16.17C16.72 16.3 16.64 16.42 16.54 16.53C16.45 16.62 16.36 16.69 16.26 16.73L16.26 16.73Q16.06 16.82 15.83 16.82L4.16 16.82Q4 16.82 3.85 16.77L3.85 16.77C3.71 16.73 3.58 16.64 3.46 16.53C3.35 16.41 3.26 16.28 3.22 16.14C3.19 16.04 3.17 15.94 3.17 15.83L3.17 4.16C3.17 4 3.2 3.86 3.26 3.73Z" fill="#FFFFFF" fill-opacity="0.250000" fill-rule="evenodd"/>
	</g>
</svg>
