<svg width="24.000000" height="24.000002" viewBox="0 0 24 24" fill="none" xmlns="http://www.w3.org/2000/svg" xmlns:xlink="http://www.w3.org/1999/xlink">
  <desc>
    Created with Pixso.
  </desc>
  <defs/>
  <rect id="ic_iap" width="24.000000" height="24.000000" transform="translate(0.000000 0.000002)" fill="#FFFFFF" fill-opacity="0"/>
  <rect id="蒙版" y="0.000002" rx="12.000000" width="24.000000" height="24.000000" fill="#1677FF" fill-opacity="0"/>
  <rect id="蒙版" y="0.000002" rx="12.000000" width="24.000000" height="24.000000" fill="#FFFFFF" fill-opacity="1.000000"/>
  <rect id="蒙版" x="0.125000" y="0.125002" rx="11.875000" width="23.750000" height="23.750000" stroke="#DEDEE6" stroke-opacity="1.000000" stroke-width="0.250000"/>
  <path id="蒙版 (边框)" d="M12 1.9e-6C5.37 1.9e-6 0 5.37 0 12C0 18.62 5.37 24 12 24C18.62 24 24 18.62 24 12C24 5.37 18.62 1.9e-6 12 1.9e-6ZM12 0.25C5.51 0.25 0.25 5.51 0.25 12C0.25 18.48 5.51 23.75 12 23.75C18.48 23.75 23.75 18.48 23.75 12C23.75 5.51 18.48 0.25 12 0.25Z" fill="#DEDEE6" fill-opacity="1.000000" fill-rule="evenodd"/>
  <path id="Fill 1" d="M7.5 5.25L16.5 5.25C16.914 5.25 17.25 5.58563 17.25 6L17.25 18.75C17.25 19.164 16.914 19.5 16.5 19.5L7.5 19.5C7.086 19.5 6.75 19.164 6.75 18.75L6.75 6C6.75 5.58563 7.086 5.25 7.5 5.25ZM16.5 16.5L7.5 16.5L7.5 6L16.5 6L16.5 16.5Z" clip-rule="evenodd" fill="#007DFF" fill-opacity="1.000000" fill-rule="evenodd"/>
  <path id="Fill 3" d="M15.75 7.12C15.75 6.91 15.58 6.74 15.37 6.74L8.62 6.74C8.41 6.74 8.25 6.91 8.25 7.12L8.25 8.24L15.75 8.24L15.75 7.12Z" fill="#007DFF" fill-opacity="1.000000" fill-rule="evenodd"/>
  <path id="Fill 4" d="M8.62 11.99L15.37 11.99C15.58 11.99 15.75 11.83 15.75 11.62L15.75 8.99L8.25 8.99L8.25 11.62C8.25 11.83 8.41 11.99 8.62 11.99L12.1 9.81L8.62 11.99Z" fill="#007DFF" fill-opacity="1.000000" fill-rule="evenodd"/>
  <path id="Fill 5" d="M13.6 12.85L11.62 14.84L10.39 13.6C10.24 13.46 10 13.46 9.85 13.6C9.71 13.75 9.71 13.99 9.85 14.14L11.35 15.64C11.43 15.71 11.52 15.74 11.62 15.74C11.72 15.74 11.81 15.71 11.89 15.64L14.14 13.39C14.28 13.24 14.28 13 14.14 12.85C13.99 12.71 13.75 12.71 13.6 12.85Z" fill="#007DFF" fill-opacity="1.000000" fill-rule="evenodd"/>
</svg>
