<svg width="32.000000" height="32.000000" viewBox="0 0 32 32" fill="none" xmlns="http://www.w3.org/2000/svg" xmlns:xlink="http://www.w3.org/1999/xlink">
	<desc>
			Created with Pixso.
	</desc>
	<defs/>
	<rect id="矩形" rx="8.000000" width="32.000000" height="32.000000" fill="#64BB5C" fill-opacity="1.000000"/>
	<rect id="矩形" x="0.500000" y="0.500000" rx="8.000000" width="31.000000" height="31.000000" stroke="#000000" stroke-opacity="0" stroke-width="1.000000"/>
	<g opacity="0.000000">
		<rect id="rect" x="6.000000" y="6.000000" width="20.000000" height="20.000000" fill="#000000" fill-opacity="1.000000"/>
	</g>
	<path id="path" d="M18.64 13.44C18.54 13.44 18.46 13.39 18.38 13.31C18.29 13.23 18.25 13.15 18.25 13.05L18.25 8.64C18.25 8.29 18.17 7.97 18 7.69C17.84 7.42 17.61 7.19 17.34 7.03C17.05 6.86 16.75 6.78 16.41 6.78C16.08 6.78 15.77 6.86 15.49 7.03C15.2 7.19 14.97 7.42 14.8 7.7C14.64 7.99 14.55 8.3 14.55 8.64L14.55 13.05C14.55 13.16 14.52 13.25 14.45 13.33C14.37 13.4 14.29 13.44 14.2 13.44L12 13.44C11.58 13.44 11.2 13.54 10.85 13.74C10.51 13.95 10.23 14.23 10.03 14.58C9.82 14.92 9.71 15.3 9.71 15.71L9.7 20.45C9.7 21.27 9.64 21.99 9.53 22.63C9.41 23.26 9.25 23.74 9.05 24.05C8.95 24.23 8.91 24.4 8.95 24.59C8.98 24.76 9.06 24.91 9.2 25.04C9.33 25.15 9.49 25.21 9.68 25.21L20.75 25.21C21.17 25.21 21.55 25.11 21.9 24.9C22.24 24.7 22.52 24.42 22.73 24.06C22.93 23.71 23.04 23.33 23.04 22.91L23.04 15.71C23.04 15.3 22.93 14.92 22.73 14.58C22.52 14.23 22.24 13.95 21.9 13.74C21.55 13.54 21.17 13.44 20.75 13.44L18.64 13.44ZM14.18 14.68C14.63 14.68 15.01 14.52 15.33 14.2C15.64 13.89 15.8 13.51 15.8 13.05L15.8 8.64C15.8 8.46 15.86 8.32 15.98 8.2C16.1 8.09 16.23 8.04 16.4 8.04C16.57 8.04 16.71 8.09 16.83 8.2C16.94 8.32 17 8.46 17 8.64L17 13.05C17 13.51 17.16 13.89 17.48 14.2C17.79 14.52 18.18 14.68 18.64 14.68L20.75 14.68C21.04 14.68 21.28 14.78 21.49 14.98C21.69 15.18 21.8 15.42 21.8 15.71C21.8 15.86 21.8 16.01 21.8 16.15L10.95 16.15L10.95 15.71C10.95 15.42 11.06 15.18 11.26 14.98C11.47 14.78 11.72 14.68 12 14.68L14.18 14.68ZM18.58 23.95C18.92 23.08 19.1 22.21 19.1 21.35L19.1 18.85C19.1 18.68 19.03 18.53 18.91 18.41C18.79 18.29 18.65 18.24 18.48 18.24C18.3 18.24 18.15 18.29 18.04 18.41C17.91 18.53 17.85 18.68 17.85 18.85L17.85 21.35C17.85 21.75 17.79 22.18 17.68 22.64C17.56 23.09 17.4 23.53 17.2 23.95L14.41 23.95C14.77 23.05 14.95 22.18 14.95 21.35L14.95 18.85C14.95 18.68 14.9 18.53 14.78 18.41C14.66 18.29 14.51 18.24 14.34 18.24C14.16 18.24 14.01 18.29 13.89 18.41C13.76 18.53 13.7 18.68 13.7 18.85L13.7 21.35C13.7 21.77 13.64 22.2 13.53 22.64C13.41 23.09 13.25 23.53 13.04 23.95L10.48 23.95C10.8 23.02 10.95 21.85 10.95 20.45L10.95 17.39L21.8 17.39L21.8 22.91C21.8 23.21 21.7 23.45 21.5 23.65C21.3 23.85 21.05 23.95 20.75 23.95L18.58 23.95Z" fill="#FFFFFF" fill-opacity="1.000000" fill-rule="nonzero"/>
</svg>
