<?xml version="1.0" encoding="UTF-8"?>
<svg width="24px" height="24px" viewBox="0 0 24 24" version="1.1" xmlns="http://www.w3.org/2000/svg" xmlns:xlink="http://www.w3.org/1999/xlink">
    <title>ic_device_mouse</title>
    <g id="ic_device_mouse" stroke="none" stroke-width="1" fill="none" fill-rule="evenodd">
        <path d="M12,1 C16.418278,1 20,4.581722 20,9 L20,15 C20,19.418278 16.418278,23 12,23 C7.581722,23 4,19.418278 4,15 L4,9 C4,4.581722 7.581722,1 12,1 Z M18.5,10.75 L5.5,10.75 L5.5,15 C5.5,18.5898509 8.41014913,21.5 12,21.5 C15.5898509,21.5 18.5,18.5898509 18.5,15 L18.5,10.75 Z M5.5,9 L5.5,9.25 L11.25,9.25 L11.2505755,2.5427357 C8.01371924,2.91432506 5.5,5.66360724 5.5,9 Z M12.7504295,2.54285115 L12.75,9.25 L18.5,9.25 L18.5,9 C18.5,5.66395255 15.9868011,2.91489416 12.7504295,2.54285115 Z" id="形状" fill="#000000" fill-rule="nonzero"></path>
    </g>
</svg>