<?xml version="1.0" encoding="UTF-8"?>
<svg width="24px" height="24px" viewBox="0 0 24 24" version="1.1" xmlns="http://www.w3.org/2000/svg" xmlns:xlink="http://www.w3.org/1999/xlink">
    <title>画板</title>
    <g id="画板" stroke="none" stroke-width="1" fill="none" fill-rule="evenodd">
        <g id="pencil_waveform" fill="#000000" fill-rule="nonzero">
            <rect id="矩形" opacity="0" x="0" y="0" width="24" height="24"></rect>
            <g id="编组" transform="translate(2.000000, 2.500000)" fill-opacity="0.90196079">
                <path d="M2.00259516,14.9811739 C1.69735541,15.3819543 1.50951557,15.6584929 1.43907563,15.8107894 L0.0889767672,18.2395191 C-0.00494315373,18.3918156 -0.0245098039,18.5401044 0.0302768166,18.6843854 C0.0850634371,18.8286664 0.186810018,18.9248537 0.33551656,18.9729473 C0.484223101,19.021041 0.636842972,19.0050098 0.793376174,18.9248537 L3.12963421,17.5421611 C3.50531389,17.3497864 3.78707365,17.1694352 3.97491349,17.0011074 L2.00259516,14.9811739 Z M4.59713297,16.5321943 C4.65191959,16.4600538 4.82019278,16.3077572 5.10195255,16.0753045 L18.1216016,2.71729157 C18.4190147,2.38865158 18.5677212,2.00791014 18.5677212,1.57506724 C18.5677212,1.14222433 18.4190147,0.769498497 18.1216016,0.456889733 C17.8163618,0.152296578 17.4524221,0 17.0297825,0 C16.6071429,0 16.2353765,0.152296578 15.9144834,0.456889733 L2.90657439,13.8269261 C2.82830779,13.8990666 2.75004119,13.9792227 2.67177459,14.0673944 C2.60133465,14.1555661 2.53872137,14.2477456 2.48393475,14.3439329 L4.59713297,16.5321943 Z M17.2411023,1.38269261 C17.3350222,1.46284871 17.3819822,1.57506724 17.3819822,1.7193482 C17.3819822,1.86362917 17.3350222,1.98386331 17.2411023,2.08005062 L4.78497281,14.7767758 L4.11579338,14.0794178 L16.5367029,1.38269261 C16.6306228,1.2865053 16.7480227,1.23841164 16.8889026,1.23841164 C17.0297825,1.23841164 17.1471824,1.2865053 17.2411023,1.38269261 Z" id="形状"></path>
                <path d="M11.3006673,18.9248537 C12.2007332,18.9248537 13.1868924,18.6683542 14.2591448,18.1553552 C15.3313973,17.6343406 16.1962432,17.4339503 16.8536826,17.5541845 C17.5111221,17.6824342 18.0629016,17.9669883 18.5090213,18.4078469 C18.6812078,18.6002215 18.8886143,18.692401 19.1312407,18.6843854 C19.3738672,18.6763698 19.5812737,18.5841903 19.7534602,18.4078469 C19.9178201,18.2395191 20,18.0271054 20,17.7706059 C20,17.522122 19.9178201,17.3137162 19.7534602,17.1453884 C19.0568875,16.4480304 18.1920415,15.9951484 17.1589224,15.7867426 C16.1258033,15.5703212 14.9048443,15.818805 13.4960455,16.5321943 C12.447273,17.0532089 11.5980804,17.2495913 10.9484676,17.1213416 C10.2988548,17.0011074 9.73924864,16.7085377 9.26964904,16.2436323 C9.09746251,16.0753045 8.89005602,15.9911406 8.64742956,15.9911406 C8.4048031,15.9911406 8.19739661,16.0753045 8.02521008,16.2436323 C7.86085022,16.4199757 7.77867029,16.6323894 7.77867029,16.8808733 C7.77867029,17.1293572 7.86085022,17.3417708 8.02521008,17.5181142 C8.98788927,18.4559405 10.0797084,18.9248537 11.3006673,18.9248537 Z" id="路径"></path>
            </g>
        </g>
    </g>
</svg>