<?xml version="1.0" encoding="UTF-8"?>
<svg width="24px" height="24px" viewBox="0 0 24 24" version="1.1" xmlns="http://www.w3.org/2000/svg" xmlns:xlink="http://www.w3.org/1999/xlink">
    <title>画板</title>
    <g id="画板" stroke="none" stroke-width="1" fill="none" fill-rule="evenodd">
        <g id="Public/ic_public_wlan_filled备份" fill="#000000" style="mix-blend-mode: normal;">
            <g id="编组-2" transform="translate(3.666609, 2.000000)">
                <path d="M12.8486143,19.1176559 C17.9394317,14.0901232 17.9394317,5.90987678 12.8486143,0.882344123 L11.9551458,0 L6.29388072,5.59077781 C5.10127381,6.76853582 4.44450513,8.33454923 4.44450513,10.0000999 C4.44450513,11.4815666 4.96526501,12.8833835 5.91935054,14.0041774 L7.72005037,12.2258977 C7.23683458,11.5852013 6.97159719,10.8135874 6.97159719,10.0000999 C6.97159719,9.00112929 7.3655572,8.06192099 8.08091895,7.35546606 L11.9018149,3.58214325 C14.8874307,7.33537871 14.8874307,12.6646213 11.9018149,16.4178568 L10.8738556,15.4027962 L9.08691855,17.1674845 L11.9551458,20 L12.8486143,19.1176559 Z" id="Fill-1"></path>
                <path d="M10.3738241,14.4093383 C11.5658398,13.2315626 12.2222829,11.6656256 12.2222829,9.99995003 C12.2222829,8.52235875 11.7046133,7.12381885 10.7556535,6.00440729 L8.95534054,7.7834132 C9.43386632,8.42232027 9.69654471,9.19034794 9.69654471,9.99995003 C9.69654471,10.9990356 9.30267885,11.938158 8.58777285,12.6445236 L4.7680629,16.4185026 C3.31438025,14.5947242 2.52594049,12.3574002 2.52594049,9.99995003 C2.52594049,7.6425998 3.31438025,5.40527576 4.7680629,3.58149738 L5.83495996,4.63564908 L7.62111233,2.87083444 L4.71546653,0 L3.82244092,0.882257412 C1.35749198,3.31765964 0,6.5557682 0,9.99995003 C0,13.4443317 1.35749198,16.6823404 3.82244092,19.1177426 L4.71546653,20 L10.3738241,14.4093383 Z" id="Fill-3"></path>
            </g>
        </g>
    </g>
</svg>