<svg width="24.000000" height="24.000000" viewBox="0 0 24 24" fill="none" xmlns="http://www.w3.org/2000/svg" xmlns:xlink="http://www.w3.org/1999/xlink">
	<desc>
			Created with Pixso.
	</desc>
	<defs>
		<clipPath id="clip25_40125">
			<rect id="key" width="24.000000" height="24.000000" fill="white" fill-opacity="0"/>
		</clipPath>
	</defs>
	<g clip-path="url(#clip25_40125)">
		<g opacity="0.000000">
			<rect id="rect" width="24.000000" height="24.000000" fill="#000000" fill-opacity="1.000000"/>
		</g>
		<path id="path" d="M12.07 11.26C11.94 10.42 11.63 9.67 11.14 8.99C10.66 8.31 10.05 7.77 9.31 7.38C8.57 6.98 7.77 6.79 6.9 6.79C5.96 6.79 5.1 7.02 4.31 7.49C3.51 7.95 2.88 8.58 2.41 9.38C1.95 10.18 1.72 11.05 1.72 12C1.72 12.94 1.95 13.82 2.41 14.62C2.88 15.42 3.51 16.04 4.31 16.51C5.1 16.97 5.96 17.2 6.9 17.2C7.77 17.2 8.57 17.01 9.31 16.62C10.05 16.22 10.66 15.69 11.14 15.01C11.63 14.33 11.94 13.57 12.07 12.74L17.15 12.74L17.15 16.44C17.15 16.64 17.23 16.82 17.38 16.98C17.54 17.13 17.72 17.2 17.92 17.2C18.13 17.2 18.31 17.13 18.45 16.98C18.6 16.82 18.66 16.64 18.66 16.44L18.66 12.74L21.53 12.74C21.73 12.74 21.91 12.67 22.06 12.53C22.2 12.38 22.27 12.2 22.27 12C22.27 11.79 22.2 11.61 22.06 11.47C21.91 11.33 21.73 11.26 21.53 11.26L12.07 11.26ZM6.9 15.7C6.25 15.7 5.64 15.53 5.08 15.2C4.5 14.87 4.05 14.42 3.72 13.86C3.4 13.29 3.23 12.67 3.23 12C3.23 11.32 3.4 10.7 3.72 10.14C4.05 9.57 4.5 9.12 5.08 8.8C5.64 8.46 6.25 8.3 6.9 8.3C7.58 8.3 8.2 8.46 8.77 8.8C9.33 9.12 9.79 9.57 10.12 10.14C10.46 10.7 10.62 11.32 10.62 12C10.62 12.67 10.46 13.29 10.12 13.86C9.79 14.42 9.33 14.87 8.77 15.2C8.2 15.53 7.58 15.7 6.9 15.7Z" fill="#000000" fill-opacity="0.901961" fill-rule="nonzero"/>
	</g>
</svg>
