<?xml version="1.0" encoding="UTF-8"?>
<svg width="40px" height="40px" viewBox="0 0 40 40" version="1.1" xmlns="http://www.w3.org/2000/svg" xmlns:xlink="http://www.w3.org/1999/xlink">
    <title>画板</title>
    <g id="检视" stroke="none" stroke-width="1" fill="none" fill-rule="evenodd">
        <g id="画板" fill="#000000" fill-rule="nonzero">
            <circle id="椭圆形" fill-opacity="0" cx="20" cy="20" r="20"></circle>
            <g id="Public/ic_public_arrow_right" transform="translate(20.000000, 20.004794) scale(-1, 1) translate(-20.000000, -20.004794) translate(8.000000, 8.004794)" fill-opacity="0.9">
                <path d="M8.78229851,4.18921942 L8.81520413,4.21949452 L15.973937,10.7535196 C16.6607415,11.4230189 16.6750499,12.4998256 16.0168623,13.1862961 L15.973937,13.2295755 L8.81400965,19.7766082 C8.68174238,19.9055427 8.51331575,19.9777461 8.34055,19.9932183 L8.29334839,19.9960314 L8.24607506,19.9960314 C8.05702956,19.9904051 7.86970537,19.9172641 7.7254138,19.7766082 C7.43554233,19.4940405 7.42518978,19.042178 7.69435614,18.7475178 L7.7254138,18.7154413 L14.5224758,12.522131 C14.8123473,12.2395633 14.8226998,11.7877008 14.5535335,11.4930406 L14.5224758,11.4609641 L7.72660828,5.28066136 C7.42600083,4.98762823 7.42600083,4.51252765 7.72660828,4.21949452 C7.87154401,4.07821069 8.05989744,4.00504585 8.2498015,4 L8.29728559,4 C8.4713347,4.00593939 8.64375511,4.06895997 8.78229851,4.18921942 Z" id="路径"></path>
            </g>
        </g>
    </g>
</svg>