<?xml version="1.0" encoding="UTF-8"?>
<svg width="24px" height="24px" viewBox="0 0 24 24" version="1.1" xmlns="http://www.w3.org/2000/svg" xmlns:xlink="http://www.w3.org/1999/xlink">
    <title>ic_close</title>
    <defs>
        <path d="M15.7760191,0.219669914 C16.0689123,0.512563133 16.0689123,0.987436867 15.7760191,1.28033009 L1.28033009,15.7760191 C0.987436867,16.0689123 0.512563133,16.0689123 0.219669914,15.7760191 C-0.0732233047,15.4831259 -0.0732233047,15.0082521 0.219669914,14.7153589 L6.93736111,7.99731418 L0.219669914,1.28033009 C-0.0732233044,0.987436867 -0.0732233044,0.512563133 0.219669914,0.219669914 C0.512563133,-0.0732233044 0.987436867,-0.0732233044 1.28033009,0.219669914 L7.99784451,6.93683078 L14.7153589,0.219669914 C15.0082521,-0.0732233047 15.4831259,-0.0732233047 15.7760191,0.219669914 Z M15.7760191,14.7153589 C16.0689123,15.0082521 16.0689123,15.4831259 15.7760191,15.7760191 C15.4831259,16.0689123 15.0082521,16.0689123 14.7153589,15.7760191 L8.70512807,9.76543468 L9.76561146,8.70495129 L15.7760191,14.7153589 Z" id="path-1"></path>
    </defs>
    <g id="ic_close" stroke="none" stroke-width="1" fill="none" fill-rule="evenodd">
        <g id="Public/ic_public_cancel" transform="translate(4.002155, 4.002155)">
            <mask id="mask-2" fill="white">
                <use xlink:href="#path-1"></use>
            </mask>
            <g id="形状"></g>
            <g id="Symbol/color-light/colorPrimary" mask="url(#mask-2)" fill="#000000" fill-opacity="0.81">
                <g transform="translate(-4.002155, -4.002155)" id="color/#000000">
                    <rect x="0" y="0" width="24" height="24"></rect>
                </g>
            </g>
        </g>
    </g>
</svg>