<?xml version="1.0" encoding="UTF-8"?>
<svg width="48px" height="48px" viewBox="0 0 48 48" version="1.1" xmlns="http://www.w3.org/2000/svg" xmlns:xlink="http://www.w3.org/1999/xlink">
    <title>编辑</title>
    <g id="编辑" stroke="none" stroke-width="1" fill="none" fill-rule="evenodd">
        <g id="ic_public_edit" transform="translate(13.500000, 13.500000)" fill="#000000" fill-rule="nonzero">
            <path d="M14.8722296,1 C15.8721999,1 16.5147251,1.05839169 17.0012003,1.17117304 L15.6599443,2.51379911 C15.4862664,2.50652642 15.2928183,2.5022817 15.0753381,2.50070655 L5.02453833,2.50017541 L4.82305804,2.501658 C3.6550816,2.5151767 3.20981608,2.61305534 2.75370688,2.8569852 C2.36325774,3.06579969 2.06579969,3.36325774 1.8569852,3.75370688 C1.59290159,4.24750032 1.5,4.72858421 1.5,6.1277704 L1.50017541,15.9754617 L1.501658,16.176942 C1.5151767,17.3449184 1.61305534,17.7901839 1.8569852,18.2462931 C2.06579969,18.6367423 2.36325774,18.9342003 2.75370688,19.1430148 C3.22281064,19.3938942 3.68044405,19.4902819 4.92466189,19.4992935 L14.8722296,19.5 C16.2714158,19.5 16.7524997,19.4070984 17.2462931,19.1430148 C17.6367423,18.9342003 17.9342003,18.6367423 18.1430148,18.2462931 C18.3938942,17.7771894 18.4902819,17.319556 18.4992935,16.0753381 L18.5,15.8722296 L18.5,6.1277704 C18.5,5.82616011 18.4956832,5.56721095 18.4862654,5.34159954 L19.8289375,3.9992768 C19.9416465,4.48569497 20,5.12812696 20,6.1277704 L20,15.8722296 L19.9989932,16.0937657 C19.9842401,17.674381 19.8076257,18.3015622 19.487765,18.91208 L19.4657346,18.9536914 C19.1337211,19.5745027 18.6538954,20.0680807 18.0458564,20.4148264 L17.9536914,20.4657346 C17.3018396,20.8143488 16.6552671,21 14.8722296,21 L5.1277704,21 L4.90623426,20.9989932 C3.32561899,20.9842401 2.69843783,20.8076257 2.08791999,20.487765 L2.04630859,20.4657346 C1.42549731,20.1337211 0.93191931,19.6538954 0.58517358,19.0458564 L0.53426541,18.9536914 C0.18565122,18.3018396 0,17.6552671 0,15.8722296 L0,6.1277704 C0,4.38266989 0.17783521,3.72618864 0.51223497,3.08791999 L0.53426541,3.04630859 C0.86627892,2.42549731 1.34610464,1.93191931 1.9541436,1.58517358 L2.04630859,1.53426541 C2.69816044,1.18565122 3.34473292,1 5.1277704,1 L14.8722296,1 Z M20.2300776,0.76992245 C20.6206018,1.16044674 20.6206018,1.79361172 20.2300776,2.18413601 L10.684136,11.7300776 C10.2936117,12.1206018 9.6604467,12.1206018 9.2699224,11.7300776 C8.8793982,11.3395533 8.8793982,10.7063883 9.2699224,10.315864 L18.815864,0.76992245 C19.2063883,0.37939815 19.8395533,0.37939815 20.2300776,0.76992245 Z" id="path-1"></path>
        </g>
    </g>
</svg>