<?xml version="1.0" encoding="UTF-8"?>
<svg width="160px" height="10px" viewBox="0 0 160 10" version="1.1" xmlns="http://www.w3.org/2000/svg" xmlns:xlink="http://www.w3.org/1999/xlink">
    <title>ic_public_desktop_style_2_statusbar</title>
    <g id="ic_public_desktop_style_2_statusbar" stroke="none" stroke-width="1" fill="none" fill-rule="evenodd">
        <g id="ic_public_desktop_style_1">
            <rect id="矩形" x="0" y="0" width="160" height="10"></rect>
            <path d="M145.5,2.6 C146.162742,2.6 146.762742,2.86862915 147.197056,3.30294373 C147.631371,3.7372583 147.9,4.3372583 147.9,5 C147.9,5.6627417 147.631371,6.2627417 147.197056,6.69705627 C146.762742,7.13137085 146.162742,7.4 145.5,7.4 C144.837258,7.4 144.237258,7.13137085 143.802944,6.69705627 C143.368629,6.2627417 143.1,5.6627417 143.1,5 C143.1,4.3372583 143.368629,3.7372583 143.802944,3.30294373 C144.237258,2.86862915 144.837258,2.6 145.5,2.6 Z M6.5,2.6 C7.1627417,2.6 7.7627417,2.86862915 8.19705627,3.30294373 C8.63137085,3.7372583 8.9,4.3372583 8.9,5 C8.9,5.6627417 8.63137085,6.2627417 8.19705627,6.69705627 C7.7627417,7.13137085 7.1627417,7.4 6.5,7.4 C5.8372583,7.4 5.2372583,7.13137085 4.80294373,6.69705627 C4.36862915,6.2627417 4.1,5.6627417 4.1,5 C4.1,4.3372583 4.36862915,3.7372583 4.80294373,3.30294373 C5.2372583,2.86862915 5.8372583,2.6 6.5,2.6 Z M137.5,2.6 C138.162742,2.6 138.762742,2.86862915 139.197056,3.30294373 C139.631371,3.7372583 139.9,4.3372583 139.9,5 C139.9,5.6627417 139.631371,6.2627417 139.197056,6.69705627 C138.762742,7.13137085 138.162742,7.4 137.5,7.4 C136.837258,7.4 136.237258,7.13137085 135.802944,6.69705627 C135.368629,6.2627417 135.1,5.6627417 135.1,5 C135.1,4.3372583 135.368629,3.7372583 135.802944,3.30294373 C136.237258,2.86862915 136.837258,2.6 137.5,2.6 Z M153.5,2.6 C154.162742,2.6 154.762742,2.86862915 155.197056,3.30294373 C155.631371,3.7372583 155.9,4.3372583 155.9,5 C155.9,5.6627417 155.631371,6.2627417 155.197056,6.69705627 C154.762742,7.13137085 154.162742,7.4 153.5,7.4 C152.837258,7.4 152.237258,7.13137085 151.802944,6.69705627 C151.368629,6.2627417 151.1,5.6627417 151.1,5 C151.1,4.3372583 151.368629,3.7372583 151.802944,3.30294373 C152.237258,2.86862915 152.837258,2.6 153.5,2.6 Z" id="形状结合" stroke-opacity="0.2" stroke="#808080" stroke-width="0.2" fill-opacity="0.55" fill="#FFFFFF"></path>
        </g>
    </g>
</svg>