<?xml version="1.0" encoding="UTF-8"?>
<svg width="48px" height="48px" viewBox="0 0 48 48" version="1.1" xmlns="http://www.w3.org/2000/svg" xmlns:xlink="http://www.w3.org/1999/xlink">
    <title>取消</title>
    <defs>
        <path d="M31.7781746,16.2218254 C32.0710678,16.5147186 32.0710678,16.9895924 31.7781746,17.2824856 L17.2824856,31.7781746 C16.9895924,32.0710678 16.5147186,32.0710678 16.2218254,31.7781746 C15.9289322,31.4852814 15.9289322,31.0104076 16.2218254,30.7175144 L22.9395166,23.9994697 L16.2218254,17.2824856 C15.9289322,16.9895924 15.9289322,16.5147186 16.2218254,16.2218254 C16.5147186,15.9289322 16.9895924,15.9289322 17.2824856,16.2218254 L24,22.9389863 L30.7175144,16.2218254 C31.0104076,15.9289322 31.4852814,15.9289322 31.7781746,16.2218254 Z M31.7781746,30.7175144 C32.0710678,31.0104076 32.0710678,31.4852814 31.7781746,31.7781746 C31.4852814,32.0710678 31.0104076,32.0710678 30.7175144,31.7781746 L24.7072836,25.7675902 L25.767767,24.7071068 L31.7781746,30.7175144 Z" id="path-1"></path>
    </defs>
    <g id="取消" stroke="none" stroke-width="1" fill="none" fill-rule="evenodd">
        <mask id="mask-2" fill="white">
            <use xlink:href="#path-1"></use>
        </mask>
        <use id="形状" fill="#000000" opacity="0.900000036" xlink:href="#path-1"></use>
    </g>
</svg>