<?xml version="1.0" encoding="UTF-8"?>
<svg width="160px" height="12px" viewBox="0 0 160 12" version="1.1" xmlns="http://www.w3.org/2000/svg" xmlns:xlink="http://www.w3.org/1999/xlink">
    <title>ic_public_desktop_style_2_dock</title>
    <defs>
        <rect id="path-1" x="0" y="0" width="160" height="12"></rect>
        <filter x="-0.9%" y="-12.5%" width="101.9%" height="125.0%" filterUnits="objectBoundingBox" id="filter-2">
            <feOffset dx="0" dy="0" in="SourceAlpha" result="shadowOffsetOuter1"></feOffset>
            <feGaussianBlur stdDeviation="0.5" in="shadowOffsetOuter1" result="shadowBlurOuter1"></feGaussianBlur>
            <feComposite in="shadowBlurOuter1" in2="SourceAlpha" operator="out" result="shadowBlurOuter1"></feComposite>
            <feColorMatrix values="0 0 0 0 0   0 0 0 0 0   0 0 0 0 0  0 0 0 0.1 0" type="matrix" in="shadowBlurOuter1"></feColorMatrix>
        </filter>
    </defs>
    <g id="ic_public_desktop_style_2_dock" stroke="none" stroke-width="1" fill="none" fill-rule="evenodd">
        <g transform="translate(0.000000, 0.000000)">
            <g id="矩形">
                <use fill="black" fill-opacity="1" filter="url(#filter-2)" xlink:href="#path-1"></use>
                <use fill-opacity="0.4" fill="#FFFFFF" fill-rule="evenodd" xlink:href="#path-1"></use>
                <use fill-opacity="0.2" fill="#F1F3F5" fill-rule="evenodd" xlink:href="#path-1"></use>
            </g>
            <path d="M72.5,2.1 C73.0246705,2.1 73.4996705,2.31266474 73.8435029,2.65649712 C74.1873353,3.00032949 74.4,3.47532949 74.4,4 L74.4,8 C74.4,8.52467051 74.1873353,8.99967051 73.8435029,9.34350288 C73.4996705,9.68733526 73.0246705,9.9 72.5,9.9 L68.5,9.9 C67.9753295,9.9 67.5003295,9.68733526 67.1564971,9.34350288 C66.8126647,8.99967051 66.6,8.52467051 66.6,8 L66.6,4 C66.6,3.47532949 66.8126647,3.00032949 67.1564971,2.65649712 C67.5003295,2.31266474 67.9753295,2.1 68.5,2.1 Z M62,2.1 C62.5246705,2.1 62.9996705,2.31266474 63.3435029,2.65649712 C63.6873353,3.00032949 63.9,3.47532949 63.9,4 L63.9,8 C63.9,8.52467051 63.6873353,8.99967051 63.3435029,9.34350288 C62.9996705,9.68733526 62.5246705,9.9 62,9.9 L58,9.9 C57.4753295,9.9 57.0003295,9.68733526 56.6564971,9.34350288 C56.3126647,8.99967051 56.1,8.52467051 56.1,8 L56.1,4 C56.1,3.47532949 56.3126647,3.00032949 56.6564971,2.65649712 C57.0003295,2.31266474 57.4753295,2.1 58,2.1 Z M83,2.1 C83.5246705,2.1 83.9996705,2.31266474 84.3435029,2.65649712 C84.6873353,3.00032949 84.9,3.47532949 84.9,4 L84.9,8 C84.9,8.52467051 84.6873353,8.99967051 84.3435029,9.34350288 C83.9996705,9.68733526 83.5246705,9.9 83,9.9 L79,9.9 C78.4753295,9.9 78.0003295,9.68733526 77.6564971,9.34350288 C77.3126647,8.99967051 77.1,8.52467051 77.1,8 L77.1,4 C77.1,3.47532949 77.3126647,3.00032949 77.6564971,2.65649712 C78.0003295,2.31266474 78.4753295,2.1 79,2.1 Z M93.5,2.1 C94.0246705,2.1 94.4996705,2.31266474 94.8435029,2.65649712 C95.1873353,3.00032949 95.4,3.47532949 95.4,4 L95.4,8 C95.4,8.52467051 95.1873353,8.99967051 94.8435029,9.34350288 C94.4996705,9.68733526 94.0246705,9.9 93.5,9.9 L89.5,9.9 C88.9753295,9.9 88.5003295,9.68733526 88.1564971,9.34350288 C87.8126647,8.99967051 87.6,8.52467051 87.6,8 L87.6,4 C87.6,3.47532949 87.8126647,3.00032949 88.1564971,2.65649712 C88.5003295,2.31266474 88.9753295,2.1 89.5,2.1 Z M104,2.1 C104.524671,2.1 104.999671,2.31266474 105.343503,2.65649712 C105.687335,3.00032949 105.9,3.47532949 105.9,4 L105.9,8 C105.9,8.52467051 105.687335,8.99967051 105.343503,9.34350288 C104.999671,9.68733526 104.524671,9.9 104,9.9 L100,9.9 C99.4753295,9.9 99.0003295,9.68733526 98.6564971,9.34350288 C98.3126647,8.99967051 98.1,8.52467051 98.1,8 L98.1,4 C98.1,3.47532949 98.3126647,3.00032949 98.6564971,2.65649712 C99.0003295,2.31266474 99.4753295,2.1 100,2.1 Z" id="形状结合" stroke-opacity="0.2" stroke="#808080" stroke-width="0.2" fill-opacity="0.8" fill="#FFFFFF"></path>
            <rect id="矩形备份-4" stroke-opacity="0.2" stroke="#808080" stroke-width="0.2" fill-opacity="0.8" fill="#FFFFFF" x="149.1" y="2.1" width="7.8" height="7.8" rx="3.9"></rect>
            <rect id="矩形备份-6" stroke-opacity="0.2" stroke="#808080" stroke-width="0.2" fill-opacity="0.8" fill="#FFFFFF" x="139.6" y="2.1" width="7.8" height="7.8" rx="3.9"></rect>
            <rect id="矩形备份-7" stroke-opacity="0.2" stroke="#808080" stroke-width="0.2" fill-opacity="0.8" fill="#FFFFFF" x="130.1" y="2.1" width="7.8" height="7.8" rx="3.9"></rect>
            <rect id="矩形备份-13" stroke-opacity="0.2" stroke="#808080" stroke-width="0.2" fill-opacity="0.8" fill="#FFFFFF" x="3.1" y="2.1" width="7.8" height="7.8" rx="3.9"></rect>
        </g>
    </g>
</svg>