<?xml version="1.0" encoding="UTF-8"?>
<svg width="24px" height="24px" viewBox="0 0 24 24" version="1.1" xmlns="http://www.w3.org/2000/svg" xmlns:xlink="http://www.w3.org/1999/xlink">
    <title>图标</title>
    <g id="图标" stroke="none" stroke-width="1" fill="none" fill-rule="evenodd">
        <g id="编组-7备份" transform="translate(-1.000000, -1.000000)">
            <g id="编组-8" transform="translate(0.960408, 0.551200)">
                <circle id="椭圆形" fill="#D6D6D6" fill-rule="nonzero" cx="12.0395922" cy="12.4487998" r="12"></circle>
                <path d="M12.857774,18.1760726 C12.857774,18.6279419 12.4914615,18.9942544 12.0395922,18.9942544 C11.5877229,18.9942544 11.2214104,18.6279419 11.2214104,18.1760726 L11.2211377,13.2663453 L6.31231948,13.2669816 C5.86045014,13.2669816 5.49413766,12.9006692 5.49413766,12.4487998 C5.49413766,11.9969305 5.86045014,11.630618 6.31231948,11.630618 L11.2211377,11.6303453 L11.2214104,6.7215271 C11.2214104,6.26965776 11.5877229,5.90334528 12.0395922,5.90334528 C12.4914615,5.90334528 12.857774,6.26965776 12.857774,6.7215271 L12.857774,18.1760726 Z M17.7668649,11.630618 C18.2187343,11.630618 18.5850468,11.9969305 18.5850468,12.4487998 C18.5850468,12.9006692 18.2187343,13.2669816 17.7668649,13.2669816 L13.9481377,13.266618 L13.9481377,11.630618 L17.7668649,11.630618 Z" id="形状结合备份" fill="#182431" transform="translate(12.039592, 12.448800) rotate(-315.000000) translate(-12.039592, -12.448800) "></path>
            </g>
        </g>
    </g>
</svg>