<?xml version="1.0" encoding="UTF-8"?>
<svg width="16px" height="16px" viewBox="0 0 16 16" version="1.1" xmlns="http://www.w3.org/2000/svg" xmlns:xlink="http://www.w3.org/1999/xlink">
    <title>Public/ic_previous</title>
    <defs>
        <path d="M2.2482689,0.782555013 L2.28033009,0.812815665 L7.23007755,5.76256313 C7.8992572,6.43174278 7.91319844,7.50803537 7.27190128,8.19417806 L7.23007755,8.23743687 L2.28033009,13.1871843 C2.15145707,13.3160574 1.98735263,13.3882262 1.81902041,13.403691 L1.7730301,13.4065028 L1.7269699,13.4065028 C1.54277571,13.4008792 1.36025866,13.3277731 1.21966991,13.1871843 C0.937237167,12.9047516 0.927150284,12.4531048 1.18940926,12.1585854 L1.21966991,12.1265242 L5.81586399,7.53033009 C6.09829674,7.24789734 6.10838362,6.79625057 5.84612464,6.5017311 L5.81586399,6.46966991 L1.21966991,1.87347584 C0.926776695,1.58058262 0.926776695,1.10570888 1.21966991,0.812815665 C1.36088629,0.671599291 1.54440617,0.598469384 1.72943689,0.593425942 L1.77570243,0.593583549 C1.94528507,0.599362493 2.11328081,0.662352981 2.2482689,0.782555013 Z" id="path-1"></path>
    </defs>
    <g id="Public/ic_previous" stroke="none" stroke-width="1" fill="none" fill-rule="evenodd">
        <g transform="translate(8.000000, 8.000000) rotate(-90.000000) translate(-8.000000, -8.000000) translate(4.000000, 1.000000)">
            <mask id="mask-2" fill="white">
                <use xlink:href="#path-1"></use>
            </mask>
            <g id="路径" fill-rule="nonzero" transform="translate(4.371320, 6.999964) scale(-1, 1) translate(-4.371320, -6.999964) "></g>
            <path d="M-0.498984623,3.49976568 L7.49976568,3.49976568 C8.05205043,3.49976568 8.49976568,3.94748093 8.49976568,4.49976568 C8.49976568,4.72683718 8.42248493,4.94714768 8.28063449,5.12446073 L4.28125934,10.1236797 C3.93624979,10.5549416 3.30695742,10.624863 2.87569548,10.2798534 C2.81803078,10.2337217 2.76565348,10.1813444 2.71952172,10.1236797 L-1.27985343,5.12446073 C-1.62486298,4.69319879 -1.55494161,4.06390642 -1.12367967,3.71889687 C-0.946366622,3.57704643 -0.726056118,3.49976568 -0.498984623,3.49976568 Z" id="矩形备份-2" fill="#000000" transform="translate(3.500372, 6.999394) rotate(-270.000000) translate(-3.500372, -6.999394) "></path>
        </g>
    </g>
</svg>