<?xml version="1.0" encoding="UTF-8"?>
<svg width="24px" height="24px" viewBox="0 0 24 24" version="1.1" xmlns="http://www.w3.org/2000/svg" xmlns:xlink="http://www.w3.org/1999/xlink">
    <title>画板备份 5</title>
    <g id="画板备份-5" stroke="none" stroke-width="1" fill="none" fill-rule="evenodd">
        <path d="M12,1 C18.0751322,1 23,5.92486775 23,12 C23,18.0751322 18.0751322,23 12,23 C5.92486775,23 1,18.0751322 1,12 C1,5.92486775 5.92486775,1 12,1 Z M12,2.5 C6.75329488,2.5 2.5,6.75329488 2.5,12 C2.5,17.2467051 6.75329488,21.5 12,21.5 C17.2467051,21.5 21.5,17.2467051 21.5,12 C21.5,6.75329488 17.2467051,2.5 12,2.5 Z" id="椭圆形" fill="#000000" fill-rule="nonzero"></path>
        <path d="M12.1684929,9.45040548 C14.8072177,9.56014096 16.9273859,11.6783643 17.0400621,14.3161301 L17.0447728,14.5371146 L17.0447728,17.8254202 C17.0447728,18.2248473 16.7207819,18.5487057 16.3214873,18.5487057 C15.9552601,18.5487057 15.6526887,18.2766533 15.6048034,17.9235786 L15.5982018,17.8254202 L15.5982018,14.5371146 C15.5982018,12.5241606 13.9663255,10.8921901 11.9532773,10.8921901 C11.4026603,10.8921901 10.8602967,11.0170375 10.3657703,11.2564305 L10.1568747,11.3660105 C10.0990145,11.3983441 10.0606855,11.4161238 10.0079689,11.4296347 C9.94287538,11.445769 9.87287494,11.4466073 9.80655062,11.4321655 C9.74038738,11.4178742 9.67751984,11.3882249 9.62442294,11.3471706 C9.58110311,11.3136759 9.54889068,11.2774879 9.51178422,11.226937 C9.40045098,11.0754285 9.30350738,10.9141403 9.22223584,10.7451363 C9.19558697,10.6897066 9.1787837,10.6442756 9.16941898,10.5899089 C9.15874152,10.5241582 9.16313965,10.4559162 9.18253623,10.3934353 C9.20214659,10.328441 9.23765925,10.2687217 9.2847474,10.2204851 C9.32195866,10.1823772 9.36018517,10.1553879 9.41469212,10.1237754 C10.1013443,9.72900193 10.8691415,9.50047333 11.6570065,9.45456295 L11.9532773,9.44593876 L12.1684929,9.45040548 Z" id="路径" fill="#100000" fill-rule="nonzero"></path>
        <path d="M7.58532308,5.42158464 C7.95134313,5.42158464 8.25381854,5.69344709 8.30168931,6.04641803 L8.30828891,6.14455047 L8.30828891,9.43285609 C8.30828891,11.4459042 9.94025938,13.0777806 11.9532134,13.0777806 C12.5040744,13.0777806 13.0464531,12.9530724 13.5397717,12.7145139 L13.748072,12.6053357 C13.8045258,12.5729167 13.8458124,12.5537204 13.8974556,12.5409233 C13.9635935,12.5241086 14.0341546,12.5232619 14.0999401,12.5381249 C14.1664116,12.5524827 14.2298964,12.5823579 14.281125,12.6223957 C14.3249039,12.655794 14.3581794,12.6928366 14.3950818,12.7431094 C14.5061071,12.8941988 14.6028264,13.055483 14.6842549,13.2251541 C14.7111697,13.2811368 14.7277662,13.3259066 14.7370315,13.3801347 C14.7477873,13.4458017 14.7433533,13.5145997 14.7239545,13.5765354 C14.7044406,13.6412101 14.6691975,13.7006198 14.6225168,13.7490083 C14.5850569,13.7878387 14.5471026,13.8144366 14.4918499,13.8461658 C13.7194831,14.2905503 12.8443011,14.5243516 11.9532134,14.5243516 C9.21348624,14.5243516 6.97927741,12.3601975 6.86650387,9.64807963 L6.86203756,9.43285609 L6.86203756,6.14455047 C6.86203756,5.74505722 7.18577496,5.42158464 7.58532308,5.42158464 Z" id="路径" fill="#100000" fill-rule="nonzero"></path>
        <path d="M7.27342119,13.0928906 C7.37587256,13.0636188 7.48296595,13.0848777 7.578345,13.1437902 L7.63423835,13.1828561 L7.71319174,13.2539423 L7.95288264,13.5018379 L8.13963604,13.677758 C8.17589531,13.7104508 8.19751022,13.7324186 8.22217046,13.7655823 C8.25074725,13.8040132 8.27547046,13.8493391 8.29477942,13.8986117 C8.31259271,13.9456571 8.3247417,13.9955762 8.32985099,14.0447378 L8.33191182,14.1036563 L8.31305498,14.3506424 L8.30825694,14.5370507 L8.30825694,17.8253563 C8.30825694,18.2248107 7.98455828,18.5486418 7.58529111,18.5486418 C7.21906385,18.5486418 6.91649248,18.2765894 6.86860717,17.9235147 L6.86200559,17.8253563 L6.86200559,14.5370507 C6.86200559,14.207342 6.89411956,13.878049 6.95778168,13.5541028 C6.9789508,13.445496 7.00213558,13.3662364 7.03933393,13.2964981 C7.09153054,13.1970498 7.17167056,13.1228116 7.27342119,13.0928906 Z" id="路径" fill="#100000" fill-rule="nonzero"></path>
        <path d="M16.4195039,5.42805689 C16.7372336,5.47114388 16.9894141,5.72047463 17.0366729,6.0367202 L17.044645,6.14442259 L17.044645,9.43304791 C17.044645,9.76280411 17.0125218,10.0921087 16.9487532,10.4162644 C16.9270476,10.5257162 16.9042337,10.6039731 16.8667492,10.6749927 C16.8139564,10.7739791 16.7343485,10.8475701 16.6342746,10.8768122 C16.5319471,10.9069085 16.4251153,10.8857016 16.3266575,10.8258076 L16.2718833,10.78703 L16.2167014,10.7390977 L15.9527084,10.4671663 L15.7679412,10.2934541 C15.7344545,10.2638101 15.7094149,10.2380492 15.6844801,10.2045162 C15.6553858,10.1653894 15.6302178,10.1194732 15.612647,10.0735 C15.5938161,10.0254812 15.5813283,9.97416984 15.5767996,9.92536078 L15.5747387,9.86644227 L15.5935956,9.6194562 L15.5983936,9.43304791 L15.5983936,6.14442259 C15.5983936,5.77840254 15.8702561,5.47592713 16.223227,5.42805636 L16.3213595,5.42145676 L16.4195039,5.42805689 Z" id="路径" fill="#100000" fill-rule="nonzero"></path>
    </g>
</svg>