<svg width="32.000000" height="32.000000" viewBox="0 0 32 32" fill="none" xmlns="http://www.w3.org/2000/svg" xmlns:xlink="http://www.w3.org/1999/xlink">
	<desc>
			Created with Pixso.
	</desc>
	<defs/>
	<circle id="椭圆 2" cx="16.000000" cy="16.000000" r="16.000000" fill="#0A59F7" fill-opacity="1.000000"/>
	<path id="形状" d="M19.34 7C19.79 7 20.18 7.15 20.48 7.45C21.66 8.57 22.57 9.86 23.2 11.34C23.84 12.82 24.16 14.37 24.16 15.99C24.16 17.62 23.84 19.17 23.2 20.65C22.57 22.12 21.66 23.42 20.48 24.55C20.16 24.85 19.78 25 19.34 24.99C18.91 24.99 18.53 24.82 18.23 24.5L16.73 22.99L17.92 21.76L19.25 23.13C20.44 22.17 21.19 21.09 21.7 19.9C22.22 18.7 22.47 17.39 22.47 15.99C22.47 14.59 22.22 13.28 21.7 12.08C21.19 10.89 20.44 9.82 19.45 8.88L15.25 12.95C14.7 13.52 14.33 14.17 14.15 14.9C13.96 15.64 13.96 16.38 14.16 17.12C14.36 17.87 14.73 18.55 15.29 19.14L14.27 20.5C13.27 19.58 12.73 18.68 12.46 17.63C12.2 16.59 12.21 15.55 12.49 14.5C12.76 13.45 13.28 12.54 14.05 11.76L18.2 7.5C18.49 7.18 18.87 7.01 19.34 7Z" fill="#FFFFFF" fill-opacity="0.600000" fill-rule="nonzero"/>
	<path id="形状" d="M20.48 7.45C21.66 8.57 22.57 9.86 23.2 11.34C23.84 12.82 24.16 14.37 24.16 15.99C24.16 17.62 23.84 19.17 23.2 20.65C22.57 22.12 21.66 23.42 20.48 24.55C20.16 24.85 19.78 25 19.34 24.99C18.91 24.99 18.53 24.82 18.23 24.5L16.73 22.99L17.92 21.76L19.25 23.13C20.44 22.17 21.19 21.09 21.7 19.9C22.22 18.7 22.47 17.39 22.47 15.99C22.47 14.59 22.22 13.28 21.7 12.08C21.19 10.89 20.44 9.82 19.45 8.88L15.25 12.95C14.7 13.52 14.33 14.17 14.15 14.9C13.96 15.64 13.96 16.38 14.16 17.12C14.36 17.87 14.73 18.55 15.29 19.14L14.27 20.5C13.27 19.58 12.73 18.68 12.46 17.63C12.2 16.59 12.21 15.55 12.49 14.5C12.76 13.45 13.28 12.54 14.05 11.76L18.2 7.5C18.49 7.18 18.87 7.01 19.34 7C19.79 7 20.18 7.15 20.48 7.45Z" stroke="#FFFFFF" stroke-opacity="0.600000" stroke-width="0.000000"/>
	<path id="形状" d="M12.84 7C13.29 7.01 13.66 7.18 13.97 7.5L15.44 9.04L14.26 10.25L12.91 8.85C11.69 9.88 10.94 10.97 10.43 12.16C9.92 13.36 9.66 14.64 9.66 15.99C9.66 17.39 9.91 18.71 10.42 19.94C10.93 21.14 11.67 22.21 12.66 23.15L16.9 19.1C17.31 18.67 17.63 18.19 17.85 17.66C18.06 17.13 18.17 16.57 18.17 15.99C18.15 15.43 18.04 14.88 17.83 14.35C17.62 13.81 17.29 13.33 16.86 12.91L17.88 11.52C18.68 12.3 19.13 12.96 19.42 13.71C19.71 14.44 19.86 15.2 19.87 15.99C19.87 16.77 19.72 17.53 19.42 18.28C19.13 19.03 18.69 19.7 18.11 20.28L13.95 24.48C13.64 24.81 13.27 24.97 12.83 24.98C12.4 24.98 12.01 24.83 11.68 24.53C10.49 23.42 9.58 22.12 8.95 20.65C8.31 19.17 8 17.62 8 15.99C8 14.36 8.31 12.81 8.95 11.33C9.58 9.86 10.5 8.56 11.69 7.43C12.01 7.13 12.4 6.98 12.84 7Z" fill="#FFFFFF" fill-opacity="0.901961" fill-rule="nonzero"/>
	<path id="形状" d="M13.97 7.5L15.44 9.04L14.26 10.25L12.91 8.85C11.69 9.88 10.94 10.97 10.43 12.16C9.92 13.36 9.66 14.64 9.66 15.99C9.66 17.39 9.91 18.71 10.42 19.94C10.93 21.14 11.67 22.21 12.66 23.15L16.9 19.1C17.31 18.67 17.63 18.19 17.85 17.66C18.06 17.13 18.17 16.57 18.17 15.99C18.15 15.43 18.04 14.88 17.83 14.35C17.62 13.81 17.29 13.33 16.86 12.91L17.88 11.52C18.68 12.3 19.13 12.96 19.42 13.71C19.71 14.44 19.86 15.2 19.87 15.99C19.87 16.77 19.72 17.53 19.42 18.28C19.13 19.03 18.69 19.7 18.11 20.28L13.95 24.48C13.64 24.81 13.27 24.97 12.83 24.98C12.4 24.98 12.01 24.83 11.68 24.53C10.49 23.42 9.58 22.12 8.95 20.65C8.31 19.17 8 17.62 8 15.99C8 14.36 8.31 12.81 8.95 11.33C9.58 9.86 10.5 8.56 11.69 7.43C12.01 7.13 12.4 6.98 12.84 7C13.29 7.01 13.66 7.18 13.97 7.5Z" stroke="#FFFFFF" stroke-opacity="0.898039" stroke-width="0.000000"/>
</svg>
