<!--
  - Copyright (c) Huawei Technologies Co., Ltd. 2024-2024. All rights reserved.
  -->

<svg width="36.000000" height="36.000000" viewBox="0 0 36 36" fill="none" xmlns="http://www.w3.org/2000/svg" xmlns:xlink="http://www.w3.org/1999/xlink">
	<desc>
			Created with Pixso.
	</desc>
	<defs>
		<linearGradient x1="11.296436" y1="35.561993" x2="29.324003" y2="-1.038929" id="paint_linear_28_45169_0" gradientUnits="userSpaceOnUse">
			<stop stop-color="#FFFFFF"/>
			<stop offset="1.000000" stop-color="#FFFFFF"/>
		</linearGradient>
	</defs>
	<circle id="底" cx="18.000000" cy="18.000000" r="18.000000" fill="#F1F1F1" fill-opacity="1.000000"/>
	<circle id="底" cx="18.000000" cy="18.000000" r="17.500000" stroke="#F1F1F1" stroke-opacity="0" stroke-width="1.000000"/>
	<mask id="mask28_45169" maskUnits="userSpaceOnUse" x="2.000000" y="2.000000" width="32.000000" height="32.000000">
		<circle id="顶" cx="18.000000" cy="18.000000" r="16.000000" fill="url(#paint_linear_28_45169_0)" fill-opacity="1.000000"/>
		<circle id="顶" cx="18.000000" cy="18.000000" r="15.500000" stroke="#F1F1F1" stroke-opacity="0" stroke-width="1.000000"/>
	</mask>
	<circle id="顶" cx="18.000000" cy="18.000000" r="16.000000" fill="url(#paint_linear_28_45169_0)" fill-opacity="1.000000"/>
	<circle id="顶" cx="18.000000" cy="18.000000" r="15.500000" stroke="#F1F1F1" stroke-opacity="0" stroke-width="1.000000"/>
	<g clip-path="url(#clip28_45180)">
		<g opacity="0.000000">
			<rect id="rect" x="9.000000" y="9.000000" width="17.777779" height="17.777779" fill="#FFFFFF" fill-opacity="1.000000"/>
		</g>
		<mask id="mask28_45174" maskUnits="userSpaceOnUse" x="9.000000" y="9.000000" width="17.777832" height="17.777344">
			<rect id="rect" x="9.000000" y="9.000000" width="17.777779" height="17.777779" fill="#FFFFFF" fill-opacity="1.000000"/>
			<path id="path" d="M12.74 10.59C12.58 10.41 12.36 10.28 12.09 10.21C11.81 10.15 11.54 10.15 11.27 10.21C11 10.28 10.77 10.41 10.6 10.59C10.41 10.8 10.28 11.04 10.21 11.31C10.15 11.59 10.15 11.86 10.22 12.12C10.29 12.38 10.42 12.58 10.6 12.73L22.99 25.13C23.19 25.34 23.42 25.47 23.69 25.54C23.96 25.62 24.22 25.62 24.48 25.54C24.74 25.47 24.96 25.34 25.14 25.13C25.33 24.97 25.46 24.76 25.54 24.5C25.61 24.24 25.62 23.97 25.56 23.71C25.49 23.44 25.35 23.2 25.14 22.99L12.74 10.59Z" fill="#000000" fill-opacity="1.000000" fill-rule="nonzero"/>
		</mask>
		<g mask="url(#mask28_45174)">
			<path id="path" d="M17.88 9.71C16.67 9.71 15.56 10 14.54 10.6C13.52 11.2 12.71 12.01 12.11 13.03C11.52 14.05 11.22 15.16 11.22 16.37C11.22 18.09 11.81 19.77 13 21.41C14.19 23.05 15.46 24.47 16.82 25.65C17.12 25.93 17.48 26.06 17.88 26.06C18.29 26.06 18.64 25.93 18.95 25.65C20.3 24.47 21.58 23.05 22.77 21.41C23.96 19.77 24.55 18.09 24.55 16.37C24.55 15.16 24.25 14.05 23.65 13.03C23.06 12.01 22.24 11.2 21.22 10.6C20.19 10 19.08 9.71 17.88 9.71ZM17.88 17.79C17.58 17.79 17.3 17.72 17.04 17.57C16.78 17.42 16.58 17.22 16.43 16.96C16.28 16.71 16.21 16.43 16.21 16.12C16.21 15.82 16.28 15.55 16.43 15.3C16.58 15.04 16.78 14.84 17.04 14.69C17.3 14.54 17.58 14.47 17.88 14.47C18.18 14.47 18.46 14.54 18.71 14.69C18.97 14.84 19.17 15.04 19.31 15.3C19.46 15.55 19.54 15.82 19.54 16.12C19.54 16.43 19.46 16.71 19.31 16.96C19.17 17.22 18.97 17.42 18.71 17.57C18.46 17.72 18.18 17.79 17.88 17.79Z" fill="#000000" fill-opacity="0.400000" fill-rule="nonzero"/>
		</g>
		<path id="path" d="M24.46 24.46C24.57 24.34 24.62 24.21 24.62 24.06C24.62 23.91 24.57 23.78 24.46 23.66L12.05 11.27C11.95 11.16 11.81 11.11 11.66 11.11C11.51 11.11 11.38 11.16 11.27 11.27C11.17 11.38 11.11 11.51 11.11 11.66C11.11 11.81 11.17 11.95 11.27 12.05L23.68 24.46C23.79 24.57 23.92 24.62 24.07 24.62C24.22 24.62 24.35 24.57 24.46 24.46Z" fill="#000000" fill-opacity="0.600000" fill-rule="nonzero"/>
	</g>
</svg>
