<svg width="32.000000" height="32.000000" viewBox="0 0 32 32" fill="none" xmlns="http://www.w3.org/2000/svg" xmlns:xlink="http://www.w3.org/1999/xlink">
	<desc>
			Created with Pixso.
	</desc>
	<defs/>
	<rect id="矩形" rx="8.000000" width="32.000000" height="32.000000" fill="#F9A01E" fill-opacity="1.000000"/>
	<rect id="矩形" x="0.500000" y="0.500000" rx="8.000000" width="31.000000" height="31.000000" stroke="#000000" stroke-opacity="0" stroke-width="1.000000"/>
	<rect id="矩形" x="6.399994" y="6.400024" width="19.200001" height="19.199999" fill="#D8D8D8" fill-opacity="0"/>
	<path id="路径" d="M10.58 25C9.48 25 8.97 24.86 8.5 24.6C8.02 24.35 7.64 23.97 7.39 23.5L7.34 23.4C7.11 22.95 7 22.44 7 21.41L7 20.27C7 19.17 7.13 18.67 7.39 18.19C7.64 17.71 8.02 17.33 8.5 17.08L8.59 17.03C9.04 16.81 9.55 16.69 10.58 16.69L11.72 16.69C12.82 16.69 13.32 16.82 13.8 17.08C14.28 17.33 14.66 17.71 14.91 18.19L14.96 18.28C15.18 18.72 15.29 19.21 15.3 20.17L15.3 21.41C15.3 22.51 15.17 23.02 14.91 23.5C14.66 23.97 14.28 24.35 13.8 24.6L13.71 24.65C13.27 24.87 12.78 24.99 11.82 24.99L10.58 25Z" fill="#FFFFFF" fill-opacity="1.000000" fill-rule="evenodd"/>
	<path id="路径" d="" fill="#000000" fill-opacity="0" fill-rule="evenodd"/>
	<path id="路径" d="M21.52 15.3L20.27 15.3C19.17 15.3 18.67 15.17 18.19 14.91C17.71 14.66 17.33 14.28 17.08 13.8L17.03 13.71C16.81 13.26 16.69 12.75 16.69 11.72L16.69 10.58C16.69 9.48 16.82 8.97 17.08 8.49C17.33 8.02 17.71 7.64 18.19 7.39L18.28 7.34C18.73 7.11 19.24 6.99 20.27 6.99L21.41 6.99C22.51 6.99 23.02 7.13 23.5 7.39C23.97 7.64 24.35 8.02 24.6 8.49L24.65 8.59C24.87 9.03 24.99 9.52 24.99 10.47L25 11.72C25 12.82 24.86 13.32 24.6 13.8C24.35 14.28 23.97 14.66 23.5 14.91L23.4 14.96C22.96 15.18 22.47 15.29 21.52 15.3Z" fill="#FFFFFF" fill-opacity="1.000000" fill-rule="evenodd"/>
	<path id="路径" d="" fill="#000000" fill-opacity="0" fill-rule="evenodd"/>
	<g opacity="0.600000">
		<path id="路径" d="M10.58 15.3C9.48 15.3 8.97 15.17 8.5 14.91C8.02 14.66 7.64 14.28 7.39 13.8L7.34 13.71C7.11 13.26 7 12.75 7 11.72L7 10.58C7 9.48 7.13 8.97 7.39 8.49C7.64 8.02 8.02 7.64 8.5 7.39L8.59 7.34C9.04 7.11 9.55 6.99 10.58 6.99L11.72 6.99C12.82 6.99 13.32 7.13 13.8 7.39C14.28 7.64 14.66 8.02 14.91 8.49L14.96 8.59C15.18 9.03 15.29 9.52 15.3 10.47L15.3 11.72C15.3 12.82 15.17 13.32 14.91 13.8C14.66 14.28 14.28 14.66 13.8 14.91L13.71 14.96C13.27 15.18 12.78 15.29 11.82 15.3L10.58 15.3Z" fill="#FFFFFF" fill-opacity="1.000000" fill-rule="evenodd"/>
		<path id="路径" d="" fill="#000000" fill-opacity="0" fill-rule="evenodd"/>
	</g>
	<path id="路径" d="M21.52 24.99L20.27 25C19.17 25 18.67 24.86 18.19 24.6C17.71 24.35 17.33 23.97 17.08 23.5L17.03 23.4C16.81 22.95 16.69 22.44 16.69 21.41L16.69 20.27C16.69 19.17 16.82 18.67 17.08 18.19C17.33 17.71 17.71 17.33 18.19 17.08L18.28 17.03C18.73 16.81 19.24 16.69 20.27 16.69L21.41 16.69C22.51 16.69 23.02 16.82 23.5 17.08C23.97 17.33 24.35 17.71 24.6 18.19L24.65 18.28C24.87 18.72 24.99 19.21 24.99 20.17L25 21.41C25 22.51 24.86 23.02 24.6 23.5C24.35 23.97 23.97 24.35 23.5 24.6L23.4 24.65C22.96 24.87 22.47 24.99 21.52 24.99Z" fill="#FFFFFF" fill-opacity="1.000000" fill-rule="evenodd"/>
	<path id="路径" d="" fill="#000000" fill-opacity="0" fill-rule="evenodd"/>
</svg>
