<svg width="8.000000" height="7.443604" viewBox="0 0 8 7.4436" fill="none" xmlns="http://www.w3.org/2000/svg" xmlns:xlink="http://www.w3.org/1999/xlink">
	<desc>
			Created with Pixso.
	</desc>
	<defs/>
	<path id="形状" d="M0 5.88843L0 6.71411L3.57877 6.71411L3.57877 7.4436L4.39696 7.4436L4.39696 6.71411L7.97978 6.71411L7.97978 5.88843L4.39696 5.88843L4.39696 5.21973L6.99173 5.21973C7.55113 5.21973 7.8342 4.93799 7.8342 4.37231L7.8342 2.37842C7.8342 1.99536 7.65492 1.75024 7.30042 1.64478C7.21548 1.6189 7.0524 1.60547 6.81245 1.60547L4.1449 1.60547L4.1449 1.12769L8 1.12769L8 0.378906L4.1449 0.378906L4.1449 0L3.33615 0L3.33615 1.60547L1.00287 1.60547C0.74675 1.60547 0.5513 1.65967 0.417862 1.76514C0.239929 1.90869 0.15097 2.1062 0.15097 2.36206L0.15097 4.46289C0.15097 4.69043 0.222412 4.87183 0.358551 5.00439C0.510864 5.14917 0.722488 5.21973 1.00691 5.21973L3.57877 5.21973L3.57877 5.88843L0 5.88843ZM7.02675 3.03589L0.959686 3.03589L0.952957 2.6853C0.952957 2.58789 0.971817 2.52148 1.02036 2.47559C1.06213 2.44019 1.15109 2.41992 1.26837 2.41992L6.60484 2.41455C6.79221 2.41455 6.90813 2.44019 6.95801 2.48364C7.00247 2.52417 7.02675 2.59595 7.02675 2.69067L7.02675 3.03589ZM7.02675 3.84863L0.959686 3.84863L0.952957 4.02588C0.952957 4.14648 0.96373 4.23706 0.988007 4.29126C1.02844 4.36963 1.11606 4.41431 1.24141 4.41431L6.67763 4.41431C6.91083 4.41431 7.02675 4.31836 7.02675 4.13428L7.02675 3.84863Z" clip-rule="evenodd" fill="#FFFFFF" fill-opacity="1.000000" fill-rule="evenodd"/>
</svg>
