<?xml version="1.0" encoding="UTF-8"?>
<svg width="18px" height="18px" viewBox="0 0 18 18" version="1.1" xmlns="http://www.w3.org/2000/svg" xmlns:xlink="http://www.w3.org/1999/xlink">
    <title>画板备份 6</title>
    <g id="画板备份-6" stroke="none" stroke-width="1" fill="none" fill-rule="evenodd">
        <g id="编组">
            <circle id="椭圆形" fill="#0A59F7" cx="9" cy="9" r="9"></circle>
            <path d="M10.2360985,5.76107106 C10.8402386,5.76107106 11.3299909,6.27979367 11.3299909,6.91967044 L11.3299909,12.8414006 C11.3299909,13.4812774 10.8402386,14 10.2360985,14 L6.09389243,14 C5.48975233,14 5,13.4812774 5,12.8414006 L5,6.91967044 C5,6.27979367 5.48975233,5.76107106 6.09389243,5.76107106 L10.2360985,5.76107106 Z M7.979,7.728 C7.623,7.728 7.309,7.823 7.037,8.013 C6.765,8.203 6.577,8.476 6.473,8.832 L7.157,9.228 C7.225,9.004 7.323,8.831 7.451,8.709 C7.579,8.587 7.727,8.526 7.895,8.526 C8.059,8.526 8.189,8.578 8.285,8.682 C8.381,8.786 8.429,8.924 8.429,9.096 C8.429,9.252 8.384,9.403 8.294,9.549 C8.204,9.695 8.045,9.896 7.817,10.152 L6.491,11.64 L6.491,12.204 L9.521,12.204 L9.521,11.442 L7.763,11.442 L8.513,10.608 C8.825,10.26 9.042,9.977 9.164,9.759 C9.286,9.541 9.347,9.306 9.347,9.054 C9.347,8.798 9.292,8.57 9.182,8.37 C9.072,8.17 8.914,8.013 8.708,7.899 C8.502,7.785 8.259,7.728 7.979,7.728 Z M11.1039198,4 C12.151096,4 13,4.89911919 13,6.00823893 L13,10.4881565 C13,11.1802455 12.6694588,11.7905657 12.1664598,12.1516828 L12.1663954,6.34809475 C12.1663954,5.55643325 11.5745605,4.91117893 10.8339464,4.88159526 L10.7807983,4.88053553 L6.3989544,4.88053887 C6.74008934,4.34908286 7.3156025,4 7.9680948,4 L11.1039198,4 Z" id="形状结合" fill="#FFFFFF"></path>
        </g>
    </g>
</svg>