<?xml version="1.0" encoding="UTF-8"?>
<svg width="18px" height="18px" viewBox="0 0 18 18" version="1.1" xmlns="http://www.w3.org/2000/svg" xmlns:xlink="http://www.w3.org/1999/xlink">
    <title>画板</title>
    <g id="画板" stroke="none" stroke-width="1" fill="none" fill-rule="evenodd">
        <g id="椭圆形-2">
            <circle id="椭圆形" fill="#0A59F7" cx="9" cy="9" r="9"></circle>
            <path d="M10.2360985,5.76107106 C10.8402386,5.76107106 11.3299909,6.27979367 11.3299909,6.91967044 L11.3299909,12.8414006 C11.3299909,13.4812774 10.8402386,14 10.2360985,14 L6.09389243,14 C5.48975233,14 5,13.4812774 5,12.8414006 L5,6.91967044 C5,6.27979367 5.48975233,5.76107106 6.09389243,5.76107106 L10.2360985,5.76107106 Z M8.747,7.806 L8.069,7.806 L6.725,8.568 L6.725,9.402 L7.865,8.766 L7.865,12.204 L8.747,12.204 L8.747,7.806 Z M11.1039198,4 C12.151096,4 13,4.89911919 13,6.00823893 L13,10.4881565 C13,11.1802455 12.6694588,11.7905657 12.1664598,12.1516828 L12.1663954,6.34809475 C12.1663954,5.55643325 11.5745605,4.91117893 10.8339464,4.88159526 L10.7807983,4.88053553 L6.3989544,4.88053887 C6.74008934,4.34908286 7.3156025,4 7.9680948,4 L11.1039198,4 Z" id="形状结合" fill="#FFFFFF"></path>
        </g>
    </g>
</svg>