<?xml version="1.0" encoding="UTF-8"?>
<svg width="18px" height="18px" viewBox="0 0 18 18" version="1.1" xmlns="http://www.w3.org/2000/svg" xmlns:xlink="http://www.w3.org/1999/xlink">
    <title>画板备份 9</title>
    <g id="画板备份-9" stroke="none" stroke-width="1" fill="none" fill-rule="evenodd">
        <g id="编组">
            <circle id="椭圆形" fill="#0A59F7" cx="9" cy="9" r="9"></circle>
            <path d="M10.2360985,5.76107106 C10.8402386,5.76107106 11.3299909,6.27979367 11.3299909,6.91967044 L11.3299909,12.8414006 C11.3299909,13.4812774 10.8402386,14 10.2360985,14 L6.09389243,14 C5.48975233,14 5,13.4812774 5,12.8414006 L5,6.91967044 C5,6.27979367 5.48975233,5.76107106 6.09389243,5.76107106 L10.2360985,5.76107106 Z M9.281,7.806 L6.977,7.806 L6.677,10.194 L7.301,10.5 C7.457,10.24 7.667,10.11 7.931,10.11 C8.135,10.11 8.292,10.177 8.402,10.311 C8.512,10.445 8.567,10.612 8.567,10.812 C8.567,11.012 8.514,11.177 8.408,11.307 C8.302,11.437 8.151,11.502 7.955,11.502 C7.799,11.502 7.663,11.456 7.547,11.364 C7.431,11.272 7.347,11.136 7.295,10.956 L6.593,11.358 C6.693,11.666 6.864,11.896 7.106,12.048 C7.348,12.2 7.635,12.276 7.967,12.276 C8.247,12.276 8.503,12.217 8.735,12.099 C8.967,11.981 9.15,11.809 9.284,11.583 C9.418,11.357 9.485,11.09 9.485,10.782 C9.485,10.498 9.425,10.247 9.305,10.029 C9.185,9.811 9.021,9.643 8.813,9.525 C8.605,9.407 8.375,9.348 8.123,9.348 C7.939,9.348 7.761,9.384 7.589,9.456 L7.709,8.55 L9.281,8.55 L9.281,7.806 Z M11.1039198,4 C12.151096,4 13,4.89911919 13,6.00823893 L13,10.4881565 C13,11.1802455 12.6694588,11.7905657 12.1664598,12.1516828 L12.1663954,6.34809475 C12.1663954,5.55643325 11.5745605,4.91117893 10.8339464,4.88159526 L10.7807983,4.88053553 L6.3989544,4.88053887 C6.74008934,4.34908286 7.3156025,4 7.9680948,4 L11.1039198,4 Z" id="形状结合" fill="#FFFFFF"></path>
        </g>
    </g>
</svg>