<?xml version="1.0" encoding="UTF-8"?>
<svg width="120px" height="120px" viewBox="0 0 120 120" version="1.1" xmlns="http://www.w3.org/2000/svg" xmlns:xlink="http://www.w3.org/1999/xlink">
    <title>画板</title>
    <g id="画板" stroke="none" stroke-width="1" fill="none" fill-rule="evenodd">
        <g id="编组" fill="#A1A7B3">
            <path d="M18.5779227,97.0926653 L18.5790084,99.0503103 C18.5790084,100.247533 19.5092471,101.227518 20.6862992,101.307105 L20.8411713,101.312323 L99.446129,101.312323 C100.643351,101.312323 101.623337,100.382222 101.702924,99.2051816 L101.708142,99.0503103 L101.708644,97.3546939 C103.835798,98.2132987 105.007397,99.1520859 105.007397,100.13568 C105.007397,101.321251 103.305229,102.441724 100.279227,103.43515 L99.6343928,103.638853 L99.6343928,103.638853 L98.952524,103.838809 L98.952524,103.838809 L98.2343655,104.034895 L98.2343655,104.034895 L97.4806621,104.22699 L97.4806621,104.22699 L96.6921582,104.414971 C96.5578822,104.445952 96.4221873,104.476756 96.2850888,104.507382 L95.4457805,104.688964 L95.4457805,104.688964 L94.5735332,104.866129 L94.5735332,104.866129 L93.6690917,105.038754 L93.6690917,105.038754 L92.7332004,105.206717 C92.4160778,105.261914 92.0938376,105.316314 91.7666041,105.369896 L90.7700472,105.528169 L90.7700472,105.528169 L89.7442745,105.681414 L89.7442745,105.681414 L88.6900304,105.82951 L88.6900304,105.82951 L87.6080597,105.972334 L87.6080597,105.972334 L86.4991069,106.109765 L86.4991069,106.109765 L85.3639166,106.24168 L85.3639166,106.24168 L84.2032334,106.367958 L84.2032334,106.367958 L83.017802,106.488476 L83.017802,106.488476 L81.8083669,106.603113 L81.8083669,106.603113 L80.5756727,106.711748 L80.5756727,106.711748 L79.320464,106.814257 L79.320464,106.814257 L78.0434855,106.910519 L78.0434855,106.910519 L76.7454817,107.000412 L76.7454817,107.000412 L75.4271972,107.083815 L75.4271972,107.083815 L74.0893767,107.160605 L74.0893767,107.160605 L72.7327648,107.23066 L72.7327648,107.23066 L71.3581059,107.293858 L71.3581059,107.293858 L69.9661449,107.350078 L69.9661449,107.350078 L68.5576261,107.399198 L68.5576261,107.399198 L67.1332944,107.441095 L67.1332944,107.441095 L64.9687761,107.490132 L64.9687761,107.490132 L63.5081693,107.51344 L63.5081693,107.51344 L62.0343557,107.529099 L62.0343557,107.529099 L60.5480796,107.536987 L60.5480796,107.536987 L59.0529222,107.536987 L59.0529222,107.536987 L57.5666462,107.529099 L57.5666462,107.529099 L56.0928325,107.51344 L56.0928325,107.51344 L54.6322258,107.490132 L54.6322258,107.490132 L53.1855706,107.459297 L53.1855706,107.459297 L51.7536115,107.421057 L51.7536115,107.421057 L50.3370932,107.375533 L50.3370932,107.375533 L48.9367602,107.322848 L48.9367602,107.322848 L47.5533572,107.263124 L47.5533572,107.263124 L46.1876287,107.196482 L46.1876287,107.196482 L44.8403194,107.123044 L44.8403194,107.123044 L43.5121739,107.042933 L43.5121739,107.042933 L42.2039367,106.956269 L42.2039367,106.956269 L40.9163524,106.863176 L40.9163524,106.863176 L39.6501658,106.763776 L39.6501658,106.763776 L38.4061213,106.658189 L38.4061213,106.658189 L37.1849635,106.546538 L37.1849635,106.546538 L35.9874372,106.428944 L35.9874372,106.428944 L34.8142868,106.305531 L34.8142868,106.305531 L33.666257,106.176419 C33.4770534,106.154432 33.2889276,106.132213 33.101895,106.109765 L31.9929422,105.972334 L31.9929422,105.972334 L30.9109715,105.82951 L30.9109715,105.82951 L29.8567274,105.681414 L29.8567274,105.681414 L28.8309547,105.528169 L28.8309547,105.528169 L27.8343978,105.369896 C27.6707811,105.343105 27.5084126,105.316109 27.3473081,105.288912 L26.3959712,105.123326 C26.2399841,105.095331 26.085292,105.06714 25.9319102,105.038754 L25.0274687,104.866129 L25.0274687,104.866129 L24.1552214,104.688964 L24.1552214,104.688964 L23.3159131,104.507382 C23.1788146,104.476756 23.0431196,104.445952 22.9088437,104.414971 L22.1203398,104.22699 L22.1203398,104.22699 L21.3666364,104.034895 L21.3666364,104.034895 L20.6484779,103.838809 L20.6484779,103.838809 L19.9666091,103.638853 L19.9666091,103.638853 L19.3217745,103.43515 C16.295773,102.441724 14.5936044,101.321251 14.5936044,100.13568 C14.5936044,99.1313878 15.8150312,98.173808 18.0279129,97.3005968 L18.5779227,97.0926653 L18.5779227,97.0926653 Z" id="路径" opacity="0.15"></path>
            <path d="M81.2957204,50.0655204 C81.9107564,50.0655204 82.4972548,50.3158399 82.9220973,50.7553932 L83.0106122,50.8524574 L101.434552,72.2717321 C101.588988,72.4512767 101.682606,72.6740725 101.703597,72.9082865 L101.708142,73.0371588 L101.708142,99.0503103 C101.708142,100.299586 100.695404,101.312323 99.446129,101.312323 L20.8411713,101.312323 C19.5918959,101.312323 18.5788701,100.299586 18.5788701,99.0503103 L18.5788701,73.0371588 C18.5754102,72.8031356 18.6419863,72.5666356 18.7834869,72.3636443 L18.8487306,72.2788045 L36.9625282,50.8666021 C37.3636678,50.3924175 37.940693,50.1055463 38.5568931,50.0694043 L38.6894858,50.0655204 L81.2957204,50.0655204 Z M77.9937994,50.9546418 L42.0367419,50.9546418 L41.9064234,50.9583923 C41.3165706,50.9923839 40.7637519,51.2560163 40.3662425,51.6914722 L40.2517672,51.8272058 L24.9644298,71.4662907 L24.9104102,71.5417915 C24.613452,71.9946102 24.6813293,72.5956555 25.0674578,72.9710492 L25.1621926,73.0535026 L25.2387386,73.1081341 C25.3853574,73.2038342 25.5520896,73.2641023 25.7256624,73.2843815 L25.8569172,73.2920219 L36.0370558,73.2920219 L36.037539,81.1372756 C36.037539,82.0249186 36.7192434,82.753341 37.5876675,82.8275582 L37.7340489,82.8337854 L84.6708222,82.8337854 C85.5584652,82.8337854 86.2868876,82.1520811 86.3611049,81.2836569 L86.3673321,81.1372756 L86.3668488,73.2920219 L94.4302851,73.2920219 L94.5146935,73.2889197 C95.0999101,73.245744 95.5612917,72.7572604 95.5612917,72.1610153 C95.5612917,71.9571784 95.506229,71.7581188 95.4032415,71.584356 L95.3171265,71.4590977 L79.7674822,51.8128198 L79.6844557,51.7138532 C79.2994165,51.2806163 78.7629733,51.0122446 78.1870738,50.9629026 L77.9937994,50.9546418 Z" id="形状" opacity="0.400000006"></path>
            <path d="M77.9937994,50.9546418 C78.6418946,50.9546418 79.2566343,51.2324789 79.6844557,51.7138532 L79.7674822,51.8128198 L95.3171265,71.4590977 C95.4752563,71.6588877 95.5612917,71.9062192 95.5612917,72.1610153 C95.5612917,72.7572604 95.0999101,73.245744 94.5146935,73.2889197 L94.4302851,73.2920219 L86.3668488,73.2920219 L86.3673321,81.1372756 C86.3673321,82.0742321 85.6077787,82.8337854 84.6708222,82.8337854 L37.7340489,82.8337854 C36.7970923,82.8337854 36.037539,82.0742321 36.037539,81.1372756 L36.0370558,73.2920219 L25.8569172,73.2920219 C25.6367128,73.2920219 25.4220121,73.2277592 25.2387386,73.1081341 L25.1621926,73.0535026 C24.6939308,72.6890011 24.5906091,72.0294424 24.9104102,71.5417915 L24.9644298,71.4662907 L40.2517672,51.8272058 C40.6535585,51.3110392 41.2575853,50.995783 41.9064234,50.9583923 L42.0367419,50.9546418 L77.9937994,50.9546418 Z" id="路径" opacity="0.600000024"></path>
            <path d="M28.4586551,5.65970992 C29.58555,6.21972354 30.4940082,6.8025872 31.185047,7.40696497 C31.3517048,7.55272269 31.645936,7.57056277 31.8422309,7.44681191 C32.0385257,7.32306105 32.0625513,7.10458119 31.8958936,6.95882347 C31.1455031,6.30253726 30.1722984,5.67813243 28.9772969,5.08427304 C28.7632997,4.97792653 28.4737187,5.02053159 28.3304998,5.1794341 C28.1872808,5.3383366 28.2446579,5.55336342 28.4586551,5.65970992 Z M32.3475853,10.4815162 C32.525601,11.3650881 32.4219463,12.2950834 32.0318839,13.2773755 C31.9536333,13.4744335 32.0640178,13.6924796 32.2784346,13.7643951 C32.4928513,13.8363106 32.730105,13.7348627 32.8083556,13.5378047 C33.2473732,12.4322289 33.3662784,11.365406 33.1603336,10.3432096 C33.118777,10.1369451 32.9031487,10.0006957 32.6787145,10.038888 C32.4542802,10.0770804 32.3060286,10.2752517 32.3475853,10.4815162 Z M29.8276185,16.5304148 L29.1558628,17.7970142 L28.7703673,18.5369555 L28.47235,19.121913 L28.2879383,19.4918402 C28.1865689,19.6971548 28.3050416,19.9317611 28.5525544,20.0158481 C28.8000673,20.0999351 29.0828922,20.0016608 29.1842616,19.7963462 L29.3664979,19.43079 L29.6614312,18.8519062 L30.1544498,17.9079967 L30.7136448,16.8549949 C30.8216968,16.652039 30.7109466,16.414851 30.4662772,16.3252207 C30.2216078,16.2355903 29.9356705,16.3274589 29.8276185,16.5304148 Z M27.4848075,22.8226015 C27.1213073,24.0356285 26.9556977,25.0666323 27.0101466,25.9481501 C27.0230451,26.1569746 27.2083061,26.3161341 27.4239387,26.3036428 C27.6395712,26.2911516 27.8039196,26.1117397 27.7910211,25.9029153 C27.7427277,25.1210537 27.8953898,24.1706545 28.236082,23.0337398 C28.2962871,22.8328311 28.1769144,22.6226975 27.9694557,22.5643933 C27.7619969,22.5060891 27.5450126,22.6216928 27.4848075,22.8226015 Z M28.393765,28.3872485 C29.2174753,29.2073167 30.2617737,29.7607401 31.5198555,30.0502479 C31.7406023,30.1010458 31.9550583,29.934675 31.9988564,29.6786482 C32.0426544,29.4226215 31.8992091,29.173891 31.6784623,29.1230931 C30.5520155,28.8638769 29.6363262,28.3786095 28.9245898,27.6700201 C28.7538245,27.5000099 28.4965627,27.5227464 28.3499795,27.7208036 C28.2033963,27.9188607 28.2229997,28.2172383 28.393765,28.3872485 Z M36.1650065,30.0585035 C37.1005553,29.9936397 38.1170396,29.8410134 39.2148173,29.6009252 C39.4195294,29.5561539 39.5512004,29.3441612 39.5089126,29.1274263 C39.4666248,28.9106915 39.2663919,28.7712875 39.0616798,28.8160588 C37.9966835,29.0489776 37.0145178,29.1964509 36.1155406,29.2587791 C35.9069532,29.273241 35.748933,29.463989 35.7625927,29.6848268 C35.7762523,29.9056646 35.9564191,30.0729654 36.1650065,30.0585035 Z M42.5231315,30.0362112 C43.4739621,29.635306 44.471785,29.1674703 45.5166727,28.6327248 C45.7199456,28.5286952 45.825246,28.2107437 45.7518678,27.9225603 C45.6784896,27.6343768 45.4542195,27.4850905 45.2509467,27.5891201 C44.2197544,28.1168566 43.2360935,28.5780524 42.3000366,28.9727284 C42.0928919,29.0600683 41.9749094,29.3689399 42.0365154,29.6626126 C42.0981213,29.9562852 42.3159868,30.123551 42.5231315,30.0362112 Z M48.7901209,26.287171 C49.7771782,26.0117548 50.7519265,25.8062126 51.7144539,25.6703933 C51.9241745,25.6408002 52.0644669,25.4795757 52.0278058,25.3102881 C51.9911447,25.1410006 51.7914129,25.0277558 51.5816923,25.0573488 C50.5780245,25.1989734 49.5635106,25.4129008 48.5382386,25.69898 C48.3370203,25.7551254 48.2302864,25.9323114 48.2998418,26.0947358 C48.3693971,26.2571603 48.5889026,26.3433164 48.7901209,26.287171 Z M54.9087631,25.9101423 C55.8967195,25.9270713 56.871602,26.0551203 57.8337889,26.294326 C58.0374368,26.3449541 58.2386573,26.1984679 58.2832274,25.9671399 C58.3277975,25.735812 58.1988395,25.5072414 57.9951916,25.4566132 C56.9836679,25.2051421 55.9585279,25.0704919 54.9201499,25.052699 C54.7117055,25.0491272 54.5401789,25.238177 54.5370345,25.4749534 C54.5338902,25.7117299 54.7003187,25.9065706 54.9087631,25.9101423 Z M61.0463499,27.1365655 C62.012974,27.5713096 62.9680982,28.1053484 63.9117872,28.7389239 C64.1044997,28.8683075 64.3609994,28.809786 64.4846954,28.6082126 C64.6083914,28.4066392 64.5524425,28.1383456 64.3597301,28.008962 C63.3783154,27.3500582 62.3830245,26.793561 61.3739224,26.3397122 C61.1635504,26.2450964 60.9196806,26.3467767 60.829224,26.5668217 C60.7387673,26.7868667 60.8359779,27.0419497 61.0463499,27.1365655 Z M67.2236209,30.9410737 C68.1522073,31.760509 69.070724,32.6664586 69.979096,33.6589995 C70.1622819,33.8591592 70.4668484,33.8670231 70.6593645,33.676564 C70.8518805,33.4861049 70.8594441,33.1694458 70.6762582,32.969286 C69.7447775,31.9514952 68.8014996,31.0211231 67.8463497,30.1782467 C67.643745,29.9994573 67.3400989,30.0252846 67.1681371,30.2359334 C66.9961753,30.4465823 67.0210163,30.7622844 67.2236209,30.9410737 Z M70.9417002,35.8980718 C71.8495473,36.8723413 72.7849181,37.8037656 73.7478032,38.69232 C73.9467803,38.8759369 74.2551649,38.8615448 74.4365995,38.6601745 C74.6180341,38.4588041 74.6038132,38.1467103 74.4048361,37.9630934 C73.4601326,37.0913171 72.5422372,36.1772944 71.6511403,35.2210007 C71.4663944,35.0227379 71.1578147,35.0135817 70.9619082,35.2005497 C70.7660017,35.3875177 70.7569543,35.699809 70.9417002,35.8980718 Z M75.9860946,40.7461113 C76.9272308,41.3696662 77.894254,41.9591286 78.8871429,42.5144825 C79.0909297,42.6284669 79.3645245,42.5800387 79.498234,42.4063151 C79.6319436,42.2325915 79.5751348,41.9993582 79.371348,41.8853738 C78.3981652,41.3410421 77.4503034,40.7632599 76.5277415,40.1520114 C76.3352951,40.024505 76.0580347,40.0541344 75.908463,40.2181905 C75.7588914,40.3822467 75.7936483,40.6186049 75.9860946,40.7461113 Z M82.2871897,43.4218698 C83.2516341,44.0016734 84.2397596,44.5410487 85.251542,45.0399895 C85.4579959,45.1417982 85.7004325,45.0403366 85.7930393,44.8133687 C85.8856462,44.5864008 85.793355,44.3198747 85.5869012,44.218066 C84.5947058,43.7287841 83.6258575,43.1999314 82.6803322,42.6315016 C82.4818046,42.512151 82.2328582,42.5923281 82.1242949,42.8105823 C82.0157316,43.0288365 82.0886621,43.3025192 82.2871897,43.4218698 Z M88.5905032,46.8789641 C89.5696796,47.1339949 90.5700586,47.3651229 91.5916223,47.5723515 C91.7991549,47.6144503 92.0145958,47.5269401 92.072823,47.3768918 C92.1310502,47.2268436 92.0100143,47.0710776 91.8024817,47.0289787 C90.7989266,46.8254033 89.8164548,46.5984126 88.8550482,46.34801 C88.6522587,46.2951925 88.4286449,46.3712337 88.3555928,46.5178526 C88.2825407,46.6644715 88.3877137,46.8261467 88.5905032,46.8789641 Z M94.893376,48.3151238 C95.8807285,48.5154997 96.8868155,48.6873836 97.911628,48.8307837 C98.1194046,48.8598575 98.3120543,48.7194744 98.3419233,48.5172294 C98.3717922,48.3149844 98.2275696,48.1274635 98.0197931,48.0983897 C97.0106226,47.9571784 96.0202039,47.7879713 95.048528,47.5907768 C94.8430344,47.5490734 94.6417169,47.6774167 94.5988729,47.8774395 C94.5560288,48.0774624 94.6878824,48.2734203 94.893376,48.3151238 Z" id="路径-24" opacity="0.300000012" transform="translate(62.672920, 26.930171) scale(-1, 1) rotate(-5.000000) translate(-62.672920, -26.930171) "></path>
            <path d="M88.9189333,15.2887828 C87.7183495,17.0671017 86.8356621,18.1357866 86.2708713,18.4948375 C84.6666606,19.5146722 83.2198624,19.7436751 82.2390575,19.7436751 C79.9909033,19.7436751 84.6243483,19.2163833 86.2708713,17.4303255 C87.3685533,16.2396203 88.6676638,14.4380941 90.1682028,12.0257469 L88.9189333,12.0257469 L87.5387205,13.7105768 C87.1074507,13.1796158 86.5497369,12.9141353 85.8655793,12.9141353 C84.8393429,12.9141353 82.1886267,13.3518543 81.173374,16.1715594 C80.4965389,18.0513628 79.1054143,19.7061193 77,21.1358289 C80.0419706,22.6449668 82.9971637,22.6449668 85.8655793,21.1358289 C88.733995,19.626691 89.7517796,17.6776756 88.9189333,15.2887828 Z" id="路径-14" opacity="0.400000006"></path>
            <path d="M97.6216296,42.8903388 C96.9546386,43.9065211 96.4642567,44.5171982 96.150484,44.7223701 C95.2592559,45.3051328 94.4554791,45.4359916 93.9105875,45.4359916 C92.661613,45.4359916 95.235749,45.134682 96.150484,44.1140775 C96.7603074,43.4336745 97.4820354,42.404231 98.3156682,41.0257469 L97.6216296,41.0257469 L96.8548447,41.9885068 C96.6152504,41.6851005 96.3054094,41.5333974 95.9253218,41.5333974 C95.3551905,41.5333974 93.8825704,41.7835226 93.3185411,43.3947826 C92.9425216,44.468956 92.1696746,45.4145311 91,46.231508 C92.6899837,47.0938726 94.3317576,47.0938726 95.9253218,46.231508 C97.5188861,45.3691435 98.084322,44.2554204 97.6216296,42.8903388 Z" id="路径-14备份" opacity="0.400000006" transform="translate(94.657834, 43.952014) rotate(-62.000000) translate(-94.657834, -43.952014) "></path>
            <path d="M23.9459555,47.3564868 C23.1455663,48.6267146 22.5571081,49.390061 22.1805809,49.6465259 C21.1111071,50.3749793 20.1465749,50.5385527 19.492705,50.5385527 C17.9939355,50.5385527 21.0828988,50.1619158 22.1805809,48.8861602 C22.9123689,48.0356564 23.7784425,46.748852 24.7788018,45.0257469 L23.9459555,45.0257469 L23.0258137,46.2291968 C22.7383004,45.8499389 22.3664913,45.66031 21.9103862,45.66031 C21.2262286,45.66031 19.4590844,45.9729665 18.7822494,47.9870415 C18.331026,49.3297582 17.4036095,50.5117272 16,51.5329483 C18.0279804,52.610904 19.9981091,52.610904 21.9103862,51.5329483 C23.8226633,50.4549927 24.5011864,49.0628388 23.9459555,47.3564868 Z" id="路径-14备份-2" opacity="0.600000024" transform="translate(20.389401, 48.683581) rotate(80.000000) translate(-20.389401, -48.683581) "></path>
        </g>
    </g>
</svg>