<?xml version="1.0" encoding="UTF-8"?>
<svg width="64px" height="64px" viewBox="0 0 64 64" version="1.1" xmlns="http://www.w3.org/2000/svg" xmlns:xlink="http://www.w3.org/1999/xlink">
    <title>ic_fail_notice</title>
    <g id="页面-1" stroke="none" stroke-width="1" fill="none" fill-rule="evenodd">
        <g id="兼容性测评-未通过" transform="translate(-148.000000, -112.000000)" fill="#E84026">
            <g id="ic_fail_notice" transform="translate(148.000000, 112.000000)">
                <g id="clone-cancel" transform="translate(3.000000, 3.000000)">
                    <path d="M29,0 C45.0162577,0 58,12.9837423 58,29 C58,45.0162577 45.0162577,58 29,58 C12.9837423,58 0,45.0162577 0,29 C0,12.9837423 12.9837423,0 29,0 Z M28.275,39.7387471 C26.2730938,39.7387471 24.65,41.2300351 24.65,43.0693735 C24.65,44.908712 26.2730938,46.4 28.275,46.4 C30.2769063,46.4 31.9,44.908712 31.9,43.0693735 C31.9,41.2300351 30.2769063,39.7387471 28.275,39.7387471 Z M31.9,17.7566125 L31.898,17.755 L31.8946362,17.6478843 C31.7949415,15.9539165 30.3175808,14.5965271 28.4738936,14.5049282 L28.275,14.5 C26.2999533,14.5 24.693821,15.951244 24.65,17.7566125 L24.65,17.7566125 L24.65,17.8306265 C24.65,18.0678284 24.6769879,18.299239 24.7282963,18.5224073 L24.7282963,18.5224073 L26.4625,35.4809412 C26.4625,36.4006683 27.2739839,37.1462544 28.275,37.1462544 C29.2760161,37.1462544 30.0875,36.4006683 30.0875,35.4809412 L30.0875,35.4809412 L31.8237371,18.5135026 C31.8737249,18.2930852 31.9,18.0646751 31.9,17.8306265 L31.9,17.8306265 L31.898,17.778 L31.898,17.776 L31.897,17.756 L31.898,17.755 L31.898,17.776 L31.9,17.7566125 Z" id="形状结合"></path>
                </g>
            </g>
        </g>
    </g>
</svg>