<?xml version="1.0" encoding="UTF-8"?>
<svg width="60px" height="60px" viewBox="0 0 60 60" version="1.1" xmlns="http://www.w3.org/2000/svg" xmlns:xlink="http://www.w3.org/1999/xlink">
    <title>编组备份</title>
    <defs>
        <filter color-interpolation-filters="auto" id="filter-1">
            <feColorMatrix in="SourceGraphic" type="matrix" values="0 0 0 0 0.858824 0 0 0 0 0.419608 0 0 0 0 0.258824 0 0 0 1.000000 0"></feColorMatrix>
        </filter>
    </defs>
    <g id="页面-1" stroke="none" stroke-width="1" fill="none" fill-rule="evenodd">
        <g filter="url(#filter-1)" id="编组备份">
            <g>
                <path d="M30,0 C46.5685424,0 60,13.4314575 60,30 C60,46.5685424 46.5685424,60 30,60 C13.4314575,60 0,46.5685424 0,30 C0,13.4314575 13.4314575,0 30,0 Z M30,42.2727273 C28.4938636,42.2727273 27.2727273,43.4938636 27.2727273,45 C27.2727273,46.5061364 28.4938636,47.7272727 30,47.7272727 C31.5061364,47.7272727 32.7272727,46.5061364 32.7272727,45 C32.7272727,43.4938636 31.5061364,42.2727273 30,42.2727273 Z M31.8897815,13.8172916 C25.9014172,12.669871 20.4545455,17.1508997 20.4545455,23.0861914 C20.4545455,24.2158648 21.3703267,25.1316461 22.5,25.1316461 C23.6296733,25.1316461 24.5454545,24.2158648 24.5454545,23.0861914 C24.5454545,19.7235606 27.6492829,17.1701051 31.1193987,17.8350082 C33.2277485,18.2395682 34.9405871,19.9305083 35.3466098,21.9952869 C35.8518305,24.5632105 34.5106263,27.0007786 32.1800806,28.0003653 C29.5912407,29.1105082 27.954936,31.7198703 27.954936,34.5591442 L27.954936,34.5591442 L27.954936,36.1363636 C27.954936,37.2660371 28.8707171,38.1818182 30.0003905,38.1818182 C31.1300637,38.1818182 32.0458451,37.2660371 32.0458451,36.1363636 L32.0458451,36.1363636 L32.0458451,34.5591442 C32.0458451,33.3207788 32.7420554,32.2105549 33.7924936,31.7601074 C37.8697328,30.0113523 40.2440588,25.6961397 39.360609,21.205763 C38.6314947,17.4979419 35.6302025,14.5350207 31.8897815,13.8172916 Z" id="path-1" fill="#000000" fill-rule="nonzero"></path>
            </g>
        </g>
    </g>
</svg>