<?xml version="1.0" encoding="UTF-8"?>
<svg width="64px" height="64px" viewBox="0 0 64 64" version="1.1" xmlns="http://www.w3.org/2000/svg" xmlns:xlink="http://www.w3.org/1999/xlink">
    <title>public/ic_todo_filled1备份</title>
    <defs>
        <path d="M29.3333333,0 C45.533686,0 58.6666667,13.1329807 58.6666667,29.3333333 C58.6666667,45.533686 45.533686,58.6666667 29.3333333,58.6666667 C13.1329807,58.6666667 0,45.533686 0,29.3333333 C0,13.1329807 13.1329807,0 29.3333333,0 Z M45.8324916,20.5857864 C45.051443,19.8047379 43.785113,19.8047379 43.0040644,20.5857864 L43.0040644,20.5857864 L28.0808802,35.5089706 L27.9953837,35.5896657 C27.2099985,36.289023 26.0056071,36.2621246 25.2524531,35.5089706 L25.2524531,35.5089706 L16.9959356,27.2524531 L16.9104391,27.171758 C16.1250538,26.4724008 14.9206624,26.4992991 14.1675084,27.2524531 C13.7975381,27.6224235 13.6028168,28.1012797 13.5833447,28.5858668 L13.5833447,28.5858668 L13.5833447,28.7474666 L13.5963261,28.9086418 C13.6482518,29.3371218 13.8386459,29.7520177 14.1675084,30.0808802 L14.1675084,30.0808802 L23.366835,39.2802068 L23.4821918,39.3917368 C25.3119057,41.1018625 28.1820193,41.0646859 29.9664983,39.2802068 L29.9664983,39.2802068 L45.8324916,23.4142136 L45.9131866,23.3287171 C46.6125439,22.5433318 46.5856456,21.3389404 45.8324916,20.5857864 Z" id="path-1"></path>
    </defs>
    <g id="页面-1" stroke="none" stroke-width="1" fill="none" fill-rule="evenodd">
        <g id="public/ic_todo_filled">
            <g id="symbol/frame/symbol_grid24"></g>
            <g id="编组-2" transform="translate(2.666667, 2.666667)">
                <mask id="mask-2" fill="white">
                    <use xlink:href="#path-1"></use>
                </mask>
                <use id="形状结合" fill="#5BA854" fill-rule="nonzero" xlink:href="#path-1"></use>
                <rect id="color/#000000" fill="#47CC47" mask="url(#mask-2)" x="-2.66666667" y="-2.66666667" width="64" height="64"></rect>
            </g>
        </g>
    </g>
</svg>