<?xml version="1.0" encoding="UTF-8"?>
<svg width="32px" height="32px" viewBox="0 0 32 32" version="1.1" xmlns="http://www.w3.org/2000/svg" xmlns:xlink="http://www.w3.org/1999/xlink">
    <title>WLAN_icon备份 13</title>
    <defs>
        <path d="M10.4128355,8.30022 L10.4038848,4.19999571 C10.4017133,3.20525055 9.59470301,2.4 8.59995549,2.4 C7.60584294,2.4 6.79995549,3.20588745 6.79995549,4.2 L6.79995549,10.806991 C6.79995549,11.0279049 6.62086939,11.206991 6.39995549,11.206991 C6.34860455,11.206991 6.29773396,11.1971033 6.25012174,11.1778681 L4.59603549,10.50962 L4.59603549,10.50962 C4.39603549,10.43742 4.18923549,10.40262 3.98423549,10.40262 C3.48463549,10.40262 2.99683549,10.61022 2.64863549,10.99362 C2.18403549,11.50522 2.37023549,12.28122 2.81603549,12.80942 L6.14103549,16.74702 C6.59783549,17.28782 7.07023549,17.60002 7.77863549,17.60002 L12.6608355,17.60002 C13.8168355,17.60002 14.8090355,16.77822 15.0228355,15.64382 L15.8812355,11.08722 C16.0400355,10.24462 15.5054355,9.42662 14.6686355,9.23282 C12.0216355,8.61982 10.4696355,8.30882 10.4128355,8.30022 Z" id="path-1"></path>
    </defs>
    <g id="主页面" stroke="none" stroke-width="1" fill="none" fill-rule="evenodd">
        <g id="Settings_Full" transform="translate(-24.000000, -1420.000000)">
            <g id="编组-6" transform="translate(0.000000, 200.000000)">
                <g id="编组-4备份" transform="translate(0.000000, 1092.000000)">
                    <g id="首页列表" transform="translate(0.000000, 116.000000)">
                        <g id="WLAN_icon备份-13" transform="translate(24.000000, 12.000000)">
                            <circle id="椭圆形" fill="#F9A01E" cx="16" cy="16" r="16"></circle>
                            <rect id="矩形" x="6.4" y="6.4" width="19.2" height="19.2"></rect>
                            <g id="编组" transform="translate(7.200045, 7.200000)">
                                <mask id="mask-2" fill="white">
                                    <use xlink:href="#path-1"></use>
                                </mask>
                                <use id="形状结合" fill="#FFFFFF" xlink:href="#path-1"></use>
                                <path d="M2.13759549,13.92812 C1.46079549,13.39752 1.10599549,12.54572 1.22439549,11.67492 C1.34239549,10.80492 1.91019549,10.08172 2.70199549,9.75432 C3.00859549,9.62772 3.15439549,9.27672 3.02739549,8.97052 C2.90039549,8.66452 2.54919549,8.51892 2.24239549,8.64572 C1.05859549,9.13472 0.209395487,10.21632 0.0333954868,11.51392 C-0.142604513,12.81052 0.386595487,14.08112 1.39559549,14.87192 C1.65659549,15.07652 2.03419549,15.03132 2.23919549,14.77052 C2.44419549,14.50972 2.39879549,14.13252 2.13759549,13.92812" id="Fill-3" fill="#FFFFFF" opacity="0.6"></path>
                                <path d="M8.59995549,0 C10.9195514,0 12.7999555,1.88040405 12.7999555,4.2 C12.7999555,4.53137085 12.5313263,4.8 12.1999555,4.8 C11.8685846,4.8 11.5999555,4.53137085 11.5999555,4.2 C11.5999555,2.54314575 10.2568097,1.2 8.59995549,1.2 C6.94310124,1.2 5.59995549,2.54314575 5.59995549,4.2 C5.59995549,4.53137085 5.33132634,4.8 4.99995549,4.8 C4.66858464,4.8 4.39995549,4.53137085 4.39995549,4.2 C4.39995549,1.88040405 6.28035954,0 8.59995549,0 Z" id="路径" fill="#FFFFFF" fill-rule="nonzero" opacity="0.6"></path>
                            </g>
                        </g>
                    </g>
                </g>
            </g>
        </g>
    </g>
</svg>