<?xml version="1.0" encoding="UTF-8"?>
<svg width="24px" height="24px" viewBox="0 0 24 24" version="1.1" xmlns="http://www.w3.org/2000/svg" xmlns:xlink="http://www.w3.org/1999/xlink">
    <title>用户和账户</title>
    <defs>
        <path d="M1.05718954,16.0277778 C1.70884479,14.7035785 3.40205649,10.75 10,10.75 C16.5979435,10.75 18.3199937,14.7035785 18.9428105,16.0277778 C19.1789117,16.5297635 19.3408126,17.2013755 19.4285132,18.0426138 C19.5430527,19.1412322 18.7452933,20.1246863 17.6466742,20.2392193 C17.5777807,20.2464016 17.5085606,20.25 17.4392938,20.25 L2.54657564,20.25 C1.4419985,20.2500138 0.546561813,19.3545771 0.546561813,18.25 C0.546561813,18.1821712 0.550012343,18.1143864 0.556900026,18.0469083 C0.642972642,17.2036609 0.809735814,16.5306174 1.05718954,16.0277778 Z M10,0.25 C7.37664744,0.25 5.25,2.37664744 5.25,5 C5.25,7.62335256 7.37664744,9.75 10,9.75 C12.6233526,9.75 14.75,7.62335256 14.75,5 C14.75,2.37664744 12.6233526,0.25 10,0.25 Z" id="path-1"></path>
    </defs>
    <g id="用户和账户" stroke="none" stroke-width="1" fill="none" fill-rule="evenodd">
        <g id="Public/ic_public_contacts_filled" transform="translate(2.000000, 2.000000)">
            <mask id="mask-2" fill="white">
                <use xlink:href="#path-1"></use>
            </mask>
            <use id="椭圆形" fill="#FA2A2D" fill-rule="nonzero" xlink:href="#path-1"></use>
        </g>
    </g>
</svg>