<?xml version="1.0" encoding="UTF-8"?>
<svg width="40px"
     height="40px"
     viewBox="0 0 96 96"
     version="1.1"
     xmlns="http://www.w3.org/2000/svg"
     xmlns:xlink="http://www.w3.org/1999/xlink">
    <title>ic_wifi_lock_signal_2_dark</title>
    <g
        id="ic_wifi_lock_signal_2_dark"
        stroke="none"
        stroke-width="1"
        fill="none"
        fill-rule="evenodd">
        <path
            d="M69.1,54.9 C64.6,50 58.2,46.9 51,46.9 C43.8,46.9 37.4,50 32.9,54.9 L32.9,54.9 C32.3,55.4 32,56.2 32,57 C32,58.7 33.3,60 35,60 C35.8,60 36.6,59.7 37.1,59.1 L37.1,59.1 C40.6,55.4 45.5,53 51,53 C56.5,53 61.4,55.4 64.8,59.2 L64.8,59.2 C65.3,59.7 66.1,60.1 66.9,60.1 C68.6,60.1 69.9,58.8 69.9,57.1 C69.9,56.2 69.6,55.5 69.1,54.9 L69.1,54.9 Z"
            id="Path"
            fill="#000000"
            fill-rule="nonzero"></path>
        <path
            d="M79.7,44.3 C72.5,36.7 62.3,32 51,32 C39.7,32 29.5,36.7 22.3,44.4 L22.3,44.4 C21.8,44.9 21.5,45.7 21.5,46.5 C21.5,48.2 22.8,49.5 24.5,49.5 C25.4,49.5 26.1,49.1 26.7,48.5 C32.8,42 41.4,38 51,38 C60.6,38 69.2,42 75.3,48.5 L75.3,48.5 C75.3,48.5 75.3,48.5 75.4,48.6 L75.4,48.6 C75.9,49.1 76.6,49.4 77.4,49.4 C79.1,49.4 80.4,48.1 80.4,46.4 C80.5,45.6 80.2,44.9 79.7,44.3 L79.7,44.3 Z"
            id="Path"
            fill="#000000"
            fill-rule="nonzero"
            opacity="0.25"></path>
        <path
            d="M90.1,33.9 L90.1,33.9 C80.3,23.5 66.4,17 51,17 C35.6,17 21.7,23.5 11.8,33.9 L11.8,33.9 C11.3,34.4 11,35.1 11,35.9 C11,37.6 12.3,38.9 14,38.9 C14.8,38.9 15.5,38.6 16.1,38.1 L16.1,38.1 L16.1,38.1 L16.2,38 C24.9,28.8 37.3,23 51,23 C64.7,23 77.1,28.8 85.9,38 C86.4,38.6 87.2,38.9 88.1,38.9 C89.8,38.9 91.1,37.6 91.1,35.9 C91,35.2 90.7,34.4 90.1,33.9"
            id="Path"
            fill="#000000"
            fill-rule="nonzero"
            opacity="0.25"></path>
        <path
            d="M51,64 C46.9,64 43.5,67.4 43.5,71.5 C43.5,75.6 46.9,79 51,79 C55.1,79 58.5,75.6 58.5,71.5 C58.5,67.4 55.1,64 51,64"
            id="Path"
            fill="#000000"
            fill-rule="nonzero"></path>
        <path
            d="M93.1,61.5 L93.1,61.5 L93,59.5 C93,54.8 89.2,51 84.5,51 C79.8,51 76,54.8 76,59.5 L76,61.5 L75.9,61.5 C74.3,61.5 73,62.8 73,64.4 L73,77.1 C73,78.7 74.3,80 75.9,80 L93.1,80 C94.7,80 96,78.7 96,77.1 L96,64.4 C96,62.8 94.7,61.5 93.1,61.5 Z M80,59.5 C80,57 82,55 84.5,55 C87,55 89,57 89,59.5 L89,61.5 L80,61.5 L80,59.5 Z"
            id="Shape"
            fill="#000000"
            fill-rule="nonzero"></path>
    </g>
</svg>